<svg width="49" height="48" viewBox="0 0 49 48" fill="none" xmlns="http://www.w3.org/2000/svg">
<rect x="1.5" y="1" width="46" height="46" rx="9" stroke="#FEFEFE" stroke-width="2"/>
<g clip-path="url(#clip0_5187_875)">
<path d="M34.5 37.9997H21.83L25.5 34.3697L15.6 24.4697L10.04 29.9997C9.86827 30.1699 9.73195 30.3724 9.63891 30.5955C9.54588 30.8186 9.49798 31.058 9.49798 31.2997C9.49798 31.5415 9.54588 31.7808 9.63891 32.004C9.73195 32.2271 9.86827 32.4296 10.04 32.5997L15.5 37.9997H9.5C9.23478 37.9997 8.98043 38.1051 8.79289 38.2926C8.60536 38.4802 8.5 38.7345 8.5 38.9997C8.5 39.2649 8.60536 39.5193 8.79289 39.7068C8.98043 39.8944 9.23478 39.9997 9.5 39.9997H34.5C34.7652 39.9997 35.0196 39.8944 35.2071 39.7068C35.3946 39.5193 35.5 39.2649 35.5 38.9997C35.5 38.7345 35.3946 38.4802 35.2071 38.2926C35.0196 38.1051 34.7652 37.9997 34.5 37.9997Z" fill="#FEFEFE"/>
<path d="M40.5807 16.6496L33.2807 9.34963C33.1106 9.1779 32.9081 9.04158 32.6849 8.94855C32.4618 8.85552 32.2225 8.80762 31.9807 8.80762C31.739 8.80762 31.4996 8.85552 31.2765 8.94855C31.0533 9.04158 30.8509 9.1779 30.6807 9.34963L16.9707 23.0596L26.8707 32.9596L40.5807 19.2496C40.9227 18.9034 41.1145 18.4363 41.1145 17.9496C41.1145 17.463 40.9227 16.9959 40.5807 16.6496Z" fill="#FEFEFE"/>
</g>
<defs>
<clipPath id="clip0_5187_875">
<rect width="36" height="36" fill="white" transform="translate(6.5 6)"/>
</clipPath>
</defs>
</svg>
