<svg width="44" height="44" viewBox="0 0 44 44" fill="none" xmlns="http://www.w3.org/2000/svg">
<path fill-rule="evenodd" clip-rule="evenodd" d="M15.6778 17H28.3441C32.6358 17.0714 36.0601 20.7021 35.9992 25.1134V29.8864C36.0601 34.2977 32.6358 37.9282 28.3441 37.9996L28.3222 38L15.6559 37.9998C11.3642 37.9284 7.93987 34.2976 8.0008 29.8863V25.1135C7.93987 20.7022 11.3642 17.0716 15.6559 17.0002L15.6778 17ZM15.6894 19.7859C12.8944 19.8381 10.6666 22.2063 10.7102 25.0814L10.7105 25.1031L10.7103 29.9184C10.6667 32.7935 12.8944 35.1617 15.6894 35.214H28.3106C31.1056 35.1617 33.3334 32.7935 33.2898 29.9184L33.2895 29.8967L33.2897 25.0814C33.3333 22.2063 31.1056 19.8381 28.3106 19.7859H15.6894Z" fill="#141515"/>
<path fill-rule="evenodd" clip-rule="evenodd" d="M14.3673 6C15.1073 6 15.7072 6.60428 15.7072 7.3497C15.7072 7.57056 15.7 7.80137 15.6934 8.01194C15.6925 8.04092 15.6916 8.06952 15.6907 8.09766C15.6833 8.3406 15.6777 8.56326 15.6808 8.77872C15.6872 9.22189 15.7313 9.5351 15.8141 9.75865C15.8833 9.94514 15.9748 10.0626 16.1391 10.1588C16.3333 10.2724 16.7287 10.411 17.495 10.4126C18.3478 10.3955 19.1995 10.4853 20.0304 10.6798L20.0629 10.6878C22.0457 11.205 22.6358 12.9792 22.8136 14.3711C22.9384 15.348 22.9036 16.5206 22.8748 17.4914C22.8638 17.8628 22.8536 18.2046 22.8536 18.4946C22.8536 19.24 22.2537 19.8443 21.5137 19.8443C20.7736 19.8443 20.1737 19.24 20.1737 18.4946C20.1737 18.0239 20.1875 17.5748 20.2008 17.1437C20.2277 16.2717 20.2524 15.4728 20.1556 14.7156C20.0183 13.6407 19.7216 13.3919 19.4047 13.3047C18.7924 13.163 18.1649 13.0982 17.5367 13.1117L17.5081 13.112C16.4446 13.112 15.5316 12.925 14.7932 12.493C14.0239 12.043 13.5601 11.3948 13.3036 10.7031C13.0609 10.0484 13.0091 9.37093 13.0012 8.81803C12.9971 8.53544 13.0046 8.25872 13.0121 8.0143C13.013 7.98427 13.0139 7.95484 13.0148 7.92596C13.0216 7.70989 13.0273 7.52492 13.0273 7.3497C13.0273 6.60428 13.6272 6 14.3673 6ZM17.0472 22.7201C17.7872 22.7201 18.3871 23.3243 18.3871 24.0698V25.5076H19.7271C20.4671 25.5076 21.067 26.1119 21.067 26.8573C21.067 27.6027 20.4671 28.207 19.7271 28.207H18.3871V29.6431C18.3871 30.3885 17.7872 30.9928 17.0472 30.9928C16.3071 30.9928 15.7072 30.3885 15.7072 29.6431V28.207H14.3673C13.6272 28.207 13.0273 27.6027 13.0273 26.8573C13.0273 26.1119 13.6272 25.5076 14.3673 25.5076H15.7072V24.0698C15.7072 23.3243 16.3071 22.7201 17.0472 22.7201ZM27.8059 23.1023C28.3374 23.621 28.3507 24.4755 27.8357 25.0108L26.0491 26.868C25.5342 27.4033 24.6859 27.4167 24.1544 26.898C23.6229 26.3793 23.6096 25.5248 24.1246 24.9895L25.9112 23.1323C26.4261 22.597 27.2744 22.5835 27.8059 23.1023ZM29.5925 26.8238C30.124 27.3426 30.1373 28.197 29.6223 28.7324L27.8357 30.5895C27.3208 31.1249 26.4725 31.1383 25.941 30.6196C25.4095 30.1009 25.3962 29.2464 25.9112 28.7111L27.6978 26.8539C28.2127 26.3186 29.061 26.3051 29.5925 26.8238Z" fill="#141515"/>
</svg>
