<svg width="27" height="28" viewBox="0 0 27 28" fill="none" xmlns="http://www.w3.org/2000/svg">
<g filter="url(#filter0_d_2651_3341)">
<rect width="24" height="24" rx="4" transform="matrix(-1 0 0 1 27 0)" fill="#DADADA" shape-rendering="crispEdges"/>
<path d="M10.9997 20.7498C11.1987 20.7508 11.3898 20.6715 11.5297 20.5298L19.5297 12.5298C19.8221 12.237 19.8221 11.7627 19.5297 11.4698L11.5297 3.46985C11.2342 3.19449 10.7737 3.20261 10.4881 3.48823C10.2024 3.77384 10.1943 4.23434 10.4697 4.52985L17.9397 11.9998L10.4697 19.4698C10.1772 19.7627 10.1772 20.237 10.4697 20.5298C10.6096 20.6715 10.8006 20.7508 10.9997 20.7498Z" fill="#141515"/>
</g>
<defs>
<filter id="filter0_d_2651_3341" x="0" y="0" width="27" height="28" filterUnits="userSpaceOnUse" color-interpolation-filters="sRGB">
<feFlood flood-opacity="0" result="BackgroundImageFix"/>
<feColorMatrix in="SourceAlpha" type="matrix" values="0 0 0 0 0 0 0 0 0 0 0 0 0 0 0 0 0 0 127 0" result="hardAlpha"/>
<feOffset dx="-3" dy="4"/>
<feComposite in2="hardAlpha" operator="out"/>
<feColorMatrix type="matrix" values="0 0 0 0 0 0 0 0 0 0 0 0 0 0 0 0 0 0 1 0"/>
<feBlend mode="normal" in2="BackgroundImageFix" result="effect1_dropShadow_2651_3341"/>
<feBlend mode="normal" in="SourceGraphic" in2="effect1_dropShadow_2651_3341" result="shape"/>
</filter>
</defs>
</svg>
