<svg xmlns="http://www.w3.org/2000/svg" width="48" height="48" viewBox="0 0 48 48" fill="none">
<path d="M31.5802 16.3H21.7602C21.0091 16.3 20.4002 15.6911 20.4002 14.94C20.4002 14.1889 21.0091 13.58 21.7602 13.58H31.5802C32.3313 13.58 32.9402 14.1889 32.9402 14.94C32.9402 15.6911 32.3313 16.3 31.5802 16.3Z" fill="#141515"/>
<path d="M21.8202 25.32H28.8202C29.5713 25.32 30.1802 25.9289 30.1802 26.68C30.1802 27.4311 29.5713 28.04 28.8202 28.04H21.8202C21.0691 28.04 20.4602 27.4311 20.4602 26.68C20.4602 25.9289 21.0691 25.32 21.8202 25.32Z" fill="#141515"/>
<path d="M34.3802 19.44H21.7602C21.2312 19.376 20.7127 19.6222 20.4279 20.0726C20.1432 20.523 20.1432 21.097 20.4279 21.5474C20.7127 21.9978 21.2312 22.244 21.7602 22.18H34.3802C35.0732 22.0961 35.5944 21.508 35.5944 20.81C35.5944 20.112 35.0732 19.5239 34.3802 19.44Z" fill="#141515"/>
<path fill-rule="evenodd" clip-rule="evenodd" d="M23.9802 4H32.1402C37.3869 4 41.6402 8.25329 41.6402 13.5V28.14C41.677 32.1194 39.2246 35.6981 35.5002 37.1C35.1169 41.227 31.6449 44.3778 27.5002 44.36H17.5002C12.2535 44.36 8.00021 40.1067 8.00021 34.86V18.42C7.97082 14.351 11.0005 10.9082 15.0402 10.42C16.3508 6.59588 19.9378 4.01996 23.9802 4ZM17.4202 41.28H27.4202C29.6559 41.2816 31.6186 39.7932 32.2202 37.64H23.9802C18.7335 37.64 14.4802 33.3867 14.4802 28.14V13.58C12.3729 14.2069 10.9261 16.1415 10.9202 18.34V34.78C10.9202 38.3699 13.8304 41.28 17.4202 41.28ZM38.6402 28.14C38.6402 31.7299 35.7301 34.64 32.1402 34.64H23.9802C20.3949 34.629 17.4912 31.7253 17.4802 28.14V13.5C17.4912 9.91471 20.3949 7.01098 23.9802 7H32.1402C35.7301 7 38.6402 9.91015 38.6402 13.5V28.14Z" fill="#141515"/>
</svg>