<svg width="163" height="48" viewBox="0 0 163 48" fill="none" xmlns="http://www.w3.org/2000/svg">
<path d="M105.329 5.59473H61.4043V47.2641H105.329V5.59473Z" fill="#141515"/>
<path d="M48.4166 5.59473H4.49219V47.2641H48.4166V5.59473Z" fill="#141515"/>
<path d="M162.243 5.59473H118.318V47.2641H162.243V5.59473Z" fill="#141515"/>
<path d="M101.061 0.632812H57.1367V42.3021H101.061V0.632812Z" fill="#DADADA"/>
<path d="M91.6295 32.1133H66.5879V35.8552H91.6295V32.1133Z" fill="#141515"/>
<path d="M44.1491 0.632812H0.224609V42.3021H44.1491V0.632812Z" fill="#DADADA"/>
<path d="M0.224609 0.632812V42.3021H3.82235V3.76462H44.1491V0.632812H0.224609Z" fill="#5B5B5B"/>
<path d="M22.1971 35.9981C14.1887 35.9981 7.66406 29.4701 7.66406 21.4575C7.66406 13.445 14.1887 6.91699 22.1971 6.91699C30.2056 6.91699 36.7302 13.445 36.7302 21.4575C36.7302 29.4701 30.2056 35.9981 22.1971 35.9981ZM22.1971 10.6589C16.2416 10.6589 11.404 15.499 11.404 21.4575C11.404 27.4161 16.2416 32.2562 22.1971 32.2562C28.1527 32.2562 32.9902 27.4161 32.9902 21.4575C32.9902 15.5193 28.1323 10.6589 22.1971 10.6589Z" fill="#141515"/>
<path d="M157.975 0.632812H114.051V42.3021H157.975V0.632812Z" fill="#FF730D"/>
<path d="M124.868 7.57774L122.223 10.2236L147.26 35.2769L149.904 32.631L124.868 7.57774Z" fill="#141515"/>
<path d="M147.219 7.62698L122.182 32.6768L124.826 35.3227L149.863 10.2729L147.219 7.62698Z" fill="#141515"/>
<path d="M57.1367 0.632812V42.3021H60.7345V3.76462H101.061V0.632812H57.1367Z" fill="#5B5B5B"/>
<path d="M114.051 0.632812V42.3021H117.649V3.76462H157.975V0.632812H114.051Z" fill="#5B5B5B"/>
</svg>
