<svg width="48" height="48" viewBox="0 0 48 48" fill="none" xmlns="http://www.w3.org/2000/svg">
<path fill-rule="evenodd" clip-rule="evenodd" d="M22.66 18.32L40.96 24.12C42.2509 24.5055 43.198 25.6091 43.3831 26.9435C43.5682 28.278 42.9573 29.5977 41.82 30.32L35.44 34.32C35.0177 34.5818 34.6618 34.9377 34.4 35.36L30.4 41.74C29.7979 42.7178 28.7283 43.3095 27.58 43.3C26.0464 43.3107 24.6844 42.3217 24.22 40.86L18.42 22.56C18.041 21.3579 18.3623 20.0448 19.2535 19.1535C20.1448 18.2623 21.4579 17.941 22.66 18.32ZM33.74 31.56L40.12 27.56C40.1871 27.4969 40.1957 27.3933 40.14 27.32C40.12 27.18 39.98 27.18 39.98 27.18L21.68 21.38V21.5L27.48 39.8C27.5005 39.9247 27.6142 40.0122 27.74 40L31.74 33.56C32.2577 32.7594 32.9394 32.0777 33.74 31.56Z" fill="#141515"/>
<path d="M10.96 8.86C10.3906 8.35071 9.5294 8.35071 8.96 8.86C8.4682 9.43597 8.4682 10.284 8.96 10.86L12.96 15.06C13.2457 15.3343 13.624 15.4914 14.02 15.5C14.4168 15.4954 14.7966 15.3378 15.08 15.06C15.3996 14.7879 15.5887 14.3929 15.6001 13.9734C15.6116 13.5538 15.4443 13.1491 15.14 12.86L10.96 8.86Z" fill="#141515"/>
<path d="M19.5 12.86C19.8979 12.8495 20.2753 12.6814 20.5491 12.3925C20.8229 12.1037 20.9708 11.7179 20.96 11.32V5.5C20.96 4.67157 20.2884 4 19.46 4C18.6316 4 17.96 4.67157 17.96 5.5V11.32C17.9489 11.7317 18.1075 12.13 18.3988 12.4212C18.69 12.7125 19.0883 12.8711 19.5 12.86Z" fill="#141515"/>
<path d="M25.08 12.74C25.4781 12.7419 25.8602 12.5833 26.14 12.3L30.26 8.18C30.6613 7.80606 30.8265 7.24289 30.6908 6.71142C30.555 6.17996 30.14 5.76496 29.6086 5.62923C29.0771 5.4935 28.5139 5.65869 28.14 6.06L24.02 10.18C23.4351 10.7656 23.4351 11.7144 24.02 12.3C24.2998 12.5833 24.6819 12.7419 25.08 12.74Z" fill="#141515"/>
<path d="M10.28 23.92L6.16 28.04C5.5751 28.6256 5.5751 29.5744 6.16 30.16C6.43846 30.4452 6.82142 30.6042 7.22 30.6C7.61814 30.6019 8.00023 30.4433 8.28 30.16L12.4 26.04C12.8013 25.6661 12.9665 25.1029 12.8308 24.5714C12.695 24.04 12.28 23.625 11.7486 23.4892C11.2171 23.3535 10.6539 23.5187 10.28 23.92Z" fill="#141515"/>
<path d="M11.34 17.98H5.5C4.67157 17.98 4 18.6516 4 19.48C4 20.3084 4.67157 20.98 5.5 20.98H11.34C12.1684 20.98 12.84 20.3084 12.84 19.48C12.84 18.6516 12.1684 17.98 11.34 17.98Z" fill="#141515"/>
</svg>
