<svg width="48" height="48" viewBox="0 0 48 48" fill="none" xmlns="http://www.w3.org/2000/svg">
<path d="M48 13H46V25H48V13Z" fill="#141515"/>
<path d="M45 25H43V30H45V25Z" fill="#141515"/>
<path d="M45 11H43V13H45V11Z" fill="#141515"/>
<path d="M43 29H41V31H43V29Z" fill="#141515"/>
<path d="M43 15H41V20H43V15Z" fill="#141515"/>
<path d="M43 8H41V10H43V8Z" fill="#141515"/>
<path d="M41 13H39V15H41V13Z" fill="#141515"/>
<path d="M42 31H37V33H42V31Z" fill="#141515"/>
<path d="M39 11H34V13H39V11Z" fill="#141515"/>
<path d="M37 34H32V36H37V34Z" fill="#141515"/>
<path d="M41 6H30V8H41V6Z" fill="#141515"/>
<path d="M32 36H27V38H32V36Z" fill="#141515"/>
<path d="M29 8H27V10H29V8Z" fill="#141515"/>
<path d="M27 38H25V40H27V38Z" fill="#141515"/>
<path d="M27 11H25V13H27V11Z" fill="#141515"/>
<path d="M25 41H23V43H25V41Z" fill="#141515"/>
<path d="M25 13H23V15H25V13Z" fill="#141515"/>
<path d="M23 38H21V40H23V38Z" fill="#141515"/>
<path d="M23 11H21V13H23V11Z" fill="#141515"/>
<path d="M21 36H16V38H21V36Z" fill="#141515"/>
<path d="M20 8H18V10H20V8Z" fill="#141515"/>
<path d="M16 34H11V36H16V34Z" fill="#141515"/>
<path d="M12 31H7V33H12V31Z" fill="#141515"/>
<path d="M18 6H7V8H18V6Z" fill="#141515"/>
<path d="M7 29H5V31H7V29Z" fill="#141515"/>
<path d="M7 8H5V10H7V8Z" fill="#141515"/>
<path d="M4 25H2V30H4V25Z" fill="#141515"/>
<path d="M4 11H2V13H4V11Z" fill="#141515"/>
<path d="M2 13H0V25H2V13Z" fill="#141515"/>
</svg>
