<svg width="84" height="84" viewBox="0 0 84 84" fill="none" xmlns="http://www.w3.org/2000/svg">
<path d="M79 79H5V84H79V79Z" fill="#F7FEFF"/>
<path d="M79 5H5V79H79V5ZM10.2857 73.7143V10.2857H73.7143V73.7143H10.2857Z" fill="#231E2B"/>
<path d="M68.75 67.75V57.25H74V52H63.5V41.5H74V36.25H53V25.75H74V20.5H58.25V10H53V20.5H32V10H26.75V20.5H11V25.75H21.5V36.25H11V41.5H32V52H11V57.25H16.25V67.75H11V73H74V67.75H68.75ZM26.75 36.25V25.75H47.75V36.25H26.75ZM37.25 41.5H58.25V52H37.25V41.5ZM21.5 67.75V57.25H42.5V67.75H21.5ZM47.75 67.75V57.25H63.5V67.75H47.75Z" fill="#66151B"/>
<path d="M5 5H0V79H5V5Z" fill="#F7FEFF"/>
<path d="M74 63H68V68H74V63Z" fill="#892727"/>
<path d="M52.3333 63V58H47V68H63V63H52.3333Z" fill="#892727"/>
<path d="M26.25 63V58H21V68H42V63H26.25Z" fill="#892727"/>
<path d="M16 63H11V68H16V63Z" fill="#892727"/>
<path d="M74 58H68V63H74V58Z" fill="#B0392E"/>
<path d="M63 58H53V63H63V58Z" fill="#B0392E"/>
<path d="M42 58H26V63H42V58Z" fill="#B0392E"/>
<path d="M16 58H11V63H16V58Z" fill="#B0392E"/>
<path d="M58 52V47H42.25V42H37V52H58Z" fill="#892727"/>
<path d="M32 52V47H16.25V42H11V52H32Z" fill="#892727"/>
<path d="M74 42H68V47H74V42Z" fill="#B0392E"/>
<path d="M68.5 42H63V52H74V47H68.5V42Z" fill="#892727"/>
<path d="M58 42H42V47H58V42Z" fill="#B0392E"/>
<path d="M32 42H16V47H32V42Z" fill="#B0392E"/>
<path d="M58.25 31.5V26H53V37H74V31.5H58.25Z" fill="#892727"/>
<path d="M47 37V31.5H31.25V26H26V37H47Z" fill="#892727"/>
<path d="M21 31H11V37H21V31Z" fill="#892727"/>
<path d="M74 26H58V31H74V26Z" fill="#B0392E"/>
<path d="M47 26H32V31H47V26Z" fill="#B0392E"/>
<path d="M21 26H11V31H21V26Z" fill="#B0392E"/>
<path d="M58 21H74V15.5H63.3333V10H58V21Z" fill="#892727"/>
<path d="M32 21H53V15.5H37.25V10H32V21Z" fill="#892727"/>
<path d="M26 21V15.5H16V10H11V21H26Z" fill="#892727"/>
<path d="M74 10H63V16H74V10Z" fill="#B0392E"/>
<path d="M53 10H37V16H53V10Z" fill="#B0392E"/>
<path d="M26 10H16V16H26V10Z" fill="#B0392E"/>
<path d="M84 5H79V79H84V5Z" fill="#F7FEFF"/>
<path d="M79 0H5V5H79V0Z" fill="#F7FEFF"/>
</svg>
