<svg width="66" height="66" viewBox="0 0 66 66" fill="none" xmlns="http://www.w3.org/2000/svg">
<g clip-path="url(#clip0_2738_1141)">
<path d="M58.8539 37.7241L52.949 41.0096L54.1129 43.1013L61.9775 38.7254L56.1429 28.2393L54.1832 29.3297L58.8539 37.7241Z" fill="#141515"/>
<path d="M50.7946 18.6272L49.0469 19.5996L52.4504 25.7165L54.1981 24.7441L50.7946 18.6272Z" fill="#141515"/>
<path d="M46.4038 15.3466L48.3635 14.2562L43.9876 6.39165L36.123 10.7676L37.2134 12.7273L43.1183 9.44173L46.4038 15.3466Z" fill="#141515"/>
<path d="M51.5768 26.2014L49.8291 27.1738L52.2602 31.543L54.0079 30.5706L51.5768 26.2014Z" fill="#141515"/>
<path d="M45.7418 15.7151L43.9941 16.6875L46.4252 21.0567L48.1729 20.0843L45.7418 15.7151Z" fill="#141515"/>
<path d="M51.6817 38.731L47.3125 41.1621L48.2849 42.9098L52.6541 40.4787L51.6817 38.731Z" fill="#141515"/>
<path d="M41.2744 15.9118L13.3115 31.4707L24.4945 51.569L52.4573 36.0101L41.2744 15.9118ZM39.3654 40.6695L25.3839 48.4489L23.1459 44.4266L25.1376 43.3184L24.0223 41.3139L26.0271 40.1983L24.9044 38.1806L28.8879 35.9642L30.0106 37.9819L32.0154 36.8664L33.1307 38.8709L35.1225 37.7627L36.2378 39.7673L38.2427 38.6518L39.3654 40.6695ZM31.5358 26.5981L33.5276 25.4898L32.4122 23.4853L36.4088 21.2615L37.5241 23.2661L39.5159 22.1579L41.7539 26.1802L39.7622 27.2884L40.8776 29.2929L36.881 31.5167L35.7656 29.5121L33.7739 30.6203L31.5358 26.5981ZM49.3371 35.1211L41.3571 39.5613L40.2344 37.5435L42.2261 36.4353L41.1108 34.4308L43.1156 33.3152L42.0003 31.3107L45.9837 29.0942L49.3371 35.1211Z" fill="#141515"/>
<path d="M37.0958 12.5162L32.7266 14.9473L33.699 16.6949L38.0682 14.2639L37.0958 12.5162Z" fill="#141515"/>
<path d="M48.7712 43.784L42.6543 47.1875L43.6267 48.9352L49.7436 45.5317L48.7712 43.784Z" fill="#141515"/>
<path d="M31.7536 13.2L25.6367 16.6035L26.6091 18.3512L32.726 14.9477L31.7536 13.2Z" fill="#141515"/>
<path d="M42.0694 44.0787L37.7002 46.5098L38.6726 48.2574L43.0418 45.8264L42.0694 44.0787Z" fill="#141515"/>
<path d="M27.4835 17.8638L23.1143 20.2949L24.0867 22.0426L28.4559 19.6115L27.4835 17.8638Z" fill="#141515"/>
<path d="M39.1589 49.1317L33.042 52.5352L34.0144 54.2828L40.1313 50.8793L39.1589 49.1317Z" fill="#141515"/>
<path d="M22.1413 18.5477L16.0244 21.9512L16.9968 23.6989L23.1137 20.2953L22.1413 18.5477Z" fill="#141515"/>
<path d="M31.584 49.9127L27.2148 52.3438L28.1873 54.0914L32.5565 51.6604L31.584 49.9127Z" fill="#141515"/>
<path d="M16.9971 23.6998L12.6279 26.1309L13.6004 27.8785L17.9696 25.4475L16.9971 23.6998Z" fill="#141515"/>
<path d="M28.4816 54.6219L22.5896 57.9003L17.9189 49.5059L15.9463 50.6035L21.7809 61.0896L29.6454 56.7137L28.4816 54.6219Z" fill="#141515"/>
<path d="M17.4967 45.1643L15.749 46.1367L18.1801 50.5059L19.9278 49.5335L17.4967 45.1643Z" fill="#141515"/>
<path d="M11.6627 34.678L9.91504 35.6504L12.3461 40.0196L14.0938 39.0472L11.6627 34.678Z" fill="#141515"/>
<path d="M12.3453 40.0198L10.5977 40.9922L14.0012 47.1091L15.7488 46.1366L12.3453 40.0198Z" fill="#141515"/>
<path d="M6.854 29.6199L12.746 26.3416L11.6556 24.3819L3.79102 28.7578L8.16695 36.6224L10.1395 35.5248L6.854 29.6199Z" fill="#141515"/>
</g>
<defs>
<clipPath id="clip0_2738_1141">
<rect width="48" height="48" fill="white" transform="translate(0 24) rotate(-29.0921)"/>
</clipPath>
</defs>
</svg>
