<svg width="48" height="48" viewBox="0 0 48 48" fill="none" xmlns="http://www.w3.org/2000/svg">
<g id="hand-cross-finger-heart-26">
<g id="Group">
<path id="Vector" d="M43 41H41V48H43V41Z" fill="#141515"/>
<path id="Vector_2" d="M40 39H38V41H40V39Z" fill="#141515"/>
<path id="Vector_3" d="M38 41H36V43H38V41Z" fill="#141515"/>
<path id="Vector_4" d="M38 37H36V39H38V37Z" fill="#141515"/>
<path id="Vector_5" d="M36 43H34V45H36V43Z" fill="#141515"/>
<path id="Vector_6" d="M36 34H31V36H36V34Z" fill="#141515"/>
<path id="Vector_7" d="M36 16H34V23H36V16Z" fill="#141515"/>
<path id="Vector_8" d="M33 46H31V48H33V46Z" fill="#141515"/>
<path id="Vector_9" d="M33 23H31V25H33V23Z" fill="#141515"/>
<path id="Vector_10" d="M34 14H29V16H34V14Z" fill="#141515"/>
<path id="Vector_11" d="M31 37H29V39H31V37Z" fill="#141515"/>
<path id="Vector_12" d="M32 32H27V34H32V32Z" fill="#141515"/>
<path id="Vector_13" d="M31 25H29V27H31V25Z" fill="#141515"/>
<path id="Vector_14" d="M29 39H27V41H29V39Z" fill="#141515"/>
<path id="Vector_15" d="M29 27H27V29H29V27Z" fill="#141515"/>
<path id="Vector_16" d="M29 16H27V18H29V16Z" fill="#141515"/>
<path id="Vector_17" d="M27 41H25V43H27V41Z" fill="#141515"/>
<path id="Vector_18" d="M27 30H25V32H27V30Z" fill="#141515"/>
<path id="Vector_19" d="M27 18H25V20H27V18Z" fill="#141515"/>
<path id="Vector_20" d="M24 32H22V34H24V32Z" fill="#141515"/>
<path id="Vector_21" d="M24 21H22V23H24V21Z" fill="#141515"/>
<path id="Vector_22" d="M22 34H20V36H22V34Z" fill="#141515"/>
<path id="Vector_23" d="M22 23H20V25H22V23Z" fill="#141515"/>
<path id="Vector_24" d="M20 25H18V27H20V25Z" fill="#141515"/>
<path id="Vector_25" d="M20 18H18V23H20V18Z" fill="#141515"/>
<path id="Vector_26" d="M17 27H15V29H17V27Z" fill="#141515"/>
<path id="Vector_27" d="M15.2793 0V2.32823H13V7H15.2793V9.34354H17.5736V11.6718H19.8529V14H22.1471V11.6718H24.4264V9.34354H26.7057V7H29V2.32823H26.7057V0H22.1471V2.32823H19.8529V0H15.2793Z" fill="#141515"/>
<path id="Vector_28" d="M18 16H11V18H18V16Z" fill="#141515"/>
<path id="Vector_29" d="M13.5 25H11V34H13.5V31.7426H16V29.5H13.5V25Z" fill="#141515"/>
<path id="Vector_30" d="M10 34H8V36H10V34Z" fill="#141515"/>
<path id="Vector_31" d="M10 18H8V25H10V18Z" fill="#141515"/>
<path id="Vector_32" d="M8 37H6V48H8V37Z" fill="#141515"/>
</g>
</g>
</svg>
