<svg width="84" height="84" viewBox="0 0 84 84" fill="none" xmlns="http://www.w3.org/2000/svg">
<path d="M79 79.0586H5V83.9998H79V79.0586Z" fill="#F7FEFF"/>
<path d="M79 63.2471H73.7143V73.7882H10.2857V63.2471H5V79.0588H79V63.2471Z" fill="#231E2B"/>
<path d="M5 63.2471H0V79.0588H5V63.2471Z" fill="#F7FEFF"/>
<path d="M84 63.2471H79V79.0588H84V63.2471Z" fill="#F7FEFF"/>
<path d="M79 58.3057H74V63.2468H79V58.3057Z" fill="#F7FEFF"/>
<path d="M74 58.3057H69V63.2468H74V58.3057Z" fill="#231E2B"/>
<path d="M67.75 58.3057H57.25V63.5763H52V58.3057H41.5V63.5763H36.25V58.3057H31V63.5763H25.75V58.3057H15.25V63.5763H10V74.1174H73V63.5763H67.75V58.3057Z" fill="#B6B7B8"/>
<path d="M58 58.3057H53V63.2468H58V58.3057Z" fill="#998B8C"/>
<path d="M43 58.3057H36V63.2468H43V58.3057Z" fill="#998B8C"/>
<path d="M31 58.3057H26V63.2468H31V58.3057Z" fill="#998B8C"/>
<path d="M15 58.3057H10V63.2468H15V58.3057Z" fill="#231E2B"/>
<path d="M10 58.3057H5V63.2468H10V58.3057Z" fill="#F7FEFF"/>
<path d="M74 53.3643H69V58.3054H74V53.3643Z" fill="#F7FEFF"/>
<path d="M68 53.3643H63V58.3054H68V53.3643Z" fill="#231E2B"/>
<path d="M63 53.3643H58V58.3054H63V53.3643Z" fill="#998B8C"/>
<path d="M53 53.3643H43V58.3054H53V53.3643Z" fill="#998B8C"/>
<path d="M36 53.3643H31V58.3054H36V53.3643Z" fill="#998B8C"/>
<path d="M31.5 58.3056V52.6232H37V58.3056H42.5V52.6232H53.5V58.3056H59V46.9409H53.5V41.2585H48V35.5762H37V41.2585H31.5V46.9409H26V58.3056H31.5Z" fill="#F7FEFF"/>
<path d="M26 53.3643H21V58.3054H26V53.3643Z" fill="#998B8C"/>
<path d="M20 53.3643H15V58.3054H20V53.3643Z" fill="#231E2B"/>
<path d="M15 53.3643H10V58.3054H15V53.3643Z" fill="#F7FEFF"/>
<path d="M68 48.4238H63V53.365H68V48.4238Z" fill="#F7FEFF"/>
<path d="M63 48.4238H58V53.365H63V48.4238Z" fill="#231E2B"/>
<path d="M26 48.4238H21V53.365H26V48.4238Z" fill="#231E2B"/>
<path d="M20 48.4238H15V53.365H20V48.4238Z" fill="#F7FEFF"/>
<path d="M63 41.5059H58V48.4235H63V41.5059Z" fill="#F7FEFF"/>
<path d="M58 41.5059H53V48.4235H58V41.5059Z" fill="#231E2B"/>
<path d="M31 41.5059H26V48.4235H31V41.5059Z" fill="#231E2B"/>
<path d="M26 41.5059H21V48.4235H26V41.5059Z" fill="#F7FEFF"/>
<path d="M58 35.5762H53V40.5173H58V35.5762Z" fill="#F7FEFF"/>
<path d="M53 35.5762H48V40.5173H53V35.5762Z" fill="#231E2B"/>
<path d="M31 4.94141H26V40.5179H31V4.94141Z" fill="#F7FEFF"/>
<path d="M43 30.6357H36V35.5769H43V30.6357Z" fill="#CF8934"/>
<path d="M48 25.6943V35.5767H53V30.6355H58V25.6943H48Z" fill="#F7FEFF"/>
<path d="M43 20.7529H36V30.6353H43V20.7529Z" fill="#E2B436"/>
<path d="M53 9.88281H43V19.7652H53V9.88281Z" fill="#B0392E"/>
<path d="M43 9.88281H36V19.7652H43V9.88281Z" fill="#892727"/>
<path d="M63 4.94141H58V25.6943H63V4.94141Z" fill="#F7FEFF"/>
<path d="M31 40.5179H36.4V10.0238H52.6V20.1885H41.8V35.4355H47.2V25.2708H58V4.94141H31V40.5179Z" fill="#231E2B"/>
<path d="M58 0H31V4.94118H58V0Z" fill="#F7FEFF"/>
</svg>
