<svg width="60" height="60" viewBox="0 0 60 60" fill="none" xmlns="http://www.w3.org/2000/svg">
<g id="Interface essential/World">
<path id="Icon" fill-rule="evenodd" clip-rule="evenodd" d="M6.82335 19.7057C10.5228 10.7943 19.227 4.9899 28.8757 5.00001C35.1988 5.00001 41.2626 7.51357 45.7314 11.987C50.2001 16.4605 52.7073 22.5269 52.7007 28.85C52.7007 38.4987 46.8871 47.1969 37.9719 50.8869C29.0567 54.577 18.7964 52.5319 11.9774 45.7057C5.15828 38.8794 3.12395 28.617 6.82335 19.7057ZM47.5757 36.1C48.4486 33.7831 48.8892 31.3258 48.8757 28.85C48.9319 24.2968 47.4326 19.8606 44.6257 16.275C43.5007 18.15 41.3757 20.95 38.7507 20.95C37.7408 20.8688 36.7245 20.9704 35.7507 21.25V21.525C35.7507 21.975 36.9757 23.2 37.6257 23.85C39.2445 25.0571 40.3224 26.8536 40.6257 28.85C40.6257 32.85 41.0257 34.075 41.3757 34.375C43.5369 34.5296 45.6452 35.1162 47.5757 36.1ZM8.87569 28.85C8.85296 24.4026 10.3132 20.0745 13.0257 16.55C13.7341 17.842 15.1026 18.6323 16.5757 18.6C18.5985 19.62 20.3866 21.0504 21.8257 22.8C20.7668 23.4511 19.807 24.2509 18.9757 25.175C18.8985 25.2493 18.8145 25.3311 18.7255 25.4178C18.0358 26.0894 17.0464 27.0529 16.6257 27.075C15.4683 27.04 14.3477 27.4844 13.5289 28.3032C12.7101 29.122 12.2657 30.2426 12.3007 31.4C12.3043 31.6866 12.3727 31.9686 12.5007 32.225L14.7507 36.725C14.7794 39.3133 15.1922 41.883 15.9757 44.35C11.4151 40.5013 8.81143 34.8172 8.87569 28.85ZM22.0507 47.65C24.2385 48.4441 26.5482 48.8502 28.8757 48.85V48.925C35.7562 48.9713 42.1775 45.4774 45.8757 39.675C44.3677 38.9448 42.7578 38.4475 41.1007 38.2C36.7757 38.2 36.7757 32 36.7757 29C36.7757 28.5469 35.6612 27.4342 34.9725 26.7467C34.9392 26.7134 34.9068 26.6812 34.8757 26.65C33.2683 25.4366 32.2003 23.6416 31.9007 21.65C31.9007 17.325 36.3007 17.325 38.6507 17.325C39.3007 17.3 40.8507 15.45 41.8007 13.6C34.3875 7.32467 23.5374 7.2825 16.0757 13.5C16.1135 13.715 16.1135 13.935 16.0757 14.15C16.1007 14.75 16.3757 14.75 16.6507 14.75C19.6507 14.75 26.3757 20.85 26.4757 23.7C26.4797 24.3427 26.2086 24.9564 25.7309 25.3864C25.2532 25.8163 24.6144 26.0214 23.9757 25.95C23.5257 25.975 22.3007 27.2 21.6507 27.85C20.4345 29.4588 18.6425 30.534 16.6507 30.85C16.4507 30.85 16.1507 30.85 16.1507 31.1L18.3257 35.275C18.4537 35.5314 18.5221 35.8134 18.5257 36.1C18.5257 38.825 19.1257 43.25 20.4257 44.575C21.3327 45.3608 21.9125 46.4579 22.0507 47.65Z" fill="#141515"/>
</g>
</svg>
