<svg width="84" height="84" viewBox="0 0 84 84" fill="none" xmlns="http://www.w3.org/2000/svg">
<path d="M68 79H16V84H68V79Z" fill="#F7FEFF"/>
<path d="M16 47H5V52.3333H10.5V79H16V47Z" fill="#F7FEFF"/>
<path d="M68 47V79H73.5V52.3333H79V47H68Z" fill="#F7FEFF"/>
<path d="M63 42H58V47H63V42Z" fill="#CF8934"/>
<path d="M26 42H21V47H26V42Z" fill="#CF8934"/>
<path d="M84 37H79V47H84V37Z" fill="#F7FEFF"/>
<path d="M79 37H73.7143V42.25H63.1429V73.75H20.8571V42.25H10.2857V37H5V47.5H15.5714V79H68.4286V47.5H79V37Z" fill="#231E2B"/>
<path d="M74 37H68V42H74V37Z" fill="#F5F38E"/>
<path d="M62.8 36.7273V31.5455H57.6V26.3636H52.4V21.1818H47.2V16H36.8V21.1818H31.6V26.3636H26.4V31.5455H21.2V36.7273H16V41.9091H26.4V47.0909H21.2V73H62.8V47.0909H57.6V41.9091H68V36.7273H62.8Z" fill="#E2B436"/>
<path d="M16 37H11V42H16V37Z" fill="#F5F38E"/>
<path d="M5 37H0V47H5V37Z" fill="#F7FEFF"/>
<path d="M79 31H74V37H79V31Z" fill="#F7FEFF"/>
<path d="M74 31H68V37H74V31Z" fill="#231E2B"/>
<path d="M68 31H63V37H68V31Z" fill="#F5F38E"/>
<path d="M21 31H16V37H21V31Z" fill="#F5F38E"/>
<path d="M16 31H11V37H16V31Z" fill="#231E2B"/>
<path d="M11 31H5V37H11V31Z" fill="#F7FEFF"/>
<path d="M74 26H68V31H74V26Z" fill="#F7FEFF"/>
<path d="M68 26H63V31H68V26Z" fill="#231E2B"/>
<path d="M63 26H58V31H63V26Z" fill="#F5F38E"/>
<path d="M26 26H21V31H26V26Z" fill="#F5F38E"/>
<path d="M21 26H16V31H21V26Z" fill="#231E2B"/>
<path d="M16 26H11V31H16V26Z" fill="#F7FEFF"/>
<path d="M68 21H63V26H68V21Z" fill="#F7FEFF"/>
<path d="M63 21H58V26H63V21Z" fill="#231E2B"/>
<path d="M58 21H53V26H58V21Z" fill="#F5F38E"/>
<path d="M32 21H26V26H32V21Z" fill="#F5F38E"/>
<path d="M26 21H21V26H26V21Z" fill="#231E2B"/>
<path d="M21 21H16V26H21V21Z" fill="#F7FEFF"/>
<path d="M63 16H58V21H63V16Z" fill="#F7FEFF"/>
<path d="M58 16H53V21H58V16Z" fill="#231E2B"/>
<path d="M53 16H47V21H53V16Z" fill="#F5F38E"/>
<path d="M37 16H32V21H37V16Z" fill="#F5F38E"/>
<path d="M32 16H26V21H32V16Z" fill="#231E2B"/>
<path d="M26 16H21V21H26V16Z" fill="#F7FEFF"/>
<path d="M58 10H53V16H58V10Z" fill="#F7FEFF"/>
<path d="M53 10H47V16H53V10Z" fill="#231E2B"/>
<path d="M47 10H37V16H47V10Z" fill="#F5F38E"/>
<path d="M37 10H32V16H37V10Z" fill="#231E2B"/>
<path d="M32 10H26V16H32V10Z" fill="#F7FEFF"/>
<path d="M53 5H47V10H53V5Z" fill="#F7FEFF"/>
<path d="M47 5H37V10H47V5Z" fill="#231E2B"/>
<path d="M37 5H32V10H37V5Z" fill="#F7FEFF"/>
<path d="M47 0H37V5H47V0Z" fill="#F7FEFF"/>
</svg>
