<svg width="171" height="80" viewBox="0 0 171 80" fill="none" xmlns="http://www.w3.org/2000/svg">
<path fill-rule="evenodd" clip-rule="evenodd" d="M82.518 1.29149C80.3305 4.78339 79.4958 5.88002 77.5098 7.84241C72.9334 12.4309 67.8676 13.5853 62.7155 11.2189C60.8159 10.3531 56.7863 6.60148 56.7863 5.70686C56.7575 2.99415 53.505 3.08073 51.8932 5.8223C45.5322 16.702 33.8177 19.5302 30.4213 11.0169C30.0471 10.0645 27.5718 6.77463 26.9674 13.3544C26.0463 23.0509 20.9518 29.573 13.0365 31.2179C9.32352 31.9971 8.0859 31.9394 5.86963 30.9293C2.7611 29.5441 2.21422 31.4199 6.15746 33.9883C10.993 37.1339 13.9288 40.5393 13.9288 42.9345C13.9288 45.2721 12.1155 46.8304 4.71832 50.7264C-2.56371 54.5646 0.0555204 57.8544 2.84744 56.5269C4.57441 55.69 7.36633 56.1229 12.6336 58.0276C21.7289 61.3175 24.6648 64.7228 24.5209 71.7932C24.4345 75.7468 24.9814 77.3052 26.0176 76.0354C27.3703 74.3905 45.3595 66.4255 48.1802 66.2234C51.4903 65.9926 51.5478 66.6852 48.5256 70.4945C44.5536 75.5159 46.0791 78.4307 48.6983 75.8622C51.4615 73.1495 62.3126 69.3979 66.4573 69.6865C70.4005 69.9751 71.9548 71.1583 71.6094 73.6113C70.9474 78.2287 71.926 80.8836 73.3075 78.2575C73.509 77.8823 74.8618 77.0743 76.7903 76.2086C86.0583 71.9952 88.9366 71.8798 93.8008 75.5448C96.2474 77.3918 96.7942 77.5072 96.7942 76.122C96.7942 69.8885 109.228 71.1294 119.705 78.4018C123.13 80.7971 124.08 80.5085 122.843 77.4783C122.267 76.122 122.296 75.1696 122.958 73.7844C126.095 67.0315 136.917 67.8107 150.33 75.7757C155.626 78.9213 155.77 76.0643 152.028 72.024C148.114 67.753 147.884 66.3966 150.848 64.896C154.245 63.1644 161.786 63.0779 165.959 64.6939C170.046 66.2812 168.204 62.9624 164.031 61.2309C155.425 57.6813 153.842 56.3538 155.971 54.4203C157.871 52.6887 167.341 48.562 169.327 48.562C173.155 48.562 169.816 45.5318 165.326 44.9546C160.663 44.3486 154.734 42.3285 154.101 41.1453C152.892 38.8655 158.476 32.5743 163.052 31.1025C167.974 29.4864 164.865 26.918 159.368 28.0435C152.086 29.5441 145.379 28.7938 144.113 26.3408C143.307 24.7536 144.055 19.0684 145.264 17.7409C147.538 15.2302 143.768 13.5564 140.515 15.6342C130.528 21.9831 116.338 16.5 116.338 6.3129C116.338 4.29279 113.2 3.51361 111.819 5.15855C105.89 12.3732 101.14 13.845 94.175 10.5551C91.527 9.3142 86.9793 3.80219 86.9793 1.83981C87.0081 -0.324593 83.7269 -0.670895 82.518 1.29149ZM85.9432 6.45719C90.9801 14.9993 104.537 16.9906 112.538 10.3531L113.862 9.25648L114.87 11.1612C118.957 18.8953 130.815 23.9744 138.5 21.2617L139.68 20.8577V22.214C139.709 27.0911 145.264 31.5354 152.172 32.2568L154.043 32.4588L152.489 33.9018C147.74 38.2594 150.33 43.1942 158.965 46.2533L161.987 47.321L159.512 48.0714C150.33 50.8707 148.546 55.1417 154.791 59.2974L155.914 60.0477C151.51 60.596 149.639 60.798 147.826 61.7504C144.919 63.251 144.401 65.0691 146.041 68.0415C146.502 68.9073 146.847 69.5999 146.819 69.5999C146.79 69.5999 145.667 69.0805 144.314 68.4744C132.226 62.7893 121.835 64.9537 120.598 73.4381C120.339 75.1985 120.741 75.1408 118.295 73.4958C108.538 66.9449 98.7515 66.2812 95.8156 71.9663L95.3839 72.7744L93.8296 71.5046C88.6199 67.2335 82.7195 67.6087 75.7253 72.6589C74.1998 73.7556 73.7969 73.7267 73.7969 72.5146C73.7969 72.0817 73.3939 70.8986 72.9046 69.9462C70.2278 64.5497 63.579 63.8859 55.1169 68.157L52.8718 69.2825L52.7279 67.5798C52.4113 64.1168 50.5404 62.0967 47.6046 62.0967C44.0931 62.0967 33.7025 66.7429 28.5792 70.6388C26.7083 72.0529 26.622 72.024 26.622 70.0617C26.5932 63.0779 20.5201 56.5558 11.8276 54.1605C10.4172 53.7854 9.23718 53.4102 9.15083 53.3525C9.09326 53.2948 9.78402 52.7753 10.7051 52.1981C17.354 48.0714 17.8433 41.6647 12.0003 35.489L10.4461 33.844L11.5397 33.6709C22.0168 32.1125 28.8383 25.7059 30.3062 16.0671L30.5077 14.7973L32.1195 15.894C39.2 20.6845 49.2452 17.8275 54.6276 9.51621L55.5198 8.15985L57.1317 9.83365C64.2986 17.2503 76.9917 15.8651 83.8996 6.86121C85.3099 4.92768 85.0797 4.9854 85.9432 6.45719Z" fill="#141515"/>
</svg>
