<svg width="84" height="84" viewBox="0 0 84 84" fill="none" xmlns="http://www.w3.org/2000/svg">
<path d="M57.75 78.75H26.25V84H57.75V78.75Z" fill="#F7FEFF"/>
<path d="M63 68.25H57.75V78.75H63V68.25Z" fill="#F7FEFF"/>
<path d="M52.5 73.5H31.5V68.25H26.25V78.75H57.75V68.25H52.5V73.5Z" fill="#231E2B"/>
<path d="M52.5 68.25H47.25V73.5H52.5V68.25Z" fill="#F5F38E"/>
<path d="M47.25 68.25H36.75V73.5H47.25V68.25Z" fill="#E2B436"/>
<path d="M36.75 68.25H31.5V73.5H36.75V68.25Z" fill="#F5F38E"/>
<path d="M26.25 68.25H21V78.75H26.25V68.25Z" fill="#F7FEFF"/>
<path d="M31.5 52.5H26.25V68.25H31.5V52.5Z" fill="#F7FEFF"/>
<path d="M42 63H36.75V68.25H47.25V57.75H42V63Z" fill="#F5F38E"/>
<path d="M42 57.75H36.75V63H42V57.75Z" fill="#E2B436"/>
<path d="M57.75 52.5H52.5V68.25H57.75V52.5Z" fill="#F7FEFF"/>
<path d="M31.5 68.25H36.75V47.25H26.25V52.5H31.5V68.25Z" fill="#231E2B"/>
<path d="M68.25 47.25H57.75V52.5H68.25V47.25Z" fill="#F7FEFF"/>
<path d="M47.25 47.25V68.25H52.5V52.5H57.75V47.25H47.25Z" fill="#231E2B"/>
<path d="M47.25 47.25H36.75V57.75H47.25V47.25Z" fill="#CF8934"/>
<path d="M26.25 47.25H15.75V52.5H26.25V47.25Z" fill="#F7FEFF"/>
<path d="M73.5 42H68.25V47.25H73.5V42Z" fill="#F7FEFF"/>
<path d="M68.25 42H57.75V47.25H68.25V42Z" fill="#231E2B"/>
<path d="M57.75 42H52.5V47.25H57.75V42Z" fill="#CF8934"/>
<path d="M47.25 42V36.75H52.5V15.75H21V36.75H26.25V42H31.5V47.25H52.5V42H47.25Z" fill="#E2B436"/>
<path d="M31.5 42H26.25V47.25H31.5V42Z" fill="#CF8934"/>
<path d="M26.25 42H15.75V47.25H26.25V42Z" fill="#231E2B"/>
<path d="M15.75 42H10.5V47.25H15.75V42Z" fill="#F7FEFF"/>
<path d="M78.75 36.75H73.5V42H78.75V36.75Z" fill="#F7FEFF"/>
<path d="M73.5 36.75H68.25V42H73.5V36.75Z" fill="#231E2B"/>
<path d="M68.25 36.75H57.75V42H68.25V36.75Z" fill="#CF8934"/>
<path d="M57.75 36.75H52.5V42H57.75V36.75Z" fill="#E2B436"/>
<path d="M52.5 36.75H47.25V42H52.5V36.75Z" fill="#F5F38E"/>
<path d="M26.25 36.75H15.75V42H26.25V36.75Z" fill="#CF8934"/>
<path d="M15.75 36.75H10.5V42H15.75V36.75Z" fill="#231E2B"/>
<path d="M10.5 36.75H5.25V42H10.5V36.75Z" fill="#F7FEFF"/>
<path d="M73.5 31.5H68.25V36.75H73.5V31.5Z" fill="#CF8934"/>
<path d="M21 21H15.75V36.75H21V21Z" fill="#231E2B"/>
<path d="M15.75 31.5H10.5V36.75H15.75V31.5Z" fill="#CF8934"/>
<path d="M10.5 15.75H5.25V36.75H10.5V15.75Z" fill="#231E2B"/>
<path d="M78.75 15.75H73.5V36.75H78.75V15.75Z" fill="#231E2B"/>
<path d="M68.25 21H63V36.75H68.25V21Z" fill="#231E2B"/>
<path d="M15.75 21H10.5V31.5H15.75V21Z" fill="#E2B436"/>
<path d="M5.25 15.75H0V36.75H5.25V15.75Z" fill="#F7FEFF"/>
<path d="M73.5 21H68.25V31.5H73.5V21Z" fill="#E2B436"/>
<path d="M84 15.75H78.75V36.75H84V15.75Z" fill="#F7FEFF"/>
<path d="M73.5 15.75H68.25V21H73.5V15.75Z" fill="#F5F38E"/>
<path d="M68.25 15.75H63V21H68.25V15.75Z" fill="#CF8934"/>
<path d="M63 15.75H57.75V36.75H63V15.75Z" fill="#E2B436"/>
<path d="M21 15.75H15.75V21H21V15.75Z" fill="#CF8934"/>
<path d="M15.75 15.75H10.5V21H15.75V15.75Z" fill="#F5F38E"/>
<path d="M78.75 10.5H73.5V15.75H78.75V10.5Z" fill="#F7FEFF"/>
<path d="M73.5 10.5H63V15.75H73.5V10.5Z" fill="#231E2B"/>
<path d="M52.5 15.75V36.75H57.75V15.75H63V10.5H21V15.75H52.5Z" fill="#F5F38E"/>
<path d="M21 10.5H10.5V15.75H21V10.5Z" fill="#231E2B"/>
<path d="M10.5 10.5H5.25V15.75H10.5V10.5Z" fill="#F7FEFF"/>
<path d="M73.5 5.25H63V10.5H73.5V5.25Z" fill="#F7FEFF"/>
<path d="M63 5.25H21V10.5H63V5.25Z" fill="#231E2B"/>
<path d="M21 5.25H10.5V10.5H21V5.25Z" fill="#F7FEFF"/>
<path d="M63 0H21V5.25H63V0Z" fill="#F7FEFF"/>
</svg>
