<svg width="67" height="67" viewBox="0 0 67 67" fill="none" xmlns="http://www.w3.org/2000/svg">
<g id="business-product-startup-1-20" clip-path="url(#clip0_2738_1248)">
<g id="Group">
<path id="Vector" d="M43.2973 61.9524L39.0645 59.291L37.9999 60.9842L42.2328 63.6455L43.2973 61.9524Z" fill="#141515"/>
<path id="Vector_2" d="M37.4676 61.8282L35.7744 60.7637L34.7099 62.4568L36.403 63.5214L37.4676 61.8282Z" fill="#141515"/>
<path id="Vector_3" d="M44.9352 47.1485L42.8118 45.8135L41.6439 47.6711L43.7673 49.0061L42.5917 50.8759L44.7012 52.2022L50.5561 42.8899L48.4466 41.5635L44.9352 47.1485Z" fill="#141515"/>
<path id="Vector_4" d="M38.2173 58.759L33.9844 56.0977L32.9198 57.7908L37.1527 60.4521L38.2173 58.759Z" fill="#141515"/>
<path id="Vector_5" d="M49.0808 39.6016L47.3877 38.5371L46.3232 40.2303L48.0163 41.2948L49.0808 39.6016Z" fill="#141515"/>
<path id="Vector_6" d="M35.0493 54.4035L30.8164 51.7422L29.7519 53.4353L33.9848 56.0967L35.0493 54.4035Z" fill="#141515"/>
<path id="Vector_7" d="M37.2999 45.1863L39.4164 46.517L40.6556 44.5459L42.772 45.8766L44.0113 43.9056L41.8948 42.5749L45.6207 36.6489L47.7372 37.9796L48.9845 35.9956L46.8681 34.6649L50.594 28.7389L48.4775 27.4082L37.2999 45.1863Z" fill="#141515"/>
<path id="Vector_8" d="M28.1551 55.9747L26.4619 54.9102L25.3974 56.6033L27.0905 57.6678L28.1551 55.9747Z" fill="#141515"/>
<path id="Vector_9" d="M38.2683 39.8907L36.5752 38.8262L35.5107 40.5193L37.2038 41.5839L38.2683 39.8907Z" fill="#141515"/>
<path id="Vector_10" d="M40.3973 36.504L38.7041 35.4395L37.6396 37.1326L39.3327 38.1971L40.3973 36.504Z" fill="#141515"/>
<path id="Vector_11" d="M28.2771 50.1446L26.584 49.0801L23.9226 53.313L25.6158 54.3775L28.2771 50.1446Z" fill="#141515"/>
<path id="Vector_12" d="M31.252 47.2904L23.6328 42.5L22.5683 44.1932L30.1875 48.9836L31.252 47.2904Z" fill="#141515"/>
<path id="Vector_13" d="M49.0349 17.129L47.3418 16.0645L46.2773 17.7576L47.9704 18.8221L49.0349 17.129Z" fill="#141515"/>
<path id="Vector_14" d="M49.2534 14.9035L45.0205 12.2422L43.956 13.9353L48.1889 16.5967L49.2534 14.9035Z" fill="#141515"/>
<path id="Vector_15" d="M43.8972 27.1772L41.9861 25.9757L43.1798 24.0772L39.3827 21.6898L38.189 23.5884L40.0876 24.782L38.8861 26.6931L36.9875 25.4994L38.189 23.5884L36.278 22.3868L33.8828 26.1964L35.7938 27.398L34.5923 29.309L38.3894 31.6963L39.5909 29.7853L41.502 30.9868L43.8972 27.1772Z" fill="#141515"/>
<path id="Vector_16" d="M23.1971 46.9513L21.5039 45.8867L18.8426 50.1196L20.5357 51.1841L23.1971 46.9513Z" fill="#141515"/>
<path id="Vector_17" d="M20.7265 37.7288L22.6375 38.9304L21.3112 41.0399L23.2098 42.2336L24.5361 40.1241L32.1553 44.9145L30.829 47.024L32.7275 48.2176L34.0538 46.1081L35.9649 47.3097L37.2999 45.1863L22.0615 35.6055L20.7265 37.7288Z" fill="#141515"/>
<path id="Vector_18" d="M43.9558 13.9356L42.2627 12.8711L41.1982 14.5642L42.8913 15.6288L43.9558 13.9356Z" fill="#141515"/>
<path id="Vector_19" d="M17.9959 49.588L16.3027 48.5234L15.2382 50.2166L16.9314 51.2811L17.9959 49.588Z" fill="#141515"/>
<path id="Vector_20" d="M19.811 44.8215L15.5781 42.1602L14.5136 43.8533L18.7465 46.5146L19.811 44.8215Z" fill="#141515"/>
<path id="Vector_21" d="M39.003 17.1162L40.2422 15.1452L38.3437 13.9515L37.1044 15.9226L35.1934 14.721L32.7067 18.676L34.6178 19.8776L35.857 17.9065L47.2733 25.0843L46.0341 27.0553L47.9451 28.2569L50.4317 24.3018L48.5207 23.1003L49.7599 21.1293L47.8614 19.9356L46.6222 21.9066L39.003 17.1162Z" fill="#141515"/>
<path id="Vector_22" d="M33.2397 17.8293L31.1233 16.4986L27.3974 22.4247L25.281 21.094L24.0336 23.078L26.15 24.4087L22.4241 30.3347L20.3077 29.004L19.0685 30.975L21.1849 32.3057L19.9457 34.2767L22.0621 35.6074L33.2397 17.8293Z" fill="#141515"/>
<path id="Vector_23" d="M14.5132 43.8547L10.2803 41.1934L9.21574 42.8865L13.4486 45.5478L14.5132 43.8547Z" fill="#141515"/>
<path id="Vector_24" d="M23.6834 23.6329L21.9902 22.5684L20.9257 24.2615L22.6189 25.326L23.6834 23.6329Z" fill="#141515"/>
<path id="Vector_25" d="M8.68339 43.7325L6.99023 42.668L5.9257 44.3611L7.61885 45.4257L8.68339 43.7325Z" fill="#141515"/>
<path id="Vector_26" d="M21.3419 24.5216L19.2324 23.1953L13.3775 32.5076L15.487 33.834L16.6626 31.9642L18.786 33.2992L19.9539 31.4416L17.8305 30.1066L21.3419 24.5216Z" fill="#141515"/>
<path id="Vector_27" d="M8.58737 40.1281L4.35449 37.4668L3.28996 39.1599L7.52284 41.8213L8.58737 40.1281Z" fill="#141515"/>
<path id="Vector_28" d="M2.75761 40.0059L1.06445 38.9414L-8.22544e-05 40.6346L1.69307 41.6991L2.75761 40.0059Z" fill="#141515"/>
</g>
</g>
<defs>
<clipPath id="clip0_2738_1248">
<rect width="48" height="48" fill="white" transform="translate(25.5488) rotate(32.1588)"/>
</clipPath>
</defs>
</svg>
