<svg width="40" height="40" viewBox="0 0 40 40" fill="none" xmlns="http://www.w3.org/2000/svg">
<path fill-rule="evenodd" clip-rule="evenodd" d="M29.9575 28.295C29.9601 28.6251 29.8538 28.72 29.5326 28.7125C28.6201 28.695 27.7075 28.6812 26.7963 28.7175C26.3388 28.7362 26.2012 28.6175 26.2075 28.1414C26.2351 26.09 26.2175 24.0375 26.2212 21.9851C26.2212 21.4226 26.1838 20.8651 25.9775 20.335C25.6275 19.44 25.0237 18.8339 24.0226 18.7462C22.9575 18.6525 22.1838 19.1375 21.6613 20.0364C21.3188 20.6251 21.2401 21.2825 21.2413 21.955C21.2463 24.0287 21.2301 26.1012 21.2537 28.1737C21.2601 28.6201 21.1237 28.7312 20.6962 28.7162C19.785 28.685 18.8725 28.6926 17.9601 28.7139C17.6101 28.7225 17.5037 28.6175 17.5037 28.2625C17.5151 23.9925 17.5137 19.7225 17.5063 15.4526C17.5063 15.1464 17.5688 15.0087 17.9137 15.0164C18.8875 15.0375 19.8625 15.0375 20.8362 15.0164C21.1737 15.0101 21.2625 15.1325 21.2487 15.4476C21.2275 15.9589 21.2437 16.4712 21.2437 17.1162C22.6876 15.3312 24.4262 14.7451 26.4913 15.1614C28.4913 15.565 29.8675 17.3651 29.925 19.7764C29.9925 22.6137 29.9426 25.455 29.9575 28.295ZM13.1513 13.4276C11.94 13.425 10.9925 12.465 10.9951 11.2451C10.9975 10.04 11.9738 9.05761 13.1637 9.05998C14.3551 9.06373 15.3226 10.05 15.3188 11.2562C15.3162 12.4789 14.3663 13.43 13.1513 13.4276ZM14.4914 28.7175C13.5812 28.6812 12.6676 28.695 11.7564 28.7125C11.43 28.7189 11.2826 28.6587 11.2837 28.2787C11.2964 24.0112 11.295 19.7451 11.285 15.4775C11.2837 15.1351 11.3664 15.0062 11.7312 15.0164C12.6626 15.04 13.5962 15.0464 14.5264 15.0137C14.955 14.9987 15.0337 15.1575 15.0314 15.545C15.0151 17.6575 15.0237 19.77 15.0237 21.8837C15.0237 23.975 15.0114 26.0676 15.0326 28.16C15.0376 28.585 14.94 28.7351 14.4914 28.7175ZM34.8637 10.0626C34.7787 9.38373 34.7675 8.68498 34.3925 8.07761C33.1789 6.10886 31.5037 4.98748 29.1025 5.00011C23.0276 5.03136 16.9526 5.00011 10.8775 5.02136C9.9651 5.02373 9.02635 5.05373 8.1976 5.54373C6.17497 6.74123 4.98747 8.41498 5.0001 10.8687C5.02872 16.9639 5.0001 23.0587 5.01997 29.155C5.02372 30.0137 5.03635 30.9125 5.48622 31.6862C6.54872 33.5164 7.94885 34.8751 10.2487 34.8662C10.315 34.8662 10.3664 34.8975 10.4214 34.9262H29.5776C29.6839 34.8312 29.8139 34.8787 29.9339 34.8637C30.6225 34.7775 31.3339 34.7737 31.945 34.3787C33.6537 33.2737 34.91 31.8825 34.8714 29.6837C34.8714 29.645 34.8987 29.6101 34.9276 29.5776V10.4214C34.8425 10.3126 34.8787 10.1837 34.8637 10.0626Z" fill="#FF730D"/>
</svg>
