<svg xmlns="http://www.w3.org/2000/svg" width="48" height="48" viewBox="0 0 48 48" fill="none">
<path fill-rule="evenodd" clip-rule="evenodd" d="M9.71429 8H38.2857C41.4416 8 44 10.6863 44 14V34C44 37.3137 41.4416 40 38.2857 40H9.71429C6.55837 40 4 37.3137 4 34V14C4 10.6863 6.55837 8 9.71429 8ZM38.2853 36.9798C39.8527 36.9798 41.1234 35.6456 41.1234 33.9998V13.9998C41.1286 13.199 40.8266 12.4297 40.2855 11.8653C39.7444 11.301 39.0098 10.989 38.2472 10.9998H9.67577C8.91975 10.9998 8.19497 11.3165 7.66217 11.8797C7.12937 12.4429 6.8326 13.206 6.83768 13.9998V33.9998C6.83761 34.7971 7.14184 35.5612 7.68236 36.1212C8.22287 36.6813 8.95458 36.9905 9.71387 36.9798H38.2853Z" fill="#5B5B5B"/>
<path d="M10.6481 23.9048C10.6481 22.8528 11.5009 22 12.5528 22C13.6048 22 14.4576 22.8528 14.4576 23.9048V24.0952C14.4576 25.1472 13.6048 26 12.5528 26C11.5009 26 10.6481 25.1472 10.6481 24.0952V23.9048Z" fill="#5B5B5B"/>
<path d="M18.2671 23.9048C18.2671 22.8528 19.1199 22 20.1719 22C21.2238 22 22.0766 22.8528 22.0766 23.9048V24.0952C22.0766 25.1472 21.2238 26 20.1719 26C19.1199 26 18.2671 25.1472 18.2671 24.0952V23.9048Z" fill="#5B5B5B"/>
<path d="M25.8862 23.9048C25.8862 22.8528 26.739 22 27.7909 22C28.8429 22 29.6957 22.8528 29.6957 23.9048V24.0952C29.6957 25.1472 28.8429 26 27.7909 26C26.739 26 25.8862 25.1472 25.8862 24.0952V23.9048Z" fill="#5B5B5B"/>
<path d="M33.5052 23.9048C33.5052 22.8528 34.358 22 35.41 22C36.4619 22 37.3147 22.8528 37.3147 23.9048V24.0952C37.3147 25.1472 36.4619 26 35.41 26C34.358 26 33.5052 25.1472 33.5052 24.0952V23.9048Z" fill="#5B5B5B"/>
<path d="M10.6481 15.9048C10.6481 14.8528 11.5009 14 12.5528 14C13.6048 14 14.4576 14.8528 14.4576 15.9048V16.0952C14.4576 17.1472 13.6048 18 12.5528 18C11.5009 18 10.6481 17.1472 10.6481 16.0952V15.9048Z" fill="#5B5B5B"/>
<path d="M18.2671 15.9048C18.2671 14.8528 19.1199 14 20.1719 14C21.2238 14 22.0766 14.8528 22.0766 15.9048V16.0952C22.0766 17.1472 21.2238 18 20.1719 18C19.1199 18 18.2671 17.1472 18.2671 16.0952V15.9048Z" fill="#5B5B5B"/>
<path d="M25.8862 15.9048C25.8862 14.8528 26.739 14 27.7909 14C28.8429 14 29.6957 14.8528 29.6957 15.9048V16.0952C29.6957 17.1472 28.8429 18 27.7909 18C26.739 18 25.8862 17.1472 25.8862 16.0952V15.9048Z" fill="#5B5B5B"/>
<path d="M33.5052 15.9048C33.5052 14.8528 34.358 14 35.41 14C36.4619 14 37.3147 14.8528 37.3147 15.9048V16.0952C37.3147 17.1472 36.4619 18 35.41 18C34.358 18 33.5052 17.1472 33.5052 16.0952V15.9048Z" fill="#5B5B5B"/>
<path d="M15.41 31.92C15.41 30.8596 16.2696 30 17.33 30H30.6328C31.6932 30 32.5528 30.8596 32.5528 31.92V32.08C32.5528 33.1404 31.6932 34 30.6328 34H17.33C16.2696 34 15.41 33.1404 15.41 32.08V31.92Z" fill="#5B5B5B"/>
</svg>