<svg width="48" height="48" viewBox="0 0 48 48" fill="none" xmlns="http://www.w3.org/2000/svg">
<g id="interface-essential-hierarchy-2-44">
<g id="Group">
<path id="Vector" d="M48 35H46V42H48V35Z" fill="#141515"/>
<path id="Vector_2" d="M46 42H39V44H46V42Z" fill="#141515"/>
<path id="Vector_3" d="M46 35V32.7537H43.6718V26H41.3282V32.7537H39V35H46Z" fill="#141515"/>
<path id="Vector_4" d="M41 23H39V25H41V23Z" fill="#141515"/>
<path id="Vector_5" d="M39 35H37V42H39V35Z" fill="#141515"/>
<path id="Vector_6" d="M25.1585 21.206V14.3091H27.4604V12H20.5396V14.3091H22.8415V21.206H9V23.5H22.8415V32.706H20.5396V35H27.4604V32.706H25.1585V23.5H39V21.206H25.1585Z" fill="#141515"/>
<path id="Vector_7" d="M29 35H27V42H29V35Z" fill="#141515"/>
<path id="Vector_8" d="M29 5H27V12H29V5Z" fill="#141515"/>
<path id="Vector_9" d="M28 42H21V44H28V42Z" fill="#141515"/>
<path id="Vector_10" d="M28 3H21V5H28V3Z" fill="#141515"/>
<path id="Vector_11" d="M20 35H18V42H20V35Z" fill="#141515"/>
<path id="Vector_12" d="M20 5H18V12H20V5Z" fill="#141515"/>
<path id="Vector_13" d="M11 35H9V42H11V35Z" fill="#141515"/>
<path id="Vector_14" d="M9 23H7V25H9V23Z" fill="#141515"/>
<path id="Vector_15" d="M9 42H2V44H9V42Z" fill="#141515"/>
<path id="Vector_16" d="M4.32823 32.7537H2V35H9V32.7537H6.67177V26H4.32823V32.7537Z" fill="#141515"/>
<path id="Vector_17" d="M2 35H0V42H2V35Z" fill="#141515"/>
</g>
</g>
</svg>
