<svg width="24" height="14" viewBox="0 0 24 14" fill="none" xmlns="http://www.w3.org/2000/svg">
<path d="M10.2178 0.650391V8.96484C10.2178 9.87305 10.0332 10.6816 9.66406 11.3906C9.30078 12.0996 8.75 12.6592 8.01172 13.0693C7.27344 13.4736 6.34766 13.6758 5.23438 13.6758C3.64648 13.6758 2.43652 13.2451 1.60449 12.3838C0.77832 11.5225 0.365234 10.3711 0.365234 8.92969V0.650391H1.86816V8.97363C1.86816 10.0635 2.15527 10.9043 2.72949 11.4961C3.30957 12.0879 4.17383 12.3838 5.32227 12.3838C6.10742 12.3838 6.74902 12.2432 7.24707 11.9619C7.75098 11.6748 8.12305 11.2764 8.36328 10.7666C8.60938 10.251 8.73242 9.65625 8.73242 8.98242V0.650391H10.2178ZM21.6875 13.5L20.1055 9.42188H14.9551L13.3818 13.5H11.8701L16.8975 0.597656H18.2422L23.2344 13.5H21.6875ZM19.6572 8.09473L18.1543 4.04297C18.1191 3.9375 18.0605 3.76465 17.9785 3.52441C17.9023 3.28418 17.8232 3.03516 17.7412 2.77734C17.6592 2.51953 17.5918 2.31152 17.5391 2.15332C17.4805 2.39355 17.416 2.63379 17.3457 2.87402C17.2812 3.1084 17.2168 3.32813 17.1523 3.5332C17.0879 3.73242 17.0322 3.90234 16.9854 4.04297L15.4561 8.09473H19.6572Z" fill="#141515"/>
</svg>
