<svg width="180" height="158" viewBox="0 0 180 158" fill="none" xmlns="http://www.w3.org/2000/svg">
<path d="M85.6038 3.53248L1.96741 148.328C0.0156877 151.717 2.46047 155.947 6.36391 155.947H173.616C177.54 155.947 179.985 151.717 178.013 148.328L94.4173 3.53248C92.4656 0.144122 87.5555 0.144122 85.6038 3.53248Z" fill="#F7D062"/>
<path d="M171.767 158H8.25372C5.27478 158 2.60401 156.46 1.12481 153.893C-0.374936 151.326 -0.374936 148.246 1.12481 145.658L82.8711 4.12763C84.3503 1.54016 87.0211 0 90 0C92.9789 0 95.6497 1.54016 97.1289 4.12763L178.875 145.658C180.375 148.246 180.375 151.326 178.875 153.893C177.396 156.46 174.746 158 171.767 158ZM90 4.12763C88.5208 4.12763 87.1854 4.88744 86.4458 6.18118L4.69953 147.712C3.95993 149.005 3.95993 150.525 4.69953 151.819C5.43913 153.113 6.77452 153.872 8.25372 153.872H171.746C173.225 153.872 174.561 153.113 175.3 151.819C176.04 150.525 176.04 149.005 175.3 147.712L93.5747 6.18118C92.8146 4.90798 91.4997 4.12763 90 4.12763Z" fill="#141515"/>
<path d="M90.082 144.036C83.9187 144.036 79.1113 139.23 79.1113 133.07C79.1113 126.909 83.9187 122.104 90.082 122.104C96.081 122.104 100.888 126.909 100.888 133.07C100.909 139.23 96.1016 144.036 90.082 144.036ZM80.4673 38.6475H98.6491L96.6974 111.446H82.419L80.4673 38.6475Z" fill="#141515"/>
</svg>
