<svg width="30" height="37" viewBox="0 0 30 37" fill="none" xmlns="http://www.w3.org/2000/svg">
<path fill-rule="evenodd" clip-rule="evenodd" d="M28.9006 27.2135L29.3408 29.3225C29.7578 31.1459 29.346 33.0618 28.2178 34.5472C27.0896 36.0325 25.3628 36.932 23.5091 37H6.4909C4.6372 36.932 2.91042 36.0325 1.7822 34.5472C0.653967 33.0618 0.242158 31.1459 0.659238 29.3225L1.09936 27.2135C1.60557 24.3586 4.03834 22.2605 6.91269 22.2H23.0873C25.9617 22.2605 28.3944 24.3586 28.9006 27.2135ZM23.5091 34.2065C24.4403 34.1956 25.3167 33.7604 25.8931 33.0225V33.041C26.6004 32.146 26.876 30.9797 26.645 29.859L26.2049 27.75C25.9607 26.1871 24.6546 25.0168 23.0873 24.9565H6.9127C5.34542 25.0168 4.03934 26.1871 3.79514 27.75L3.35501 29.859C3.12974 30.9738 3.40501 32.132 4.1069 33.0225C4.68334 33.7604 5.5597 34.1956 6.49091 34.2065H23.5091Z" fill="#141515"/>
<path fill-rule="evenodd" clip-rule="evenodd" d="M15.9169 18.5H14.083C10.0318 18.5 6.74762 15.1869 6.74762 11.1V6.21602C6.74273 4.56593 7.39034 2.982 8.54696 1.8152C9.70357 0.648408 11.2737 -0.00490531 12.9094 2.77346e-05H17.0906C18.7263 -0.00490531 20.2964 0.648408 21.453 1.8152C22.6096 2.982 23.2572 4.56593 23.2523 6.21602V11.1C23.2523 15.1869 19.9681 18.5 15.9169 18.5ZM12.9094 2.77502C11.0255 2.77502 9.4984 4.31561 9.4984 6.21602V11.1C9.4984 13.6543 11.551 15.725 14.083 15.725H15.9169C18.4489 15.725 20.5015 13.6543 20.5015 11.1V6.21602C20.5015 5.30341 20.1422 4.42818 19.5025 3.78287C18.8628 3.13756 17.9952 2.77502 17.0906 2.77502H12.9094Z" fill="#141515"/>
</svg>
