<svg width="50" height="50" viewBox="0 0 50 50" fill="none" xmlns="http://www.w3.org/2000/svg">
<g id="Frame 1000001142">
<g id="Clip path group">
<mask id="mask0_2744_485" style="mask-type:luminance" maskUnits="userSpaceOnUse" x="0" y="0" width="41" height="38">
<g id="903f10a8c0">
<path id="Vector" d="M0 0H40.8163V38H0V0Z" fill="white"/>
</g>
</mask>
<g mask="url(#mask0_2744_485)">
<g id="Group">
<path id="Vector_2" d="M3.55141 38H26.527C26.9963 38 27.3649 37.6248 27.3649 37.1663V32.8153H29.2661C29.9445 33.5989 30.9248 34.0489 31.9881 34.0489C33.9651 34.0489 35.5735 32.4485 35.5735 30.4736C35.5735 28.498 33.9651 26.8977 31.9881 26.8977C30.9248 26.8977 29.9445 27.3477 29.2661 28.1313H27.3649V24.6139H31.7371C32.1979 24.6139 32.5744 24.2387 32.5744 23.7802V20.6381C32.5744 20.3545 32.4319 20.0964 32.1979 19.9377C31.6535 19.5963 31.3352 18.9961 31.3352 18.3542C31.3352 17.304 32.1979 16.4535 33.2528 16.4535C34.3082 16.4535 35.1709 17.304 35.1709 18.3542C35.1709 18.9961 34.8527 19.5963 34.3082 19.9377C34.0736 20.0964 33.9318 20.3545 33.9318 20.6381V23.7802C33.9318 24.2387 34.3082 24.6139 34.769 24.6139H39.9791C40.4398 24.6139 40.8163 24.2387 40.8163 23.7802V3.54273C40.8163 1.58346 39.217 0 37.257 0H3.55989C1.59989 0 0 1.58346 0 3.54273V34.4657C0 36.4165 1.5914 38 3.55141 38ZM12.7064 3.69232H12.7149C13.1756 3.69232 13.5527 4.06753 13.5527 4.52598C13.5527 4.99287 13.1756 5.35963 12.7149 5.35963C12.2541 5.35963 11.877 4.99287 11.877 4.52598C11.877 4.06753 12.2456 3.69232 12.7064 3.69232ZM8.83669 3.69232H8.84517C9.30592 3.69232 9.68301 4.06753 9.68301 4.52598C9.68301 4.99287 9.30592 5.35963 8.84517 5.35963C8.38443 5.35963 8.00734 4.99287 8.00734 4.52598C8.00734 4.06753 8.37594 3.69232 8.83669 3.69232ZM4.967 3.69232H4.97549C5.43624 3.69232 5.81332 4.06753 5.81332 4.52598C5.81332 4.99287 5.43624 5.35963 4.97549 5.35963C4.51474 5.35963 4.13765 4.99287 4.13765 4.52598C4.13765 4.06753 4.50625 3.69232 4.967 3.69232ZM1.67507 9.0604H39.1413V22.9466H35.6068V21.0549C36.3943 20.3877 36.8466 19.4045 36.8466 18.3542C36.8466 16.3871 35.2382 14.7868 33.2528 14.7868C31.2679 14.7868 29.6595 16.3871 29.6595 18.3542C29.6595 19.4045 30.1118 20.3877 30.8993 21.0549V22.9466H26.527C26.0663 22.9466 25.6892 23.3218 25.6892 23.7802V28.9649C25.6892 29.4234 26.0663 29.798 26.527 29.798H29.685C29.9693 29.798 30.2379 29.6568 30.3882 29.4234C30.7405 28.8817 31.3352 28.5644 31.9881 28.5644C33.0436 28.5644 33.8978 29.4234 33.8978 30.4736C33.8978 31.5238 33.0436 32.3822 31.9881 32.3822C31.3352 32.3822 30.7405 32.0655 30.3882 31.5238C30.2379 31.2904 29.9693 31.1486 29.685 31.1486H26.527C26.0663 31.1486 25.6892 31.5238 25.6892 31.9823V36.3333H3.55141C2.52139 36.3333 1.67507 35.4912 1.67507 34.4657V9.0604Z" fill="#141515"/>
</g>
</g>
</g>
<g id="Clip path group_2">
<mask id="mask1_2744_485" style="mask-type:luminance" maskUnits="userSpaceOnUse" x="34" y="27" width="16" height="23">
<g id="5bb43eb964">
<path id="Vector_3" d="M35.4438 27.75H49.25V49.25H35.4438V27.75Z" fill="white" stroke="white" stroke-width="1.5"/>
</g>
</mask>
<g mask="url(#mask1_2744_485)">
<g id="Group_2">
<path id="Vector_4" d="M43.9755 35.0932V35.8432H44.7255H49.1518C49.1878 35.8432 49.2136 35.8566 49.2294 35.8719C49.2441 35.886 49.25 35.9007 49.25 35.9192V46.5071C49.25 47.9971 47.9947 49.25 46.4047 49.25H35.542C35.5039 49.25 35.4794 49.2363 35.4647 49.2219C35.4497 49.2072 35.4438 49.1915 35.4438 49.1746V44.0375C35.4438 44.0112 35.4674 43.9615 35.542 43.9615H38.739C38.7542 43.9615 38.7709 43.9656 38.7855 43.9734C38.7995 43.9809 38.807 43.9892 38.8106 43.9949L38.8157 44.0029L38.821 44.0107C39.3221 44.7544 40.162 45.1838 41.062 45.1838C42.5278 45.1838 43.7459 44.0227 43.7459 42.5427C43.7459 41.0733 42.53 39.9017 41.062 39.9017C40.1552 39.9017 39.3184 40.3449 38.821 41.0831L38.821 41.0831L38.8172 41.0887C38.8148 41.0924 38.8068 41.1019 38.7899 41.1108C38.7728 41.1198 38.7544 41.1239 38.739 41.1239H35.542C35.4993 41.1239 35.4752 41.1089 35.4631 41.0971C35.4515 41.0858 35.4438 41.0715 35.4438 41.0479V35.9192C35.4438 35.8956 35.4515 35.8813 35.4631 35.87C35.4752 35.8582 35.4993 35.8432 35.542 35.8432H39.9598H40.7098V35.0932V33.2105V32.8603L40.4413 32.6355C39.8195 32.1148 39.4547 31.3491 39.4547 30.5347C39.4547 29.0196 40.7271 27.75 42.3429 27.75C43.9581 27.75 45.2306 29.0195 45.2306 30.5347C45.2306 31.3528 44.8716 32.1155 44.247 32.6329L43.9755 32.8579V33.2105V35.0932Z" fill="#FD8D3B" stroke="#141515" stroke-width="1.5"/>
</g>
</g>
</g>
</g>
</svg>
