<svg width="38" height="26" viewBox="0 0 38 26" fill="none" xmlns="http://www.w3.org/2000/svg">
<path fill-rule="evenodd" clip-rule="evenodd" d="M24.6139 6.75521C24.5566 9.59273 22.2182 11.8632 19.3537 11.8626C16.5233 11.8164 14.2374 9.55928 14.1812 6.75521V4.79217C14.1808 3.63586 14.6515 2.52835 15.4866 1.72059C16.3217 0.912824 17.4505 0.473179 18.6173 0.501268H20.2654C21.4171 0.496648 22.5232 0.946684 23.3392 1.75189C24.1552 2.55709 24.6139 3.65114 24.6139 4.79217V6.75521ZM18.5647 3.05496C17.5963 3.05496 16.8113 3.83274 16.8113 4.79217L16.8814 6.75521C16.8814 8.14639 18.0197 9.27416 19.4238 9.27416C20.828 9.27416 21.9662 8.14639 21.9662 6.75521V4.79217C21.9662 3.83274 21.1812 3.05496 20.2128 3.05496H18.5647Z" fill="#141515"/>
<path fill-rule="evenodd" clip-rule="evenodd" d="M37.7293 18.1165L37.9222 20.8266C38.1248 21.6747 37.9269 22.5682 37.3845 23.2543C36.842 23.9405 36.0139 24.3449 35.1343 24.3531H27.2615C26.5747 25.0784 25.6177 25.4929 24.6139 25.4997H14.0935C13.039 25.5137 12.0295 25.0769 11.3231 24.301C11.16 24.3189 10.9953 24.3189 10.8322 24.301H2.78407C1.92837 24.269 1.13093 23.8631 0.606374 23.1925C0.0818211 22.5219 -0.115944 21.6556 0.0663069 20.8266L0.329317 18.1165C0.585173 16.8234 1.71732 15.8827 3.04708 15.8582H10.5867C10.9014 15.8409 11.2166 15.8821 11.516 15.9798C12.1887 15.1472 13.21 14.6669 14.2864 14.6769H24.421C25.4344 14.6731 26.3998 15.1039 27.0686 15.8582C27.1908 15.8411 27.3147 15.8411 27.4369 15.8582H35.0115C36.3413 15.8827 37.4734 16.8234 37.7293 18.1165ZM27.3317 21.6952H35.2745C35.3282 21.5928 35.3346 21.4725 35.2921 21.3651V21.0177L35.1167 18.5508L35.0115 18.4119H27.0686C26.3274 18.4145 25.6199 18.1051 25.1224 17.5606C24.9484 17.3545 24.6922 17.2339 24.421 17.2306H14.2864C13.9926 17.2343 13.716 17.3682 13.5324 17.5954C13.0319 18.1841 12.2929 18.5215 11.516 18.5161C11.1979 18.5175 10.8824 18.4586 10.5867 18.3424H3.13476C3.02956 18.3424 3.02956 18.3771 3.02956 18.4814L2.85422 20.9482V21.2956C2.8062 21.4005 2.8062 21.5208 2.85422 21.6257H10.9023C11.089 21.6087 11.2768 21.6087 11.4634 21.6257C12.176 21.6388 12.8503 21.9476 13.322 22.4769C13.5155 22.7012 13.7958 22.8338 14.0935 22.8417H24.684C24.9822 22.836 25.2635 22.703 25.4555 22.4769C25.9485 21.9758 26.6253 21.6938 27.3317 21.6952Z" fill="#141515"/>
<path fill-rule="evenodd" clip-rule="evenodd" d="M35.0817 9.36102C35.0817 11.4718 33.3546 13.1829 31.2242 13.1829C30.1981 13.1875 29.2124 12.7869 28.4852 12.0696C27.758 11.3524 27.3492 10.3777 27.3492 9.36102V7.90177C27.3492 7.04941 27.6909 6.23196 28.2993 5.62925C28.9076 5.02653 29.7327 4.68794 30.593 4.68794H31.8379C33.6294 4.68794 35.0817 6.12682 35.0817 7.90177V9.36102ZM30.159 7.54132C30.0439 7.65535 29.9793 7.81 29.9793 7.97126V9.43051C30.054 10.0508 30.5849 10.5178 31.2154 10.5178C31.8459 10.5178 32.3769 10.0508 32.4516 9.43051V7.97126C32.4516 7.63545 32.1768 7.36323 31.8379 7.36323H30.593C30.4302 7.36323 30.2741 7.42729 30.159 7.54132Z" fill="#141515"/>
<path fill-rule="evenodd" clip-rule="evenodd" d="M9.57342 12.0696C8.8462 12.7869 7.86053 13.1875 6.83443 13.1829C5.81136 13.1829 4.8302 12.7802 4.10678 12.0635C3.38336 11.3467 2.97695 10.3746 2.97695 9.36102V7.90177C2.97695 6.12682 4.42924 4.68794 6.22074 4.68794H7.46565C9.25714 4.68794 10.7094 6.12682 10.7094 7.90177V9.36102C10.7094 10.3777 10.3006 11.3524 9.57342 12.0696ZM6.22074 7.36323C5.88181 7.36323 5.60705 7.63545 5.60705 7.97126V9.43051C5.68174 10.0508 6.2127 10.5178 6.84319 10.5178C7.47369 10.5178 8.00465 10.0508 8.07934 9.43051V7.97126C8.07934 7.63545 7.80458 7.36323 7.46565 7.36323H6.22074Z" fill="#141515"/>
</svg>
