<svg xmlns="http://www.w3.org/2000/svg" width="21" height="22" viewBox="0 0 21 22" fill="none">
<path d="M0.10938 11.0019C0.109793 11.4161 0.445915 11.7515 0.860128 11.7511C1.27434 11.7507 1.60979 11.4146 1.60938 11.0004L0.10938 11.0019ZM2.38471 5.8158L3.01485 6.22253L3.01521 6.22196L2.38471 5.8158ZM6.44605 2.37846L6.15062 1.6891L6.14968 1.6895L6.44605 2.37846ZM11.674 1.84513L11.8266 1.1108L11.8242 1.11031L11.674 1.84513ZM16.306 4.40113L15.7661 4.92167L15.7667 4.92228L16.306 4.40113ZM17.8586 8.54165C17.973 8.93974 18.3885 9.1697 18.7866 9.05528C19.1847 8.94085 19.4146 8.52537 19.3002 8.12728L17.8586 8.54165ZM17.8535 8.14582C17.7493 8.54671 17.9898 8.95616 18.3907 9.06035C18.7916 9.16454 19.2011 8.92401 19.3053 8.52311L17.8535 8.14582ZM20.2519 4.88044C20.3561 4.47955 20.1156 4.07009 19.7147 3.96591C19.3138 3.86172 18.9043 4.10225 18.8002 4.50315L20.2519 4.88044ZM18.3796 9.05737C18.7789 9.1677 19.192 8.93348 19.3023 8.53422C19.4126 8.13497 19.1784 7.72188 18.7791 7.61156L18.3796 9.05737ZM15.2471 6.63555C14.8479 6.52523 14.4348 6.75945 14.3245 7.1587C14.2141 7.55795 14.4484 7.97104 14.8476 8.08137L15.2471 6.63555ZM20.276 11.0004C20.2756 10.5862 19.9395 10.2507 19.5253 10.2511C19.1111 10.2515 18.7756 10.5877 18.776 11.0019L20.276 11.0004ZM18.0007 16.1865L17.3706 15.7797L17.3702 15.7803L18.0007 16.1865ZM13.9394 19.6238L14.2348 20.3132L14.2357 20.3128L13.9394 19.6238ZM8.71138 20.1571L8.55887 20.8915L8.56124 20.8919L8.71138 20.1571ZM4.07938 17.6011L4.61932 17.0806L4.61873 17.08L4.07938 17.6011ZM2.52686 13.4606C2.41244 13.0625 1.99696 12.8326 1.59886 12.947C1.20077 13.0614 0.970806 13.4769 1.08523 13.875L2.52686 13.4606ZM2.53193 13.8564C2.63612 13.4555 2.39559 13.0461 1.99469 12.9419C1.5938 12.8377 1.18435 13.0783 1.08016 13.4792L2.53193 13.8564ZM0.133492 17.1218C0.0293061 17.5227 0.269837 17.9322 0.670734 18.0364C1.07163 18.1405 1.48108 17.9 1.58527 17.4991L0.133492 17.1218ZM2.00581 12.9449C1.60656 12.8346 1.19346 13.0688 1.08314 13.468C0.972814 13.8673 1.20703 14.2804 1.60628 14.3907L2.00581 12.9449ZM5.13828 15.3667C5.53754 15.477 5.95063 15.2428 6.06095 14.8436C6.17128 14.4443 5.93706 14.0312 5.53781 13.9209L5.13828 15.3667ZM1.60938 11.0004C1.60769 9.30561 2.09575 7.64644 3.01485 6.22253L1.75458 5.40906C0.678714 7.07586 0.1074 9.01802 0.10938 11.0019L1.60938 11.0004ZM3.01521 6.22196C3.91628 4.8232 5.21396 3.7249 6.74241 3.06742L6.14968 1.6895C4.34719 2.46486 2.81683 3.76009 1.75421 5.40963L3.01521 6.22196ZM6.74148 3.06783C8.24872 2.42189 9.91728 2.25168 11.5239 2.57995L11.8242 1.11031C9.91819 0.720872 7.93871 0.922807 6.15062 1.6891L6.74148 3.06783ZM11.5215 2.57946C13.1398 2.91554 14.619 3.73181 15.7661 4.92167L16.846 3.88059C15.4895 2.47352 13.7402 1.50823 11.8266 1.1108L11.5215 2.57946ZM15.7667 4.92228C16.7495 5.93946 17.4678 7.18224 17.8586 8.54165L19.3002 8.12728C18.8417 6.53203 17.9988 5.07364 16.8454 3.87998L15.7667 4.92228ZM19.3053 8.52311L20.2519 4.88044L18.8002 4.50315L17.8535 8.14582L19.3053 8.52311ZM18.7791 7.61156L15.2471 6.63555L14.8476 8.08137L18.3796 9.05737L18.7791 7.61156ZM18.776 11.0019C18.7777 12.6967 18.2897 14.3558 17.3706 15.7797L18.6308 16.5932C19.7067 14.9264 20.278 12.9842 20.276 11.0004L18.776 11.0019ZM17.3702 15.7803C16.4691 17.1791 15.1715 18.2774 13.643 18.9348L14.2357 20.3128C16.0382 19.5374 17.5686 18.2422 18.6312 16.5926L17.3702 15.7803ZM13.644 18.9344C12.1367 19.5804 10.4681 19.7506 8.86152 19.4223L8.56124 20.8919C10.4672 21.2814 12.4467 21.0795 14.2348 20.3132L13.644 18.9344ZM8.86389 19.4228C7.24567 19.0867 5.76642 18.2704 4.61932 17.0806L3.53944 18.1217C4.89594 19.5287 6.64524 20.494 8.55887 20.8915L8.86389 19.4228ZM4.61873 17.08C3.63588 16.0628 2.9176 14.82 2.52686 13.4606L1.08523 13.875C1.54376 15.4702 2.38666 16.9286 3.54003 18.1223L4.61873 17.08ZM1.08016 13.4792L0.133492 17.1218L1.58527 17.4991L2.53193 13.8564L1.08016 13.4792ZM1.60628 14.3907L5.13828 15.3667L5.53781 13.9209L2.00581 12.9449L1.60628 14.3907Z" fill="#141515"/>
</svg>