<svg xmlns="http://www.w3.org/2000/svg" width="48" height="48" viewBox="0 0 48 48" fill="none">
<path fill-rule="evenodd" clip-rule="evenodd" d="M6.00004 2.93464e-10H14.24C15.8359 -1.57621e-05 17.3661 0.635785 18.4921 1.76678C19.6181 2.89777 20.2471 4.43075 20.24 6.02667V14.24C20.24 17.5537 17.5537 20.24 14.24 20.24H6.00004C2.68634 20.24 5.93434e-05 17.5537 5.93434e-05 14.24V6.02667C-0.00703365 4.43075 0.621972 2.89777 1.74796 1.76678C2.87394 0.635785 4.40411 -1.57621e-05 6.00004 2.93464e-10ZM14.24 16.2133C15.3386 16.199 16.2256 15.3119 16.24 14.2133V6.02667C16.24 4.9221 15.3446 4.02667 14.24 4.02667H6.00004C4.89547 4.02667 4.00004 4.9221 4.00004 6.02667V14.2133C4.01441 15.3119 4.90148 16.199 6.00004 16.2133H14.24Z" fill="#141515"/>
<path fill-rule="evenodd" clip-rule="evenodd" d="M33.76 2.93464e-10H42C43.5959 -1.57621e-05 45.1261 0.635785 46.252 1.76678C47.378 2.89777 48.007 4.43075 47.9999 6.02667V14.24C47.9999 17.5537 45.3137 20.24 42 20.24H33.76C30.4463 20.24 27.76 17.5537 27.76 14.24V6C27.76 2.68629 30.4463 2.93464e-10 33.76 2.93464e-10ZM42 16.2133C43.0985 16.199 43.9856 15.3119 44 14.2133V6.02667C44 4.9221 43.1045 4.02667 42 4.02667H33.76C32.6554 4.02667 31.76 4.9221 31.76 6.02667V14.2133C31.7744 15.3119 32.6614 16.199 33.76 16.2133H42Z" fill="#141515"/>
<path fill-rule="evenodd" clip-rule="evenodd" d="M6.00004 27.76H14.24C17.5537 27.76 20.24 30.4463 20.24 33.76V42C20.24 45.3137 17.5537 48 14.24 48H6.00004C4.40411 48 2.87394 47.3642 1.74796 46.2332C0.621972 45.1022 -0.00703365 43.5692 5.93434e-05 41.9733V33.76C5.93434e-05 30.4463 2.68634 27.76 6.00004 27.76ZM14.24 43.9733C15.3446 43.9733 16.24 43.0779 16.24 41.9733V33.76C16.2256 32.6614 15.3386 31.7744 14.24 31.76H6.00004C4.90148 31.7744 4.01441 32.6614 4.00004 33.76V41.9733C4.00004 43.0779 4.89547 43.9733 6.00004 43.9733H14.24Z" fill="#141515"/>
<path fill-rule="evenodd" clip-rule="evenodd" d="M33.7599 27.76H41.9999C45.3136 27.76 47.9999 30.4463 47.9999 33.76V41.9733C48.007 43.5692 47.378 45.1022 46.252 46.2332C45.126 47.3642 43.5958 48 41.9999 48H33.7599C32.164 48 30.6338 47.3642 29.5079 46.2332C28.3819 45.1022 27.7529 43.5692 27.76 41.9733V33.76C27.76 30.4463 30.4462 27.76 33.7599 27.76ZM41.9999 43.9733C43.1045 43.9733 43.9999 43.0779 43.9999 41.9733V33.76C43.9855 32.6614 43.0985 31.7744 41.9999 31.76H33.7599C32.6614 31.7744 31.7743 32.6614 31.7599 33.76V41.9733C31.7599 43.0779 32.6554 43.9733 33.7599 43.9733H41.9999Z" fill="#141515"/>
</svg>