<svg width="44" height="44" viewBox="0 0 44 44" fill="none" xmlns="http://www.w3.org/2000/svg">
<path fill-rule="evenodd" clip-rule="evenodd" d="M21 10.7273C19.7448 10.7273 18.7273 11.7448 18.7273 13C18.7273 14.2552 19.7448 15.2727 21 15.2727C22.2552 15.2727 23.2727 14.2552 23.2727 13C23.2727 11.7448 22.2552 10.7273 21 10.7273ZM16 13C16 10.2386 18.2386 8 21 8C23.7614 8 26 10.2386 26 13C26 15.7614 23.7614 18 21 18C18.2386 18 16 15.7614 16 13Z" fill="#141515"/>
<path fill-rule="evenodd" clip-rule="evenodd" d="M15.8295 25.2169C14.4296 26.1638 13.7391 27.3449 13.7391 28.5C13.7391 29.6551 14.4296 30.8362 15.8295 31.7831C17.225 32.7271 19.2257 33.3529 21.5 33.3529C23.7743 33.3529 25.775 32.7271 27.1705 31.7831C28.5704 30.8362 29.2609 29.6551 29.2609 28.5C29.2609 27.3449 28.5704 26.1638 27.1705 25.2169C25.775 24.2729 23.7743 23.6471 21.5 23.6471C19.2257 23.6471 17.225 24.2729 15.8295 25.2169ZM14.2587 23.0483C16.168 21.7568 18.7325 21 21.5 21C24.2675 21 26.832 21.7568 28.7413 23.0483C30.6462 24.3368 32 26.2439 32 28.5C32 30.7561 30.6462 32.6632 28.7413 33.9517C26.832 35.2432 24.2675 36 21.5 36C18.7325 36 16.168 35.2432 14.2587 33.9517C12.3538 32.6632 11 30.7561 11 28.5C11 26.2439 12.3538 24.3368 14.2587 23.0483Z" fill="#141515"/>
</svg>
