<svg width="44" height="44" viewBox="0 0 44 44" fill="none" xmlns="http://www.w3.org/2000/svg">
<path d="M40.042 23.8517L31.5354 15.3267C30.981 14.8164 30.1281 14.8164 29.5737 15.3267L21.122 23.8517C20.7772 24.3835 20.8406 25.0822 21.2756 25.5432C21.7106 26.0043 22.4044 26.1083 22.9554 25.795L28.8587 19.8917V36.2083C28.8587 36.9677 29.4743 37.5833 30.2337 37.5833C30.9931 37.5833 31.6087 36.9677 31.6087 36.2083V19.36L38.0437 25.795C38.5805 26.3312 39.4502 26.3312 39.987 25.795C40.5387 25.2735 40.5633 24.4036 40.042 23.8517Z" fill="black"/>
<path d="M21.122 16.9033C20.5852 16.3672 19.7155 16.3672 19.1787 16.9033L13.3304 22.8067V6.875C13.3304 6.11561 12.7148 5.5 11.9554 5.5C11.196 5.5 10.5804 6.11561 10.5804 6.875V23.375L4.14538 16.9033C3.60361 16.3985 2.75936 16.4134 2.23574 16.937C1.71212 17.4606 1.69722 18.3049 2.20204 18.8467L10.7087 27.3717C11.2518 27.91 12.1273 27.91 12.6704 27.3717L21.122 18.8467C21.6582 18.3098 21.6582 17.4402 21.122 16.9033Z" fill="black"/>
</svg>
