<svg width="44" height="44" viewBox="0 0 44 44" fill="none" xmlns="http://www.w3.org/2000/svg">
<path fill-rule="evenodd" clip-rule="evenodd" d="M22 10.88C20.2769 10.88 18.88 12.2769 18.88 14C18.88 15.7231 20.2769 17.12 22 17.12C23.7231 17.12 25.12 15.7231 25.12 14C25.12 12.2769 23.7231 10.88 22 10.88ZM16 14C16 10.6863 18.6863 8 22 8C25.3137 8 28 10.6863 28 14C28 17.3137 25.3137 20 22 20C18.6863 20 16 17.3137 16 14Z" fill="#141515"/>
<path fill-rule="evenodd" clip-rule="evenodd" d="M16.666 26.0512C15.3519 26.9172 14.7273 27.9814 14.7273 28.9991C14.7273 30.0169 15.3521 31.0817 16.6662 31.9481C17.9742 32.8104 19.8559 33.3858 22 33.3858C24.1433 33.3858 26.025 32.8091 27.3334 31.9457C28.6485 31.078 29.2727 30.0129 29.2727 28.9991C29.2727 27.9814 28.6481 26.9172 27.334 26.0512C26.0261 25.1892 24.1443 24.6142 22 24.6142C19.8557 24.6142 17.9739 25.1892 16.666 26.0512ZM15.1209 23.897C16.9388 22.699 19.3752 22 22 22C24.6248 22 27.0612 22.699 28.8791 23.897C30.691 25.0911 32 26.8728 32 28.9991C32 31.1224 30.6906 32.9042 28.8798 34.0991C27.0623 35.2984 24.6258 36 22 36C19.375 36 16.9385 35.3005 15.1206 34.102C13.3088 32.9075 12 31.1254 12 28.9991C12 26.8728 13.309 25.0911 15.1209 23.897Z" fill="#141515"/>
<path fill-rule="evenodd" clip-rule="evenodd" d="M34.2411 17.9667C34.2349 17.2936 33.6845 16.7529 33.0114 16.7586L32.9999 16.7587V16.7586C32.4958 16.7587 32.0419 17.0636 31.8511 17.5301C31.6603 17.9967 31.7705 18.5322 32.1301 18.8855C32.4896 19.2387 33.0271 19.3395 33.4902 19.1405C33.9533 18.9415 34.2501 18.4822 34.2412 17.9782L35.6203 17.954L34.2411 17.9667ZM36.9995 17.9356C36.9763 15.7444 35.185 13.9845 32.9937 14.0001C31.3718 14.0027 29.9118 14.9844 29.2977 16.486C28.683 17.9892 29.0382 19.715 30.1968 20.8533C31.3554 21.9915 33.0872 22.3162 34.5794 21.6749C36.0698 21.0344 37.0256 19.5572 36.9995 17.9356Z" fill="#141515"/>
<path fill-rule="evenodd" clip-rule="evenodd" d="M11.0063 14.0001C12.6282 14.0027 14.0882 14.9844 14.7023 16.486C15.317 17.9892 14.9617 19.715 13.8032 20.8533C12.6446 21.9915 10.9128 22.3162 9.4206 21.6749C7.93018 21.0344 6.9744 19.5572 7.00052 17.9356C7.02371 15.7444 8.81502 13.9845 11.0063 14.0001ZM10.9886 16.7586C10.3155 16.7529 9.76509 17.2936 9.75893 17.9667L9.75882 17.9782L9.75877 17.9782C9.74993 18.4822 10.0467 18.9415 10.5098 19.1405C10.9729 19.3395 11.5104 19.2387 11.8699 18.8855C12.2295 18.5322 12.3397 17.9967 12.1489 17.5301L13.4256 17.008L12.1489 17.5301C11.9581 17.0636 11.5042 16.7587 11.0001 16.7586L10.9886 16.7586L10.9886 16.7586Z" fill="#141515"/>
<path fill-rule="evenodd" clip-rule="evenodd" d="M5.79215 28.4994C6.07038 26.7653 7.70944 25.5219 9.54912 25.68C10.3139 25.7457 10.9894 25.2044 11.0579 24.4711C11.1264 23.7378 10.562 23.09 9.79722 23.0243C6.39875 22.7324 3.38118 25.1011 3.00833 28.3534C2.99724 28.4501 2.99722 28.5476 3.00827 28.6443C3.37993 31.8976 6.39786 34.2676 9.79716 33.9757C10.5619 33.91 11.1264 33.2623 11.0579 32.529C10.9894 31.7956 10.3139 31.2544 9.54918 31.32C7.70904 31.478 6.06977 30.234 5.79215 28.4994ZM34.2028 23.0243C37.6012 22.7324 40.6188 25.1011 40.9917 28.3534C41.0028 28.4501 41.0028 28.5476 40.9917 28.6443C40.6201 31.8976 37.6021 34.2676 34.2028 33.9757C33.4381 33.91 32.8736 33.2623 32.9421 32.529C33.0106 31.7956 33.6861 31.2544 34.4508 31.32C36.291 31.478 37.9302 30.2339 38.2078 28.4994C37.9296 26.7653 36.2906 25.5219 34.4509 25.68C33.6861 25.7457 33.0106 25.2044 32.9421 24.4711C32.8736 23.7378 33.438 23.09 34.2028 23.0243Z" fill="#141515"/>
</svg>
