<svg width="27" height="21" viewBox="0 0 27 21" fill="none" xmlns="http://www.w3.org/2000/svg">
<g id="UK">
<path id="Vector" d="M0 0H27V21H0V0Z" fill="#012169"/>
<path id="Vector_2" d="M3.16406 0L13.4578 7.91875L23.7094 0H27V2.7125L16.875 10.5437L27 18.3312V21H23.625L13.5 13.1687L3.41719 21H0V18.375L10.0828 10.5875L0 2.8V0H3.16406Z" fill="white"/>
<path id="Vector_3" d="M17.8875 12.2937L27 19.25V21L15.5672 12.2937H17.8875ZM10.125 13.1687L10.3781 14.7L2.27813 21H0L10.125 13.1687ZM27 0V0.13125L16.4953 8.35625L16.5797 6.43125L24.8906 0H27ZM0 0L10.0828 7.7H7.55156L0 1.8375V0Z" fill="#C8102E"/>
<path id="Vector_4" d="M10.1672 0V21H16.9172V0H10.1672ZM0 7V14H27V7H0Z" fill="white"/>
<path id="Vector_5" d="M0 8.44375V12.6438H27V8.44375H0ZM11.5172 0V21H15.5672V0H11.5172Z" fill="#C8102E"/>
</g>
</svg>
