<svg width="1440" height="582" viewBox="0 0 1440 582" fill="none" xmlns="http://www.w3.org/2000/svg">
<g filter="url(#filter0_d_2651_1995)">
<rect x="80" y="356" width="385" height="70" rx="10" transform="rotate(-10 80 356)" fill="#F4EAD8" shape-rendering="crispEdges"/>
<path d="M129.243 377.333L132.966 398.447L129.854 398.996L127.479 385.524C127.381 384.972 127.293 384.392 127.212 383.784C127.158 383.17 127.107 382.57 127.057 381.983L126.939 382.004L123.039 400.198L120.124 400.712L110.434 384.914L110.316 384.935C110.47 385.504 110.601 386.09 110.707 386.694C110.84 387.293 110.962 387.908 111.073 388.539L113.428 401.893L110.316 402.441L106.593 381.327L111.201 380.514L120.852 396.319L124.634 378.146L129.243 377.333ZM139.449 375.533L143.172 396.648L139.706 397.259L135.983 376.145L139.449 375.533ZM136.359 367.914C136.885 367.822 137.377 367.924 137.835 368.223C138.316 368.49 138.623 369.004 138.757 369.766C138.887 370.501 138.774 371.09 138.419 371.532C138.09 371.969 137.663 372.234 137.137 372.326C136.56 372.428 136.041 372.33 135.583 372.032C135.124 371.734 134.83 371.217 134.7 370.481C134.566 369.72 134.665 369.134 134.999 368.723C135.328 368.286 135.782 368.016 136.359 367.914ZM171.992 399.121L168.604 399.718L167.313 392.391L149.862 395.468L146.139 374.354L149.605 373.743L152.814 391.942L163.726 390.018L160.517 371.819L163.983 371.207L167.199 389.446L170.193 388.918L171.992 399.121ZM174.495 369.354L176.044 378.138L187.507 376.117L185.958 367.333L189.424 366.722L193.147 387.836L189.681 388.447L188.021 379.032L176.558 381.054L178.218 390.468L174.751 391.08L171.028 369.965L174.495 369.354ZM199.577 364.931L203.3 386.046L199.833 386.657L196.11 365.543L199.577 364.931ZM196.487 357.312C197.012 357.22 197.504 357.322 197.963 357.621C198.443 357.888 198.75 358.402 198.885 359.164C199.014 359.899 198.901 360.488 198.546 360.93C198.217 361.367 197.79 361.632 197.265 361.724C196.687 361.826 196.168 361.728 195.71 361.43C195.251 361.131 194.957 360.615 194.827 359.879C194.693 359.118 194.793 358.532 195.126 358.121C195.455 357.684 195.909 357.414 196.487 357.312ZM234.904 358.702L238.627 379.816L209.989 384.866L206.266 363.752L209.732 363.141L212.941 381.34L222.041 379.735L218.832 361.536L222.299 360.925L225.508 379.124L234.647 377.513L231.438 359.313L234.904 358.702ZM245.124 356.9L248.847 378.014L245.38 378.626L241.657 357.511L245.124 356.9ZM242.034 349.281C242.559 349.188 243.051 349.291 243.51 349.589C243.99 349.857 244.298 350.371 244.432 351.133C244.562 351.868 244.449 352.457 244.093 352.898C243.764 353.335 243.337 353.6 242.812 353.693C242.234 353.795 241.716 353.697 241.257 353.398C240.798 353.1 240.504 352.583 240.374 351.848C240.24 351.087 240.34 350.5 240.674 350.089C241.003 349.652 241.456 349.383 242.034 349.281ZM279.962 356.241C280.193 357.554 279.98 358.647 279.322 359.522C278.664 360.396 277.741 361.073 276.553 361.553L276.58 361.711C277.926 361.663 279.152 361.934 280.258 362.525C281.359 363.089 282.048 364.159 282.326 365.734C282.484 366.627 282.459 367.485 282.252 368.306C282.071 369.123 281.688 369.868 281.102 370.54C280.517 371.212 279.713 371.8 278.692 372.305C277.666 372.784 276.392 373.158 274.869 373.426L265.769 375.031L262.046 353.916L271.106 352.319C272.603 352.055 273.973 351.989 275.215 352.122C276.478 352.225 277.521 352.609 278.343 353.277C279.186 353.913 279.726 354.901 279.962 356.241ZM278.742 366.366C278.529 365.158 277.916 364.373 276.904 364.01C275.893 363.646 274.494 363.622 272.708 363.937L267.548 364.847L268.742 371.623L273.982 370.699C275.715 370.393 276.997 369.91 277.828 369.249C278.655 368.561 278.959 367.601 278.742 366.366ZM276.532 357.292C276.356 356.294 275.861 355.637 275.047 355.32C274.255 354.972 273.045 354.942 271.416 355.229L266.02 356.181L267.041 361.971L271.807 361.131C273.514 360.83 274.772 360.364 275.582 359.734C276.391 359.104 276.708 358.29 276.532 357.292ZM307.463 345.908L311.245 345.241L304.016 356.995L315.716 366.224L311.698 366.932L300.276 357.898L302.165 368.613L298.699 369.224L294.976 348.11L298.442 347.499L300.248 357.741L307.463 345.908ZM335.268 351.85C335.578 353.61 335.617 355.214 335.385 356.663C335.175 358.081 334.72 359.339 334.02 360.437C333.346 361.531 332.436 362.436 331.29 363.153C330.165 363.838 328.854 364.313 327.358 364.577C325.966 364.823 324.637 364.813 323.372 364.549C322.102 364.258 320.951 363.717 319.917 362.924C318.884 362.131 318 361.109 317.265 359.858C316.551 358.576 316.039 357.055 315.729 355.295C315.317 352.958 315.364 350.919 315.869 349.178C316.37 347.411 317.281 345.978 318.604 344.878C319.922 343.752 321.592 343.011 323.614 342.654C325.531 342.316 327.288 342.453 328.885 343.065C330.504 343.646 331.864 344.679 332.965 346.164C334.088 347.617 334.856 349.513 335.268 351.85ZM319.314 354.663C319.606 356.318 320.07 357.725 320.708 358.885C321.368 360.015 322.215 360.826 323.25 361.321C324.285 361.815 325.511 361.938 326.929 361.688C328.347 361.438 329.458 360.903 330.262 360.085C331.065 359.266 331.57 358.216 331.777 356.933C332.006 355.62 331.975 354.137 331.683 352.482C331.387 350.801 330.911 349.41 330.256 348.307C329.601 347.203 328.759 346.418 327.729 345.95C326.72 345.451 325.493 345.328 324.049 345.583C321.896 345.963 320.458 346.947 319.736 348.537C319.015 350.126 318.874 352.168 319.314 354.663ZM361.558 336.37L365.281 357.484L362.169 358.033L359.793 344.561C359.696 344.009 359.607 343.429 359.527 342.82C359.473 342.207 359.421 341.607 359.372 341.02L359.254 341.041L355.354 359.234L352.439 359.748L342.748 343.951L342.63 343.972C342.785 344.54 342.915 345.127 343.022 345.731C343.154 346.33 343.276 346.945 343.388 347.575L345.742 360.929L342.63 361.478L338.907 340.364L343.516 339.551L353.167 355.355L356.949 337.182L361.558 336.37ZM376.232 333.417C378.805 332.963 380.809 333.192 382.242 334.104C383.676 335.015 384.61 336.705 385.045 339.174L387.581 353.552L385.059 353.997L383.862 351.121L383.704 351.149C383.235 352.017 382.718 352.771 382.154 353.412C381.611 354.022 380.941 354.52 380.142 354.904C379.37 355.284 378.393 355.578 377.211 355.787C375.95 356.009 374.769 355.987 373.666 355.721C372.589 355.451 371.681 354.907 370.941 354.09C370.197 353.246 369.699 352.115 369.449 350.697C369.079 348.596 369.621 346.835 371.077 345.414C372.527 343.967 374.964 342.888 378.385 342.176L381.949 341.426L381.727 340.165C381.417 338.406 380.821 337.252 379.939 336.703C379.057 336.155 377.92 336.003 376.528 336.248C375.425 336.443 374.405 336.799 373.467 337.316C372.524 337.807 371.657 338.339 370.864 338.912L369.342 336.5C370.174 335.839 371.189 335.227 372.39 334.663C373.585 334.073 374.866 333.658 376.232 333.417ZM379.242 344.502C376.635 345.071 374.884 345.813 373.989 346.728C373.121 347.64 372.805 348.765 373.041 350.104C373.249 351.286 373.757 352.09 374.563 352.517C375.396 352.939 376.376 353.05 377.506 352.851C379.291 352.536 380.69 351.788 381.7 350.608C382.706 349.402 383.028 347.775 382.667 345.726L382.334 343.835L379.242 344.502ZM393.845 330.677L395.394 339.461L406.857 337.44L405.308 328.655L408.775 328.044L412.498 349.158L409.031 349.77L407.371 340.355L395.908 342.376L397.568 351.791L394.102 352.402L390.379 331.288L393.845 330.677ZM431.139 324.101L434.348 342.3L437.42 341.758L439.226 352L435.878 352.591L434.586 345.264L419.893 347.854L421.185 355.181L417.876 355.765L416.07 345.523L417.764 345.224C418.675 343.33 419.351 341.329 419.792 339.221C420.254 337.081 420.492 334.9 420.507 332.677C420.542 330.424 420.384 328.218 420.03 326.06L431.139 324.101ZM423.582 328.236C423.792 330.04 423.843 331.94 423.734 333.936C423.621 335.906 423.363 337.819 422.959 339.678C422.582 341.531 422.045 343.17 421.348 344.592L430.999 342.89L428.27 327.409L423.582 328.236ZM441.816 322.218L445.539 343.332L442.073 343.944L438.35 322.829L441.816 322.218ZM438.726 314.599C439.251 314.506 439.743 314.609 440.202 314.907C440.683 315.175 440.99 315.689 441.124 316.451C441.254 317.186 441.141 317.774 440.786 318.216C440.457 318.653 440.029 318.918 439.504 319.011C438.926 319.113 438.408 319.014 437.949 318.716C437.491 318.418 437.196 317.901 437.067 317.166C436.932 316.404 437.032 315.818 437.366 315.407C437.695 314.97 438.148 314.701 438.726 314.599ZM453.784 333.886L451.764 334.242L447.192 314.046L451.173 313.344L453.784 333.886ZM453.291 337.166C454.035 337.035 454.645 337.159 455.122 337.537C455.611 337.914 455.929 338.519 456.076 339.352C456.223 340.186 456.132 340.869 455.803 341.403C455.472 341.925 454.948 342.248 454.23 342.375C453.511 342.502 452.904 342.391 452.406 342.042C451.921 341.691 451.6 341.074 451.444 340.189C451.137 338.445 451.752 337.437 453.291 337.166Z" fill="#141515"/>
</g>
<g filter="url(#filter1_d_2651_1995)">
<rect x="86" y="214" width="303" height="70" rx="10" fill="#F4EAD8" shape-rendering="crispEdges"/>
<path d="M122.8 250.68C122.8 252.893 122.52 254.907 121.96 256.72C121.4 258.507 120.56 260.053 119.44 261.36C118.347 262.667 116.973 263.667 115.32 264.36C113.693 265.053 111.8 265.4 109.64 265.4C107.4 265.4 105.453 265.053 103.8 264.36C102.147 263.64 100.773 262.64 99.68 261.36C98.5867 260.053 97.7733 258.493 97.24 256.68C96.7067 254.867 96.44 252.853 96.44 250.64C96.44 247.707 96.92 245.147 97.88 242.96C98.84 240.773 100.293 239.067 102.24 237.84C104.213 236.613 106.693 236 109.68 236C112.533 236 114.933 236.613 116.88 237.84C118.827 239.04 120.293 240.747 121.28 242.96C122.293 245.147 122.8 247.72 122.8 250.68ZM100.24 250.68C100.24 253.08 100.573 255.147 101.24 256.88C101.907 258.613 102.933 259.947 104.32 260.88C105.733 261.813 107.507 262.28 109.64 262.28C111.8 262.28 113.56 261.813 114.92 260.88C116.307 259.947 117.333 258.613 118 256.88C118.667 255.147 119 253.08 119 250.68C119 247.08 118.253 244.267 116.76 242.24C115.267 240.187 112.907 239.16 109.68 239.16C107.52 239.16 105.733 239.627 104.32 240.56C102.933 241.467 101.907 242.787 101.24 244.52C100.573 246.227 100.24 248.28 100.24 250.68ZM127.53 252.12C127.53 249 127.837 246.347 128.45 244.16C129.09 241.947 130.063 240.187 131.37 238.88C132.703 237.547 134.41 236.653 136.49 236.2C138.223 235.827 139.917 235.493 141.57 235.2C143.223 234.907 144.77 234.64 146.21 234.4L146.81 237.48C146.117 237.587 145.343 237.72 144.49 237.88C143.637 238.013 142.77 238.16 141.89 238.32C141.01 238.453 140.157 238.6 139.33 238.76C138.53 238.893 137.823 239.027 137.21 239.16C136.33 239.347 135.543 239.667 134.85 240.12C134.157 240.547 133.557 241.133 133.05 241.88C132.57 242.627 132.183 243.547 131.89 244.64C131.597 245.733 131.423 247.027 131.37 248.52H131.61C131.983 248.013 132.49 247.493 133.13 246.96C133.797 246.427 134.583 245.973 135.49 245.6C136.423 245.227 137.477 245.04 138.65 245.04C140.517 245.04 142.063 245.453 143.29 246.28C144.543 247.08 145.477 248.2 146.09 249.64C146.73 251.08 147.05 252.76 147.05 254.68C147.05 257.053 146.637 259.04 145.81 260.64C144.983 262.24 143.837 263.44 142.37 264.24C140.903 265.013 139.197 265.4 137.25 265.4C135.783 265.4 134.45 265.12 133.25 264.56C132.05 263.973 131.023 263.12 130.17 262C129.317 260.88 128.663 259.493 128.21 257.84C127.757 256.187 127.53 254.28 127.53 252.12ZM137.53 262.48C138.703 262.48 139.717 262.24 140.57 261.76C141.45 261.28 142.13 260.493 142.61 259.4C143.09 258.307 143.33 256.853 143.33 255.04C143.33 252.853 142.917 251.133 142.09 249.88C141.29 248.6 139.957 247.96 138.09 247.96C136.917 247.96 135.85 248.227 134.89 248.76C133.93 249.267 133.13 249.853 132.49 250.52C131.85 251.187 131.397 251.747 131.13 252.2C131.13 253.507 131.223 254.773 131.41 256C131.597 257.227 131.917 258.333 132.37 259.32C132.85 260.28 133.503 261.053 134.33 261.64C135.183 262.2 136.25 262.48 137.53 262.48ZM154.645 246.758H152.594L151.793 236.445H155.426L154.645 246.758ZM170.463 265.4C168.489 265.4 166.729 265.027 165.183 264.28C163.663 263.507 162.463 262.307 161.583 260.68C160.703 259.053 160.263 256.96 160.263 254.4C160.263 251.733 160.716 249.573 161.623 247.92C162.529 246.267 163.756 245.067 165.303 244.32C166.876 243.547 168.636 243.16 170.583 243.16C171.676 243.16 172.743 243.267 173.783 243.48C174.849 243.693 175.756 243.973 176.503 244.32L175.463 247.2C174.716 246.907 173.889 246.667 172.983 246.48C172.103 246.293 171.276 246.2 170.503 246.2C169.143 246.2 167.996 246.427 167.063 246.88C166.129 247.333 165.409 248.027 164.903 248.96C164.396 249.893 164.063 251.08 163.903 252.52H174.423V255.4H163.863C163.943 256.973 164.236 258.28 164.743 259.32C165.249 260.36 165.969 261.133 166.903 261.64C167.836 262.147 168.996 262.4 170.383 262.4C171.583 262.4 172.649 262.28 173.583 262.04C174.516 261.8 175.383 261.52 176.183 261.2V264.24C175.436 264.613 174.609 264.893 173.703 265.08C172.796 265.293 171.716 265.4 170.463 265.4ZM197.187 243.56V262.04H200.307V272.44H196.907V265H181.987V272.44H178.627V262.04H180.347C181.574 260.333 182.587 258.48 183.387 256.48C184.214 254.453 184.827 252.347 185.227 250.16C185.654 247.947 185.881 245.747 185.907 243.56H197.187ZM189.027 246.32C188.921 248.133 188.641 250.013 188.187 251.96C187.734 253.88 187.147 255.72 186.427 257.48C185.734 259.24 184.921 260.76 183.987 262.04H193.787V246.32H189.027ZM208.029 243.56V252.48H219.669V243.56H223.189V265H219.669V255.44H208.029V265H204.509V243.56H208.029ZM238.098 243.2C240.711 243.2 242.645 243.773 243.898 244.92C245.151 246.067 245.778 247.893 245.778 250.4V265H243.218L242.538 261.96H242.378C241.765 262.733 241.125 263.387 240.458 263.92C239.818 264.427 239.071 264.8 238.218 265.04C237.391 265.28 236.378 265.4 235.178 265.4C233.898 265.4 232.738 265.173 231.698 264.72C230.685 264.267 229.885 263.573 229.298 262.64C228.711 261.68 228.418 260.48 228.418 259.04C228.418 256.907 229.258 255.267 230.938 254.12C232.618 252.947 235.205 252.307 238.698 252.2L242.338 252.08V250.8C242.338 249.013 241.951 247.773 241.178 247.08C240.405 246.387 239.311 246.04 237.898 246.04C236.778 246.04 235.711 246.213 234.698 246.56C233.685 246.88 232.738 247.253 231.858 247.68L230.778 245.04C231.711 244.533 232.818 244.107 234.098 243.76C235.378 243.387 236.711 243.2 238.098 243.2ZM239.138 254.64C236.471 254.747 234.618 255.173 233.578 255.92C232.565 256.667 232.058 257.72 232.058 259.08C232.058 260.28 232.418 261.16 233.138 261.72C233.885 262.28 234.831 262.56 235.978 262.56C237.791 262.56 239.298 262.067 240.498 261.08C241.698 260.067 242.298 258.52 242.298 256.44V254.52L239.138 254.64ZM255.92 243.56V252.48H267.56V243.56H271.08V265H267.56V255.44H255.92V265H252.4V243.56H255.92ZM281.389 243.56V265H277.869V243.56H281.389ZM279.669 235.52C280.202 235.52 280.669 235.707 281.069 236.08C281.495 236.427 281.709 236.987 281.709 237.76C281.709 238.507 281.495 239.067 281.069 239.44C280.669 239.813 280.202 240 279.669 240C279.082 240 278.589 239.813 278.189 239.44C277.789 239.067 277.589 238.507 277.589 237.76C277.589 236.987 277.789 236.427 278.189 236.08C278.589 235.707 279.082 235.52 279.669 235.52ZM315.812 248.96C315.812 250.293 315.412 251.333 314.612 252.08C313.812 252.827 312.785 253.333 311.532 253.6V253.76C312.865 253.947 314.025 254.427 315.012 255.2C315.999 255.947 316.492 257.12 316.492 258.72C316.492 259.627 316.319 260.467 315.972 261.24C315.652 262.013 315.145 262.68 314.452 263.24C313.759 263.8 312.865 264.24 311.772 264.56C310.679 264.853 309.359 265 307.812 265H298.572V243.56H307.772C309.292 243.56 310.652 243.733 311.852 244.08C313.079 244.4 314.039 244.96 314.732 245.76C315.452 246.533 315.812 247.6 315.812 248.96ZM312.852 258.72C312.852 257.493 312.385 256.613 311.452 256.08C310.519 255.547 309.145 255.28 307.332 255.28H302.092V262.16H307.412C309.172 262.16 310.519 261.907 311.452 261.4C312.385 260.867 312.852 259.973 312.852 258.72ZM312.252 249.4C312.252 248.387 311.879 247.653 311.132 247.2C310.412 246.72 309.225 246.48 307.572 246.48H302.092V252.36H306.932C308.665 252.36 309.985 252.12 310.892 251.64C311.799 251.16 312.252 250.413 312.252 249.4ZM345.089 243.56V246.52H335.529V265H332.009V243.56H345.089ZM359.514 243.16C362.154 243.16 364.274 244.08 365.874 245.92C367.501 247.76 368.314 250.533 368.314 254.24C368.314 256.667 367.941 258.72 367.194 260.4C366.474 262.053 365.447 263.307 364.114 264.16C362.807 264.987 361.261 265.4 359.474 265.4C358.381 265.4 357.407 265.253 356.554 264.96C355.701 264.667 354.967 264.293 354.354 263.84C353.767 263.36 353.261 262.84 352.834 262.28H352.594C352.647 262.733 352.701 263.307 352.754 264C352.807 264.693 352.834 265.293 352.834 265.8V274.6H349.314V243.56H352.194L352.674 246.48H352.834C353.261 245.867 353.767 245.307 354.354 244.8C354.967 244.293 355.687 243.893 356.514 243.6C357.367 243.307 358.367 243.16 359.514 243.16ZM358.874 246.12C357.434 246.12 356.274 246.4 355.394 246.96C354.514 247.493 353.874 248.307 353.474 249.4C353.074 250.493 352.861 251.88 352.834 253.56V254.24C352.834 256 353.021 257.493 353.394 258.72C353.767 259.947 354.394 260.88 355.274 261.52C356.181 262.16 357.407 262.48 358.954 262.48C360.261 262.48 361.327 262.12 362.154 261.4C363.007 260.68 363.634 259.707 364.034 258.48C364.461 257.227 364.674 255.8 364.674 254.2C364.674 251.747 364.194 249.787 363.234 248.32C362.301 246.853 360.847 246.12 358.874 246.12ZM377.443 243.56V265H373.923V243.56H377.443ZM375.723 235.52C376.257 235.52 376.723 235.707 377.123 236.08C377.55 236.427 377.763 236.987 377.763 237.76C377.763 238.507 377.55 239.067 377.123 239.44C376.723 239.813 376.257 240 375.723 240C375.137 240 374.643 239.813 374.243 239.44C373.843 239.067 373.643 238.507 373.643 237.76C373.643 236.987 373.843 236.427 374.243 236.08C374.643 235.707 375.137 235.52 375.723 235.52Z" fill="#141515"/>
</g>
<g filter="url(#filter2_d_2651_1995)">
<rect x="84" y="130" width="266" height="66" rx="10" fill="#F4EAD8" shape-rendering="crispEdges"/>
<path d="M104.5 181.75V175.5H98.25V169.25H92V150.5H98.25V144.25H104.5V138H129.5V144.25H135.75V150.5H123.25V144.25H110.75V150.5H104.5V169.25H110.75V175.5H123.25V169.25H135.75V175.5H129.5V181.75H104.5ZM148.25 181.75V175.5H142V156.75H148.25V150.5H179.5V156.75H185.75V175.5H179.5V181.75H148.25ZM154.5 175.5H173.25V156.75H154.5V175.5Z" fill="#141515"/>
<path d="M198.25 181.75V138H210.75V175.5H235.75V181.75H198.25ZM242 181.75V150.5H248.25V144.25H254.5V138H273.25V144.25H279.5V150.5H285.75V181.75H273.25V169.25H254.5V181.75H242ZM254.5 163H273.25V150.5H267V144.25H260.75V150.5H254.5V163ZM292 181.75V138H329.5V144.25H335.75V156.75H329.5V163H335.75V175.5H329.5V181.75H292ZM304.5 156.75H323.25V144.25H304.5V156.75ZM304.5 175.5H323.25V163H304.5V175.5Z" fill="#FF730D"/>
</g>
<g filter="url(#filter3_f_2651_1995)">
<circle cx="1070" cy="290" r="290" fill="url(#paint0_linear_2651_1995)"/>
</g>
<path d="M1160.78 324.153C1158.62 290.187 1169.67 294.662 1134.59 288.859C1133.63 281.486 1132.31 270.726 1122.58 271.091C1121.46 272.624 1120.02 273.223 1118.26 272.901C1116.7 272.661 1115.13 272.296 1114.06 273.872C1109.61 275.807 1104.92 277.982 1103.73 283.42C1102.4 287.165 1100.96 292.844 1097.36 294.779C1087.15 296.596 1076.7 292.603 1066.73 294.056C1061.69 294.662 1066.97 310.013 1065.65 313.393C1064.09 314.605 1064.33 315.933 1064.69 317.503C1065.29 319.561 1061.81 320.766 1061.08 318.591C1060.6 316.78 1057.6 316.656 1058.32 314.481C1059.65 310.13 1055.68 306.02 1058.08 302.035C1058.56 299.735 1056.64 296.837 1054.72 295.626C1046.91 297.078 1038.99 295.75 1031.18 297.56C1030.94 299.378 1028.77 299.976 1028.53 301.911C1028.18 305.422 1026.25 308.437 1024.45 311.218C1017.97 322.941 1005.71 323.43 998.508 312.795C997.063 311.824 996.947 309.772 995.865 308.685C994.66 307.714 994.064 306.509 993.825 305.057C993.222 301.312 988.415 301.911 985.656 302.035C978.57 303.845 970.161 299.378 964.157 303.969C954.783 310.736 961.39 329.956 965.355 338.782C965.594 339.263 965.834 339.745 965.718 340.227C963.67 344.461 967.998 346.395 968.956 349.534C969.319 357.754 970.641 365.856 970.401 374.193C970.401 375.404 970.997 376.492 972.202 376.251C974.961 375.886 977.364 377.456 980.131 377.098C982.048 376.857 982.411 377.456 982.774 379.755C978.809 381.93 975.201 380.843 971.962 378.302C968.114 380.843 972.202 383.5 972.921 386.405C976.522 395.347 1016.76 382.901 1027.21 385.193C1031.18 385.923 1035.26 385.675 1039.23 385.317C1044.39 387.369 1049.68 384.471 1053.64 381.325C1057 377.821 1054.36 372.506 1055.2 368.273C1053.4 365.856 1055.8 363.075 1054.72 360.418C1054.48 356.549 1056.16 352.797 1055.56 348.811C1057 340.957 1070.7 347.848 1072.74 339.38C1073.1 338.052 1073.82 336.723 1075.14 336.117C1075.86 336.117 1075.98 337.453 1076.7 336.847C1077.54 335.876 1077.06 334.548 1078.14 333.701C1079.46 335.635 1077.54 337.205 1077.9 338.782C1078.63 339.38 1078.98 338.052 1079.7 338.782C1078.26 346.154 1075.86 356.425 1068.17 359.206C1065.41 359.206 1064.2 360.9 1063.49 363.316C1067.81 403.202 1064.33 379.879 1104.33 386.887C1114.06 387.252 1123.79 386.164 1133.51 385.193C1135.67 385.558 1137.36 382.536 1139.64 383.865C1142.76 383.624 1145.77 381.689 1149.13 381.93C1150.93 381.93 1152.49 380.843 1153.33 379.149C1154.89 376.616 1151.29 375.404 1151.53 373.346C1153.21 371.054 1150.69 365.615 1155.02 366.214C1155.5 369.601 1153.81 373.229 1156.09 376.857C1158.97 373.594 1157.54 369.966 1158.5 366.097C1160.06 352.074 1160.18 337.935 1160.78 324.153Z" fill="#F7D062"/>
<path d="M959.591 237.607C960.912 253.681 964.514 269.273 964.514 285.23C968.115 285.96 965.116 281.486 966.314 279.675C967.28 279.427 968.239 278.704 969.32 278.945C973.888 297.801 969.437 297.684 992.018 296.231C994.545 295.749 994.545 295.625 995.148 298.166C995.627 299.735 997.188 300.823 998.386 301.794C1002.47 308.56 1002.11 299.253 1008.12 300.823C1017.73 304.21 1020.85 292.727 1027.34 288.377C1029.01 290.07 1027.34 291.516 1027.34 293.209C1033.94 294.056 1040.43 292.486 1047.03 291.881C1049.31 291.516 1051.72 291.399 1053.04 288.858C1053.28 288.253 1054.24 288.012 1054.72 287.647C1056.04 281.486 1053.04 275.201 1055.8 269.156C1059.65 269.156 1059.76 265.769 1056.28 264.682C1052.68 263.112 1048.23 263.959 1047.03 259.243C1045.35 254.046 1039.71 257.192 1037.78 253.805C1028.18 237.972 1042.83 223.343 1058.68 222.139C1058.32 215.73 1063.01 205.576 1057.12 200.984C1054.72 201.225 1052.68 200.619 1050.52 199.656C1046.19 199.415 1042.23 200.013 1038.39 196.874C1040.06 196.633 1039.58 195.181 1040.55 194.334C1043.07 194.093 1045.83 194.334 1048.47 193.728C1047.64 190.954 1051 192.159 1051.35 190.348C1040.3 187.326 1027.7 192.765 1015.92 191.436C1001.03 191.436 986.253 194.217 971.484 191.794C959.954 190.706 960.673 201.466 960.433 210.05C959.954 219.233 959.83 228.541 959.591 237.731V237.607Z" fill="#F7D062"/>
<path d="M1192.01 216.576C1193.93 210.656 1189.49 203.765 1188.89 197.48C1186.12 185.027 1182.16 172.938 1178.32 160.85C1175.79 157.711 1174.12 153.36 1170.75 151.061C1167.63 149.856 1165.58 147.192 1163.78 144.659C1157.42 137.162 1146.85 144.411 1138.68 143.929C1137.6 141.995 1136.64 137.768 1133.64 139.337C1129.19 141.389 1124.15 141.031 1119.46 142.476C1108.53 144.776 1096.16 142.476 1086.31 147.681C1088.11 150.579 1083.91 151.908 1084.39 154.565C1085.83 155.171 1089.31 154.565 1088.84 156.864C1086.91 164.237 1097.24 183.822 1090.99 188.29C1086.55 191.793 1079.46 191.312 1078.14 198.203C1077.42 200.984 1075.98 203.882 1076.94 206.663C1077.78 209.203 1076.58 211.86 1078.14 214.16C1076.58 219.357 1076.58 223.949 1081.87 226.606C1084.27 229.869 1087.75 227.453 1090.88 228.183C1095.08 234.709 1092.92 251.264 1105.05 247.155C1118.62 242.563 1134.24 243.651 1132.07 224.671C1131.83 220.445 1139.4 212.948 1143.84 213.313C1145.29 213.313 1146.73 211.744 1148.29 211.985C1149.97 212.342 1151.29 211.495 1152.62 210.773C1155.37 209.32 1158.26 208.597 1161.02 211.014C1161.86 211.744 1163.67 211.495 1164.26 212.583C1165.34 215.488 1168.59 216.817 1169.55 219.598C1169.91 221.898 1170.99 223.949 1170.99 226.365C1170.99 227.577 1171.23 228.905 1172.67 229.511C1178.2 226.73 1199.82 226.124 1192.01 216.335V216.576Z" fill="#FF730D"/>
<path d="M1272.01 330.32C1269.84 325.364 1266 321.736 1263.23 317.261C1262.52 314.239 1260.83 312.064 1258.91 309.889C1257.23 306.75 1255.91 303.238 1253.03 300.946C1248.71 291.997 1243.3 283.055 1237.17 274.835C1235.73 272.543 1235.25 269.638 1232.61 268.309C1231.53 267.346 1232.13 265.411 1230.92 264.44C1229.25 262.389 1228.4 259.608 1226.36 257.79C1225.88 257.308 1225.52 256.586 1226.36 255.739C1229.49 256.104 1232.97 258.761 1236.21 257.79C1238.85 256.586 1241.26 259.484 1243.42 257.79C1248.1 252.352 1237.53 246.308 1232.85 245.585C1229.49 245.95 1230.92 241.234 1227.21 242.081C1221.08 240.629 1217.24 235.555 1210.03 238.453C1205.1 239.3 1209.55 243.651 1207.51 246.432C1205.22 251.023 1208.7 255.856 1207.99 260.571C1208.7 262.63 1210.27 264.324 1212.31 265.652C1214.23 263.236 1213.03 260.571 1213.75 258.155C1214.47 255.739 1214.83 253.323 1215.31 250.658C1222.16 255.016 1223.24 263.236 1227.8 269.397C1237.41 285.712 1245.7 303.122 1256.87 318.473C1263.23 325.963 1263.6 340.956 1275.01 343.132C1275.49 342.767 1275.85 342.402 1275.97 341.92C1276.93 337.328 1274.65 333.824 1271.88 330.32H1272.01Z" fill="#F7D062"/>
<path d="M1158.38 427.262C1153.33 422.065 1154.42 408.648 1149.85 408.399C1149.01 408.888 1148.65 409.611 1148.89 410.334C1149.25 415.414 1146.61 420.247 1144.69 424.722C1135.56 440.073 1124.14 435.481 1124.51 443.818C1126.79 445.628 1129.67 445.628 1132.31 446.599C1133.76 446.964 1134.72 448.533 1136.15 448.533C1144.32 451.92 1149.61 461.585 1150.69 470.411C1151.29 473.798 1155.74 471.98 1156.09 469.199C1158.26 457.957 1162.7 447.081 1173.99 442.365C1175.07 441.883 1175.91 441.037 1175.79 439.591C1169.19 436.321 1161.86 434.394 1158.26 427.262H1158.38Z" fill="#F7D062"/>
<path d="M1128.59 479.111C1127.15 476.936 1126.55 474.396 1125.23 472.103C1124.27 469.928 1120.54 470.41 1120.66 472.95C1120.06 476.33 1120.06 480.082 1117.66 482.739C1115.26 486.849 1109.73 486.126 1107.33 489.63C1114.06 493.857 1122.71 498.456 1124.03 507.88C1124.27 509.449 1124.99 511.026 1127.03 511.748C1129.55 504.617 1132.79 497.003 1140.12 493.74C1141.56 493.134 1143 492.17 1143 490.236C1137.72 486.973 1131.71 485.28 1128.83 479.111H1128.59Z" fill="#F7D062"/>
<path d="M1315 442.729C1311.28 438.137 1305.75 428.947 1299.27 434.144C1297.83 434.509 1297.47 435.597 1297.47 437.05C1297.59 446.474 1303.71 456.27 1312.49 460.139C1322.33 462.431 1319.21 447.32 1315.13 442.729H1315Z" fill="#FF730D"/>
<path d="M992.38 106.459C992.859 105.248 993.338 104.408 994.783 103.919C998.987 103.072 1000.91 99.0867 1003.79 96.1887C1005.23 95.1011 1004.51 93.2834 1004.39 91.8308C1004.39 90.3854 1002.71 90.6263 1001.75 90.1445C996.708 90.3854 991.182 94.612 989.497 99.5685C983.972 99.6926 978.57 104.525 978.446 109.357C978.446 118.066 991.182 111.781 992.38 106.335V106.459Z" fill="#F7D062"/>
<path d="M994.181 130.878C999.467 129.308 1020.73 127.009 1020.36 120.965C1011.24 113.716 1007.4 121.688 1000.43 119.271C998.385 118.425 998.269 121.688 994.783 120.242C988.539 118.665 985.656 132.571 994.181 130.878Z" fill="#F7D062"/>
<path d="M1023.37 150.579C1017.61 144.776 1009.56 147.075 1002.71 143.812C1000.19 142.359 997.187 142.235 994.305 141.637C991.059 140.907 988.177 148.279 992.983 148.885C996.106 150.579 998.269 153.477 1002.35 151.907C1005.23 151.185 1008.12 154.083 1011.12 153.966C1015.68 154.689 1020.25 153.601 1024.93 153.119C1024.93 151.426 1024.21 150.944 1023.49 150.338L1023.37 150.579Z" fill="#F7D062"/>
<path d="M1126.18 88.4508C1129.67 86.7573 1134.72 83.6111 1131.59 79.0195C1126.31 81.0781 1119.82 77.5742 1117.9 85.4287C1120.3 87.239 1122.82 89.1735 1126.18 88.3267V88.4508Z" fill="#F7D062"/>
<path d="M1117.3 110.569C1120.78 110.569 1122.58 107.065 1125.47 105.613C1128.23 103.678 1128.59 101.985 1126.67 98.8457C1118.5 100.05 1115.26 101.868 1117.42 110.569H1117.3Z" fill="#F7D062"/>
<path d="M1173.64 133.535C1170.51 135.228 1165.71 133.535 1164.5 138.009C1168.94 138.491 1174.23 136.44 1177.35 140.426C1177.72 141.148 1178.56 141.032 1179.52 140.667C1180.84 135.834 1179.16 131.359 1173.64 133.535Z" fill="#F7D062"/>
<path d="M1153.33 126.286C1154.29 123.746 1152.73 120.359 1150.45 118.789C1149.25 120.118 1149.01 121.57 1149.37 123.023C1149.37 127.133 1147.33 129.79 1147.81 134.622C1151.53 132.447 1152.25 129.06 1153.33 126.162V126.286Z" fill="#F7D062"/>
<path d="M844.519 209.684C826.025 212.341 815.933 231.686 808.969 247.154C803.684 254.527 805.963 266.257 799.356 271.936C780.979 286.441 775.816 312.91 778.822 335.028C777.377 339.021 781.102 342.16 779.781 346.153C782.903 353.767 784.464 362.468 789.51 368.994C792.03 375.403 803.684 392.448 811.612 388.097C796.597 380.965 789.51 359.928 785.183 344.941C783.382 341.678 785.067 337.933 783.019 334.787C781.458 331.524 783.266 328.145 782.663 324.757C782.3 307.107 788.065 287.288 801.28 275.075C801.999 275.681 802.239 276.404 801.999 277.134C800.322 283.784 802.478 290.909 804.526 297.318C808.367 308.078 823.738 309.406 829.503 299.252C837.795 285.47 826.381 264.805 809.565 266.98C809.565 260.089 814.372 254.41 815.33 247.519C817.494 244.979 819.774 242.686 819.418 238.934C820.856 238.453 821.582 237.489 821.821 235.912C823.143 231.686 827.107 228.78 829.387 225.16C834.07 218.751 842.602 215.488 849.805 211.984C848.128 209.808 847.046 209.319 844.519 209.808V209.684ZM809.325 270.367C814.611 265.768 822.664 273.382 825.183 278.338C827.107 281.244 826.142 284.872 827.826 287.77C825.423 310.735 807.888 306.508 807.408 285.959C807.285 280.762 805.847 274.718 809.325 270.367Z" fill="#F7D062"/>
<path d="M1030.09 462.557C1027.33 461.586 1025.29 464.367 1023.61 465.82C1018.69 466.177 1018.56 472.711 1014 473.557C1013.64 473.557 1013.16 473.915 1013.04 474.28C1012.08 476.572 1008.96 477.302 1008.72 480.2C1002.47 483.952 998.146 490.719 991.901 494.705C989.258 487.938 989.019 480.441 987.813 473.309C985.533 466.907 978.57 466.907 975.688 472.711C972.319 477.667 972.442 485.398 966.677 488.179C962.349 481.653 964.637 463.038 953.941 463.403C949.984 467.995 945.896 472.951 941.815 477.419C937.851 481.653 933.763 486.003 933.044 492.289C930.401 496.398 926.8 499.544 929.922 505.465C933.763 503.289 934.605 497.245 938.446 494.464C945.054 488.901 947.341 479.477 955.147 475.484C955.865 483.828 957.79 489.15 961.87 496.157C965.718 500.99 974.127 495.676 975.325 490.237C976.886 486.85 978.084 481.653 981.329 479.842C981.213 494.223 984.212 513.202 1001.99 499.304C1007.64 492.048 1014.12 485.522 1018.93 477.543C1022.05 473.674 1027.7 464.25 1033.1 469.929C1033.7 467.265 1032.86 463.761 1030.09 462.798V462.557Z" fill="#F7D062"/>
<path d="M1347.2 393.295C1343.59 392.324 1339.63 392.689 1336.15 392.083C1336.5 387.01 1346.71 382.17 1340.71 377.338C1337.11 378.542 1335.07 382.294 1331.71 383.864C1329.42 381.447 1330.98 376.973 1328.7 374.316C1327.25 372.505 1322.57 373.593 1324.13 376.25C1325.1 377.944 1322.45 378.542 1323.05 380.36C1322.57 382.652 1324.49 384.835 1324.13 387.01C1323.3 388.098 1323.89 389.426 1323.65 390.871C1318.73 391.12 1312.6 387.492 1310.08 393.412C1312.36 395.711 1315.85 394.383 1318.73 396.558C1315.37 400.062 1311.04 402.719 1312.6 408.398C1316.81 409.245 1319.93 406.464 1323.3 404.653C1328.34 403.449 1326.06 415.048 1333.03 413.479C1333.03 408.281 1332.3 403.201 1332.9 398.127C1339.27 394.981 1345.39 399.339 1351.4 397.157C1350.68 395.105 1349.36 393.653 1347.2 393.412V393.295Z" fill="#F7D062"/>
<path d="M1249.54 158.799C1248.58 162.785 1251.94 167.26 1256.39 167.384C1258.44 163.756 1252.31 152.996 1249.54 158.799Z" fill="#F7D062"/>
<path d="M1299.39 445.27C1299.39 444.182 1299.03 443.7 1298.07 443.452C1298.07 444.423 1298.07 445.27 1299.39 445.27Z" fill="#F7D062"/>
<path d="M1359.45 138.615C1358.13 133.053 1359.93 125.921 1356.44 121.205C1349.96 112.869 1339.51 117.825 1331.71 120.847C1328.58 122.417 1325.58 127.614 1322.22 124.351C1313.33 116.979 1308.28 117.336 1299.87 125.198C1294.7 130.155 1298.91 111.051 1284.02 119.877C1275.49 111.175 1266.12 103.678 1256.87 95.9407C1253.75 93.6486 1250.03 89.4148 1245.94 90.0206C1246.91 91.7142 1248.95 91.5901 1249.79 93.1668C1244.86 93.4077 1240.3 89.6557 1235.61 88.0862C1230.57 85.4291 1224.56 83.9765 1219.76 80.9544C1213.87 75.881 1205.82 77.0855 1198.98 74.6693C1181.68 70.5595 1163.67 62.8218 1146.37 70.9245C1138.08 75.392 1119.1 76.3628 1119.7 88.568C1120.18 93.0427 1123.3 93.1668 1126.67 94.4954C1124.27 99.3278 1117.54 101.868 1117.54 107.912C1120.78 124.957 1136.39 112.139 1143.73 105.737C1145.17 103.919 1147.81 105.372 1146.73 107.547C1144.8 116.855 1142.76 126.527 1141.92 135.834C1137.12 139.214 1130.51 138.732 1125.59 141.031C1113.33 145.499 1099.89 146.229 1087.03 149.733C1083.79 150.338 1080.54 152.996 1080.91 155.777C1080.91 163.274 1080.67 170.281 1082.71 177.53C1067.69 181.282 1064.33 201.225 1070.81 213.678C1071.9 216.452 1073.94 218.029 1075.98 219.715C1079.46 224.431 1086.43 223.102 1091.48 225.161C1092.07 232.534 1093.87 245.345 1103.73 244.016C1115.13 241.235 1127.03 239.176 1138.08 235.191C1138.56 231.446 1136.88 227.694 1138.32 224.073C1140.36 216.452 1147.81 211.255 1154.53 217.299C1156.22 218.876 1158.38 220.204 1158.38 223.226C1158.38 226 1163.43 229.387 1167.14 228.3C1173.99 225.037 1188.4 226.248 1189.97 217.299C1188.89 213.43 1188.64 209.32 1187.69 205.335C1184.8 193.246 1183.37 180.8 1180.84 168.712C1179.28 164.602 1176.28 146.951 1180.24 145.382C1191.29 144.776 1201.62 139.579 1212.43 138.009C1218.56 138.25 1224.68 137.885 1230.92 137.768C1240.06 137.403 1250.75 134.264 1256.03 144.294C1255.43 145.499 1254.83 146.586 1254.23 147.798C1245.7 148.645 1251.35 159.164 1253.75 163.631C1239.57 180.917 1265.64 193.246 1268.52 209.32C1264.92 213.678 1259.52 225.518 1260.24 231.205C1261.2 238.578 1268.64 245.345 1276.21 244.257C1282.22 241.6 1299.16 235.556 1299.75 228.665C1300.23 225.161 1305.28 225.161 1306.84 221.774C1308.52 222.496 1314.16 215.365 1313.81 213.678C1317.29 211.496 1317.89 207.634 1320.53 204.729C1325.45 198.444 1329.9 191.312 1332.66 183.698C1334.59 180.676 1335.79 176.807 1338.91 174.632C1340.83 171.493 1341.31 166.653 1345.52 164.96C1347.2 164.361 1346.47 161.697 1348.28 161.456C1349 162.062 1349.24 162.784 1348.51 163.514C1343.96 169.675 1341.55 176.807 1337.22 183.216C1334.23 186.355 1333.27 191.071 1330.38 194.458C1329.66 195.305 1328.46 196.991 1330.02 198.568C1343.83 185.633 1361.25 158.317 1359.93 138.491L1359.45 138.615ZM1133.16 82.5238C1135.08 77.2096 1167.14 67.5374 1171.35 71.7713C1170.99 72.7349 1170.03 72.7349 1169.31 72.494C1166.55 71.5304 1163.78 72.494 1161.02 72.6181C1150.09 73.7057 1142.04 82.6479 1134 89.298C1131.95 91.4733 1129.43 89.298 1126.91 88.933C1128.59 86.1518 1131.95 85.67 1133.16 82.5238ZM1123.91 86.035C1125.59 83.9765 1127.75 83.0129 1130.15 82.2829C1128.59 84.4582 1126.43 85.67 1123.91 86.035ZM1125.1 102.226C1125.1 104.649 1123.3 105.007 1122.1 105.978C1122.71 104.525 1123.19 102.956 1125.1 102.226ZM1138.92 104.525C1134.35 108.153 1127.39 112.263 1121.74 109.723C1133.27 100.175 1124.99 102.109 1130.39 97.1525C1138.08 90.1447 1146.12 83.0129 1155.13 77.6914C1161.26 75.0343 1171.83 76.2387 1177.96 78.4141C1163.78 85.67 1150.93 94.0136 1138.92 104.525ZM1151.53 124.468C1153.33 126.643 1150.57 130.155 1149.37 132.447C1146.97 131.483 1148.53 123.38 1151.53 124.468ZM1179.4 188.29C1180.6 191.071 1179.76 194.458 1180.48 197.356C1180.72 199.291 1181.8 201.101 1180.96 203.159C1182.16 208.233 1183.96 213.43 1184.69 218.752C1178.67 221.292 1172.55 222.015 1166.06 222.737C1161.26 211.255 1158.14 208.116 1145.64 209.32C1135.56 211.138 1125.95 222.737 1127.63 233.132C1118.5 235.797 1109.86 237.125 1100.37 238.695C1098.68 235.556 1097.84 232.044 1098.33 228.424C1096.88 225.759 1097.12 222.737 1096.88 219.839C1096.52 216.095 1090.88 217.423 1088.11 217.182C1073.58 217.788 1073.34 196.633 1079.11 187.443C1082.95 182.246 1090.27 185.027 1088.71 180.311C1087.63 177.778 1088.23 175.238 1088.47 172.698C1086.67 168.347 1087.27 163.514 1085.11 159.281C1083.91 156.864 1084.63 155.901 1087.39 155.901C1094.36 154.93 1100.96 150.579 1108.17 151.061C1121.26 147.922 1134.59 145.017 1147.93 142.484C1151.05 141.513 1154.29 141.389 1157.54 141.272C1158.86 141.031 1159.7 141.389 1160.54 142.36C1171.11 153.477 1171.47 137.885 1173.51 163.631C1171.47 161.821 1172.19 158.675 1169.79 156.864C1171.95 167.135 1176.52 177.778 1179.16 188.29H1179.4ZM1174.72 138.491C1172.19 138.615 1168.23 140.549 1166.55 137.527C1168.35 134.264 1172.91 132.33 1176.39 133.534C1176.39 135.104 1176.39 137.768 1174.72 138.491ZM1174.83 167.865C1173.99 167.135 1173.99 166.653 1174.11 165.931C1175.44 165.208 1176.16 166.894 1174.83 167.865ZM1162.22 131.841C1163.91 124.957 1167.27 117.095 1169.43 109.847C1172.43 103.678 1182.52 103.562 1187.93 98.9628C1196.7 103.197 1205.82 96.7875 1196.81 113.592C1192.37 117.095 1186.73 119.395 1181.08 120.964C1179.4 121.205 1177.72 122.176 1176.28 123.621C1172.19 127.133 1166.19 127.855 1162.22 131.724V131.841ZM1251.23 133.418C1247.26 129.79 1231.65 130.994 1226.24 132.206C1209.79 130.877 1194.9 138.009 1178.67 139.097C1178.67 133.294 1179.4 131.118 1172.55 131.483C1173.15 129.666 1174.59 128.943 1176.03 128.578C1181.68 127.249 1186.6 123.862 1192.13 122.293C1200.9 119.03 1208.34 105.737 1201.38 97.7584C1190.69 92.4369 1179.76 99.9337 1169.55 102.956C1160.54 108.27 1161.86 121.935 1157.54 130.636C1156.58 133.169 1153.46 136.922 1150.45 135.104C1150.81 129.79 1158.38 125.198 1150.45 120.482C1151.29 111.781 1151.77 100.175 1159.82 94.9772C1171.23 88.2103 1182.64 79.3849 1196.57 80.4726C1202.7 80.9544 1209.66 79.2608 1214.71 83.7356C1221.8 89.1739 1231.41 90.8674 1238.5 95.5831C1238.5 95.8239 1239.09 95.9407 1239.33 95.9407C1241.62 95.2181 1242.82 97.0284 1244.02 98.2402C1256.27 107.066 1271.4 109.482 1280.53 123.38C1274.77 129.906 1265.64 138.374 1258.68 142.725C1255.43 141.031 1253.03 136.681 1251.11 133.294L1251.23 133.418ZM1254.11 152.149C1255.19 147.557 1266.72 148.521 1272.37 141.031C1276.33 135.951 1281.74 132.206 1284.02 126.162C1284.73 124.11 1286.66 125.074 1288.7 123.986C1290.14 128.096 1295.55 129.308 1295.55 134.016C1284.38 139.703 1286.3 153.966 1273.93 157.346C1271.77 158.434 1268.64 158.558 1267.56 161.098C1267.2 161.938 1266.72 162.784 1265.64 163.274C1259.39 162.668 1257.59 156.499 1254.23 152.39L1254.11 152.149ZM1336.03 157.105C1333.99 161.098 1332.06 165.084 1328.7 168.106C1328.58 171.245 1325.21 172.581 1324.86 175.72C1322.33 179.107 1318.97 182.37 1316.81 186.355C1310.8 195.787 1305.4 205.335 1298.19 213.795C1296.51 215.854 1295.43 218.752 1293.87 220.927C1290.86 222.737 1288.34 225.037 1285.94 227.694C1283.41 225.278 1283.78 222.255 1281.5 219.839C1280.29 218.628 1279.33 217.423 1280.18 215.489C1280.53 214.642 1280.05 213.795 1279.46 213.189C1275.61 208.963 1275.37 202.918 1272.01 198.444C1265.52 190.83 1258.31 183.092 1254.95 173.428C1253.63 167.135 1262.15 167.259 1266.12 164.719C1267.2 168.588 1267.08 173.063 1271.88 175.238C1270.32 169.8 1268.64 161.58 1276.09 161.215C1278.85 158.558 1282.93 158.193 1285.22 154.93C1292.42 149.608 1287.62 148.769 1291.71 145.258C1295.43 143.323 1297.95 138.374 1302.04 137.527C1302.39 137.527 1303 137.644 1303.24 137.279C1304.08 135.228 1306.36 135.104 1307.8 133.899C1307.56 129.79 1303.6 132.812 1302.04 130.271C1317.29 115.891 1324.13 144.535 1336.74 146.71C1337.35 148.404 1338.31 149.857 1339.75 151.185C1338.07 152.996 1336.98 155.171 1336.03 157.229V157.105Z" fill="#141515"/>
<path d="M945.177 374.922C942.411 374.922 939.173 374.922 936.646 375.645C935.811 376.973 934.366 376.973 933.168 377.455C927.882 379.514 923.794 383.383 918.631 385.799C912.866 390.631 907.464 385.317 901.939 382.901C895.81 380.477 903.26 366.944 906.259 363.316C907.58 361.14 908.299 358.483 911.421 358.118C915.988 353.892 921.274 350.87 926.916 348.205C933.647 342.891 951.306 345.548 948.902 333.095C944.938 319.196 926.56 321.977 915.865 324.634C910.1 326.693 905.896 330.678 900.857 333.941C900.857 320.525 918.268 316.057 925.115 306.626C927.519 302.516 929.683 294.421 923.075 293.45C918.748 291.515 914.551 291.515 910.223 293.574C904.458 295.267 900.014 299.859 894.249 301.188C900.131 291.515 890.524 281.245 881.637 286.318C869.627 296.837 864.102 307.108 861.459 323.189C857.85 318.108 857.131 310.495 850.408 308.436C838.398 310.736 838.035 325.722 837.796 335.518C841.157 359.688 853.53 371.17 844.882 396.8C841.041 402.603 842.239 410.333 838.877 416.137C836.953 408.888 826.621 411.786 826.621 418.553C826.142 423.028 828.306 427.984 827.347 432.094C825.423 433.904 822.903 438.62 819.897 436.079C811.25 429.437 807.046 438.255 809.325 446.358C805.005 449.737 800.322 452.278 797.316 457.117C792.749 464.001 786.628 455.541 781.102 455.424C777.501 455.665 773.776 453.73 770.291 455.906C759.842 458.081 762.246 473.191 766.929 479.958C767.532 482.739 768.606 485.28 771.249 486.725C773.413 488.302 773.653 492.528 777.138 491.565C779.418 496.28 779.418 496.28 783.622 495.915C783.861 501.595 789.031 500.025 791.674 502.566C792.03 505.464 796.953 504.858 796.118 507.763C788.065 504.376 779.781 501.595 773.653 494.945C769.448 491.324 764.163 486.243 759 485.156C768.25 500.39 786.149 508.121 802.841 511.749C813.769 513.924 829.504 521.056 837.912 510.179C839.959 507.274 841.637 504.5 838.398 501.354C833.352 486.608 826.744 495.791 839.117 479.958C840.199 478.506 841.637 478.506 843.198 479.593C844.882 480.805 847.162 480.44 848.963 481.411C856.892 484.068 861.938 473.673 857.611 467.147C865.06 467.629 867.101 466.425 868.901 459.044C869.744 454.942 866.258 451.314 865.184 447.445C868.422 443.817 870.826 436.444 876.111 436.685C878.275 435.963 880.679 434.751 882.959 434.269C894.01 430.283 899.775 418.436 910.703 413.844C924.999 410.574 942.897 405.983 949.861 391.602C952.62 386.164 952.743 375.886 945.054 374.681L945.177 374.922ZM824.581 441.883C826.026 440.313 828.066 439.467 829.148 437.291C832.989 443.095 837.077 448.898 841.281 454.694C842.842 456.387 845.122 456.993 845.964 459.409C846.56 460.256 846.559 461.227 845.724 461.95C842.718 464.607 839.596 459.293 836.953 457.957C834.071 454.577 819.179 446.358 824.465 441.883H824.581ZM799.24 508.967C798.637 508.851 798.761 508.004 799.356 508.004C800.198 508.004 799.959 509.208 799.24 508.967ZM832.27 482.374C825.786 489.025 820.74 497.003 814.735 504.011C813.653 505.945 813.53 505.829 811.373 505.099C797.679 500.025 785.546 492.171 775.453 481.528C782.78 474.644 792.509 470.651 799.356 463.402C801.999 458.928 808.127 458.687 811.01 454.095C811.613 453.365 812.331 453.124 813.174 453.124C820.74 461.344 827.703 470.045 836.59 476.695C835.755 479.352 833.955 480.805 832.386 482.258L832.27 482.374ZM851.127 474.396C842.116 481.893 795.631 433.181 819.179 439.102C818.939 440.189 817.857 439.102 817.378 439.707C818.213 445.27 823.978 449.496 827.463 453.73C831.791 456.993 847.641 474.279 851.127 465.337C853.77 468.111 855.57 472.95 851.01 474.396H851.127ZM861.096 459.169C852.208 468.476 818.097 414.443 836.953 417.589C837.193 418.472 836.554 420.049 835.029 422.305C837.672 429.196 853.167 457.117 861.096 454.935C861.219 453.847 860.014 453.365 860.254 452.402C860.98 452.037 861.699 451.314 862.657 451.314C863.623 454.453 863.02 457.84 861.219 459.169H861.096ZM946.738 384.105C946.02 392.931 937.372 397.405 930.525 401.15C921.993 408.282 909.86 407.676 901.096 413.961C892.085 421.94 883.314 432.576 870.223 432.335C869.627 433.422 871.065 434.145 870.709 435.233C868.306 436.926 865.184 437.656 863.739 440.554C860.98 441.401 860.493 444.54 858.097 445.752C856.892 446.358 857.255 447.686 856.652 448.774C852.208 446.474 850.408 440.313 847.046 436.444C844.519 431.612 837.796 426.174 842.355 420.611C846.56 416.261 846.806 410.574 848.128 405.26C850.168 398.851 851.606 392.084 852.811 385.558C854.968 361.381 833.591 336.117 849.689 314.239C862.541 312.911 853.407 354.249 862.054 364.403C863.978 367.309 870.709 369.842 873.948 368.031C875.509 365.973 878.754 369.119 879.713 366.579C880.555 362.834 887.039 361.863 885.478 357.753C882.595 352.68 873.468 361.016 868.306 360.053C865.184 352.315 863.376 344.46 866.258 336.606C867.224 327.175 869.504 317.743 872.866 308.684C874.071 304.326 876.228 300.582 879.713 297.56C880.795 294.662 887.402 289.464 888.484 294.662C890.764 302.516 884.883 307.954 881.877 314.364C878.515 321.977 873.345 349.417 881.514 353.643C883.075 345.307 884.157 336.723 883.801 328.145C886.923 315.933 895.687 306.261 906.978 300.823C910.463 298.888 916.112 295.019 919.953 298.165C922.472 303.363 915.386 305.903 913.229 309.407C912.866 310.371 911.908 310.86 910.942 311.458C903.855 314.729 899.891 321.255 895.571 327.175C896.173 329.956 893.886 331.649 893.044 333.941C891.367 339.022 892.928 344.825 895.687 349.293C898.57 344.22 904.698 342.65 908.778 338.781C913.345 337.088 917.673 334.066 922.596 332.978C924.52 329.832 941.329 327.656 942.897 330.803C949.498 341.197 916.947 342.891 911.545 348.57C905.896 351.468 902.055 356.308 899.651 361.987C900.014 365.126 897.974 367.185 896.653 369.601C886.683 381.324 900.857 396.07 913.709 393.296C918.152 392.931 921.993 392.566 924.999 388.938C930.162 386.887 945.294 372.747 946.738 384.47V384.105Z" fill="#141515"/>
<path d="M1353.44 458.081C1346.6 448.051 1332.42 457.599 1324.62 462.432C1323.89 463.037 1323.05 463.402 1321.74 462.913C1325.94 453.847 1312.25 425.685 1301.2 428.59C1298.31 429.678 1297.71 429.678 1296.15 427.013C1291.47 419.4 1287.14 411.669 1282.69 403.931C1273.33 381.689 1257.59 363.199 1246.42 341.92C1237.29 326.328 1232.01 308.684 1222.16 293.574C1215.55 281.12 1192.61 260.214 1199.34 290.07C1202.82 308.078 1213.75 323.912 1217.83 341.197C1211.47 343.49 1203.66 342.891 1197.78 345.548C1197.18 347.723 1195.13 348.088 1193.57 348.935C1185.76 353.527 1181.8 357.512 1181.8 367.06C1182.16 375.28 1190.2 380.361 1193.69 387.011C1195.37 390.872 1198.98 391.237 1202.34 392.208C1203.42 397.157 1206.43 401.632 1211.35 403.085C1214.35 404.048 1216.16 405.866 1217.35 408.399C1220.72 416.377 1229.6 419.64 1232.97 427.619C1236.81 438.138 1250.14 439.102 1259.52 441.518C1265.64 444.664 1266.96 451.672 1270.56 456.752C1271.05 457.234 1271.4 458.081 1270.92 458.804C1269.84 460.621 1270.45 462.797 1270.81 464.49C1272.49 471.739 1276.69 484.55 1285.34 485.156C1287.02 485.156 1287.98 486.002 1288.1 487.813C1281.02 491.565 1275 496.879 1270.81 503.894C1266 509.814 1266.48 515.493 1272.85 519.968C1276.69 524.202 1281.5 522.99 1286.42 522.268C1300.72 523.231 1315.13 518.158 1326.06 509.091C1317.89 511.026 1309.96 516.464 1301.43 515.617C1301.79 514.289 1303 513.807 1304.08 513.924C1306.84 514.165 1308.88 512.836 1310.92 511.508C1312.84 510.42 1315.24 511.026 1316.33 508.486C1319.93 504.135 1327.5 506.069 1328.82 499.178C1335.91 498.573 1335.55 494.704 1338.91 490.835C1344.56 489.265 1345.39 482.017 1350.08 478.871C1353.8 474.885 1359.57 461.344 1353.21 458.081H1353.44ZM1301.2 434.51C1309.96 427.984 1328.82 458.804 1313.92 458.687C1309.12 460.862 1292.42 435.233 1301.2 434.51ZM1229.49 416.261C1227.93 411.669 1223.36 409.005 1221.68 404.172C1224.44 403.326 1227.08 402.844 1229.25 401.026C1230.09 405.866 1229.25 410.939 1229.49 416.137V416.261ZM1270.81 443.7C1267.08 440.795 1262.76 437.897 1257.95 437.05C1256.27 436.809 1255.19 435.357 1254.35 434.269C1250.99 430.641 1246.54 428.59 1242.82 425.444C1229.25 420.005 1236.21 402.362 1234.89 390.996C1234.65 384.47 1229.97 381.565 1223.48 382.653C1219.52 385.076 1223.96 388.456 1227.21 387.974C1234.17 387.974 1224.32 398.734 1220.72 397.763C1219.28 398.252 1217.59 398.851 1215.92 397.646C1200.78 398.004 1207.27 388.339 1212.67 379.996C1213.39 378.061 1215.31 377.214 1216.99 376.251C1219.15 371.776 1228.16 374.075 1227.69 368.148C1222.4 367.309 1216.75 371.9 1211.83 373.951C1205.82 376.857 1205.46 383.018 1202.7 388.215C1197.65 387.368 1196.09 379.879 1195.49 375.645C1199.46 368.754 1207.75 366.944 1213.51 361.746C1216.87 360.294 1220.48 359.33 1223.36 356.906C1219.52 351.957 1215.19 355.819 1211.71 358.359C1204.62 362.352 1193.93 364.768 1191.29 373.229C1191.17 373.951 1190.57 374.192 1189.96 374.681C1179.16 361.987 1204.39 349.534 1214.35 346.154C1220.48 343.614 1228.88 348.935 1234.05 343.738C1235.49 340.592 1229.12 340.592 1227.21 341.314C1223 342.285 1223.36 332.854 1220 330.678C1216.63 325.481 1216.75 318.108 1212.91 312.911C1211.47 307.838 1209.66 302.757 1207.38 298.165C1207.75 294.902 1204.74 292.844 1204.39 289.822C1203.06 286.924 1200.9 284.624 1203.42 281.361C1210.15 281.361 1212.55 290.187 1216.03 294.902C1217.24 298.041 1220.6 300.217 1220.84 303.845C1220.84 306.261 1224.2 306.261 1224.44 308.684C1225.52 314.845 1228.4 320.284 1230.81 325.846C1231.77 331.408 1234.89 335.759 1238.25 339.986C1248.1 353.045 1255.55 367.907 1265.28 381.083C1275.61 397.646 1284.38 415.173 1293.87 432.211C1292.79 435.722 1291.94 438.985 1293.38 442.365C1293.87 443.452 1293.03 444.299 1292.66 445.387C1287.14 446.598 1284.02 452.037 1278.97 454.212C1276.69 450.584 1273.81 447.08 1271.16 443.452L1270.81 443.7ZM1274.05 465.454C1275.13 463.037 1277.77 463.278 1279.57 462.315C1284.14 457.234 1290.86 454.577 1294.59 448.533C1296.63 449.496 1296.39 451.92 1298.19 452.759C1291.34 459.169 1284.26 464.366 1276.21 468.6C1274.89 467.629 1274.53 466.541 1274.05 465.578V465.454ZM1278.85 472.95C1277.65 472.345 1277.41 471.016 1276.69 470.169C1284.02 465.337 1293.14 462.315 1297.83 453.971C1302.76 456.628 1299.75 460.738 1295.91 462.315C1290.38 466.06 1284.98 470.169 1278.85 473.067V472.95ZM1287.5 476.936C1286.42 478.389 1285.22 477.418 1284.14 477.542C1281.5 477.907 1281.5 477.666 1280.29 475.126C1287.62 470.286 1297.47 468.359 1302.04 459.774C1310.45 462.432 1298.55 468.235 1296.39 471.739C1293.38 473.432 1289.66 474.038 1287.5 477.06V476.936ZM1328.58 488.302C1325.94 489.63 1325.21 493.134 1322.09 493.74C1320.17 494.098 1318.37 495.069 1316.81 496.397C1313.33 499.66 1308.4 499.66 1304.67 502.566C1299.15 496.762 1296.39 489.025 1291.34 482.739C1295.07 481.287 1297.71 478.506 1300.83 476.936C1302.76 476.571 1304.8 476.213 1305.64 474.038C1311.4 470.534 1308.16 463.76 1317.41 467.512C1320.29 473.556 1323.3 480.681 1328.7 485.039C1330.02 485.762 1330.02 487.455 1328.58 488.302Z" fill="#141515"/>
<path d="M1157.41 288.859C1157.9 282.45 1151.53 285.114 1147.93 283.18C1142.52 282.815 1136.88 283.296 1131.36 282.691C1129.67 277.252 1128.71 270.004 1123.06 267.222C1110.57 263.478 1097.24 266.011 1094.36 280.515C1093.28 284.267 1091.24 286.078 1087.51 285.596C1079.7 284.873 1071.54 286.202 1063.97 284.508C1061.45 279.793 1063.25 274.23 1063.13 269.274C1064.93 258.039 1042.47 265.412 1045.71 244.016C1052.8 224.672 1055.8 233.133 1063.61 223.344C1070.22 181.158 1054.6 192.4 1023.37 193.488C1019.17 193.612 1014.96 193.612 1011.12 195.181C1007.51 194.575 1003.91 195.787 1000.43 196.028C998.27 195.422 996.106 195.181 993.826 195.663C984.452 196.028 971.484 191.794 965.356 201.466C961.754 205.7 965.232 204.007 964.034 206.664C960.07 217.54 965.959 229.271 962.836 240.388C963.555 257.915 958.872 277.376 965.719 293.815C966.314 294.297 966.198 295.144 965.719 295.867C964.034 299.254 965.479 303.363 963.192 306.626C963.671 312.546 962.597 318.839 961.994 324.876C960.07 342.891 962.473 361.265 962.836 379.149C965.959 383.383 969.56 384.23 974.722 383.5C977.249 383.624 979.769 382.777 982.172 383.989C984.336 383.865 987.219 382.653 989.375 383.5C995.147 385.434 999.707 379.879 1005.36 382.171C1012.08 380.967 1019.04 381.084 1025.65 379.755C1028.05 379.39 1030.22 381.084 1032.62 379.996C1034.42 380.478 1036.22 381.084 1038.02 380.726C1044.39 381.325 1053.04 377.945 1058.44 381.208C1064.09 385.318 1077.66 381.084 1084.99 381.814C1086.67 381.814 1088.35 380.843 1090.03 382.296C1091.83 382.296 1094.48 381.208 1096.4 381.566C1099.52 382.296 1102.17 380.237 1105.17 381.084C1106.85 381.449 1108.53 382.296 1110.21 381.084C1115.13 382.171 1120.18 382.171 1124.99 381.084C1131.59 379.033 1138.68 381.084 1144.8 379.755C1148.89 377.945 1151.17 380.602 1155.37 376.857C1155.61 373.835 1157.54 370.93 1156.09 367.791C1155.61 366.703 1155.61 365.973 1156.09 364.886C1156.94 362.469 1157.41 359.929 1155.61 357.513C1157.54 356.308 1157.54 354.732 1156.94 352.797C1155.74 347.848 1156.09 342.286 1156.22 337.088C1157.65 332.497 1155.61 327.781 1156.46 323.189C1156.82 321.496 1156.58 320.167 1155.61 318.839C1154.77 317.627 1154.42 316.415 1155.61 315.211C1156.46 314.24 1156.09 313.276 1155.98 312.306C1154.42 304.575 1157.54 297.078 1157.54 289.341L1157.41 288.859ZM968.957 202.678C969.683 201.707 970.518 202.189 971.484 202.678C974.606 204.123 977.968 203.525 981.214 203.036C992.744 203.882 1003.55 199.532 1014.96 200.503C1028.18 198.809 1041.62 195.787 1054.84 197.721C1058.2 196.393 1057.96 200.86 1060.25 202.189C1061.08 202.678 1060.73 204.007 1060.37 204.853C1058.56 210.168 1059.28 215.73 1058.32 221.409C1042.95 223.103 1034.78 242.323 1040.3 255.74C1039.71 258.521 1042.11 259.244 1043.43 261.054C1045.71 267.098 1052.8 266.981 1057.85 269.879C1056.16 273.989 1059.41 284.143 1054.84 285.472C1045.35 286.318 1035.14 283.42 1025.77 285.596C1024.45 285.596 1023.49 293.093 1023.37 294.662C1020.61 299.86 1015.68 307.232 1008.96 303.487C1005.84 301.911 1001.87 299.378 1000.91 295.626C1000.07 290.187 993.703 286.8 988.656 288.136C982.412 288.859 976.284 288.859 969.683 288.377C969.197 275.683 972.319 262.988 970.881 250.418C969.683 254.528 970.279 258.879 969.32 262.988C968.238 248.126 968.718 233.257 969.32 218.511C969.8 214.401 970.998 209.927 968.602 205.817C967.999 204.729 968.602 203.766 969.081 202.919L968.957 202.678ZM1057.48 348.812C1057.24 357.396 1057 365.732 1056.76 373.952C1048.36 373.952 1040.55 375.04 1032.38 374.923C1029.74 375.405 1027.21 376.368 1024.45 374.923C1022.77 374.076 1020.85 375.405 1019.04 375.645C1018.21 375.77 1017.37 376.251 1016.65 375.645C1014.48 374.193 1012.08 374.682 1009.68 375.04C1003.8 376.01 997.783 373.594 991.662 374.923C990.457 375.28 989.498 375.164 988.3 374.799C981.693 370.572 972.203 380.12 967.157 373.952C968.957 363.44 966.917 352.199 967.157 341.439C969.32 325.365 969.197 309.043 969.32 292.969C975.565 291.757 981.809 294.421 988.177 293.815C990.943 293.815 990.943 293.815 991.902 296.472C995.503 303.239 1001.03 312.306 1010.04 310.619C1016.28 311.459 1018.45 309.648 1023.25 306.145C1026.25 304.816 1027.45 302.035 1027.34 298.772C1027.1 296.837 1029.14 295.867 1029.26 293.932C1029.85 291.399 1029.85 291.399 1032.5 291.275C1039.58 291.158 1046.55 291.998 1053.64 291.275C1056.88 291.275 1057.48 291.757 1057.12 295.144C1056.04 301.67 1057.37 308.079 1057.37 314.729C1057.37 321.496 1068.05 317.503 1071.18 324.876C1079.46 334.913 1070.57 350.505 1057.72 348.936L1057.48 348.812ZM1151.17 344.943C1148.89 350.505 1153.46 371.901 1147.93 372.382C1135.44 372.864 1123.3 375.645 1111.05 374.923C1104.57 374.923 1097.24 376.127 1091.24 373.711C1090.4 372.864 1088.95 373.346 1087.99 373.711C1079.58 374.923 1070.46 374.923 1062.17 373.229C1061.21 368.273 1062.41 363.199 1061.45 358.243C1061.08 356.666 1061.69 355.819 1063.13 355.462C1072.37 353.286 1077.54 345.789 1080.78 337.329C1080.78 337.088 1081.02 336.847 1081.02 336.723C1079.46 333.46 1083.31 329.715 1080.67 326.934C1079.7 326.087 1079.22 325.241 1079.7 324.036C1079.82 323.547 1079.7 322.949 1079.11 322.7C1076.94 321.255 1075.74 318.715 1073.22 317.744C1070.46 315.569 1068.05 313.276 1064.33 313.152C1060 311.824 1063.01 305.422 1062.53 302.035C1062.88 298.29 1061.81 294.903 1062.65 291.034C1072.61 291.034 1081.75 290.91 1091.48 291.034C1094.6 291.64 1096.64 290.552 1097.6 287.406C1098.33 273.026 1120.42 263.237 1123.19 281.486C1123.67 291.998 1143.13 286.683 1150.45 287.165C1152.01 300.582 1150.57 313.152 1150.69 326.569C1150.93 329.715 1149.97 332.978 1150.69 336.117C1152.25 339.139 1151.29 342.045 1150.81 345.067L1151.17 344.943Z" fill="#141515"/>
<path d="M962.233 157.471C961.754 155.901 962.472 155.171 963.315 154.208C968.114 148.769 969.319 142.842 966.793 135.834C967.156 127.25 958.268 121.687 950.819 119.877C949.018 119.512 946.738 119.877 945.293 118.307C939.891 114.92 932.804 114.804 927.518 110.935C935.208 103.073 945.293 96.4301 948.902 85.6703C954.544 77.5749 954.783 53.1572 939.891 60.2891C924.875 76.3631 912.866 95.941 892.804 106.584C881.876 114.439 867.942 114.92 855.091 114.555C850.168 115.161 849.325 114.074 851.25 109.358C852.331 105.496 856.528 101.022 850.887 98.4813C842.718 94.4957 834.549 90.3859 825.902 87.3638C826.265 82.1664 828.429 77.6916 826.744 72.6183C824.224 65.3624 814.734 57.5079 808.004 64.5156C801.396 69.8371 798.513 78.0566 793.351 84.5826C785.306 94.7365 782.663 107.788 776.774 118.665C779.417 106.584 784.101 94.0139 789.387 82.6482C790.468 80.3488 792.748 77.4508 790.831 75.0345C776.179 90.145 764.641 150.82 771.851 171.369C778.822 186.356 796.836 176.443 800.801 164.113C802.238 165.807 803.923 166.048 805.6 165.566C811.612 166.778 817.494 169.07 823.738 167.259C828.908 167.259 828.668 160.128 832.749 159.281C849.565 160.493 852.571 180.311 866.505 186.356C869.867 186.845 870.709 189.502 873.228 191.553C880.918 193.852 907.34 209.569 912.387 205.094C911.181 204.006 908.901 204.488 909.025 202.189C913.229 201.707 916.351 204.853 920.432 204.97C922.712 205.094 925.115 204.729 927.279 206.182C941.931 205.941 945.896 198.809 940.61 185.633C947.101 184.662 953.585 183.458 952.264 175.114C961.028 172.698 964.752 164.237 962.472 157.471H962.233ZM830.106 142.119C828.065 149.609 825.299 156.624 822.663 163.872C807.764 160.734 792.995 156.741 777.98 155.054C777.377 154.208 777.617 153.478 777.98 152.879C778.459 152.149 778.698 151.426 778.219 150.58C777.617 147.557 778.698 144.411 780.02 141.637C782.3 131.483 783.984 121.446 786.983 111.533C787.346 109.723 787.949 108.029 789.51 106.46C792.748 102.226 793.111 95.8242 796.836 91.7145C798.274 88.3274 800.082 85.1885 801.999 82.0423C802.238 81.5605 802.718 81.3196 803.56 81.1955C818.096 88.4515 835.152 92.0794 849.565 100.299C840.794 113.11 835.755 127.855 829.99 142.236L830.106 142.119ZM960.193 151.908C955.625 149.01 951.305 145.864 946.498 142.966C938.933 138.732 937.727 147.922 944.458 150.58C952.619 154.689 969.08 166.778 950.942 169.676C944.574 171.61 937.248 161.099 931.846 168.223C936.05 173.18 945.053 172.698 947.101 180.071C940.494 182.37 933.647 181.523 927.039 180.071C926.32 179.713 925.115 180.071 924.52 181.158C927.039 184.421 932.565 183.699 933.763 187.808C934.489 190.108 937.727 191.071 937.488 193.969C938.09 198.926 935.926 198.568 932.565 199.773C930.88 198.327 929.079 197.721 927.518 199.773C906.258 190.108 880.192 191.312 861.698 174.997C853.166 168.223 847.046 157.23 836.111 153.843C833.468 153.237 833.228 152.755 834.31 150.339C835.152 147.922 835.029 145.499 837.076 143.324C839.596 139.703 839.959 134.381 842.478 130.637C842.841 129.907 843.437 129.06 843.437 128.337C843.437 125.439 845.724 123.505 845.964 120.724C846.319 118.913 849.086 119.03 850.523 119.512C912.503 138.25 949.018 29.5863 945.293 71.7716C944.095 73.9469 945.053 76.239 944.458 78.5384C943.732 80.8378 942.774 83.13 942.897 85.6703C941.815 88.0865 939.172 89.78 938.33 92.5612C937.611 94.6124 934.968 95.1015 934.605 97.3937C933.763 98.9631 931.606 99.6931 930.641 101.503C927.881 104.409 924.999 107.307 921.993 109.723C920.671 109.847 919.35 110.205 919.11 111.657C918.508 115.044 922.116 117.337 924.157 119.271C926.081 119.03 927.279 120.724 928.724 121.089C931.359 122.417 934.968 121.33 937.132 123.14C939.528 125.68 939.528 125.68 943.013 124.228C946.135 126.527 949.381 128.22 952.982 129.549C961.754 133.053 967.519 145.382 960.432 151.791L960.193 151.908Z" fill="#141515"/>
<path d="M883.314 397.281C882 394.865 883.074 391.959 880.315 390.514C878.035 388.215 875.632 385.192 871.783 386.039C871.188 391.602 875.153 396.193 875.508 401.631C876.83 407.07 874.55 413.479 878.151 418.071C883.314 416.618 884.28 409.975 884.04 405.5C885.601 402.602 884.396 399.821 883.314 397.157V397.281Z" fill="#141515"/>
<path d="M1108.89 372.506C1118.02 372.141 1127.15 372.017 1136.28 371.535C1133.27 370.688 1111.18 371.535 1108.89 372.506Z" fill="#141515"/>
<path d="M1093.52 373.594C1096.04 374.434 1098.2 373.229 1100.48 372.988C1098.2 372.988 1095.8 372.383 1093.52 373.594Z" fill="#141515"/>
<path d="M1103.25 373.104C1104.33 372.747 1105.53 373.71 1107.09 372.017C1105.41 372.257 1104.33 372.382 1103.25 372.506C1103.25 372.747 1103.25 372.863 1103.25 373.104Z" fill="#141515"/>
<path d="M810.887 154.323C811.489 156.258 814.612 157.47 817.494 156.988C818.097 153.842 817.015 151.06 814.132 148.403C811.613 149.856 810.291 152.389 811.01 154.323H810.887Z" fill="#141515"/>
<path d="M797.199 145.141C793.714 143.206 792.748 149.126 793.235 151.543C795.878 158.915 801.999 148.039 797.199 145.141Z" fill="#141515"/>
<defs>
<filter id="filter0_d_2651_1995" x="77" y="289.146" width="394.307" height="139.791" filterUnits="userSpaceOnUse" color-interpolation-filters="sRGB">
<feFlood flood-opacity="0" result="BackgroundImageFix"/>
<feColorMatrix in="SourceAlpha" type="matrix" values="0 0 0 0 0 0 0 0 0 0 0 0 0 0 0 0 0 0 127 0" result="hardAlpha"/>
<feOffset dx="-3" dy="4"/>
<feComposite in2="hardAlpha" operator="out"/>
<feColorMatrix type="matrix" values="0 0 0 0 0.0784314 0 0 0 0 0.0823529 0 0 0 0 0.0823529 0 0 0 1 0"/>
<feBlend mode="normal" in2="BackgroundImageFix" result="effect1_dropShadow_2651_1995"/>
<feBlend mode="normal" in="SourceGraphic" in2="effect1_dropShadow_2651_1995" result="shape"/>
</filter>
<filter id="filter1_d_2651_1995" x="83" y="214" width="306" height="74" filterUnits="userSpaceOnUse" color-interpolation-filters="sRGB">
<feFlood flood-opacity="0" result="BackgroundImageFix"/>
<feColorMatrix in="SourceAlpha" type="matrix" values="0 0 0 0 0 0 0 0 0 0 0 0 0 0 0 0 0 0 127 0" result="hardAlpha"/>
<feOffset dx="-3" dy="4"/>
<feComposite in2="hardAlpha" operator="out"/>
<feColorMatrix type="matrix" values="0 0 0 0 0.0784314 0 0 0 0 0.0823529 0 0 0 0 0.0823529 0 0 0 1 0"/>
<feBlend mode="normal" in2="BackgroundImageFix" result="effect1_dropShadow_2651_1995"/>
<feBlend mode="normal" in="SourceGraphic" in2="effect1_dropShadow_2651_1995" result="shape"/>
</filter>
<filter id="filter2_d_2651_1995" x="81" y="130" width="269" height="70" filterUnits="userSpaceOnUse" color-interpolation-filters="sRGB">
<feFlood flood-opacity="0" result="BackgroundImageFix"/>
<feColorMatrix in="SourceAlpha" type="matrix" values="0 0 0 0 0 0 0 0 0 0 0 0 0 0 0 0 0 0 127 0" result="hardAlpha"/>
<feOffset dx="-3" dy="4"/>
<feComposite in2="hardAlpha" operator="out"/>
<feColorMatrix type="matrix" values="0 0 0 0 0.0784314 0 0 0 0 0.0823529 0 0 0 0 0.0823529 0 0 0 1 0"/>
<feBlend mode="normal" in2="BackgroundImageFix" result="effect1_dropShadow_2651_1995"/>
<feBlend mode="normal" in="SourceGraphic" in2="effect1_dropShadow_2651_1995" result="shape"/>
</filter>
<filter id="filter3_f_2651_1995" x="480" y="-300" width="1180" height="1180" filterUnits="userSpaceOnUse" color-interpolation-filters="sRGB">
<feFlood flood-opacity="0" result="BackgroundImageFix"/>
<feBlend mode="normal" in="SourceGraphic" in2="BackgroundImageFix" result="shape"/>
<feGaussianBlur stdDeviation="150" result="effect1_foregroundBlur_2651_1995"/>
</filter>
<linearGradient id="paint0_linear_2651_1995" x1="1070.41" y1="173.419" x2="1070.41" y2="594.106" gradientUnits="userSpaceOnUse">
<stop stop-color="#DEC9EA"/>
<stop offset="1" stop-color="#FFF500" stop-opacity="0"/>
</linearGradient>
</defs>
</svg>
