<svg width="390" height="590" viewBox="0 0 390 590" fill="none" xmlns="http://www.w3.org/2000/svg">
<g clip-path="url(#clip0_4858_4291)">
<rect width="390" height="590" fill="#F7F6F2"/>
<g filter="url(#filter0_f_4858_4291)">
<ellipse cx="187" cy="352.705" rx="87" ry="85.705" fill="url(#paint0_linear_4858_4291)"/>
</g>
<path d="M244.385 369.601C243.327 353.211 248.728 355.37 231.585 352.57C231.117 349.012 230.471 343.82 225.716 343.997C225.169 344.736 224.463 345.025 223.604 344.87C222.841 344.754 222.075 344.578 221.55 345.339C219.378 346.272 217.086 347.322 216.5 349.946C215.854 351.753 215.148 354.493 213.388 355.427C208.399 356.304 203.293 354.377 198.42 355.078C195.954 355.37 198.538 362.778 197.892 364.409C197.129 364.994 197.246 365.635 197.423 366.392C197.714 367.385 196.015 367.967 195.66 366.917C195.426 366.043 193.96 365.984 194.311 364.934C194.957 362.835 193.02 360.851 194.194 358.928C194.428 357.819 193.488 356.42 192.551 355.835C188.733 356.536 184.862 355.895 181.043 356.769C180.926 357.646 179.869 357.935 179.752 358.868C179.578 360.563 178.637 362.017 177.757 363.359C174.589 369.016 168.599 369.252 165.079 364.12C164.372 363.652 164.316 362.662 163.787 362.137C163.198 361.669 162.907 361.087 162.79 360.386C162.495 358.579 160.146 358.868 158.798 358.928C155.334 359.802 151.225 357.646 148.29 359.862C143.709 363.127 146.938 372.401 148.876 376.66C148.993 376.893 149.11 377.125 149.053 377.357C148.053 379.4 150.168 380.334 150.636 381.849C150.813 385.815 151.459 389.725 151.342 393.747C151.342 394.332 151.633 394.857 152.222 394.741C153.571 394.565 154.745 395.322 156.097 395.149C157.034 395.033 157.211 395.322 157.389 396.431C155.451 397.481 153.688 396.956 152.105 395.73C150.224 396.956 152.222 398.238 152.574 399.64C154.334 403.955 174 397.95 179.106 399.056C181.043 399.408 183.041 399.288 184.979 399.116C187.502 400.105 190.085 398.707 192.022 397.189C193.665 395.498 192.374 392.934 192.785 390.891C191.905 389.725 193.076 388.383 192.551 387.101C192.434 385.234 193.254 383.423 192.959 381.5C193.665 377.71 200.358 381.035 201.355 376.949C201.533 376.308 201.884 375.667 202.53 375.374C202.881 375.374 202.941 376.019 203.293 375.727C203.704 375.258 203.466 374.617 203.995 374.208C204.641 375.142 203.704 375.899 203.878 376.66C204.233 376.949 204.407 376.308 204.758 376.66C204.056 380.218 202.881 385.174 199.123 386.516C197.775 386.516 197.186 387.333 196.834 388.499C198.949 407.745 197.246 396.491 216.795 399.873C221.55 400.049 226.305 399.524 231.056 399.056C232.114 399.232 232.937 397.773 234.051 398.415C235.577 398.298 237.046 397.365 238.689 397.481C239.569 397.481 240.332 396.956 240.744 396.139C241.507 394.917 239.747 394.332 239.864 393.339C240.683 392.233 239.452 389.608 241.567 389.897C241.801 391.532 240.978 393.282 242.092 395.033C243.501 393.458 242.798 391.708 243.267 389.841C244.03 383.074 244.09 376.251 244.385 369.601Z" fill="#F7D062"/>
<path d="M146.059 327.842C146.704 335.598 148.464 343.122 148.464 350.822C150.225 351.175 148.759 349.015 149.345 348.142C149.816 348.022 150.285 347.673 150.814 347.79C153.046 356.888 150.87 356.832 161.906 356.131C163.141 355.898 163.141 355.838 163.436 357.064C163.67 357.821 164.433 358.346 165.018 358.815C167.016 362.08 166.839 357.589 169.773 358.346C174.472 359.981 175.998 354.44 179.166 352.341C179.986 353.158 179.166 353.855 179.166 354.672C182.395 355.081 185.564 354.324 188.793 354.031C189.908 353.855 191.082 353.799 191.728 352.573C191.845 352.281 192.314 352.164 192.551 351.988C193.197 349.015 191.728 345.983 193.077 343.066C194.957 343.066 195.014 341.432 193.314 340.907C191.551 340.149 189.379 340.558 188.793 338.283C187.97 335.775 185.213 337.293 184.273 335.658C179.578 328.018 186.739 320.959 194.485 320.378C194.311 317.285 196.6 312.386 193.722 310.17C192.551 310.286 191.551 309.994 190.497 309.529C188.382 309.413 186.444 309.702 184.567 308.187C185.387 308.071 185.153 307.37 185.625 306.961C186.856 306.845 188.204 306.961 189.496 306.669C189.088 305.33 190.731 305.911 190.905 305.038C185.504 303.58 179.344 306.204 173.588 305.563C166.31 305.563 159.089 306.905 151.871 305.735C146.236 305.21 146.587 310.403 146.47 314.545C146.236 318.976 146.176 323.467 146.059 327.902V327.842Z" fill="#F7D062"/>
<path d="M259.646 317.69C260.583 314.833 258.411 311.508 258.12 308.475C256.768 302.466 254.831 296.633 252.953 290.8C251.719 289.285 250.899 287.186 249.256 286.076C247.73 285.495 246.729 284.209 245.849 282.987C242.737 279.369 237.574 282.867 233.582 282.635C233.053 281.701 232.585 279.662 231.116 280.419C228.944 281.409 226.478 281.236 224.189 281.934C218.849 283.043 212.802 281.934 207.987 284.445C208.867 285.844 206.812 286.485 207.05 287.767C207.752 288.059 209.456 287.767 209.221 288.876C208.281 292.434 213.331 301.885 210.275 304.041C208.104 305.731 204.64 305.499 203.994 308.824C203.643 310.166 202.941 311.564 203.409 312.906C203.821 314.132 203.231 315.414 203.994 316.524C203.231 319.032 203.231 321.248 205.815 322.53C206.989 324.104 208.693 322.938 210.219 323.291C212.273 326.44 211.216 334.429 217.145 332.445C223.777 330.23 231.41 330.755 230.353 321.596C230.236 319.557 233.933 315.939 236.105 316.115C236.811 316.115 237.514 315.358 238.277 315.474C239.1 315.647 239.746 315.238 240.392 314.89C241.74 314.189 243.149 313.84 244.501 315.006C244.909 315.358 245.793 315.238 246.083 315.763C246.612 317.165 248.198 317.806 248.667 319.148C248.844 320.258 249.373 321.248 249.373 322.414C249.373 322.998 249.49 323.639 250.193 323.932C252.893 322.59 263.461 322.297 259.646 317.574V317.69Z" fill="#FF730D"/>
<path d="M298.74 372.578C297.682 370.186 295.805 368.436 294.453 366.277C294.102 364.818 293.279 363.769 292.342 362.719C291.518 361.204 290.873 359.51 289.464 358.404C287.352 354.085 284.709 349.77 281.717 345.804C281.011 344.698 280.777 343.296 279.485 342.655C278.957 342.19 279.251 341.257 278.662 340.788C277.842 339.798 277.431 338.456 276.434 337.579C276.199 337.347 276.022 336.998 276.434 336.589C277.96 336.766 279.663 338.048 281.245 337.579C282.537 336.998 283.712 338.396 284.769 337.579C287.058 334.955 281.891 332.039 279.603 331.69C277.96 331.866 278.662 329.59 276.845 329.999C273.85 329.298 271.973 326.85 268.449 328.248C266.044 328.657 268.215 330.756 267.218 332.098C266.1 334.314 267.804 336.646 267.452 338.921C267.804 339.915 268.567 340.732 269.564 341.373C270.504 340.207 269.919 338.921 270.27 337.755C270.621 336.589 270.799 335.424 271.033 334.138C274.379 336.241 274.908 340.207 277.136 343.18C281.835 351.053 285.883 359.454 291.345 366.861C294.453 370.475 294.631 377.71 300.209 378.76C300.443 378.584 300.617 378.408 300.677 378.175C301.146 375.96 300.031 374.269 298.679 372.578H298.74Z" fill="#F7D062"/>
<path d="M243.209 419.356C240.743 416.848 241.271 410.374 239.039 410.254C238.628 410.49 238.454 410.839 238.571 411.187C238.748 413.639 237.457 415.971 236.516 418.13C232.056 425.538 226.478 423.322 226.655 427.345C227.769 428.218 229.178 428.218 230.47 428.687C231.176 428.863 231.644 429.62 232.347 429.62C236.339 431.255 238.922 435.918 239.451 440.177C239.746 441.811 241.917 440.934 242.091 439.592C243.149 434.168 245.32 428.919 250.838 426.644C251.367 426.411 251.779 426.003 251.718 425.305C248.493 423.727 244.909 422.797 243.149 419.356H243.209Z" fill="#F7D062"/>
<path d="M228.649 444.374C227.947 443.324 227.652 442.098 227.006 440.992C226.538 439.942 224.718 440.175 224.774 441.401C224.483 443.031 224.483 444.842 223.309 446.124C222.134 448.107 219.434 447.759 218.259 449.449C221.549 451.489 225.775 453.708 226.421 458.255C226.538 459.013 226.889 459.774 227.886 460.122C229.121 456.681 230.704 453.007 234.284 451.432C234.991 451.14 235.693 450.675 235.693 449.742C233.11 448.167 230.175 447.35 228.766 444.374H228.649Z" fill="#F7D062"/>
<path d="M319.755 426.818C317.934 424.603 315.234 420.168 312.065 422.676C311.362 422.852 311.185 423.377 311.185 424.078C311.242 428.625 314.237 433.353 318.523 435.219C323.335 436.325 321.809 429.034 319.815 426.818H319.755Z" fill="#FF730D"/>
<path d="M162.083 264.554C162.317 263.97 162.551 263.564 163.258 263.328C165.312 262.92 166.253 260.997 167.661 259.598C168.364 259.073 168.013 258.196 167.952 257.495C167.952 256.798 167.133 256.914 166.661 256.682C164.198 256.798 161.498 258.837 160.674 261.229C157.974 261.289 155.334 263.621 155.273 265.953C155.273 270.155 161.498 267.122 162.083 264.494V264.554Z" fill="#F7D062"/>
<path d="M162.963 276.338C165.546 275.58 175.936 274.471 175.759 271.554C171.298 268.057 169.421 271.903 166.015 270.737C165.018 270.329 164.961 271.903 163.258 271.206C160.206 270.445 158.797 277.155 162.963 276.338Z" fill="#F7D062"/>
<path d="M177.227 285.845C174.41 283.045 170.478 284.155 167.131 282.58C165.897 281.879 164.431 281.819 163.022 281.53C161.436 281.178 160.027 284.736 162.376 285.028C163.902 285.845 164.96 287.244 166.954 286.486C168.363 286.138 169.772 287.536 171.241 287.48C173.469 287.828 175.701 287.304 177.99 287.071C177.99 286.254 177.639 286.021 177.287 285.729L177.227 285.845Z" fill="#F7D062"/>
<path d="M227.475 255.865C229.178 255.048 231.645 253.53 230.119 251.314C227.535 252.308 224.367 250.617 223.426 254.407C224.601 255.281 225.832 256.214 227.475 255.806V255.865Z" fill="#F7D062"/>
<path d="M223.133 266.54C224.836 266.54 225.716 264.849 227.125 264.148C228.477 263.215 228.651 262.397 227.714 260.883C223.722 261.464 222.136 262.341 223.193 266.54H223.133Z" fill="#F7D062"/>
<path d="M250.665 277.622C249.139 278.439 246.79 277.622 246.201 279.782C248.373 280.014 250.956 279.024 252.482 280.947C252.659 281.296 253.071 281.24 253.54 281.064C254.185 278.732 253.366 276.573 250.665 277.622Z" fill="#F7D062"/>
<path d="M240.743 274.119C241.211 272.894 240.448 271.259 239.334 270.502C238.749 271.143 238.628 271.844 238.805 272.545C238.805 274.528 237.808 275.81 238.042 278.142C239.863 277.092 240.214 275.458 240.743 274.06V274.119Z" fill="#F7D062"/>
<path d="M89.8206 314.362C80.7825 315.644 75.8501 324.978 72.447 332.442C69.8637 336 70.9779 341.661 67.7488 344.401C58.7675 351.4 56.2445 364.172 57.7135 374.845C57.0074 376.772 58.8278 378.287 58.182 380.214C59.7078 383.887 60.4708 388.086 62.937 391.235C64.1683 394.328 69.8637 402.553 73.7387 400.453C66.4003 397.012 62.937 386.86 60.8221 379.629C59.942 378.054 60.7653 376.247 59.7646 374.729C59.0017 373.155 59.8852 371.524 59.5907 369.889C59.4133 361.372 62.2308 351.809 68.6891 345.916C69.0404 346.208 69.1575 346.557 69.0404 346.909C68.2207 350.118 69.2746 353.556 70.2753 356.649C72.1525 361.841 79.6647 362.482 82.4823 357.582C86.5347 350.932 80.9564 340.96 72.738 342.009C72.738 338.684 75.0871 335.944 75.5555 332.619C76.613 331.393 77.7272 330.287 77.5534 328.476C78.256 328.244 78.6108 327.779 78.7279 327.018C79.3738 324.978 81.3112 323.576 82.4255 321.829C84.7143 318.737 88.8838 317.162 92.4039 315.471C91.5842 314.422 91.0555 314.186 89.8206 314.422V314.362ZM72.6209 343.644C75.2042 341.425 79.1396 345.098 80.3709 347.49C81.3112 348.892 80.8393 350.643 81.6626 352.041C80.488 363.123 71.9183 361.083 71.6841 351.168C71.6238 348.66 70.9212 345.743 72.6209 343.644Z" fill="#F7D062"/>
<path d="M180.514 436.384C179.166 435.916 178.169 437.258 177.345 437.959C174.939 438.131 174.879 441.284 172.651 441.692C172.473 441.692 172.239 441.865 172.179 442.041C171.71 443.147 170.184 443.499 170.067 444.898C167.016 446.708 164.901 449.974 161.849 451.897C160.557 448.632 160.44 445.014 159.851 441.573C158.737 438.484 155.334 438.484 153.925 441.284C152.279 443.676 152.339 447.406 149.521 448.748C147.406 445.599 148.524 436.617 143.297 436.793C141.363 439.008 139.365 441.4 137.371 443.556C135.434 445.599 133.436 447.698 133.085 450.731C131.793 452.714 130.033 454.232 131.559 457.089C133.436 456.039 133.848 453.123 135.725 451.781C138.954 449.097 140.072 444.549 143.886 442.622C144.238 446.649 145.178 449.216 147.172 452.598C149.053 454.93 153.162 452.365 153.748 449.741C154.511 448.107 155.096 445.599 156.682 444.725C156.625 451.664 158.091 460.823 166.778 454.116C169.539 450.615 172.707 447.466 175.057 443.616C176.582 441.749 179.343 437.201 181.983 439.942C182.278 438.656 181.866 436.965 180.514 436.5V436.384Z" fill="#F7D062"/>
<path d="M335.489 402.968C333.725 402.5 331.788 402.676 330.088 402.384C330.262 399.936 335.251 397.6 332.316 395.268C330.556 395.85 329.559 397.66 327.916 398.418C326.798 397.252 327.561 395.092 326.447 393.81C325.741 392.937 323.452 393.461 324.215 394.744C324.687 395.561 323.395 395.85 323.686 396.727C323.452 397.833 324.392 398.886 324.215 399.936C323.807 400.461 324.098 401.102 323.981 401.799C321.575 401.919 318.58 400.168 317.349 403.025C318.463 404.134 320.166 403.493 321.575 404.543C319.932 406.234 317.817 407.516 318.58 410.256C320.635 410.665 322.16 409.323 323.807 408.449C326.27 407.868 325.155 413.465 328.562 412.708C328.562 410.2 328.207 407.748 328.502 405.3C331.614 403.782 334.605 405.885 337.543 404.832C337.188 403.842 336.543 403.141 335.489 403.025V402.968Z" fill="#F7D062"/>
<path d="M287.761 289.813C287.293 291.736 288.936 293.896 291.108 293.955C292.108 292.205 289.113 287.013 287.761 289.813Z" fill="#F7D062"/>
<path d="M312.125 428.045C312.125 427.52 311.948 427.288 311.479 427.168C311.479 427.636 311.479 428.045 312.125 428.045Z" fill="#F7D062"/>
<path d="M341.476 280.074C340.83 277.39 341.71 273.949 340.007 271.673C336.838 267.65 331.732 270.042 327.917 271.5C326.387 272.258 324.922 274.766 323.279 273.191C318.936 269.634 316.469 269.806 312.36 273.6C309.834 275.992 311.888 266.773 304.61 271.032C300.444 266.833 295.863 263.216 291.346 259.482C289.816 258.376 288 256.333 286.002 256.625C286.474 257.442 287.471 257.383 287.882 258.143C285.473 258.26 283.245 256.449 280.956 255.692C278.49 254.41 275.555 253.709 273.206 252.25C270.328 249.802 266.396 250.383 263.05 249.218C254.597 247.234 245.793 243.501 237.341 247.411C233.288 249.566 224.013 250.035 224.307 255.924C224.541 258.083 226.067 258.143 227.714 258.784C226.539 261.116 223.25 262.342 223.25 265.259C224.836 273.484 232.465 267.298 236.049 264.209C236.752 263.332 238.043 264.033 237.515 265.083C236.574 269.574 235.577 274.241 235.166 278.732C232.82 280.363 229.591 280.13 227.185 281.24C221.195 283.396 214.623 283.748 208.342 285.439C206.756 285.731 205.17 287.013 205.347 288.355C205.347 291.973 205.23 295.354 206.227 298.852C198.889 300.663 197.246 310.286 200.415 316.295C200.944 317.634 201.941 318.395 202.941 319.208C204.641 321.484 208.048 320.843 210.514 321.836C210.805 325.394 211.685 331.575 216.5 330.934C222.075 329.592 227.888 328.599 233.288 326.676C233.523 324.869 232.703 323.058 233.405 321.311C234.403 317.634 238.043 315.126 241.329 318.042C242.153 318.803 243.21 319.444 243.21 320.902C243.21 322.241 245.676 323.875 247.493 323.351C250.839 321.776 257.883 322.361 258.646 318.042C258.121 316.175 258 314.192 257.532 312.269C256.123 306.436 255.421 300.43 254.186 294.597C253.423 292.614 251.957 284.097 253.891 283.339C259.292 283.047 264.342 280.539 269.625 279.782C272.62 279.898 275.612 279.722 278.663 279.665C283.127 279.489 288.351 277.975 290.934 282.814C290.64 283.396 290.345 283.921 290.054 284.505C285.885 284.914 288.645 289.99 289.816 292.145C282.89 300.486 295.629 306.436 297.038 314.192C295.278 316.295 292.637 322.009 292.989 324.753C293.457 328.31 297.098 331.575 300.796 331.051C303.73 329.768 312.009 326.852 312.3 323.527C312.534 321.836 315 321.836 315.763 320.202C316.586 320.55 319.344 317.109 319.17 316.295C320.87 315.242 321.164 313.379 322.456 311.977C324.862 308.944 327.033 305.502 328.385 301.829C329.326 300.37 329.911 298.503 331.437 297.454C332.377 295.939 332.612 293.604 334.666 292.786C335.489 292.498 335.135 291.212 336.015 291.096C336.369 291.388 336.487 291.737 336.132 292.089C333.903 295.062 332.729 298.503 330.614 301.596C329.148 303.111 328.68 305.386 327.271 307.021C326.916 307.429 326.331 308.243 327.094 309.004C333.843 302.762 342.356 289.581 341.71 280.014L341.476 280.074ZM230.882 253.008C231.823 250.443 247.493 245.776 249.548 247.819C249.374 248.284 248.902 248.284 248.551 248.168C247.202 247.703 245.85 248.168 244.502 248.228C239.158 248.753 235.226 253.068 231.294 256.276C230.293 257.326 229.062 256.276 227.831 256.1C228.65 254.758 230.293 254.526 230.882 253.008ZM226.362 254.702C227.185 253.709 228.239 253.244 229.413 252.891C228.65 253.941 227.593 254.526 226.362 254.702ZM226.947 262.515C226.947 263.684 226.067 263.857 225.482 264.325C225.776 263.624 226.01 262.867 226.947 262.515ZM233.7 263.624C231.468 265.375 228.065 267.358 225.304 266.132C230.939 261.525 226.89 262.458 229.53 260.067C233.288 256.685 237.22 253.244 241.624 250.676C244.619 249.394 249.785 249.975 252.777 251.025C245.85 254.526 239.569 258.552 233.7 263.624ZM239.864 273.248C240.744 274.297 239.392 275.992 238.806 277.098C237.632 276.633 238.395 272.723 239.864 273.248ZM253.483 304.044C254.069 305.386 253.657 307.021 254.012 308.419C254.129 309.352 254.658 310.226 254.246 311.219C254.831 313.667 255.712 316.175 256.066 318.743C253.128 319.969 250.137 320.318 246.964 320.666C244.619 315.126 243.093 313.611 236.986 314.192C232.057 315.069 227.359 320.666 228.182 325.682C223.722 326.968 219.495 327.609 214.857 328.367C214.034 326.852 213.622 325.158 213.86 323.41C213.154 322.125 213.271 320.666 213.154 319.268C212.977 317.461 210.219 318.102 208.867 317.986C201.767 318.278 201.65 308.07 204.467 303.636C206.344 301.128 209.925 302.47 209.162 300.194C208.633 298.972 208.928 297.746 209.045 296.52C208.165 294.421 208.459 292.089 207.402 290.046C206.813 288.88 207.168 288.415 208.516 288.415C211.923 287.947 215.148 285.847 218.672 286.08C225.07 284.565 231.585 283.163 238.104 281.941C239.63 281.472 241.212 281.413 242.798 281.356C243.444 281.24 243.856 281.413 244.268 281.881C249.431 287.246 249.608 279.722 250.605 292.145C249.608 291.272 249.959 289.754 248.785 288.88C249.842 293.836 252.074 298.972 253.366 304.044H253.483ZM251.194 280.014C249.959 280.074 248.022 281.007 247.202 279.549C248.082 277.975 250.311 277.041 252.014 277.622C252.014 278.38 252.014 279.665 251.194 280.014ZM251.251 294.188C250.839 293.836 250.839 293.604 250.9 293.255C251.546 292.906 251.897 293.72 251.251 294.188ZM245.087 276.805C245.91 273.484 247.553 269.69 248.611 266.192C250.076 263.216 255.009 263.159 257.649 260.94C261.936 262.983 266.396 259.89 261.992 267.999C259.821 269.69 257.063 270.799 254.303 271.557C253.483 271.673 252.66 272.142 251.957 272.839C249.959 274.533 247.025 274.882 245.087 276.749V276.805ZM288.585 277.566C286.648 275.815 279.018 276.397 276.375 276.981C268.334 276.34 261.056 279.782 253.128 280.306C253.128 277.506 253.483 276.456 250.137 276.633C250.428 275.756 251.134 275.407 251.837 275.231C254.597 274.59 257.003 272.955 259.704 272.198C263.99 270.623 267.627 264.209 264.224 260.359C259.001 257.791 253.657 261.409 248.668 262.867C244.268 265.431 244.91 272.025 242.798 276.224C242.33 277.446 240.804 279.257 239.335 278.38C239.512 275.815 243.21 273.6 239.335 271.324C239.747 267.126 239.981 261.525 243.913 259.017C249.491 255.752 255.066 251.493 261.875 252.018C264.87 252.25 268.273 251.433 270.74 253.592C274.203 256.217 278.901 257.034 282.364 259.309C282.364 259.426 282.655 259.482 282.773 259.482C283.89 259.133 284.476 260.007 285.065 260.591C291.051 264.85 298.446 266.016 302.907 272.723C300.089 275.872 295.629 279.958 292.226 282.057C290.64 281.24 289.465 279.141 288.528 277.506L288.585 277.566ZM289.994 286.605C290.523 284.389 296.158 284.854 298.918 281.24C300.852 278.788 303.496 276.981 304.61 274.065C304.962 273.075 305.902 273.54 306.899 273.015C307.605 274.998 310.245 275.583 310.245 277.855C304.788 280.599 305.724 287.482 299.681 289.113C298.624 289.637 297.098 289.697 296.569 290.923C296.392 291.328 296.158 291.737 295.629 291.973C292.577 291.68 291.697 288.704 290.054 286.721L289.994 286.605ZM330.028 288.996C329.031 290.923 328.091 292.846 326.448 294.305C326.388 295.819 324.745 296.464 324.571 297.979C323.336 299.613 321.693 301.187 320.635 303.111C317.701 307.662 315.061 312.269 311.537 316.352C310.717 317.345 310.188 318.743 309.426 319.793C307.956 320.666 306.725 321.776 305.551 323.058C304.316 321.892 304.493 320.434 303.379 319.268C302.79 318.683 302.321 318.102 302.733 317.169C302.907 316.76 302.673 316.352 302.382 316.059C300.501 314.02 300.384 311.103 298.741 308.944C295.572 305.27 292.048 301.536 290.405 296.872C289.76 293.836 293.926 293.896 295.863 292.67C296.392 294.537 296.335 296.696 298.681 297.746C297.918 295.122 297.098 291.156 300.735 290.979C302.087 289.697 304.081 289.521 305.199 287.947C308.719 285.379 306.37 284.974 308.368 283.279C310.188 282.346 311.42 279.958 313.418 279.549C313.592 279.549 313.886 279.606 314.003 279.429C314.415 278.44 315.529 278.38 316.235 277.799C316.115 275.815 314.181 277.274 313.418 276.048C320.87 269.109 324.216 282.931 330.38 283.98C330.674 284.798 331.143 285.499 331.849 286.14C331.025 287.013 330.497 288.063 330.028 289.056V288.996Z" fill="#141515"/>
<path d="M139.014 394.098C137.662 394.098 136.079 394.098 134.844 394.447C134.436 395.088 133.73 395.088 133.144 395.32C130.561 396.313 128.563 398.18 126.04 399.346C123.223 401.678 120.583 399.114 117.882 397.948C114.887 396.778 118.528 390.248 119.994 388.497C120.639 387.447 120.991 386.165 122.517 385.989C124.749 383.95 127.332 382.491 130.089 381.206C133.379 378.641 142.009 379.924 140.834 373.914C138.897 367.208 129.915 368.55 124.688 369.832C121.871 370.825 119.816 372.748 117.353 374.323C117.353 367.849 125.863 365.693 129.209 361.142C130.384 359.159 131.441 355.252 128.212 354.784C126.097 353.851 124.046 353.851 121.931 354.844C119.113 355.661 116.942 357.877 114.124 358.518C116.999 353.851 112.304 348.895 107.96 351.343C102.091 356.418 99.3908 361.374 98.0991 369.134C96.3355 366.683 95.9842 363.009 92.6983 362.016C86.829 363.125 86.6516 370.357 86.5345 375.084C88.1775 386.747 94.2241 392.287 89.9978 404.655C88.1207 407.455 88.7062 411.185 87.0632 413.985C86.1229 410.488 81.0733 411.886 81.0733 415.151C80.8391 417.311 81.8966 419.702 81.4282 421.685C80.4878 422.559 79.2565 424.835 77.7874 423.609C73.5611 420.403 71.5065 424.658 72.6207 428.568C70.5093 430.199 68.2205 431.425 66.7515 433.76C64.5194 437.082 61.528 433 58.8276 432.943C57.0675 433.059 55.2471 432.126 53.5438 433.176C48.4375 434.225 49.6121 441.517 51.9009 444.782C52.1954 446.124 52.7206 447.35 54.0122 448.047C55.0697 448.808 55.1868 450.848 56.8901 450.383C58.0043 452.658 58.0043 452.658 60.0589 452.482C60.176 455.223 62.7026 454.465 63.9942 455.691C64.1681 457.089 66.574 456.797 66.1659 458.199C62.2306 456.565 58.1818 455.223 55.1868 452.014C53.1322 450.266 50.5489 447.815 48.0259 447.29C52.5467 454.641 61.2938 458.372 69.4519 460.122C74.7924 461.172 82.4821 464.613 86.5913 459.365C87.5919 457.963 88.4117 456.624 86.829 455.106C84.3628 447.991 81.1336 452.422 87.1803 444.782C87.709 444.081 88.4117 444.081 89.1746 444.606C89.9978 445.191 91.1121 445.015 91.9921 445.483C95.8671 446.765 98.3333 441.749 96.2184 438.6C99.8592 438.833 100.856 438.251 101.736 434.69C102.148 432.711 100.445 430.96 99.9195 429.093C101.502 427.343 102.677 423.785 105.26 423.901C106.318 423.552 107.492 422.968 108.606 422.735C114.007 420.812 116.825 415.095 122.165 412.879C129.152 411.301 137.899 409.086 141.302 402.147C142.651 399.522 142.711 394.563 138.953 393.982L139.014 394.098ZM80.0762 426.409C80.7823 425.652 81.7795 425.243 82.3082 424.193C84.1854 426.994 86.1832 429.794 88.2378 432.591C89.0007 433.408 90.1149 433.701 90.5266 434.866C90.8176 435.275 90.8176 435.744 90.4095 436.092C88.9404 437.374 87.4145 434.81 86.1229 434.165C84.7141 432.535 77.4361 428.568 80.0194 426.409H80.0762ZM67.6918 458.78C67.3973 458.724 67.4576 458.315 67.7486 458.315C68.1602 458.315 68.0431 458.896 67.6918 458.78ZM83.8341 445.948C80.6652 449.157 78.199 453.007 75.2644 456.388C74.7356 457.322 74.6753 457.266 73.6214 456.913C66.9289 454.465 60.9993 450.675 56.0668 445.539C59.6473 442.218 64.4023 440.291 67.7486 436.793C69.0402 434.634 72.0352 434.518 73.444 432.302C73.7385 431.95 74.0898 431.834 74.5014 431.834C78.199 435.8 81.602 439.999 85.9454 443.208C85.5373 444.49 84.6573 445.191 83.8908 445.892L83.8341 445.948ZM93.0496 442.098C88.6459 445.716 65.9282 422.21 77.4361 425.067C77.319 425.592 76.7902 425.067 76.556 425.359C76.9641 428.043 79.7816 430.083 81.4849 432.126C83.5999 433.701 91.3463 442.042 93.0496 437.727C94.3412 439.065 95.2213 441.401 92.9928 442.098H93.0496ZM97.9217 434.75C93.5783 439.241 76.9073 413.168 86.1229 414.686C86.24 415.113 85.9277 415.873 85.1825 416.962C86.4742 420.287 94.0467 433.76 97.9217 432.707C97.982 432.182 97.393 431.95 97.5101 431.485C97.8649 431.309 98.2162 430.96 98.6846 430.96C99.1566 432.475 98.8621 434.109 97.982 434.75H97.9217ZM139.777 398.529C139.425 402.788 135.199 404.947 131.853 406.754C127.683 410.195 121.754 409.903 117.471 412.936C113.067 416.786 108.78 421.918 102.382 421.802C102.091 422.327 102.794 422.675 102.62 423.2C101.445 424.017 99.9195 424.37 99.2134 425.768C97.8649 426.177 97.6272 427.691 96.4562 428.276C95.8671 428.568 96.0445 429.209 95.75 429.734C93.5783 428.625 92.6983 425.652 91.0553 423.785C89.8204 421.453 86.5345 418.829 88.763 416.145C90.8176 414.045 90.9382 411.301 91.584 408.737C92.5812 405.644 93.2838 402.379 93.8728 399.23C94.9267 387.564 84.4799 375.373 92.347 364.816C98.6279 364.175 94.1638 384.122 98.3901 389.022C99.3305 390.424 102.62 391.646 104.203 390.773C104.966 389.779 106.552 391.298 107.02 390.072C107.432 388.265 110.601 387.796 109.838 385.813C108.429 383.365 103.968 387.388 101.445 386.923C99.9195 383.189 99.0359 379.399 100.445 375.609C100.917 371.058 102.031 366.507 103.674 362.135C104.263 360.032 105.317 358.225 107.02 356.767C107.549 355.369 110.778 352.861 111.307 355.369C112.421 359.159 109.547 361.783 108.078 364.876C106.435 368.55 103.908 381.79 107.9 383.83C108.663 379.807 109.192 375.665 109.018 371.526C110.544 365.633 114.827 360.966 120.345 358.342C122.048 357.408 124.809 355.541 126.686 357.059C127.917 359.567 124.454 360.793 123.4 362.484C123.223 362.949 122.754 363.185 122.282 363.474C118.819 365.052 116.881 368.201 114.77 371.058C115.065 372.4 113.947 373.217 113.535 374.323C112.716 376.775 113.478 379.575 114.827 381.731C116.236 379.282 119.231 378.525 121.225 376.658C123.457 375.841 125.572 374.383 127.978 373.858C128.918 372.34 137.133 371.29 137.899 372.808C141.125 377.824 125.217 378.641 122.577 381.382C119.816 382.78 117.939 385.116 116.764 387.856C116.942 389.371 115.945 390.364 115.299 391.53C110.427 397.187 117.353 404.302 123.634 402.964C125.806 402.788 127.683 402.612 129.152 400.861C131.675 399.871 139.07 393.048 139.777 398.705V398.529Z" fill="#141515"/>
<path d="M338.541 434.226C335.195 429.387 328.268 433.994 324.454 436.326C324.099 436.618 323.687 436.794 323.045 436.558C325.1 432.183 318.407 418.594 313.006 419.996C311.597 420.521 311.303 420.521 310.54 419.235C308.251 415.561 306.136 411.831 303.964 408.097C299.387 397.364 291.697 388.442 286.236 378.174C281.776 370.65 279.192 362.136 274.38 354.845C271.151 348.836 259.938 338.747 263.227 353.154C264.927 361.844 270.271 369.484 272.266 377.825C269.157 378.931 265.339 378.642 262.464 379.925C262.17 380.974 261.173 381.15 260.41 381.559C256.592 383.775 254.658 385.698 254.658 390.305C254.832 394.272 258.763 396.723 260.467 399.932C261.29 401.795 263.05 401.972 264.693 402.44C265.222 404.828 266.691 406.987 269.097 407.688C270.566 408.153 271.446 409.03 272.031 410.253C273.674 414.103 278.018 415.677 279.664 419.527C281.541 424.603 288.056 425.068 292.638 426.234C295.629 427.752 296.275 431.134 298.035 433.585C298.273 433.818 298.447 434.226 298.212 434.575C297.684 435.452 297.978 436.502 298.156 437.319C298.975 440.817 301.03 446.999 305.256 447.291C306.079 447.291 306.548 447.7 306.608 448.573C303.145 450.384 300.207 452.948 298.156 456.333C295.806 459.19 296.041 461.93 299.153 464.09C301.03 466.133 303.379 465.548 305.785 465.199C312.772 465.664 319.816 463.216 325.156 458.841C321.164 459.775 317.289 462.399 313.123 461.99C313.297 461.349 313.886 461.117 314.415 461.173C315.763 461.289 316.76 460.648 317.761 460.007C318.698 459.482 319.873 459.775 320.401 458.549C322.161 456.449 325.862 457.383 326.508 454.058C329.972 453.765 329.794 451.898 331.437 450.032C334.198 449.274 334.606 445.776 336.898 444.258C338.715 442.335 341.533 435.801 338.424 434.226H338.541ZM313.006 422.852C317.289 419.703 326.508 434.575 319.227 434.519C316.881 435.568 308.72 423.201 313.006 422.852ZM277.961 414.046C277.198 411.831 274.966 410.545 274.146 408.213C275.495 407.805 276.786 407.572 277.844 406.695C278.255 409.03 277.844 411.479 277.961 413.987V414.046ZM298.156 427.287C296.335 425.885 294.22 424.487 291.871 424.078C291.051 423.962 290.523 423.261 290.111 422.736C288.468 420.986 286.296 419.996 284.476 418.478C277.844 415.853 281.247 407.34 280.601 401.855C280.484 398.706 278.195 397.304 275.026 397.829C273.089 398.999 275.26 400.629 276.847 400.397C280.25 400.397 275.438 405.589 273.674 405.121C272.972 405.357 272.148 405.645 271.329 405.064C263.93 405.237 267.102 400.573 269.743 396.547C270.094 395.614 271.034 395.205 271.854 394.74C272.911 392.581 277.315 393.69 277.081 390.83C274.498 390.425 271.737 392.641 269.331 393.63C266.396 395.032 266.219 398.005 264.87 400.513C262.404 400.105 261.641 396.491 261.347 394.448C263.284 391.122 267.337 390.249 270.154 387.741C271.797 387.04 273.557 386.575 274.966 385.406C273.089 383.017 270.974 384.881 269.274 386.107C265.811 388.033 260.584 389.199 259.292 393.282C259.235 393.63 258.941 393.747 258.646 393.983C253.366 387.857 265.694 381.848 270.566 380.217C273.557 378.991 277.666 381.559 280.189 379.051C280.896 377.533 277.783 377.533 276.847 377.882C274.792 378.35 274.966 373.799 273.323 372.749C271.68 370.241 271.737 366.684 269.86 364.176C269.157 361.728 268.273 359.276 267.159 357.061C267.337 355.486 265.868 354.493 265.694 353.034C265.048 351.636 263.99 350.526 265.222 348.952C268.511 348.952 269.682 353.211 271.385 355.486C271.975 357.001 273.617 358.05 273.735 359.801C273.735 360.967 275.378 360.967 275.495 362.136C276.023 365.109 277.432 367.734 278.607 370.418C279.075 373.102 280.601 375.201 282.244 377.241C287.059 383.542 290.7 390.714 295.455 397.072C300.501 405.064 304.788 413.522 309.426 421.743C308.897 423.437 308.485 425.012 309.188 426.643C309.426 427.167 309.014 427.576 308.837 428.101C306.136 428.686 304.61 431.31 302.144 432.36C301.03 430.609 299.621 428.918 298.329 427.167L298.156 427.287ZM299.738 437.784C300.267 436.618 301.559 436.734 302.439 436.269C304.671 433.818 307.957 432.536 309.777 429.619C310.774 430.084 310.657 431.253 311.537 431.659C308.191 434.751 304.727 437.259 300.796 439.302C300.15 438.834 299.972 438.309 299.738 437.844V437.784ZM302.087 441.402C301.498 441.109 301.381 440.468 301.03 440.06C304.61 437.728 309.071 436.269 311.363 432.243C313.769 433.525 312.3 435.509 310.423 436.269C307.722 438.076 305.082 440.06 302.087 441.458V441.402ZM306.314 443.325C305.785 444.026 305.199 443.557 304.671 443.617C303.379 443.793 303.379 443.677 302.79 442.451C306.37 440.116 311.186 439.186 313.418 435.044C317.527 436.326 311.714 439.126 310.657 440.817C309.188 441.634 307.371 441.926 306.314 443.385V443.325ZM326.388 448.809C325.1 449.45 324.745 451.141 323.219 451.433C322.278 451.606 321.398 452.075 320.635 452.716C318.936 454.29 316.526 454.29 314.706 455.692C312.009 452.892 310.657 449.158 308.191 446.125C310.011 445.424 311.303 444.082 312.829 443.325C313.769 443.149 314.766 442.976 315.178 441.926C317.995 440.236 316.409 436.967 320.93 438.777C322.339 441.694 323.808 445.132 326.448 447.235C327.094 447.583 327.094 448.401 326.388 448.809Z" fill="#141515"/>
<path d="M242.737 352.568C242.975 349.475 239.863 350.761 238.103 349.827C235.459 349.651 232.702 349.883 230.002 349.591C229.178 346.967 228.71 343.469 225.949 342.127C219.846 340.32 213.331 341.542 211.922 348.541C211.393 350.352 210.396 351.225 208.576 350.993C204.758 350.644 200.769 351.285 197.068 350.468C195.837 348.193 196.717 345.509 196.66 343.117C197.54 337.696 186.561 341.253 188.147 330.929C191.61 321.595 193.076 325.677 196.894 320.954C200.123 300.598 192.49 306.022 177.228 306.547C175.173 306.607 173.119 306.607 171.242 307.364C169.478 307.072 167.718 307.657 166.015 307.773C164.961 307.48 163.903 307.364 162.789 307.597C158.208 307.773 151.87 305.73 148.875 310.397C147.115 312.44 148.815 311.623 148.23 312.905C146.292 318.153 149.17 323.814 147.644 329.179C147.995 337.636 145.707 347.027 149.053 354.959C149.344 355.192 149.287 355.6 149.053 355.949C148.23 357.583 148.936 359.567 147.818 361.141C148.052 363.998 147.527 367.034 147.232 369.947C146.292 378.641 147.467 387.506 147.644 396.136C149.17 398.179 150.93 398.588 153.453 398.236C154.688 398.296 155.919 397.887 157.094 398.472C158.151 398.412 159.56 397.827 160.614 398.236C163.435 399.169 165.663 396.489 168.424 397.595C171.71 397.014 175.113 397.07 178.342 396.429C179.517 396.253 180.574 397.07 181.749 396.545C182.629 396.778 183.509 397.07 184.389 396.897C187.501 397.186 191.727 395.555 194.367 397.13C197.128 399.113 203.76 397.07 207.341 397.422C208.164 397.422 208.984 396.954 209.807 397.655C210.687 397.655 211.979 397.13 212.919 397.302C214.445 397.655 215.737 396.661 217.202 397.07C218.025 397.246 218.849 397.655 219.668 397.07C222.074 397.595 224.541 397.595 226.89 397.07C230.119 396.08 233.582 397.07 236.574 396.429C238.571 395.555 239.686 396.837 241.74 395.03C241.857 393.572 242.798 392.17 242.092 390.656C241.857 390.131 241.857 389.778 242.092 389.254C242.503 388.088 242.737 386.862 241.857 385.696C242.798 385.115 242.798 384.354 242.503 383.42C241.918 381.032 242.092 378.348 242.152 375.84C242.854 373.625 241.857 371.349 242.269 369.134C242.446 368.316 242.329 367.675 241.857 367.034C241.446 366.449 241.272 365.865 241.857 365.283C242.269 364.815 242.092 364.35 242.035 363.882C241.272 360.151 242.798 356.534 242.798 352.8L242.737 352.568ZM150.635 310.982C150.99 310.513 151.398 310.746 151.87 310.982C153.396 311.679 155.039 311.39 156.625 311.154C162.26 311.563 167.541 309.464 173.119 309.932C179.577 309.115 186.149 307.657 192.607 308.59C194.25 307.949 194.133 310.105 195.251 310.746C195.659 310.982 195.485 311.623 195.308 312.031C194.428 314.596 194.779 317.28 194.311 320.02C186.795 320.837 182.806 330.112 185.503 336.586C185.212 337.928 186.387 338.277 187.033 339.151C188.147 342.067 191.61 342.011 194.076 343.409C193.253 345.392 194.839 350.292 192.607 350.933C187.969 351.342 182.98 349.943 178.403 350.993C177.757 350.993 177.288 354.611 177.228 355.368C175.88 357.876 173.47 361.433 170.184 359.626C168.658 358.866 166.721 357.643 166.252 355.833C165.841 353.209 162.729 351.574 160.263 352.219C157.211 352.568 154.216 352.568 150.99 352.335C150.753 346.21 152.278 340.084 151.576 334.018C150.99 336.002 151.281 338.101 150.813 340.084C150.284 332.912 150.518 325.737 150.813 318.622C151.047 316.639 151.633 314.479 150.462 312.496C150.167 311.972 150.462 311.507 150.696 311.098L150.635 310.982ZM193.899 381.497C193.782 385.64 193.665 389.662 193.548 393.628C189.439 393.628 185.624 394.153 181.632 394.097C180.34 394.329 179.105 394.794 177.757 394.097C176.934 393.688 175.997 394.329 175.113 394.446C174.705 394.506 174.293 394.738 173.942 394.446C172.885 393.745 171.71 393.981 170.536 394.153C167.661 394.622 164.723 393.456 161.732 394.097C161.143 394.27 160.674 394.213 160.089 394.037C156.86 391.998 152.222 396.605 149.755 393.628C150.635 388.556 149.638 383.132 149.755 377.94C150.813 370.183 150.753 362.307 150.813 354.551C153.865 353.966 156.916 355.252 160.028 354.959C161.38 354.959 161.38 354.959 161.849 356.241C163.609 359.507 166.309 363.882 170.713 363.068C173.765 363.473 174.822 362.599 177.168 360.909C178.637 360.268 179.222 358.925 179.166 357.351C179.048 356.418 180.046 355.949 180.106 355.016C180.397 353.793 180.397 353.793 181.689 353.733C185.152 353.677 188.559 354.082 192.022 353.733C193.605 353.733 193.899 353.966 193.722 355.6C193.196 358.749 193.842 361.842 193.842 365.051C193.842 368.316 199.066 366.39 200.592 369.947C204.64 374.791 200.297 382.314 194.016 381.557L193.899 381.497ZM239.686 379.63C238.571 382.314 240.803 392.639 238.103 392.871C231.996 393.104 226.066 394.446 220.08 394.097C216.911 394.097 213.331 394.678 210.396 393.512C209.984 393.104 209.278 393.336 208.81 393.512C204.701 394.097 200.24 394.097 196.188 393.28C195.719 390.888 196.305 388.44 195.837 386.048C195.659 385.287 195.954 384.879 196.66 384.706C201.177 383.656 203.704 380.039 205.286 375.956C205.286 375.84 205.403 375.724 205.403 375.664C204.64 374.09 206.521 372.283 205.229 370.941C204.758 370.532 204.523 370.123 204.758 369.542C204.818 369.306 204.758 369.017 204.467 368.897C203.409 368.2 202.824 366.974 201.589 366.506C200.24 365.456 199.066 364.35 197.245 364.29C195.13 363.649 196.599 360.56 196.365 358.925C196.539 357.118 196.014 355.484 196.422 353.617C201.294 353.617 205.758 353.557 210.513 353.617C212.039 353.91 213.036 353.385 213.505 351.867C213.859 344.927 224.658 340.204 226.01 349.01C226.244 354.082 235.754 351.518 239.334 351.75C240.097 358.225 239.391 364.29 239.451 370.764C239.569 372.283 239.1 373.857 239.451 375.372C240.214 376.83 239.746 378.232 239.512 379.69L239.686 379.63Z" fill="#141515"/>
<path d="M147.349 289.167C147.115 288.409 147.466 288.057 147.878 287.592C150.223 284.968 150.812 282.108 149.577 278.726C149.755 274.584 145.411 271.9 141.771 271.026C140.891 270.85 139.776 271.026 139.07 270.269C136.43 268.634 132.967 268.578 130.383 266.711C134.141 262.917 139.07 259.712 140.834 254.52C143.591 250.614 143.708 238.831 136.43 242.272C129.092 250.029 123.222 259.476 113.418 264.612C108.077 268.402 101.268 268.634 94.9868 268.458C92.5809 268.751 92.1693 268.226 93.1097 265.95C93.6384 264.087 95.6894 261.928 92.9322 260.702C88.9402 258.779 84.9481 256.795 80.7218 255.337C80.8992 252.829 81.9567 250.67 81.1334 248.222C79.9021 244.721 75.2641 240.93 71.9747 244.312C68.7455 246.88 67.3367 250.846 64.8137 253.995C60.882 258.895 59.5903 265.193 56.7124 270.441C58.0041 264.612 60.2929 258.546 62.8762 253.062C63.405 251.952 64.5192 250.554 63.5824 249.388C56.4215 256.679 50.7829 285.958 54.3065 295.873C57.7131 303.105 66.517 298.321 68.4545 292.372C69.1571 293.189 69.9804 293.305 70.8001 293.073C73.7383 293.658 76.6126 294.764 79.6643 293.89C82.1909 293.89 82.0738 290.449 84.068 290.04C92.2864 290.625 93.7555 300.188 100.565 303.105C102.208 303.341 102.62 304.623 103.851 305.613C107.609 306.722 120.522 314.306 122.988 312.147C122.399 311.622 121.285 311.854 121.345 310.745C123.4 310.512 124.926 312.031 126.92 312.087C128.034 312.147 129.209 311.971 130.266 312.672C137.427 312.555 139.365 309.114 136.781 302.756C139.954 302.288 143.123 301.706 142.477 297.68C146.76 296.514 148.58 292.432 147.466 289.167H147.349ZM82.7764 281.759C81.7792 285.373 80.4272 288.758 79.1391 292.256C71.8576 290.741 64.6399 288.814 57.3015 288.001C57.007 287.592 57.1241 287.24 57.3015 286.951C57.5357 286.599 57.6528 286.25 57.4186 285.841C57.1241 284.383 57.6528 282.865 58.2986 281.526C59.4129 276.627 60.2361 271.783 61.7017 267C61.8791 266.126 62.1736 265.309 62.9366 264.552C64.5192 262.509 64.6966 259.42 66.517 257.436C67.2196 255.802 68.1032 254.287 69.04 252.769C69.1571 252.537 69.3913 252.421 69.803 252.361C76.9071 255.862 85.2426 257.613 92.2864 261.579C87.9998 267.761 85.5371 274.876 82.7196 281.815L82.7764 281.759ZM146.352 286.482C144.12 285.084 142.008 283.566 139.659 282.167C135.962 280.124 135.373 284.559 138.662 285.841C142.651 287.824 150.695 293.658 141.831 295.056C138.719 295.989 135.138 290.917 132.498 294.355C134.553 296.747 138.953 296.514 139.954 300.072C136.725 301.182 133.378 300.773 130.149 300.072C129.798 299.899 129.209 300.072 128.918 300.597C130.149 302.171 132.85 301.823 133.435 303.806C133.79 304.915 135.373 305.38 135.256 306.779C135.55 309.17 134.493 308.998 132.85 309.579C132.026 308.882 131.146 308.589 130.383 309.579C119.993 304.915 107.254 305.497 98.216 297.624C94.0465 294.355 91.0551 289.05 85.711 287.416C84.4193 287.124 84.3022 286.891 84.831 285.725C85.2426 284.559 85.1823 283.39 86.183 282.34C87.4143 280.593 87.5917 278.025 88.8231 276.218C89.0005 275.866 89.2915 275.457 89.2915 275.109C89.2915 273.71 90.4092 272.777 90.5263 271.435C90.7002 270.561 92.0522 270.617 92.7548 270.85C123.045 279.892 140.891 227.457 139.07 247.813C138.485 248.863 138.953 249.969 138.662 251.078C138.307 252.188 137.839 253.294 137.899 254.52C137.37 255.686 136.079 256.503 135.667 257.845C135.316 258.835 134.024 259.071 133.847 260.177C133.435 260.934 132.381 261.286 131.909 262.16C130.561 263.562 129.152 264.96 127.683 266.126C127.037 266.186 126.391 266.359 126.274 267.06C125.98 268.694 127.743 269.8 128.74 270.734C129.681 270.617 130.266 271.435 130.972 271.611C132.261 272.252 134.024 271.727 135.082 272.601C136.253 273.826 136.253 273.826 137.956 273.125C139.482 274.235 141.068 275.052 142.828 275.693C147.115 277.384 149.932 283.333 146.469 286.426L146.352 286.482Z" fill="#141515"/>
<path d="M108.78 404.889C108.138 403.723 108.663 402.322 107.315 401.624C106.201 400.515 105.026 399.056 103.145 399.465C102.854 402.149 104.792 404.365 104.966 406.989C105.612 409.613 104.497 412.706 106.257 414.921C108.78 414.22 109.252 411.015 109.135 408.856C109.898 407.457 109.309 406.115 108.78 404.829V404.889Z" fill="#141515"/>
<path d="M219.022 392.931C223.483 392.755 227.947 392.695 232.408 392.463C230.938 392.054 220.14 392.463 219.022 392.931Z" fill="#141515"/>
<path d="M211.51 393.457C212.742 393.862 213.799 393.281 214.913 393.165C213.799 393.165 212.624 392.873 211.51 393.457Z" fill="#141515"/>
<path d="M216.265 393.224C216.794 393.051 217.379 393.516 218.142 392.699C217.323 392.815 216.794 392.875 216.265 392.935C216.265 393.051 216.265 393.108 216.265 393.224Z" fill="#141515"/>
<path d="M73.3845 287.652C73.679 288.585 75.2049 289.17 76.6137 288.937C76.9082 287.419 76.3795 286.077 74.9707 284.795C73.7393 285.496 73.0935 286.718 73.4448 287.652H73.3845Z" fill="#141515"/>
<path d="M66.6942 283.219C64.9909 282.286 64.519 285.143 64.7567 286.309C66.0484 289.866 69.0398 284.618 66.6942 283.219Z" fill="#141515"/>
<g filter="url(#filter1_f_4858_4291)">
<ellipse cx="137" cy="133.705" rx="87" ry="85.705" fill="url(#paint1_linear_4858_4291)"/>
</g>
<path d="M372 430.734H371.333V436.856H372V430.734Z" fill="#141515"/>
<path d="M371 436.857H370.333V439.408H371V436.857Z" fill="#141515"/>
<path d="M371 429.713H370.333V430.733H371V429.713Z" fill="#141515"/>
<path d="M370.334 438.9H369.667V439.921H370.334V438.9Z" fill="#141515"/>
<path d="M370.334 431.756H369.667V434.307H370.334V431.756Z" fill="#141515"/>
<path d="M370.334 428.178H369.667V429.198H370.334V428.178Z" fill="#141515"/>
<path d="M369.667 430.734H369V431.755H369.667V430.734Z" fill="#141515"/>
<path d="M370 439.918H368.333V440.938H370V439.918Z" fill="#141515"/>
<path d="M369 429.713H367.333V430.733H369V429.713Z" fill="#141515"/>
<path d="M368.333 441.441H366.667V442.462H368.333V441.441Z" fill="#141515"/>
<path d="M369.667 427.16H366V428.18H369.667V427.16Z" fill="#141515"/>
<path d="M366.666 442.467H365V443.487H366.666V442.467Z" fill="#141515"/>
<path d="M365.666 428.178H365V429.198H365.666V428.178Z" fill="#141515"/>
<path d="M365 443.482H364.333V444.503H365V443.482Z" fill="#141515"/>
<path d="M365 429.713H364.333V430.733H365V429.713Z" fill="#141515"/>
<path d="M364.333 445.02H363.666V446.04H364.333V445.02Z" fill="#141515"/>
<path d="M364.333 430.734H363.666V431.755H364.333V430.734Z" fill="#141515"/>
<path d="M363.667 443.482H363V444.503H363.667V443.482Z" fill="#141515"/>
<path d="M363.667 429.713H363V430.733H363.667V429.713Z" fill="#141515"/>
<path d="M363 442.467H361.333V443.487H363V442.467Z" fill="#141515"/>
<path d="M362.667 428.178H362V429.198H362.667V428.178Z" fill="#141515"/>
<path d="M361.333 441.441H359.667V442.462H361.333V441.441Z" fill="#141515"/>
<path d="M360 439.918H358.333V440.938H360V439.918Z" fill="#141515"/>
<path d="M362 427.16H358.333V428.18H362V427.16Z" fill="#141515"/>
<path d="M358.333 438.9H357.667V439.921H358.333V438.9Z" fill="#141515"/>
<path d="M358.333 428.178H357.666V429.198H358.333V428.178Z" fill="#141515"/>
<path d="M357.333 436.857H356.667V439.408H357.333V436.857Z" fill="#141515"/>
<path d="M357.333 429.713H356.667V430.733H357.333V429.713Z" fill="#141515"/>
<path d="M356.667 430.734H356V436.856H356.667V430.734Z" fill="#141515"/>
<g clip-path="url(#clip1_4858_4291)">
<path d="M35.4324 209.649L34.0215 208.762L33.6666 209.326L35.0776 210.213L35.4324 209.649Z" fill="#141515"/>
<path d="M33.4882 209.611L32.9238 209.256L32.569 209.82L33.1334 210.175L33.4882 209.611Z" fill="#141515"/>
<path d="M35.9782 204.717L35.2704 204.272L34.8811 204.891L35.5889 205.336L35.1971 205.959L35.9002 206.401L37.8519 203.297L37.1487 202.855L35.9782 204.717Z" fill="#141515"/>
<path d="M33.7386 208.588L32.3276 207.701L31.9728 208.266L33.3838 209.153L33.7386 208.588Z" fill="#141515"/>
<path d="M37.3598 202.203L36.7954 201.848L36.4406 202.412L37.0049 202.767L37.3598 202.203Z" fill="#141515"/>
<path d="M32.6824 207.137L31.2715 206.25L30.9166 206.814L32.3276 207.701L32.6824 207.137Z" fill="#141515"/>
<path d="M33.4333 204.061L34.1388 204.504L34.5519 203.847L35.2573 204.291L35.6704 203.634L34.9649 203.19L36.2069 201.215L36.9124 201.659L37.3282 200.997L36.6227 200.554L37.8647 198.578L37.1592 198.135L33.4333 204.061Z" fill="#141515"/>
<path d="M30.3847 207.66L29.8203 207.305L29.4655 207.869L30.0299 208.224L30.3847 207.66Z" fill="#141515"/>
<path d="M33.7548 202.3L33.1904 201.945L32.8356 202.51L33.4 202.865L33.7548 202.3Z" fill="#141515"/>
<path d="M34.4653 201.169L33.9009 200.814L33.546 201.379L34.1104 201.734L34.4653 201.169Z" fill="#141515"/>
<path d="M30.4252 205.718L29.8608 205.363L28.9737 206.774L29.5381 207.129L30.4252 205.718Z" fill="#141515"/>
<path d="M31.4167 204.763L28.877 203.166L28.5221 203.73L31.0618 205.327L31.4167 204.763Z" fill="#141515"/>
<path d="M37.3451 194.71L36.7808 194.355L36.4259 194.92L36.9903 195.275L37.3451 194.71Z" fill="#141515"/>
<path d="M37.4173 193.971L36.0063 193.084L35.6515 193.648L37.0625 194.535L37.4173 193.971Z" fill="#141515"/>
<path d="M35.6321 198.06L34.9951 197.659L35.3929 197.026L34.1272 196.231L33.7294 196.863L34.3622 197.261L33.9617 197.898L33.3288 197.5L33.7294 196.863L33.0923 196.463L32.2939 197.733L32.931 198.133L32.5304 198.77L33.7961 199.566L34.1967 198.929L34.8337 199.33L35.6321 198.06Z" fill="#141515"/>
<path d="M28.7314 204.652L28.167 204.297L27.2799 205.708L27.8443 206.063L28.7314 204.652Z" fill="#141515"/>
<path d="M27.9085 201.577L28.5455 201.977L28.1034 202.681L28.7363 203.079L29.1784 202.375L31.7181 203.972L31.276 204.675L31.9088 205.073L32.3509 204.37L32.988 204.771L33.433 204.063L28.3535 200.869L27.9085 201.577Z" fill="#141515"/>
<path d="M35.6518 193.646L35.0874 193.291L34.7326 193.855L35.2969 194.21L35.6518 193.646Z" fill="#141515"/>
<path d="M26.998 205.529L26.4336 205.174L26.0787 205.738L26.6431 206.093L26.998 205.529Z" fill="#141515"/>
<path d="M27.6029 203.942L26.1919 203.055L25.837 203.619L27.248 204.506L27.6029 203.942Z" fill="#141515"/>
<path d="M34.0003 194.705L34.4134 194.048L33.7806 193.651L33.3675 194.308L32.7305 193.907L31.9016 195.225L32.5386 195.626L32.9517 194.969L36.7571 197.361L36.344 198.018L36.9811 198.419L37.8099 197.101L37.1729 196.7L37.586 196.043L36.9531 195.645L36.5401 196.302L34.0003 194.705Z" fill="#141515"/>
<path d="M32.0794 194.944L31.3739 194.5L30.132 196.476L29.4265 196.032L29.0107 196.693L29.7162 197.137L28.4742 199.112L27.7687 198.669L27.3557 199.326L28.0611 199.769L27.6481 200.426L28.3535 200.87L32.0794 194.944Z" fill="#141515"/>
<path d="M25.8377 203.62L24.4268 202.732L24.0719 203.297L25.4829 204.184L25.8377 203.62Z" fill="#141515"/>
<path d="M28.894 196.878L28.3296 196.523L27.9747 197.088L28.5391 197.443L28.894 196.878Z" fill="#141515"/>
<path d="M23.894 203.579L23.3296 203.225L22.9747 203.789L23.5391 204.144L23.894 203.579Z" fill="#141515"/>
<path d="M28.1128 197.176L27.4097 196.734L25.458 199.838L26.1612 200.281L26.5531 199.657L27.2608 200.102L27.6502 199.483L26.9424 199.038L28.1128 197.176Z" fill="#141515"/>
<path d="M23.8616 202.377L22.4507 201.49L22.0958 202.055L23.5068 202.942L23.8616 202.377Z" fill="#141515"/>
<path d="M21.9184 202.337L21.354 201.982L20.9992 202.547L21.5635 202.902L21.9184 202.337Z" fill="#141515"/>
</g>
<g clip-path="url(#clip2_4858_4291)">
<path d="M126.333 123.666H125.667V125.999H126.333V123.666Z" fill="#141515"/>
<path d="M125.333 123H124.667V123.667H125.333V123Z" fill="#141515"/>
<path d="M124.667 123.666H124V124.333H124.667V123.666Z" fill="#141515"/>
<path d="M124.667 122.336H124V123.003H124.667V122.336Z" fill="#141515"/>
<path d="M124 124.334H123.333V125.001H124V124.334Z" fill="#141515"/>
<path d="M124 121.332H122.333V121.999H124V121.332Z" fill="#141515"/>
<path d="M124 115.332H123.333V117.665H124V115.332Z" fill="#141515"/>
<path d="M123 125.334H122.333V126.001H123V125.334Z" fill="#141515"/>
<path d="M123 117.67H122.333V118.337H123V117.67Z" fill="#141515"/>
<path d="M123.333 114.666H121.666V115.333H123.333V114.666Z" fill="#141515"/>
<path d="M122.333 122.336H121.666V123.003H122.333V122.336Z" fill="#141515"/>
<path d="M122.667 120.666H121V121.333H122.667V120.666Z" fill="#141515"/>
<path d="M122.333 118.336H121.666V119.003H122.333V118.336Z" fill="#141515"/>
<path d="M121.667 123H121V123.667H121.667V123Z" fill="#141515"/>
<path d="M121.667 119H121V119.667H121.667V119Z" fill="#141515"/>
<path d="M121.667 115.332H121V115.999H121.667V115.332Z" fill="#141515"/>
<path d="M121 123.666H120.333V124.333H121V123.666Z" fill="#141515"/>
<path d="M121 120H120.333V120.667H121V120Z" fill="#141515"/>
<path d="M121 116H120.333V116.667H121V116Z" fill="#141515"/>
<path d="M120 120.666H119.333V121.333H120V120.666Z" fill="#141515"/>
<path d="M120 117.002H119.333V117.669H120V117.002Z" fill="#141515"/>
<path d="M119.334 121.332H118.667V121.999H119.334V121.332Z" fill="#141515"/>
<path d="M119.334 117.67H118.667V118.337H119.334V117.67Z" fill="#141515"/>
<path d="M118.667 118.336H118V119.003H118.667V118.336Z" fill="#141515"/>
<path d="M118.667 116H118V117.667H118.667V116Z" fill="#141515"/>
<path d="M117.667 119H117V119.667H117.667V119Z" fill="#141515"/>
<path d="M117.093 110V110.776H116.333V112.333H117.093V113.115H117.858V113.891H118.617V114.667H119.382V113.891H120.142V113.115H120.902V112.333H121.666V110.776H120.902V110H119.382V110.776H118.617V110H117.093Z" fill="#141515"/>
<path d="M118 115.332H115.667V115.999H118V115.332Z" fill="#141515"/>
<path d="M116.5 118.336H115.667V121.336H116.5V120.583H117.333V119.836H116.5V118.336Z" fill="#141515"/>
<path d="M115.333 121.332H114.667V121.999H115.333V121.332Z" fill="#141515"/>
<path d="M115.333 116H114.667V118.333H115.333V116Z" fill="#141515"/>
<path d="M114.667 122.336H114V126.003H114.667V122.336Z" fill="#141515"/>
</g>
<g clip-path="url(#clip3_4858_4291)">
<path d="M359.688 49.2621L357.737 50.3883L358.136 51.0793L360.734 49.5793L358.734 46.1152L358.087 46.489L359.688 49.2621Z" fill="#141515"/>
<path d="M356.901 42.944L356.324 43.2773L357.49 45.2981L358.068 44.9647L356.901 42.944Z" fill="#141515"/>
<path d="M355.42 41.8722L356.068 41.4985L354.568 38.9004L351.97 40.4004L352.343 41.0478L354.294 39.9216L355.42 41.8722Z" fill="#141515"/>
<path d="M357.202 45.4596L356.625 45.793L357.458 47.2363L358.035 46.903L357.202 45.4596Z" fill="#141515"/>
<path d="M355.201 41.9967L354.624 42.3301L355.457 43.7735L356.035 43.4401L355.201 41.9967Z" fill="#141515"/>
<path d="M357.303 49.6354L355.859 50.4688L356.193 51.0461L357.636 50.2128L357.303 49.6354Z" fill="#141515"/>
<path d="M353.714 42.0846L344.476 47.418L348.309 54.0575L357.547 48.7242L353.714 42.0846ZM353.208 50.3462L348.589 53.0129L347.822 51.6841L348.48 51.3042L348.098 50.642L348.76 50.2597L348.375 49.5931L349.691 48.8333L350.076 49.4999L350.738 49.1175L351.121 49.7797L351.779 49.3998L352.161 50.0621L352.823 49.6797L353.208 50.3462ZM350.524 45.6977L351.182 45.3178L350.8 44.6556L352.12 43.8933L352.503 44.5556L353.161 44.1757L353.928 45.5045L353.27 45.8843L353.652 46.5465L352.332 47.3088L351.949 46.6466L351.292 47.0265L350.524 45.6977ZM356.502 48.4443L353.866 49.9664L353.481 49.2998L354.139 48.9199L353.757 48.2577L354.419 47.8753L354.037 47.2131L355.353 46.4533L356.502 48.4443Z" fill="#141515"/>
<path d="M352.304 40.9733L350.86 41.8066L351.194 42.384L352.637 41.5507L352.304 40.9733Z" fill="#141515"/>
<path d="M356.36 51.3372L354.339 52.5039L354.672 53.0813L356.693 51.9146L356.36 51.3372Z" fill="#141515"/>
<path d="M350.526 41.2318L348.505 42.3984L348.838 42.9758L350.859 41.8091L350.526 41.2318Z" fill="#141515"/>
<path d="M354.127 51.4694L352.684 52.3027L353.017 52.8801L354.461 52.0468L354.127 51.4694Z" fill="#141515"/>
<path d="M349.128 42.8092L347.685 43.6426L348.018 44.2199L349.461 43.3866L349.128 42.8092Z" fill="#141515"/>
<path d="M353.184 53.1712L351.163 54.3379L351.496 54.9152L353.517 53.7486L353.184 53.1712Z" fill="#141515"/>
<path d="M347.351 43.0638L345.33 44.2305L345.663 44.8078L347.684 43.6412L347.351 43.0638Z" fill="#141515"/>
<path d="M350.664 53.4694L349.22 54.3027L349.554 54.8801L350.997 54.0468L350.664 53.4694Z" fill="#141515"/>
<path d="M345.664 44.8092L344.22 45.6426L344.554 46.2199L345.997 45.3866L345.664 44.8092Z" fill="#141515"/>
<path d="M349.654 55.0543L347.708 56.1781L346.107 53.405L345.455 53.7812L347.455 57.2454L350.053 55.7454L349.654 55.0543Z" fill="#141515"/>
<path d="M345.943 51.9635L345.366 52.2969L346.199 53.7403L346.776 53.4069L345.943 51.9635Z" fill="#141515"/>
<path d="M343.944 48.4967L343.367 48.8301L344.2 50.2735L344.777 49.9401L343.944 48.4967Z" fill="#141515"/>
<path d="M344.2 50.2741L343.623 50.6074L344.789 52.6281L345.367 52.2948L344.2 50.2741Z" fill="#141515"/>
<path d="M342.315 46.8356L344.262 45.7118L343.888 45.0645L341.29 46.5645L342.79 49.1625L343.442 48.7863L342.315 46.8356Z" fill="#141515"/>
</g>
<g clip-path="url(#clip4_4858_4291)">
<path d="M46.999 447.143H46.374V449.724H46.999V447.143Z" fill="#141515"/>
<path d="M46.374 449.725H44.1865V450.462H46.374V449.725Z" fill="#141515"/>
<path d="M46.374 447.147V446.319H45.6465V443.828H44.9141V446.319H44.1865V447.147H46.374Z" fill="#141515"/>
<path d="M44.8115 442.719H44.1865V443.456H44.8115V442.719Z" fill="#141515"/>
<path d="M44.1865 447.143H43.5615V449.724H44.1865V447.143Z" fill="#141515"/>
<path d="M39.8611 442.059V439.516H40.5804V438.664H38.4177V439.516H39.137V442.059H34.8115V442.905H39.137V446.299H38.4177V447.145H40.5804V446.299H39.8611V442.905H44.1865V442.059H39.8611Z" fill="#141515"/>
<path d="M41.0615 447.143H40.4365V449.724H41.0615V447.143Z" fill="#141515"/>
<path d="M41.0615 436.08H40.4365V438.661H41.0615V436.08Z" fill="#141515"/>
<path d="M40.749 449.725H38.5615V450.462H40.749V449.725Z" fill="#141515"/>
<path d="M40.749 435.344H38.5615V436.081H40.749V435.344Z" fill="#141515"/>
<path d="M38.249 447.143H37.624V449.724H38.249V447.143Z" fill="#141515"/>
<path d="M38.249 436.08H37.624V438.661H38.249V436.08Z" fill="#141515"/>
<path d="M35.4365 447.143H34.8115V449.724H35.4365V447.143Z" fill="#141515"/>
<path d="M34.811 442.719H34.186V443.456H34.811V442.719Z" fill="#141515"/>
<path d="M34.8115 449.725H32.624V450.462H34.8115V449.725Z" fill="#141515"/>
<path d="M33.3516 446.319H32.624V447.147H34.8115V446.319H34.084V443.828H33.3516V446.319Z" fill="#141515"/>
<path d="M32.6245 447.143H31.9995V449.724H32.6245V447.143Z" fill="#141515"/>
</g>
<g filter="url(#filter2_d_4858_4291)">
<rect x="57.2266" y="37" width="256" height="50" rx="10" transform="rotate(6 57.2266 37)" fill="#F4EAD8" shape-rendering="crispEdges"/>
<path d="M118.599 79.174L118.962 75.7208L115.509 75.3578L115.872 71.9046L112.418 71.5417L113.507 61.1821L116.96 61.545L117.323 58.0918L120.777 58.4548L121.14 55.0016L134.952 56.4534L134.589 59.9066L138.043 60.2695L137.68 63.7227L130.773 62.9968L131.136 59.5436L124.23 58.8177L123.867 62.2709L120.414 61.908L119.325 72.2676L122.778 72.6305L122.415 76.0837L129.321 76.8096L129.684 73.3564L136.591 74.0823L136.228 77.5355L132.775 77.1726L132.412 80.6258L118.599 79.174ZM142.771 81.7146L143.134 78.2614L139.681 77.8985L140.77 67.5389L144.223 67.9018L144.586 64.4486L161.852 66.2633L161.489 69.7165L164.942 70.0795L163.853 80.4391L160.4 80.0761L160.037 83.5293L142.771 81.7146ZM146.587 78.6244L156.947 79.7132L158.036 69.3536L147.676 68.2648L146.587 78.6244Z" fill="#141515"/>
<path d="M170.397 84.6182L172.938 60.4458L179.844 61.1717L177.666 81.8909L191.479 83.3427L191.116 86.7959L170.397 84.6182ZM194.569 87.1588L196.384 69.8928L199.837 70.2557L200.2 66.8025L203.653 67.1655L204.016 63.7123L214.376 64.8011L214.013 68.2543L217.466 68.6173L217.103 72.0705L220.556 72.4334L218.742 89.6994L211.835 88.9735L212.561 82.0671L202.202 80.9783L201.476 87.8847L194.569 87.1588ZM202.565 77.5251L212.924 78.6139L213.65 71.7075L210.197 71.3446L210.56 67.8914L207.107 67.5284L206.744 70.9816L203.29 70.6187L202.565 77.5251ZM222.195 90.0624L224.736 65.89L245.455 68.0676L245.092 71.5208L248.545 71.8838L247.819 78.7902L244.366 78.4272L244.003 81.8804L247.456 82.2434L246.73 89.1498L243.277 88.7868L242.914 92.24L222.195 90.0624ZM230.553 76.9755L240.913 78.0643L241.639 71.1579L231.279 70.0691L230.553 76.9755ZM229.464 87.3351L239.824 88.4239L240.55 81.5175L230.19 80.4287L229.464 87.3351Z" fill="#FF730D"/>
</g>
<g filter="url(#filter3_d_4858_4291)">
<rect x="169" y="137.686" width="163" height="38" rx="10" transform="rotate(-8 169 137.686)" fill="#F4EAD8" shape-rendering="crispEdges"/>
<path d="M189.578 155.056C189.748 156.271 189.75 157.397 189.582 158.435C189.413 159.459 189.071 160.373 188.557 161.176C188.058 161.977 187.382 162.632 186.528 163.14C185.689 163.646 184.676 163.982 183.491 164.149C182.262 164.322 181.167 164.282 180.206 164.029C179.243 163.761 178.412 163.318 177.714 162.7C177.013 162.067 176.446 161.274 176.014 160.32C175.581 159.366 175.279 158.282 175.109 157.067C174.883 155.457 174.948 154.015 175.307 152.741C175.665 151.467 176.331 150.419 177.304 149.595C178.293 148.77 179.606 148.242 181.245 148.012C182.811 147.792 184.176 147.943 185.338 148.466C186.499 148.975 187.436 149.798 188.148 150.937C188.873 152.058 189.349 153.432 189.578 155.056ZM177.197 156.796C177.382 158.113 177.725 159.221 178.224 160.121C178.724 161.021 179.39 161.673 180.223 162.079C181.07 162.482 182.08 162.601 183.25 162.437C184.436 162.27 185.366 161.878 186.04 161.261C186.729 160.642 187.189 159.831 187.422 158.829C187.654 157.826 187.677 156.666 187.492 155.349C187.215 153.373 186.588 151.887 185.612 150.89C184.634 149.878 183.26 149.497 181.489 149.746C180.304 149.913 179.359 150.306 178.656 150.928C177.965 151.532 177.503 152.336 177.271 153.338C177.037 154.326 177.012 155.479 177.197 156.796ZM192.284 155.481C192.044 153.769 192.007 152.289 192.175 151.042C192.356 149.778 192.754 148.737 193.37 147.919C193.999 147.085 194.867 146.463 195.973 146.054C196.896 145.715 197.799 145.402 198.684 145.113C199.569 144.825 200.397 144.559 201.169 144.316L201.736 145.96C201.363 146.072 200.949 146.205 200.493 146.359C200.035 146.498 199.571 146.645 199.1 146.801C198.628 146.942 198.171 147.088 197.729 147.24C197.301 147.375 196.923 147.502 196.597 147.623C196.128 147.793 195.721 148.029 195.376 148.332C195.028 148.619 194.744 148.987 194.524 149.436C194.318 149.883 194.177 150.418 194.1 151.04C194.023 151.663 194.028 152.386 194.114 153.21L194.246 153.191C194.411 152.884 194.649 152.56 194.959 152.218C195.284 151.874 195.681 151.564 196.15 151.289C196.633 151.013 197.197 150.829 197.841 150.738C198.865 150.594 199.746 150.702 200.483 151.061C201.232 151.403 201.831 151.946 202.278 152.689C202.741 153.43 203.046 154.327 203.194 155.381C203.377 156.683 203.303 157.805 202.973 158.747C202.643 159.689 202.106 160.436 201.363 160.988C200.618 161.525 199.711 161.869 198.643 162.019C197.838 162.133 197.084 162.082 196.383 161.867C195.679 161.638 195.05 161.248 194.495 160.7C193.94 160.151 193.475 159.44 193.099 158.568C192.722 157.696 192.451 156.667 192.284 155.481ZM198.571 160.395C199.215 160.305 199.752 160.095 200.184 159.766C200.63 159.435 200.942 158.95 201.121 158.313C201.3 157.676 201.32 156.86 201.18 155.865C201.011 154.665 200.652 153.753 200.102 153.129C199.564 152.488 198.783 152.24 197.758 152.384C197.115 152.475 196.55 152.703 196.064 153.07C195.576 153.422 195.183 153.806 194.883 154.221C194.583 154.636 194.377 154.978 194.266 155.248C194.367 155.965 194.516 156.653 194.713 157.311C194.91 157.97 195.171 158.553 195.496 159.059C195.833 159.549 196.251 159.923 196.75 160.181C197.262 160.423 197.869 160.494 198.571 160.395ZM206.75 150.448L205.625 150.606L204.39 145.008L206.384 144.728L206.75 150.448ZM216.869 159.458C215.786 159.61 214.791 159.541 213.885 159.25C212.991 158.943 212.24 158.377 211.632 157.553C211.023 156.728 210.62 155.613 210.423 154.208C210.217 152.745 210.299 151.524 210.669 150.547C211.039 149.57 211.62 148.817 212.411 148.288C213.215 147.742 214.151 147.394 215.219 147.244C215.819 147.16 216.413 147.136 217 147.173C217.602 147.208 218.121 147.291 218.558 147.424L218.209 149.085C217.777 148.981 217.304 148.913 216.792 148.881C216.295 148.846 215.834 148.859 215.41 148.918C214.664 149.023 214.052 149.236 213.575 149.557C213.097 149.878 212.756 150.314 212.55 150.865C212.344 151.416 212.252 152.093 212.275 152.896L218.048 152.084L218.271 153.665L212.476 154.479C212.641 155.336 212.903 156.031 213.261 156.563C213.619 157.094 214.074 157.463 214.625 157.669C215.176 157.875 215.832 157.925 216.593 157.818C217.252 157.725 217.828 157.577 218.322 157.373C218.815 157.17 219.269 156.949 219.684 156.712L219.918 158.38C219.537 158.643 219.105 158.86 218.622 159.032C218.141 159.219 217.557 159.361 216.869 159.458ZM229.85 145.412L231.275 155.553L232.988 155.312L233.79 161.019L231.924 161.282L231.35 157.199L223.162 158.35L223.736 162.432L221.892 162.692L221.09 156.984L222.034 156.852C222.576 155.82 222.989 154.725 223.273 153.566C223.571 152.39 223.745 151.187 223.796 149.956C223.859 148.708 223.814 147.484 223.66 146.282L229.85 145.412ZM225.585 147.556C225.666 148.559 225.658 149.612 225.559 150.715C225.458 151.804 225.278 152.859 225.019 153.88C224.774 154.9 224.445 155.797 224.032 156.571L229.41 155.815L228.197 147.188L225.585 147.556ZM235.8 144.575L236.488 149.47L242.876 148.573L242.188 143.678L244.119 143.406L245.773 155.172L243.841 155.443L243.104 150.197L236.716 151.095L237.454 156.341L235.522 156.613L233.868 144.847L235.8 144.575ZM252.273 142.059C253.707 141.857 254.812 142.023 255.589 142.555C256.365 143.088 256.85 144.042 257.043 145.418L258.169 153.43L256.764 153.627L256.157 152.011L256.069 152.024C255.792 152.495 255.491 152.903 255.166 153.247C254.854 153.575 254.473 153.837 254.023 154.035C253.588 154.23 253.041 154.374 252.383 154.467C251.681 154.565 251.026 154.531 250.421 154.362C249.83 154.191 249.337 153.873 248.943 153.406C248.547 152.924 248.294 152.288 248.183 151.498C248.018 150.327 248.353 149.362 249.186 148.604C250.018 147.83 251.388 147.279 253.297 146.951L255.285 146.605L255.186 145.902C255.048 144.922 254.741 144.271 254.263 143.95C253.785 143.63 253.158 143.524 252.382 143.633C251.768 143.719 251.196 143.896 250.666 144.165C250.135 144.419 249.644 144.696 249.194 144.998L248.398 143.633C248.871 143.283 249.446 142.964 250.121 142.675C250.795 142.371 251.512 142.166 252.273 142.059ZM253.726 148.256C252.271 148.521 251.287 148.898 250.774 149.388C250.275 149.876 250.078 150.493 250.183 151.239C250.276 151.898 250.541 152.353 250.98 152.605C251.433 152.854 251.974 152.935 252.603 152.846C253.598 152.707 254.387 152.32 254.969 151.686C255.55 151.037 255.76 150.142 255.599 149.001L255.451 147.947L253.726 148.256ZM262.081 140.882L262.769 145.777L269.157 144.879L268.469 139.984L270.401 139.713L272.054 151.478L270.122 151.75L269.385 146.503L262.997 147.401L263.735 152.647L261.803 152.919L260.149 141.153L262.081 140.882ZM276.058 138.917L277.711 150.683L275.78 150.955L274.126 139.189L276.058 138.917ZM274.494 134.638C274.786 134.597 275.057 134.663 275.305 134.837C275.566 134.995 275.726 135.286 275.786 135.71C275.844 136.12 275.77 136.443 275.564 136.681C275.374 136.917 275.132 137.055 274.839 137.097C274.517 137.142 274.232 137.077 273.984 136.903C273.736 136.729 273.583 136.437 273.525 136.028C273.465 135.603 273.532 135.281 273.725 135.059C273.915 134.824 274.172 134.683 274.494 134.638ZM295.365 139.226C295.468 139.958 295.328 140.559 294.947 141.031C294.565 141.502 294.041 141.859 293.374 142.102L293.386 142.19C294.132 142.19 294.806 142.364 295.407 142.712C296.006 143.046 296.367 143.652 296.491 144.53C296.561 145.027 296.53 145.501 296.4 145.953C296.284 146.402 296.057 146.807 295.72 147.167C295.382 147.528 294.926 147.839 294.351 148.098C293.773 148.344 293.06 148.526 292.212 148.645L287.141 149.358L285.487 137.592L290.536 136.883C291.37 136.765 292.13 136.756 292.815 136.853C293.513 136.934 294.083 137.168 294.525 137.553C294.98 137.922 295.26 138.48 295.365 139.226ZM294.493 144.81C294.398 144.137 294.074 143.69 293.521 143.47C292.968 143.249 292.194 143.208 291.199 143.348L288.323 143.752L288.854 147.528L291.773 147.118C292.739 146.982 293.458 146.739 293.931 146.389C294.403 146.024 294.59 145.498 294.493 144.81ZM293.445 139.742C293.367 139.186 293.105 138.812 292.661 138.621C292.229 138.413 291.559 138.373 290.652 138.501L287.644 138.923L288.098 142.15L290.754 141.777C291.705 141.643 292.411 141.409 292.871 141.076C293.332 140.743 293.523 140.298 293.445 139.742ZM311.015 134.005L311.243 135.629L305.997 136.366L307.422 146.508L305.491 146.779L303.837 135.013L311.015 134.005ZM318.9 132.673C320.349 132.469 321.583 132.81 322.603 133.697C323.638 134.581 324.298 136.04 324.584 138.074C324.771 139.406 324.724 140.562 324.444 141.541C324.177 142.504 323.71 143.271 323.044 143.842C322.391 144.396 321.574 144.743 320.593 144.88C319.993 144.965 319.448 144.959 318.957 144.864C318.466 144.769 318.035 144.621 317.663 144.419C317.304 144.201 316.986 143.955 316.709 143.68L316.577 143.699C316.641 143.943 316.715 144.254 316.798 144.63C316.88 145.007 316.941 145.334 316.98 145.612L317.659 150.441L315.727 150.713L313.333 133.679L314.914 133.457L315.402 135.022L315.49 135.01C315.677 134.64 315.912 134.294 316.195 133.971C316.492 133.645 316.857 133.37 317.288 133.145C317.733 132.919 318.271 132.761 318.9 132.673ZM318.777 134.346C317.987 134.457 317.372 134.7 316.932 135.076C316.49 135.436 316.202 135.932 316.067 136.563C315.931 137.194 315.921 137.971 316.036 138.895L316.089 139.268C316.224 140.234 316.442 141.039 316.742 141.683C317.041 142.328 317.457 142.792 317.989 143.075C318.536 143.356 319.234 143.437 320.083 143.318C320.8 143.217 321.357 142.937 321.755 142.479C322.168 142.018 322.437 141.435 322.562 140.731C322.699 140.01 322.706 139.211 322.583 138.333C322.394 136.987 321.979 135.948 321.339 135.217C320.714 134.484 319.86 134.194 318.777 134.346ZM328.77 131.509L330.424 143.275L328.492 143.546L326.838 131.781L328.77 131.509ZM327.206 127.23C327.499 127.189 327.769 127.255 328.017 127.429C328.278 127.586 328.439 127.877 328.498 128.302C328.556 128.711 328.482 129.035 328.277 129.273C328.086 129.509 327.844 129.647 327.552 129.688C327.23 129.734 326.944 129.669 326.696 129.495C326.448 129.321 326.295 129.029 326.237 128.619C326.178 128.195 326.244 127.872 326.437 127.651C326.628 127.416 326.884 127.275 327.206 127.23Z" fill="#141515"/>
</g>
<g filter="url(#filter4_d_4858_4291)">
<rect x="68.6509" y="172" width="210" height="38" rx="8.99916" transform="rotate(4 68.6509 172)" fill="#F4EAD8" shape-rendering="crispEdges"/>
<path d="M91.964 189.343L91.1477 201.017L89.427 200.897L89.9479 193.448C89.9692 193.143 89.9988 192.824 90.0367 192.491C90.0891 192.159 90.141 191.835 90.1923 191.517L90.127 191.513L85.659 200.634L84.0472 200.521L81.001 190.875L80.9357 190.87C80.9424 191.192 80.934 191.519 80.9107 191.853C80.9019 192.188 80.8853 192.53 80.8609 192.878L80.3446 200.262L78.6239 200.142L79.4403 188.467L81.9886 188.646L85.013 198.29L89.4157 189.165L91.964 189.343ZM97.6072 189.738L96.7908 201.412L94.8741 201.278L95.6905 189.604L97.6072 189.738ZM96.9767 185.294C97.2671 185.315 97.5141 185.434 97.7177 185.653C97.9369 185.858 98.0317 186.171 98.0022 186.592C97.9738 186.998 97.8363 187.295 97.5898 187.482C97.3578 187.67 97.0966 187.754 96.8062 187.734C96.4867 187.711 96.2252 187.591 96.0216 187.372C95.818 187.154 95.7304 186.841 95.7589 186.435C95.7883 186.014 95.9185 185.716 96.1495 185.543C96.3816 185.355 96.6573 185.272 96.9767 185.294ZM111.728 206.527L109.855 206.396L110.138 202.345L100.489 201.671L101.306 189.996L103.222 190.13L102.519 200.193L108.552 200.615L109.256 190.552L111.172 190.686L110.467 200.771L112.122 200.886L111.728 206.527ZM116.984 191.093L116.644 195.95L122.983 196.393L123.322 191.536L125.239 191.67L124.422 203.344L122.506 203.21L122.87 198.005L116.532 197.561L116.168 202.767L114.251 202.633L115.067 190.959L116.984 191.093ZM130.852 192.062L130.036 203.737L128.119 203.603L128.935 191.928L130.852 192.062ZM130.222 187.619C130.512 187.639 130.759 187.759 130.963 187.977C131.182 188.182 131.277 188.495 131.247 188.916C131.219 189.323 131.081 189.62 130.835 189.807C130.603 189.995 130.341 190.079 130.051 190.058C129.732 190.036 129.47 189.916 129.266 189.697C129.063 189.479 128.975 189.166 129.004 188.76C129.033 188.338 129.163 188.041 129.394 187.868C129.626 187.68 129.902 187.597 130.222 187.619ZM150.385 193.428L149.569 205.103L133.734 203.995L134.551 192.321L136.467 192.455L135.764 202.518L140.795 202.869L141.499 192.807L143.415 192.941L142.712 203.003L147.765 203.357L148.468 193.294L150.385 193.428ZM156.036 193.823L155.219 205.498L153.303 205.364L154.119 193.689L156.036 193.823ZM155.405 189.38C155.696 189.4 155.943 189.52 156.146 189.738C156.365 189.943 156.46 190.256 156.431 190.677C156.402 191.084 156.265 191.381 156.018 191.568C155.786 191.756 155.525 191.84 155.235 191.819C154.915 191.797 154.654 191.677 154.45 191.458C154.246 191.24 154.159 190.927 154.187 190.521C154.217 190.099 154.347 189.802 154.578 189.629C154.81 189.441 155.086 189.358 155.405 189.38ZM174.574 198.074C174.523 198.8 174.266 199.352 173.802 199.728C173.338 200.104 172.759 200.341 172.067 200.438L172.06 200.525C172.779 200.678 173.393 200.983 173.901 201.442C174.409 201.886 174.633 202.544 174.572 203.415C174.538 203.908 174.412 204.359 174.193 204.767C173.99 205.176 173.688 205.52 173.29 205.798C172.891 206.077 172.387 206.282 171.78 206.415C171.173 206.533 170.449 206.563 169.607 206.504L164.576 206.152L165.392 194.478L170.402 194.828C171.229 194.886 171.963 195.032 172.603 195.266C173.259 195.487 173.76 195.829 174.108 196.291C174.47 196.739 174.626 197.334 174.574 198.074ZM172.59 203.276C172.637 202.608 172.417 202.111 171.929 201.785C171.441 201.459 170.703 201.262 169.716 201.193L166.862 200.993L166.6 204.74L169.497 204.942C170.456 205.009 171.199 204.923 171.726 204.682C172.255 204.427 172.543 203.959 172.59 203.276ZM172.619 198.179C172.657 197.627 172.482 197.213 172.092 196.938C171.719 196.649 171.082 196.473 170.181 196.41L167.198 196.202L166.974 199.403L169.609 199.588C170.553 199.654 171.281 199.573 171.793 199.346C172.305 199.12 172.58 198.73 172.619 198.179ZM190.503 196.234L192.594 196.38L187.214 201.65L192.192 208.083L189.97 207.928L185.114 201.635L184.699 207.559L182.783 207.425L183.599 195.751L185.516 195.885L185.12 201.548L190.503 196.234ZM204.445 203.052C204.377 204.025 204.186 204.88 203.872 205.617C203.573 206.34 203.166 206.946 202.65 207.436C202.149 207.926 201.548 208.285 200.846 208.513C200.16 208.728 199.403 208.806 198.575 208.748C197.805 208.695 197.103 208.514 196.468 208.207C195.834 207.885 195.295 207.447 194.853 206.89C194.41 206.334 194.077 205.676 193.853 204.916C193.644 204.143 193.574 203.27 193.642 202.297C193.732 201.005 194.026 199.931 194.524 199.076C195.022 198.206 195.694 197.567 196.54 197.159C197.387 196.737 198.369 196.565 199.487 196.643C200.547 196.717 201.46 197.022 202.225 197.557C203.005 198.078 203.589 198.805 203.976 199.737C204.379 200.655 204.535 201.76 204.445 203.052ZM195.624 202.436C195.56 203.35 195.62 204.157 195.805 204.856C196.005 205.541 196.347 206.083 196.829 206.481C197.312 206.88 197.946 207.107 198.73 207.161C199.514 207.216 200.173 207.08 200.706 206.752C201.24 206.425 201.646 205.935 201.925 205.284C202.22 204.619 202.399 203.829 202.463 202.914C202.528 201.984 202.46 201.184 202.259 200.514C202.058 199.843 201.715 199.316 201.231 198.932C200.763 198.534 200.129 198.308 199.331 198.252C198.14 198.168 197.249 198.5 196.657 199.247C196.065 199.993 195.72 201.056 195.624 202.436ZM220.413 198.325L219.597 209.999L217.876 209.879L218.397 202.43C218.418 202.125 218.448 201.806 218.486 201.473C218.538 201.141 218.59 200.817 218.641 200.499L218.576 200.495L214.108 209.616L212.496 209.503L209.45 199.857L209.385 199.852C209.391 200.174 209.383 200.501 209.36 200.835C209.351 201.17 209.334 201.512 209.31 201.86L208.794 209.244L207.073 209.124L207.889 197.449L210.438 197.628L213.462 207.272L217.865 198.147L220.413 198.325ZM228.575 198.699C229.998 198.798 231.029 199.184 231.667 199.856C232.306 200.528 232.578 201.547 232.482 202.912L231.926 210.862L230.533 210.764L230.278 209.083L230.191 209.077C229.827 209.475 229.454 209.806 229.071 210.071C228.703 210.322 228.282 210.497 227.808 210.596C227.349 210.695 226.793 210.722 226.139 210.676C225.442 210.627 224.819 210.459 224.27 210.173C223.736 209.888 223.327 209.48 223.043 208.949C222.76 208.404 222.646 207.739 222.701 206.955C222.782 205.794 223.302 204.933 224.26 204.372C225.22 203.797 226.652 203.547 228.559 203.622L230.545 203.696L230.594 202.999C230.662 202.026 230.499 201.336 230.104 200.929C229.709 200.522 229.127 200.291 228.358 200.238C227.748 200.195 227.16 200.249 226.595 200.399C226.031 200.535 225.502 200.702 225.006 200.901L224.519 199.422C225.046 199.182 225.665 198.992 226.375 198.851C227.087 198.697 227.82 198.646 228.575 198.699ZM228.705 204.968C227.249 204.924 226.224 205.086 225.629 205.453C225.049 205.821 224.733 206.375 224.681 207.116C224.636 207.769 224.798 208.262 225.169 208.594C225.554 208.928 226.059 209.116 226.683 209.16C227.671 209.229 228.51 209.018 229.201 208.526C229.893 208.02 230.278 207.201 230.357 206.068L230.431 205.023L228.705 204.968ZM238.265 199.573L237.926 204.431L244.264 204.874L244.603 200.017L246.52 200.151L245.704 211.825L243.787 211.691L244.151 206.485L237.813 206.042L237.449 211.248L235.532 211.114L236.348 199.439L238.265 199.573ZM258.885 201.015L258.181 211.078L259.88 211.197L259.484 216.86L257.633 216.73L257.916 212.679L249.792 212.111L249.509 216.162L247.679 216.034L248.075 210.371L249.012 210.437C249.745 209.554 250.367 208.584 250.879 207.525C251.406 206.453 251.82 205.329 252.121 204.154C252.438 202.965 252.645 201.776 252.743 200.586L258.885 201.015ZM254.337 202.208C254.21 203.191 253.986 204.204 253.665 205.247C253.345 206.275 252.955 207.254 252.496 208.185C252.052 209.117 251.551 209.914 250.994 210.575L256.33 210.948L256.929 202.389L254.337 202.208ZM264.789 201.428L263.972 213.102L262.056 212.968L262.872 201.294L264.789 201.428ZM264.158 196.985C264.449 197.005 264.696 197.125 264.899 197.343C265.118 197.548 265.213 197.861 265.184 198.282C265.155 198.689 265.018 198.986 264.771 199.173C264.539 199.361 264.278 199.445 263.988 199.424C263.668 199.402 263.407 199.281 263.203 199.063C263 198.844 262.912 198.532 262.94 198.125C262.97 197.704 263.1 197.407 263.331 197.233C263.563 197.045 263.839 196.962 264.158 196.985ZM269.586 209.188L268.47 209.11L268.715 197.81L270.916 197.964L269.586 209.188ZM268.892 210.86C269.304 210.889 269.61 211.035 269.813 211.299C270.022 211.563 270.111 211.925 270.079 212.386C270.047 212.847 269.908 213.197 269.663 213.436C269.419 213.669 269.098 213.771 268.701 213.743C268.304 213.715 267.997 213.576 267.779 213.326C267.569 213.076 267.481 212.707 267.515 212.217C267.582 211.253 268.042 210.801 268.892 210.86Z" fill="#141515"/>
</g>
</g>
<defs>
<filter id="filter0_f_4858_4291" x="27.0833" y="194.083" width="319.833" height="317.243" filterUnits="userSpaceOnUse" color-interpolation-filters="sRGB">
<feFlood flood-opacity="0" result="BackgroundImageFix"/>
<feBlend mode="normal" in="SourceGraphic" in2="BackgroundImageFix" result="shape"/>
<feGaussianBlur stdDeviation="36.4583" result="effect1_foregroundBlur_4858_4291"/>
</filter>
<filter id="filter1_f_4858_4291" x="-22.9167" y="-24.9167" width="319.833" height="317.243" filterUnits="userSpaceOnUse" color-interpolation-filters="sRGB">
<feFlood flood-opacity="0" result="BackgroundImageFix"/>
<feBlend mode="normal" in="SourceGraphic" in2="BackgroundImageFix" result="shape"/>
<feGaussianBlur stdDeviation="36.4583" result="effect1_foregroundBlur_4858_4291"/>
</filter>
<filter id="filter2_d_4858_4291" x="50.3428" y="37" width="261.481" height="78.6959" filterUnits="userSpaceOnUse" color-interpolation-filters="sRGB">
<feFlood flood-opacity="0" result="BackgroundImageFix"/>
<feColorMatrix in="SourceAlpha" type="matrix" values="0 0 0 0 0 0 0 0 0 0 0 0 0 0 0 0 0 0 127 0" result="hardAlpha"/>
<feOffset dx="-1.6572" dy="2.2096"/>
<feComposite in2="hardAlpha" operator="out"/>
<feColorMatrix type="matrix" values="0 0 0 0 0.0784314 0 0 0 0 0.0823529 0 0 0 0 0.0823529 0 0 0 1 0"/>
<feBlend mode="normal" in2="BackgroundImageFix" result="effect1_dropShadow_4858_4291"/>
<feBlend mode="normal" in="SourceGraphic" in2="effect1_dropShadow_4858_4291" result="shape"/>
</filter>
<filter id="filter3_d_4858_4291" x="167.161" y="115" width="168.541" height="62.7683" filterUnits="userSpaceOnUse" color-interpolation-filters="sRGB">
<feFlood flood-opacity="0" result="BackgroundImageFix"/>
<feColorMatrix in="SourceAlpha" type="matrix" values="0 0 0 0 0 0 0 0 0 0 0 0 0 0 0 0 0 0 127 0" result="hardAlpha"/>
<feOffset dx="-1.83891" dy="2.45188"/>
<feComposite in2="hardAlpha" operator="out"/>
<feColorMatrix type="matrix" values="0 0 0 0 0.0784314 0 0 0 0 0.0823529 0 0 0 0 0.0823529 0 0 0 1 0"/>
<feBlend mode="normal" in2="BackgroundImageFix" result="effect1_dropShadow_4858_4291"/>
<feBlend mode="normal" in="SourceGraphic" in2="effect1_dropShadow_4858_4291" result="shape"/>
</filter>
<filter id="filter4_d_4858_4291" x="64.3595" y="172" width="213.78" height="54.7439" filterUnits="userSpaceOnUse" color-interpolation-filters="sRGB">
<feFlood flood-opacity="0" result="BackgroundImageFix"/>
<feColorMatrix in="SourceAlpha" type="matrix" values="0 0 0 0 0 0 0 0 0 0 0 0 0 0 0 0 0 0 127 0" result="hardAlpha"/>
<feOffset dx="-1.64047" dy="2.1873"/>
<feComposite in2="hardAlpha" operator="out"/>
<feColorMatrix type="matrix" values="0 0 0 0 0.0784314 0 0 0 0 0.0823529 0 0 0 0 0.0823529 0 0 0 1 0"/>
<feBlend mode="normal" in2="BackgroundImageFix" result="effect1_dropShadow_4858_4291"/>
<feBlend mode="normal" in="SourceGraphic" in2="effect1_dropShadow_4858_4291" result="shape"/>
</filter>
<linearGradient id="paint0_linear_4858_4291" x1="187.124" y1="318.251" x2="187.124" y2="442.579" gradientUnits="userSpaceOnUse">
<stop stop-color="#DEC9EA"/>
<stop offset="1" stop-color="#FFF500" stop-opacity="0"/>
</linearGradient>
<linearGradient id="paint1_linear_4858_4291" x1="137.124" y1="99.2514" x2="137.124" y2="223.579" gradientUnits="userSpaceOnUse">
<stop stop-color="#DEC9EA"/>
<stop offset="1" stop-color="#FFF500" stop-opacity="0"/>
</linearGradient>
<clipPath id="clip0_4858_4291">
<rect width="390" height="590" fill="white"/>
</clipPath>
<clipPath id="clip1_4858_4291">
<rect width="16" height="16" fill="white" transform="translate(29.5161 189) rotate(32.1588)"/>
</clipPath>
<clipPath id="clip2_4858_4291">
<rect width="16" height="16" fill="white" transform="translate(112 110)"/>
</clipPath>
<clipPath id="clip3_4858_4291">
<rect width="16" height="16" fill="white" transform="translate(340 45) rotate(-30)"/>
</clipPath>
<clipPath id="clip4_4858_4291">
<rect width="15" height="17.7" fill="white" transform="translate(32 434.24)"/>
</clipPath>
</defs>
</svg>
