<svg width="768" height="622" viewBox="0 0 768 622" fill="none" xmlns="http://www.w3.org/2000/svg">
<g clip-path="url(#clip0_3297_3681)">
<rect width="768" height="622" fill="#F7F6F2"/>
<g filter="url(#filter0_f_3297_3681)">
<ellipse cx="478" cy="253.5" rx="250" ry="253.5" fill="url(#paint0_linear_3297_3681)"/>
</g>
<path d="M454 571.338H452V583.338H454V571.338Z" fill="#141515"/>
<path d="M451 583.338H449V588.338H451V583.338Z" fill="#141515"/>
<path d="M451 569.338H449V571.338H451V569.338Z" fill="#141515"/>
<path d="M449 587.338H447V589.338H449V587.338Z" fill="#141515"/>
<path d="M449 573.338H447V578.338H449V573.338Z" fill="#141515"/>
<path d="M449 566.338H447V568.338H449V566.338Z" fill="#141515"/>
<path d="M447 571.338H445V573.338H447V571.338Z" fill="#141515"/>
<path d="M448 589.338H443V591.338H448V589.338Z" fill="#141515"/>
<path d="M445 569.338H440V571.338H445V569.338Z" fill="#141515"/>
<path d="M443 592.338H438V594.338H443V592.338Z" fill="#141515"/>
<path d="M447 564.338H436V566.338H447V564.338Z" fill="#141515"/>
<path d="M438 594.338H433V596.338H438V594.338Z" fill="#141515"/>
<path d="M435 566.338H433V568.338H435V566.338Z" fill="#141515"/>
<path d="M433 596.338H431V598.338H433V596.338Z" fill="#141515"/>
<path d="M433 569.338H431V571.338H433V569.338Z" fill="#141515"/>
<path d="M431 599.338H429V601.338H431V599.338Z" fill="#141515"/>
<path d="M431 571.338H429V573.338H431V571.338Z" fill="#141515"/>
<path d="M429 596.338H427V598.338H429V596.338Z" fill="#141515"/>
<path d="M429 569.338H427V571.338H429V569.338Z" fill="#141515"/>
<path d="M427 594.338H422V596.338H427V594.338Z" fill="#141515"/>
<path d="M426 566.338H424V568.338H426V566.338Z" fill="#141515"/>
<path d="M422 592.338H417V594.338H422V592.338Z" fill="#141515"/>
<path d="M418 589.338H413V591.338H418V589.338Z" fill="#141515"/>
<path d="M424 564.338H413V566.338H424V564.338Z" fill="#141515"/>
<path d="M413 587.338H411V589.338H413V587.338Z" fill="#141515"/>
<path d="M413 566.338H411V568.338H413V566.338Z" fill="#141515"/>
<path d="M410 583.338H408V588.338H410V583.338Z" fill="#141515"/>
<path d="M410 569.338H408V571.338H410V569.338Z" fill="#141515"/>
<path d="M408 571.338H406V583.338H408V571.338Z" fill="#141515"/>
<path d="M632 482H630V489H632V482Z" fill="#141515"/>
<path d="M630 489H623V491H630V489Z" fill="#141515"/>
<path d="M630 482V479.754H627.672V473H625.328V479.754H623V482H630Z" fill="#141515"/>
<path d="M625 470H623V472H625V470Z" fill="#141515"/>
<path d="M623 482H621V489H623V482Z" fill="#141515"/>
<path d="M609.159 468.206V461.309H611.46V459H604.54V461.309H606.841V468.206H593V470.5H606.841V479.706H604.54V482H611.46V479.706H609.159V470.5H623V468.206H609.159Z" fill="#141515"/>
<path d="M613 482H611V489H613V482Z" fill="#141515"/>
<path d="M613 452H611V459H613V452Z" fill="#141515"/>
<path d="M612 489H605V491H612V489Z" fill="#141515"/>
<path d="M612 450H605V452H612V450Z" fill="#141515"/>
<path d="M604 482H602V489H604V482Z" fill="#141515"/>
<path d="M604 452H602V459H604V452Z" fill="#141515"/>
<path d="M595 482H593V489H595V482Z" fill="#141515"/>
<path d="M593 470H591V472H593V470Z" fill="#141515"/>
<path d="M593 489H586V491H593V489Z" fill="#141515"/>
<path d="M588.328 479.754H586V482H593V479.754H590.672V473H588.328V479.754Z" fill="#141515"/>
<path d="M586 482H584V489H586V482Z" fill="#141515"/>
<g clip-path="url(#clip1_3297_3681)">
<path d="M37.2973 606.29L33.0645 603.629L31.9999 605.322L36.2328 607.983L37.2973 606.29Z" fill="#141515"/>
<path d="M31.4676 606.166L29.7744 605.102L28.7099 606.795L30.403 607.859L31.4676 606.166Z" fill="#141515"/>
<path d="M38.9352 591.486L36.8118 590.151L35.6439 592.009L37.7673 593.344L36.5917 595.214L38.7012 596.54L44.5561 587.228L42.4466 585.901L38.9352 591.486Z" fill="#141515"/>
<path d="M32.2173 603.097L27.9844 600.436L26.9198 602.129L31.1527 604.79L32.2173 603.097Z" fill="#141515"/>
<path d="M43.0808 583.94L41.3877 582.875L40.3232 584.568L42.0163 585.633L43.0808 583.94Z" fill="#141515"/>
<path d="M29.0493 598.741L24.8164 596.08L23.7519 597.773L27.9848 600.435L29.0493 598.741Z" fill="#141515"/>
<path d="M31.2999 589.524L33.4164 590.855L34.6556 588.884L36.772 590.215L38.0113 588.243L35.8948 586.913L39.6207 580.987L41.7372 582.317L42.9845 580.333L40.8681 579.003L44.594 573.077L42.4775 571.746L31.2999 589.524Z" fill="#141515"/>
<path d="M22.1551 600.313L20.4619 599.248L19.3974 600.941L21.0905 602.006L22.1551 600.313Z" fill="#141515"/>
<path d="M32.2683 584.229L30.5752 583.164L29.5107 584.857L31.2038 585.922L32.2683 584.229Z" fill="#141515"/>
<path d="M34.3973 580.842L32.7041 579.777L31.6396 581.47L33.3327 582.535L34.3973 580.842Z" fill="#141515"/>
<path d="M22.2771 594.483L20.584 593.418L17.9226 597.651L19.6158 598.715L22.2771 594.483Z" fill="#141515"/>
<path d="M25.252 591.628L17.6328 586.838L16.5683 588.531L24.1875 593.321L25.252 591.628Z" fill="#141515"/>
<path d="M43.0349 561.467L41.3418 560.402L40.2773 562.095L41.9704 563.16L43.0349 561.467Z" fill="#141515"/>
<path d="M43.2534 559.241L39.0205 556.58L37.956 558.273L42.1889 560.935L43.2534 559.241Z" fill="#141515"/>
<path d="M37.8972 571.515L35.9861 570.314L37.1798 568.415L33.3827 566.028L32.189 567.926L34.0876 569.12L32.8861 571.031L30.9875 569.837L32.189 567.926L30.278 566.725L27.8828 570.534L29.7938 571.736L28.5923 573.647L32.3894 576.034L33.5909 574.123L35.502 575.325L37.8972 571.515Z" fill="#141515"/>
<path d="M17.1971 591.289L15.5039 590.225L12.8426 594.457L14.5357 595.522L17.1971 591.289Z" fill="#141515"/>
<path d="M14.7265 582.067L16.6375 583.268L15.3112 585.378L17.2098 586.571L18.5361 584.462L26.1553 589.252L24.829 591.362L26.7275 592.556L28.0538 590.446L29.9649 591.648L31.2999 589.524L16.0615 579.943L14.7265 582.067Z" fill="#141515"/>
<path d="M37.9558 558.274L36.2627 557.209L35.1982 558.902L36.8913 559.967L37.9558 558.274Z" fill="#141515"/>
<path d="M11.9959 593.926L10.3027 592.861L9.2382 594.554L10.9314 595.619L11.9959 593.926Z" fill="#141515"/>
<path d="M13.811 589.159L9.57812 586.498L8.51359 588.191L12.7465 590.853L13.811 589.159Z" fill="#141515"/>
<path d="M33.003 561.454L34.2422 559.483L32.3437 558.289L31.1044 560.26L29.1934 559.059L26.7067 563.014L28.6178 564.215L29.857 562.244L41.2733 569.422L40.0341 571.393L41.9451 572.595L44.4317 568.64L42.5207 567.438L43.7599 565.467L41.8614 564.274L40.6222 566.245L33.003 561.454Z" fill="#141515"/>
<path d="M27.2397 562.167L25.1233 560.837L21.3974 566.763L19.281 565.432L18.0336 567.416L20.15 568.747L16.4241 574.673L14.3077 573.342L13.0685 575.313L15.1849 576.644L13.9457 578.615L16.0621 579.945L27.2397 562.167Z" fill="#141515"/>
<path d="M8.51315 588.193L4.28027 585.531L3.21574 587.224L7.44862 589.886L8.51315 588.193Z" fill="#141515"/>
<path d="M17.6834 567.971L15.9902 566.906L14.9257 568.599L16.6189 569.664L17.6834 567.971Z" fill="#141515"/>
<path d="M2.68339 588.07L0.990234 587.006L-0.074301 588.699L1.61885 589.764L2.68339 588.07Z" fill="#141515"/>
<path d="M15.3419 568.86L13.2324 567.533L7.37748 576.846L9.48698 578.172L10.6626 576.302L12.786 577.637L13.9539 575.779L11.8305 574.444L15.3419 568.86Z" fill="#141515"/>
<path d="M2.58737 584.466L-1.64551 581.805L-2.71004 583.498L1.52284 586.159L2.58737 584.466Z" fill="#141515"/>
</g>
<g clip-path="url(#clip2_3297_3681)">
<path d="M563.854 46.062L557.949 49.3475L559.113 51.4392L566.977 47.0633L561.143 36.5772L559.183 37.6676L563.854 46.062Z" fill="#141515"/>
<path d="M555.795 26.9651L554.047 27.9375L557.45 34.0544L559.198 33.0819L555.795 26.9651Z" fill="#141515"/>
<path d="M551.404 23.6845L553.364 22.5941L548.988 14.7295L541.123 19.1055L542.213 21.0652L548.118 17.7796L551.404 23.6845Z" fill="#141515"/>
<path d="M556.577 34.5393L554.829 35.5117L557.26 39.8809L559.008 38.9085L556.577 34.5393Z" fill="#141515"/>
<path d="M550.742 24.053L548.994 25.0254L551.425 29.3946L553.173 28.4222L550.742 24.053Z" fill="#141515"/>
<path d="M556.682 47.0689L552.312 49.5L553.285 51.2477L557.654 48.8166L556.682 47.0689Z" fill="#141515"/>
<path d="M546.274 24.2497L518.312 39.8086L529.494 59.9069L557.457 44.348L546.274 24.2497ZM544.365 49.0074L530.384 56.7868L528.146 52.7645L530.138 51.6563L529.022 49.6518L531.027 48.5362L529.904 46.5185L533.888 44.302L535.011 46.3198L537.015 45.2043L538.131 47.2088L540.122 46.1006L541.238 48.1052L543.243 46.9896L544.365 49.0074ZM536.536 34.9359L538.528 33.8277L537.412 31.8232L541.409 29.5994L542.524 31.604L544.516 30.4958L546.754 34.5181L544.762 35.6263L545.878 37.6308L541.881 39.8546L540.766 37.85L538.774 38.9582L536.536 34.9359ZM554.337 43.459L546.357 47.8992L545.234 45.8814L547.226 44.7732L546.111 42.7686L548.116 41.6531L547 39.6486L550.984 37.4321L554.337 43.459Z" fill="#141515"/>
<path d="M542.096 20.8541L537.727 23.2852L538.699 25.0328L543.068 22.6018L542.096 20.8541Z" fill="#141515"/>
<path d="M553.771 52.1219L547.654 55.5254L548.627 57.2731L554.744 53.8696L553.771 52.1219Z" fill="#141515"/>
<path d="M536.754 21.5379L530.637 24.9414L531.609 26.6891L537.726 23.2856L536.754 21.5379Z" fill="#141515"/>
<path d="M547.069 52.4166L542.7 54.8477L543.673 56.5953L548.042 54.1643L547.069 52.4166Z" fill="#141515"/>
<path d="M532.483 26.2017L528.114 28.6328L529.087 30.3805L533.456 27.9494L532.483 26.2017Z" fill="#141515"/>
<path d="M544.159 57.4695L538.042 60.873L539.014 62.6207L545.131 59.2172L544.159 57.4695Z" fill="#141515"/>
<path d="M527.141 26.8856L521.024 30.2891L521.997 32.0367L528.114 28.6332L527.141 26.8856Z" fill="#141515"/>
<path d="M536.584 58.2506L532.215 60.6816L533.187 62.4293L537.556 59.9982L536.584 58.2506Z" fill="#141515"/>
<path d="M521.997 32.0377L517.628 34.4688L518.6 36.2164L522.97 33.7854L521.997 32.0377Z" fill="#141515"/>
<path d="M533.482 62.9598L527.59 66.2382L522.919 57.8438L520.946 58.9414L526.781 69.4275L534.645 65.0515L533.482 62.9598Z" fill="#141515"/>
<path d="M522.497 53.5022L520.749 54.4746L523.18 58.8438L524.928 57.8714L522.497 53.5022Z" fill="#141515"/>
<path d="M516.663 43.0159L514.915 43.9883L517.346 48.3575L519.094 47.385L516.663 43.0159Z" fill="#141515"/>
<path d="M517.345 48.3576L515.598 49.3301L519.001 55.447L520.749 54.4745L517.345 48.3576Z" fill="#141515"/>
<path d="M511.854 37.9578L517.746 34.6795L516.656 32.7198L508.791 37.0957L513.167 44.9603L515.14 43.8627L511.854 37.9578Z" fill="#141515"/>
</g>
<path d="M223 73H221V80H223V73Z" fill="#141515"/>
<path d="M220 71H218V73H220V71Z" fill="#141515"/>
<path d="M218 73H216V75H218V73Z" fill="#141515"/>
<path d="M218 69H216V71H218V69Z" fill="#141515"/>
<path d="M216 75H214V77H216V75Z" fill="#141515"/>
<path d="M216 66H211V68H216V66Z" fill="#141515"/>
<path d="M216 48H214V55H216V48Z" fill="#141515"/>
<path d="M213 78H211V80H213V78Z" fill="#141515"/>
<path d="M213 55H211V57H213V55Z" fill="#141515"/>
<path d="M214 46H209V48H214V46Z" fill="#141515"/>
<path d="M211 69H209V71H211V69Z" fill="#141515"/>
<path d="M212 64H207V66H212V64Z" fill="#141515"/>
<path d="M211 57H209V59H211V57Z" fill="#141515"/>
<path d="M209 71H207V73H209V71Z" fill="#141515"/>
<path d="M209 59H207V61H209V59Z" fill="#141515"/>
<path d="M209 48H207V50H209V48Z" fill="#141515"/>
<path d="M207 73H205V75H207V73Z" fill="#141515"/>
<path d="M207 62H205V64H207V62Z" fill="#141515"/>
<path d="M207 50H205V52H207V50Z" fill="#141515"/>
<path d="M204 64H202V66H204V64Z" fill="#141515"/>
<path d="M204 53H202V55H204V53Z" fill="#141515"/>
<path d="M202 66H200V68H202V66Z" fill="#141515"/>
<path d="M202 55H200V57H202V55Z" fill="#141515"/>
<path d="M200 57H198V59H200V57Z" fill="#141515"/>
<path d="M200 50H198V55H200V50Z" fill="#141515"/>
<path d="M197 59H195V61H197V59Z" fill="#141515"/>
<path d="M195.279 32V34.3282H193V39H195.279V41.3435H197.574V43.6718H199.853V46H202.147V43.6718H204.426V41.3435H206.706V39H209V34.3282H206.706V32H202.147V34.3282H199.853V32H195.279Z" fill="#141515"/>
<path d="M198 48H191V50H198V48Z" fill="#141515"/>
<path d="M193.5 57H191V66H193.5V63.7426H196V61.5H193.5V57Z" fill="#141515"/>
<path d="M190 66H188V68H190V66Z" fill="#141515"/>
<path d="M190 50H188V57H190V50Z" fill="#141515"/>
<path d="M188 69H186V80H188V69Z" fill="#141515"/>
<path d="M597.135 246.292C595.656 225.502 603.21 228.241 579.234 224.689C578.579 220.176 577.675 213.591 571.025 213.814C570.261 214.752 569.273 215.119 568.072 214.922C567.005 214.775 565.933 214.551 565.198 215.516C562.161 216.7 558.955 218.032 558.136 221.36C557.233 223.653 556.245 227.129 553.784 228.313C546.806 229.425 539.664 226.981 532.85 227.87C529.401 228.241 533.014 237.637 532.111 239.706C531.044 240.448 531.207 241.261 531.456 242.221C531.862 243.481 529.485 244.219 528.989 242.887C528.661 241.779 526.612 241.703 527.103 240.372C528.006 237.709 525.297 235.193 526.939 232.754C527.267 231.346 525.952 229.573 524.641 228.831C519.301 229.72 513.887 228.907 508.547 230.015C508.383 231.127 506.904 231.494 506.74 232.678C506.497 234.827 505.182 236.672 503.951 238.374C499.519 245.55 491.142 245.849 486.218 239.34C485.231 238.745 485.151 237.49 484.412 236.824C483.588 236.23 483.181 235.493 483.017 234.603C482.605 232.311 479.32 232.678 477.434 232.754C472.59 233.862 466.843 231.127 462.739 233.938C456.332 238.08 460.848 249.844 463.558 255.245C463.721 255.54 463.885 255.835 463.806 256.13C462.406 258.721 465.364 259.905 466.019 261.827C466.267 266.858 467.171 271.817 467.007 276.919C467.007 277.661 467.414 278.327 468.238 278.179C470.124 277.956 471.766 278.917 473.657 278.698C474.967 278.55 475.216 278.917 475.464 280.324C472.754 281.655 470.287 280.99 468.074 279.435C465.444 280.99 468.238 282.616 468.729 284.394C471.191 289.868 498.695 282.25 505.837 283.653C508.547 284.099 511.341 283.947 514.051 283.729C517.579 284.984 521.192 283.21 523.902 281.285C526.2 279.14 524.393 275.887 524.969 273.296C523.738 271.817 525.376 270.115 524.641 268.488C524.478 266.12 525.624 263.824 525.212 261.384C526.2 256.577 535.56 260.795 536.954 255.612C537.203 254.799 537.694 253.985 538.597 253.615C539.089 253.615 539.173 254.432 539.664 254.061C540.24 253.467 539.907 252.654 540.647 252.136C541.55 253.32 540.24 254.28 540.483 255.245C540.979 255.612 541.223 254.799 541.714 255.245C540.731 259.758 539.089 266.044 533.833 267.747C531.947 267.747 531.123 268.783 530.632 270.262C533.59 294.675 531.207 280.4 558.548 284.689C565.198 284.913 571.849 284.247 578.494 283.653C579.973 283.876 581.125 282.026 582.683 282.839C584.817 282.692 586.872 281.508 589.169 281.655C590.4 281.655 591.467 280.99 592.043 279.953C593.11 278.403 590.648 277.661 590.812 276.401C591.959 274.998 590.236 271.67 593.194 272.036C593.522 274.109 592.371 276.33 593.929 278.55C595.899 276.553 594.916 274.332 595.572 271.964C596.639 263.382 596.723 254.727 597.135 246.292Z" fill="#F7D062"/>
<path d="M459.618 193.32C460.521 203.158 462.983 212.702 462.983 222.469C465.445 222.916 463.395 220.177 464.214 219.069C464.874 218.917 465.529 218.474 466.268 218.622C469.39 230.163 466.348 230.091 481.783 229.202C483.51 228.907 483.51 228.831 483.922 230.386C484.249 231.347 485.316 232.012 486.135 232.607C488.929 236.748 488.681 231.052 492.785 232.012C499.356 234.085 501.49 227.057 505.922 224.395C507.069 225.431 505.922 226.316 505.922 227.352C510.439 227.871 514.87 226.91 519.387 226.539C520.945 226.316 522.588 226.244 523.491 224.689C523.655 224.319 524.31 224.171 524.642 223.948C525.546 220.177 523.491 216.33 525.377 212.63C528.007 212.63 528.087 210.557 525.709 209.892C523.243 208.931 520.206 209.449 519.387 206.563C518.235 203.382 514.379 205.307 513.064 203.234C506.498 193.543 516.513 184.59 527.347 183.852C527.104 179.93 530.305 173.715 526.28 170.904C524.642 171.052 523.243 170.681 521.769 170.091C518.811 169.944 516.101 170.31 513.476 168.389C514.622 168.241 514.295 167.352 514.955 166.834C516.677 166.687 518.563 166.834 520.369 166.463C519.799 164.765 522.096 165.503 522.34 164.394C514.786 162.545 506.17 165.873 498.121 165.06C487.942 165.06 477.842 166.762 467.747 165.279C459.866 164.613 460.358 171.199 460.194 176.453C459.866 182.074 459.782 187.771 459.618 193.396V193.32Z" fill="#F7D062"/>
<path d="M618.481 180.448C619.791 176.824 616.754 172.607 616.347 168.76C614.456 161.137 611.746 153.738 609.121 146.339C607.394 144.418 606.247 141.755 603.95 140.348C601.815 139.611 600.416 137.98 599.185 136.43C594.833 131.841 587.612 136.278 582.028 135.983C581.289 134.799 580.634 132.212 578.579 133.172C575.542 134.428 572.093 134.209 568.891 135.094C561.422 136.501 552.965 135.094 546.231 138.279C547.461 140.053 544.588 140.866 544.92 142.493C545.903 142.863 548.285 142.493 547.958 143.9C546.643 148.413 553.705 160.4 549.432 163.134C546.394 165.279 541.551 164.984 540.647 169.202C540.156 170.904 539.173 172.678 539.829 174.38C540.404 175.935 539.58 177.561 540.647 178.969C539.58 182.15 539.58 184.96 543.193 186.587C544.836 188.584 547.218 187.105 549.352 187.552C552.226 191.546 550.747 201.679 559.04 199.164C568.316 196.354 578.991 197.019 577.512 185.403C577.348 182.816 582.52 178.227 585.557 178.451C586.545 178.451 587.527 177.49 588.594 177.637C589.746 177.856 590.649 177.338 591.552 176.896C593.438 176.007 595.408 175.564 597.299 177.043C597.87 177.49 599.106 177.338 599.513 178.004C600.252 179.782 602.471 180.595 603.126 182.298C603.374 183.705 604.113 184.96 604.113 186.439C604.113 187.181 604.277 187.994 605.26 188.365C609.037 186.663 623.816 186.292 618.481 180.3V180.448Z" fill="#FF730D"/>
<path d="M673.157 250.068C671.678 247.034 669.053 244.814 667.162 242.075C666.671 240.225 665.519 238.894 664.209 237.562C663.058 235.641 662.154 233.492 660.184 232.089C657.231 226.611 653.534 221.138 649.35 216.107C648.362 214.704 648.035 212.926 646.228 212.113C645.489 211.523 645.901 210.339 645.077 209.745C643.931 208.489 643.355 206.787 641.96 205.674C641.633 205.379 641.385 204.937 641.96 204.419C644.094 204.642 646.477 206.269 648.69 205.674C650.497 204.937 652.139 206.711 653.618 205.674C656.819 202.346 649.593 198.646 646.392 198.204C644.094 198.427 645.077 195.541 642.536 196.059C638.347 195.17 635.722 192.065 630.794 193.839C627.429 194.357 630.466 197.02 629.072 198.722C627.508 201.533 629.89 204.49 629.399 207.377C629.89 208.637 630.957 209.673 632.352 210.486C633.667 209.007 632.848 207.377 633.34 205.898C633.831 204.419 634.079 202.94 634.407 201.309C639.087 203.977 639.826 209.007 642.943 212.778C649.514 222.764 655.177 233.42 662.815 242.816C667.162 247.401 667.41 256.578 675.212 257.909C675.539 257.686 675.783 257.462 675.867 257.167C676.522 254.357 674.964 252.213 673.073 250.068H673.157Z" fill="#F7D062"/>
<path d="M595.492 309.403C592.043 306.221 592.782 298.009 589.66 297.857C589.085 298.157 588.841 298.599 589.005 299.041C589.253 302.151 587.447 305.109 586.132 307.848C579.893 317.244 572.092 314.434 572.34 319.536C573.898 320.644 575.868 320.644 577.675 321.238C578.663 321.462 579.318 322.422 580.3 322.422C585.884 324.495 589.497 330.411 590.236 335.813C590.648 337.886 593.685 336.773 593.928 335.071C595.407 328.19 598.445 321.533 606.162 318.647C606.902 318.352 607.477 317.834 607.393 316.949C602.882 314.947 597.869 313.768 595.407 309.403H595.492Z" fill="#F7D062"/>
<path d="M575.13 341.138C574.147 339.806 573.736 338.251 572.832 336.848C572.177 335.517 569.631 335.812 569.711 337.367C569.304 339.435 569.304 341.732 567.661 343.358C566.018 345.874 562.241 345.431 560.599 347.576C565.199 350.163 571.11 352.978 572.013 358.746C572.177 359.706 572.668 360.672 574.063 361.114C575.79 356.749 578.004 352.089 583.011 350.091C583.999 349.721 584.982 349.131 584.982 347.947C581.368 345.95 577.264 344.913 575.294 341.138H575.13Z" fill="#F7D062"/>
<path d="M702.548 318.869C700.002 316.059 696.225 310.433 691.793 313.615C690.811 313.838 690.562 314.504 690.562 315.393C690.642 321.161 694.831 327.157 700.826 329.525C707.556 330.928 705.422 321.679 702.632 318.869H702.548Z" fill="#FF730D"/>
<path d="M482.03 113.048C482.357 112.307 482.685 111.793 483.672 111.494C486.546 110.975 487.861 108.536 489.831 106.762C490.814 106.096 490.323 104.984 490.238 104.095C490.238 103.21 489.092 103.357 488.432 103.062C484.988 103.21 481.211 105.797 480.059 108.831C476.283 108.907 472.59 111.864 472.506 114.822C472.506 120.152 481.211 116.305 482.03 112.972V113.048Z" fill="#F7D062"/>
<path d="M483.26 127.993C486.873 127.033 501.405 125.625 501.156 121.926C494.918 117.489 492.293 122.368 487.528 120.889C486.134 120.371 486.054 122.368 483.672 121.483C479.404 120.518 477.434 129.03 483.26 127.993Z" fill="#F7D062"/>
<path d="M503.212 140.053C499.271 136.501 493.772 137.909 489.092 135.911C487.365 135.022 485.315 134.946 483.345 134.58C481.127 134.133 479.156 138.646 482.442 139.017C484.576 140.053 486.055 141.827 488.844 140.866C490.814 140.424 492.784 142.198 494.839 142.126C497.956 142.569 501.078 141.903 504.279 141.608C504.279 140.571 503.787 140.277 503.296 139.906L503.212 140.053Z" fill="#F7D062"/>
<path d="M573.487 102.026C575.869 100.99 579.318 99.0642 577.184 96.2539C573.571 97.5139 569.139 95.3693 567.824 100.177C569.467 101.285 571.189 102.469 573.487 101.951V102.026Z" fill="#F7D062"/>
<path d="M567.413 115.564C569.795 115.564 571.026 113.42 572.996 112.53C574.887 111.346 575.13 110.31 573.82 108.389C568.237 109.126 566.018 110.238 567.497 115.564H567.413Z" fill="#F7D062"/>
<path d="M605.92 129.621C603.786 130.658 600.501 129.621 599.677 132.36C602.714 132.655 606.327 131.399 608.461 133.839C608.709 134.281 609.285 134.21 609.94 133.986C610.843 131.029 609.697 128.29 605.92 129.621Z" fill="#F7D062"/>
<path d="M592.043 125.184C592.699 123.629 591.631 121.556 590.073 120.596C589.254 121.409 589.086 122.298 589.334 123.187C589.334 125.703 587.939 127.329 588.267 130.287C590.813 128.955 591.304 126.882 592.043 125.108V125.184Z" fill="#F7D062"/>
<path d="M380.965 176.23C368.324 177.856 361.426 189.696 356.667 199.163C353.053 203.676 354.612 210.856 350.096 214.332C337.534 223.21 334.006 239.411 336.06 252.949C335.073 255.393 337.619 257.314 336.716 259.758C338.85 264.418 339.917 269.744 343.366 273.738C345.088 277.661 353.053 288.093 358.473 285.431C348.21 281.065 343.366 268.189 340.408 259.016C339.177 257.019 340.329 254.727 338.929 252.801C337.862 250.804 339.098 248.735 338.686 246.662C338.438 235.859 342.378 223.728 351.411 216.253C351.902 216.624 352.066 217.067 351.902 217.513C350.756 221.584 352.23 225.944 353.629 229.867C356.255 236.453 366.761 237.266 370.702 231.051C376.369 222.616 368.568 209.967 357.073 211.298C357.073 207.081 360.359 203.605 361.014 199.387C362.493 197.832 364.051 196.429 363.808 194.133C364.791 193.838 365.287 193.248 365.451 192.283C366.354 189.696 369.064 187.918 370.622 185.702C373.823 181.779 379.655 179.782 384.578 177.637C383.432 176.305 382.692 176.006 380.965 176.305V176.23ZM356.91 213.372C360.523 210.557 366.027 215.217 367.749 218.251C369.064 220.029 368.404 222.249 369.555 224.023C367.913 238.079 355.927 235.492 355.599 222.915C355.515 219.734 354.532 216.034 356.91 213.372Z" fill="#F7D062"/>
<path d="M507.807 331.004C505.922 330.41 504.527 332.112 503.376 333.001C500.011 333.22 499.926 337.219 496.81 337.737C496.561 337.737 496.234 337.956 496.15 338.18C495.494 339.582 493.36 340.029 493.197 341.803C488.928 344.1 485.971 348.241 481.702 350.681C479.896 346.539 479.732 341.95 478.908 337.585C477.35 333.667 472.59 333.667 470.62 337.219C468.317 340.253 468.402 344.984 464.461 346.686C461.503 342.692 463.067 331.299 455.756 331.522C453.051 334.333 450.257 337.366 447.468 340.101C444.758 342.692 441.964 345.355 441.473 349.202C439.666 351.717 437.205 353.643 439.339 357.267C441.964 355.935 442.54 352.236 445.165 350.533C449.682 347.129 451.245 341.361 456.58 338.917C457.071 344.024 458.387 347.281 461.176 351.57C463.806 354.528 469.553 351.275 470.372 347.946C471.439 345.873 472.258 342.692 474.476 341.584C474.397 350.386 476.447 362.003 488.596 353.496C492.457 349.054 496.889 345.06 500.174 340.177C502.309 337.809 506.17 332.041 509.862 335.517C510.274 333.886 509.698 331.741 507.807 331.151V331.004Z" fill="#F7D062"/>
<path d="M724.554 288.611C722.088 288.017 719.378 288.24 717.001 287.869C717.244 284.764 724.222 281.802 720.117 278.844C717.656 279.581 716.261 281.878 713.963 282.838C712.4 281.359 713.467 278.621 711.909 276.994C710.921 275.886 707.72 276.552 708.787 278.178C709.447 279.215 707.64 279.581 708.047 280.694C707.72 282.097 709.035 283.433 708.787 284.764C708.216 285.43 708.623 286.243 708.459 287.128C705.094 287.28 700.906 285.059 699.184 288.682C700.742 290.09 703.124 289.277 705.094 290.608C702.797 292.753 699.839 294.379 700.906 297.855C703.779 298.373 705.913 296.671 708.216 295.563C711.66 294.826 710.102 301.925 714.866 300.965C714.866 297.784 714.37 294.674 714.782 291.569C719.135 289.643 723.318 292.31 727.428 290.975C726.931 289.719 726.028 288.83 724.554 288.682V288.611Z" fill="#F7D062"/>
<path d="M657.803 145.084C657.148 147.524 659.445 150.262 662.483 150.338C663.882 148.118 659.694 141.532 657.803 145.084Z" fill="#F7D062"/>
<path d="M691.878 320.423C691.878 319.757 691.63 319.462 690.975 319.311C690.975 319.905 690.975 320.423 691.878 320.423Z" fill="#F7D062"/>
<path d="M732.926 132.729C732.023 129.325 733.254 124.96 730.872 122.073C726.44 116.971 719.298 120.005 713.963 121.854C711.824 122.815 709.774 125.996 707.476 123.999C701.402 119.486 697.953 119.705 692.205 124.517C688.672 127.551 691.545 115.858 681.366 121.26C675.54 115.934 669.133 111.346 662.815 106.61C660.676 105.207 658.135 102.615 655.341 102.986C656.001 104.023 657.395 103.947 657.971 104.912C654.601 105.059 651.485 102.763 648.284 101.802C644.834 100.176 640.73 99.2868 637.444 97.4371C633.42 94.3319 627.921 95.0691 623.241 93.5902C611.419 91.0748 599.106 86.3387 587.284 91.2981C581.616 94.0325 568.643 94.6268 569.055 102.097C569.383 104.836 571.517 104.912 573.82 105.725C572.177 108.683 567.576 110.238 567.576 113.937C569.795 124.37 580.465 116.524 585.478 112.606C586.46 111.493 588.267 112.382 587.527 113.714C586.212 119.41 584.818 125.33 584.242 131.027C580.961 133.096 576.445 132.801 573.08 134.208C564.703 136.943 555.511 137.389 546.727 139.534C544.509 139.905 542.29 141.531 542.538 143.234C542.538 147.822 542.375 152.111 543.769 156.548C533.506 158.845 531.208 171.051 535.64 178.673C536.379 180.371 537.774 181.336 539.174 182.368C541.551 185.255 546.315 184.441 549.764 185.701C550.171 190.214 551.402 198.055 558.137 197.242C565.934 195.54 574.063 194.28 581.616 191.84C581.944 189.548 580.798 187.252 581.78 185.036C583.175 180.371 588.267 177.19 592.862 180.889C594.014 181.854 595.493 182.668 595.493 184.517C595.493 186.215 598.942 188.288 601.483 187.623C606.163 185.625 616.015 186.367 617.082 180.889C616.347 178.521 616.178 176.006 615.523 173.566C613.553 166.168 612.57 158.55 610.843 151.151C609.776 148.635 607.726 137.832 610.431 136.871C617.985 136.5 625.047 133.319 632.437 132.359C636.626 132.506 640.809 132.283 645.077 132.211C651.321 131.988 658.626 130.067 662.239 136.205C661.827 136.943 661.415 137.608 661.008 138.35C655.177 138.868 659.038 145.307 660.676 148.041C650.988 158.621 668.805 166.168 670.776 176.006C668.314 178.673 664.621 185.92 665.113 189.401C665.768 193.913 670.86 198.055 676.031 197.39C680.136 195.763 691.714 192.064 692.121 187.846C692.449 185.701 695.898 185.701 696.965 183.628C698.116 184.071 701.973 179.705 701.729 178.673C704.107 177.337 704.518 174.974 706.325 173.196C709.69 169.349 712.727 164.984 714.618 160.323C715.933 158.474 716.752 156.106 718.886 154.774C720.201 152.853 720.529 149.891 723.402 148.854C724.554 148.488 724.058 146.857 725.288 146.71C725.785 147.08 725.948 147.523 725.452 147.97C722.335 151.741 720.693 156.106 717.735 160.029C715.685 161.95 715.03 164.836 713.06 166.909C712.563 167.427 711.744 168.46 712.812 169.425C722.251 161.507 734.157 144.788 733.254 132.653L732.926 132.729ZM578.252 98.3977C579.567 95.1451 601.483 89.225 604.357 91.8164C604.113 92.4062 603.453 92.4062 602.962 92.2588C601.076 91.669 599.185 92.2588 597.299 92.3347C589.825 93.0004 584.326 98.4737 578.827 102.544C577.428 103.875 575.706 102.544 573.984 102.321C575.13 100.618 577.428 100.323 578.252 98.3977ZM571.929 100.547C573.08 99.2868 574.554 98.6971 576.197 98.2503C575.13 99.5817 573.651 100.323 571.929 100.547ZM572.748 110.457C572.748 111.94 571.517 112.159 570.698 112.753C571.11 111.864 571.438 110.903 572.748 110.457ZM582.192 111.864C579.071 114.085 574.311 116.6 570.45 115.045C578.331 109.201 572.668 110.385 576.361 107.351C581.616 103.062 587.115 98.6971 593.274 95.4399C597.463 93.8136 604.689 94.5508 608.873 95.8823C599.185 100.323 590.401 105.43 582.192 111.864ZM590.813 124.071C592.044 125.402 590.153 127.551 589.334 128.954C587.691 128.364 588.758 123.405 590.813 124.071ZM609.861 163.134C610.679 164.836 610.104 166.909 610.6 168.683C610.764 169.867 611.503 170.975 610.928 172.235C611.746 175.34 612.977 178.521 613.474 181.779C609.364 183.333 605.18 183.776 600.744 184.218C597.463 177.19 595.329 175.269 586.788 176.006C579.894 177.118 573.323 184.218 574.475 190.58C568.236 192.211 562.326 193.024 555.839 193.985C554.688 192.064 554.112 189.915 554.444 187.699C553.457 186.068 553.621 184.218 553.457 182.444C553.209 180.152 549.352 180.965 547.462 180.818C537.531 181.189 537.367 168.241 541.308 162.616C543.933 159.434 548.941 161.137 547.874 158.25C547.134 156.7 547.546 155.145 547.71 153.59C546.479 150.927 546.891 147.97 545.412 145.378C544.588 143.899 545.084 143.31 546.97 143.31C551.735 142.715 556.246 140.052 561.174 140.347C570.122 138.426 579.234 136.648 588.351 135.097C590.485 134.503 592.699 134.427 594.917 134.356C595.82 134.208 596.396 134.427 596.972 135.021C604.193 141.826 604.441 132.283 605.836 148.041C604.441 146.933 604.932 145.007 603.29 143.899C604.769 150.186 607.89 156.7 609.697 163.134H609.861ZM606.659 132.653C604.932 132.729 602.223 133.913 601.076 132.064C602.307 130.067 605.424 128.883 607.806 129.62C607.806 130.58 607.806 132.211 606.659 132.653ZM606.739 150.632C606.163 150.186 606.163 149.891 606.248 149.448C607.151 149.006 607.642 150.038 606.739 150.632ZM598.118 128.583C599.27 124.37 601.567 119.558 603.046 115.121C605.096 111.346 611.995 111.274 615.687 108.46C621.682 111.051 627.921 107.128 621.762 117.413C618.724 119.558 614.868 120.965 611.007 121.926C609.861 122.073 608.709 122.668 607.726 123.552C604.932 125.701 600.828 126.144 598.118 128.512V128.583ZM658.954 129.548C656.244 127.328 645.574 128.065 641.876 128.807C630.63 127.993 620.451 132.359 609.364 133.024C609.364 129.472 609.861 128.141 605.18 128.364C605.587 127.252 606.575 126.809 607.558 126.586C611.419 125.773 614.784 123.7 618.561 122.739C624.556 120.742 629.643 112.606 624.883 107.722C617.578 104.465 610.104 109.054 603.126 110.903C596.972 114.156 597.87 122.52 594.917 127.846C594.262 129.396 592.128 131.693 590.073 130.58C590.321 127.328 595.493 124.517 590.073 121.631C590.649 116.305 590.977 109.201 596.476 106.02C604.277 101.878 612.074 96.4765 621.598 97.1422C625.787 97.4371 630.546 96.4005 633.995 99.1394C638.839 102.468 645.41 103.505 650.254 106.391C650.254 106.538 650.661 106.61 650.825 106.61C652.388 106.167 653.207 107.276 654.031 108.017C662.403 113.419 672.746 114.898 678.984 123.405C675.044 127.399 668.805 132.582 664.046 135.245C661.827 134.208 660.185 131.545 658.874 129.472L658.954 129.548ZM660.924 141.013C661.664 138.203 669.545 138.792 673.406 134.208C676.111 131.099 679.808 128.807 681.366 125.107C681.858 123.852 683.173 124.441 684.568 123.776C685.555 126.291 689.248 127.033 689.248 129.915C681.615 133.395 682.925 142.126 674.473 144.194C672.994 144.86 670.86 144.936 670.12 146.491C669.872 147.005 669.545 147.523 668.805 147.822C664.537 147.451 663.306 143.676 661.008 141.16L660.924 141.013ZM716.916 144.047C715.521 146.491 714.206 148.93 711.908 150.78C711.824 152.701 709.526 153.519 709.283 155.44C707.556 157.513 705.258 159.51 703.779 161.95C699.675 167.722 695.982 173.566 691.054 178.745C689.908 180.005 689.168 181.779 688.101 183.11C686.046 184.218 684.324 185.625 682.682 187.252C680.954 185.773 681.203 183.923 679.644 182.444C678.82 181.703 678.165 180.965 678.741 179.781C678.984 179.263 678.657 178.745 678.25 178.374C675.619 175.787 675.456 172.088 673.158 169.349C668.726 164.689 663.798 159.953 661.5 154.037C660.597 150.186 666.423 150.262 669.133 148.707C669.872 151.075 669.793 153.814 673.073 155.145C672.006 151.816 670.86 146.786 675.947 146.562C677.838 144.936 680.627 144.712 682.19 142.715C687.113 139.458 683.828 138.944 686.622 136.795C689.168 135.611 690.89 132.582 693.684 132.064C693.928 132.064 694.34 132.135 694.503 131.912C695.079 130.656 696.637 130.58 697.625 129.843C697.456 127.328 694.751 129.177 693.684 127.623C704.107 118.821 708.787 136.353 717.407 137.684C717.819 138.721 718.474 139.61 719.462 140.423C718.31 141.531 717.571 142.863 716.916 144.123V144.047Z" fill="#141515"/>
<path d="M449.766 277.365C447.875 277.365 445.662 277.365 443.935 277.808C443.364 278.621 442.376 278.621 441.558 278.916C437.945 280.176 435.15 282.544 431.622 284.023C427.681 286.98 423.989 283.728 420.212 282.249C416.023 280.766 421.115 272.482 423.165 270.261C424.068 268.93 424.559 267.304 426.694 267.08C429.815 264.493 433.428 262.644 437.284 261.013C441.885 257.76 453.955 259.386 452.312 251.764C449.602 243.257 437.041 244.959 429.731 246.586C425.79 247.846 422.917 250.285 419.472 252.282C419.472 244.07 431.374 241.336 436.054 235.563C437.696 233.048 439.175 228.093 434.659 227.499C431.701 226.315 428.833 226.315 425.875 227.575C421.934 228.611 418.897 231.422 414.956 232.235C418.976 226.315 412.41 220.028 406.336 223.134C398.127 229.572 394.35 235.858 392.544 245.701C390.077 242.591 389.586 237.931 384.99 236.671C376.781 238.079 376.533 247.251 376.369 253.247C378.667 268.041 387.124 275.069 381.213 290.756C378.588 294.308 379.407 299.039 377.109 302.591C375.794 298.155 368.731 299.929 368.731 304.07C368.404 306.809 369.883 309.843 369.228 312.358C367.913 313.466 366.19 316.353 364.136 314.798C358.225 310.732 355.351 316.129 356.91 321.089C353.957 323.157 350.756 324.712 348.701 327.675C345.579 331.888 341.396 326.709 337.619 326.638C335.157 326.785 332.611 325.601 330.229 326.933C323.087 328.264 324.73 337.513 327.931 341.655C328.343 343.357 329.078 344.912 330.884 345.797C332.363 346.762 332.527 349.349 334.909 348.759C336.467 351.645 336.467 351.645 339.341 351.422C339.505 354.898 343.038 353.937 344.845 355.492C345.088 357.266 348.453 356.895 347.882 358.673C342.378 356.6 336.716 354.898 332.527 350.827C329.653 348.611 326.04 345.502 322.512 344.836C328.834 354.161 341.068 358.892 352.478 361.113C359.947 362.444 370.702 366.809 376.449 360.152C377.848 358.374 378.995 356.676 376.781 354.75C373.332 345.725 368.816 351.346 377.273 341.655C378.012 340.766 378.995 340.766 380.062 341.431C381.213 342.173 382.772 341.95 384.002 342.544C389.422 344.17 392.871 337.808 389.913 333.813C395.005 334.108 396.4 333.371 397.631 328.854C398.206 326.343 395.824 324.123 395.09 321.755C397.303 319.534 398.946 315.021 402.559 315.169C404.038 314.726 405.68 313.985 407.239 313.69C414.792 311.25 418.733 303.999 426.202 301.189C435.974 299.187 448.208 296.377 452.967 287.575C454.853 284.246 454.938 277.955 449.682 277.218L449.766 277.365ZM367.337 318.35C368.325 317.389 369.719 316.871 370.459 315.54C373.084 319.092 375.878 322.644 378.752 326.191C379.819 327.228 381.377 327.599 381.953 329.077C382.36 329.596 382.36 330.19 381.789 330.632C379.734 332.259 377.6 329.006 375.794 328.188C373.823 326.12 363.644 321.089 367.257 318.35H367.337ZM350.016 359.41C349.604 359.339 349.689 358.821 350.096 358.821C350.671 358.821 350.508 359.558 350.016 359.41ZM372.593 343.134C368.161 347.204 364.712 352.087 360.607 356.377C359.868 357.561 359.783 357.489 358.309 357.042C348.949 353.937 340.656 349.13 333.758 342.615C338.765 338.402 345.416 335.958 350.096 331.521C351.902 328.783 356.091 328.635 358.061 325.825C358.473 325.378 358.964 325.231 359.54 325.231C364.712 330.261 369.471 335.587 375.546 339.658C374.975 341.284 373.744 342.173 372.672 343.062L372.593 343.134ZM385.481 338.25C379.322 342.839 347.55 313.024 363.644 316.648C363.481 317.313 362.741 316.648 362.414 317.018C362.984 320.423 366.925 323.01 369.307 325.601C372.265 327.599 383.099 338.179 385.481 332.705C387.288 334.403 388.519 337.366 385.402 338.25H385.481ZM392.295 328.93C386.221 334.627 362.905 301.555 375.794 303.481C375.958 304.021 375.521 304.986 374.479 306.367C376.285 310.585 386.876 327.675 392.295 326.339C392.38 325.673 391.556 325.378 391.72 324.788C392.216 324.565 392.707 324.123 393.363 324.123C394.023 326.044 393.611 328.117 392.38 328.93H392.295ZM450.833 282.986C450.342 288.388 444.431 291.127 439.751 293.419C433.92 297.784 425.627 297.413 419.636 301.26C413.477 306.143 407.482 312.653 398.534 312.506C398.127 313.172 399.11 313.614 398.866 314.28C397.224 315.316 395.09 315.763 394.102 317.537C392.216 318.055 391.884 319.976 390.246 320.718C389.422 321.089 389.67 321.902 389.258 322.568C386.221 321.16 384.99 317.389 382.692 315.021C380.965 312.064 376.369 308.735 379.486 305.33C382.36 302.667 382.528 299.187 383.432 295.934C384.826 292.011 385.809 287.87 386.633 283.875C388.107 269.077 373.496 253.614 384.499 240.223C393.283 239.41 387.04 264.712 392.951 270.927C394.266 272.705 398.866 274.256 401.08 273.148C402.147 271.888 404.365 273.813 405.02 272.259C405.596 269.967 410.028 269.372 408.961 266.857C406.991 263.752 400.752 268.854 397.224 268.264C395.09 263.528 393.854 258.721 395.824 253.913C396.484 248.141 398.043 242.368 400.34 236.823C401.164 234.156 402.638 231.864 405.02 230.014C405.76 228.24 410.276 225.059 411.016 228.24C412.574 233.048 408.554 236.377 406.499 240.299C404.202 244.959 400.668 261.754 406.251 264.341C407.318 259.239 408.058 253.985 407.815 248.735C409.949 241.26 415.939 235.34 423.656 232.011C426.038 230.827 429.9 228.459 432.525 230.385C434.247 233.566 429.403 235.121 427.929 237.266C427.681 237.855 427.026 238.155 426.366 238.521C421.522 240.523 418.812 244.517 415.859 248.141C416.271 249.843 414.708 250.879 414.132 252.282C412.986 255.392 414.053 258.944 415.939 261.678C417.909 258.573 422.098 257.613 424.887 255.245C428.009 254.208 430.967 252.358 434.331 251.693C435.647 249.767 447.136 248.436 448.208 250.361C452.719 256.724 430.47 257.76 426.778 261.236C422.917 263.01 420.291 265.972 418.649 269.448C418.897 271.369 417.502 272.629 416.599 274.108C409.785 281.284 419.472 290.309 428.257 288.611C431.294 288.388 433.92 288.164 435.974 285.944C439.503 284.688 449.846 276.034 450.833 283.21V282.986Z" fill="#141515"/>
<path d="M728.822 328.265C724.142 322.126 714.454 327.97 709.119 330.927C708.622 331.298 708.047 331.522 707.149 331.222C710.022 325.673 700.662 308.436 693.108 310.214C691.138 310.88 690.726 310.88 689.659 309.249C686.458 304.589 683.5 299.857 680.463 295.121C674.061 281.507 663.306 270.19 655.668 257.166C649.43 247.623 645.817 236.824 639.087 227.575C634.571 219.953 618.888 207.156 623.488 225.43C625.866 236.453 633.34 246.144 636.129 256.724C631.781 258.127 626.441 257.76 622.421 259.387C622.009 260.718 620.615 260.942 619.548 261.46C614.208 264.27 611.503 266.71 611.503 272.554C611.746 277.585 617.245 280.694 619.627 284.765C620.779 287.128 623.24 287.352 625.538 287.946C626.278 290.975 628.332 293.714 631.697 294.603C633.752 295.193 634.983 296.305 635.801 297.856C638.099 302.739 644.174 304.736 646.477 309.62C649.102 316.058 658.214 316.648 664.621 318.127C668.805 320.052 669.708 324.342 672.17 327.451C672.502 327.746 672.745 328.265 672.418 328.707C671.678 329.819 672.09 331.151 672.339 332.187C673.485 336.624 676.358 344.465 682.269 344.836C683.421 344.836 684.076 345.354 684.16 346.463C679.316 348.759 675.207 352.012 672.339 356.305C669.053 359.929 669.381 363.405 673.733 366.144C676.358 368.735 679.644 367.994 683.009 367.551C692.781 368.141 702.632 365.036 710.101 359.487C704.518 360.671 699.099 363.999 693.272 363.481C693.515 362.668 694.339 362.373 695.079 362.444C696.965 362.592 698.359 361.779 699.759 360.965C701.069 360.3 702.712 360.671 703.451 359.116C705.913 356.453 711.089 357.637 711.992 353.419C716.836 353.048 716.588 350.68 718.886 348.312C722.747 347.352 723.318 342.915 726.524 340.989C729.065 338.55 733.005 330.262 728.658 328.265H728.822ZM693.108 313.838C699.099 309.843 711.992 328.707 701.808 328.635C698.528 329.967 687.113 314.28 693.108 313.838ZM644.094 302.668C643.027 299.857 639.906 298.227 638.759 295.269C640.645 294.75 642.452 294.456 643.931 293.343C644.506 296.305 643.931 299.411 644.094 302.592V302.668ZM672.339 319.463C669.793 317.684 666.835 315.911 663.549 315.392C662.403 315.245 661.663 314.356 661.088 313.69C658.79 311.47 655.752 310.214 653.206 308.288C643.931 304.96 648.69 294.161 647.787 287.204C647.623 283.21 644.422 281.432 639.99 282.097C637.28 283.581 640.318 285.649 642.536 285.354C647.296 285.354 640.566 291.94 638.099 291.346C637.117 291.645 635.965 292.012 634.819 291.274C624.471 291.493 628.908 285.578 632.6 280.471C633.092 279.287 634.407 278.769 635.553 278.179C637.032 275.44 643.191 276.847 642.864 273.219C639.251 272.706 635.39 275.516 632.025 276.771C627.92 278.55 627.672 282.321 625.786 285.502C622.337 284.984 621.27 280.399 620.858 277.808C623.568 273.59 629.235 272.482 633.176 269.301C635.474 268.412 637.935 267.822 639.906 266.339C637.28 263.31 634.322 265.673 631.945 267.228C627.101 269.672 619.791 271.151 617.985 276.329C617.905 276.771 617.493 276.919 617.081 277.218C609.696 269.449 626.938 261.826 633.752 259.758C637.935 258.203 643.683 261.46 647.211 258.279C648.199 256.353 643.846 256.353 642.536 256.795C639.663 257.39 639.906 251.617 637.608 250.285C635.31 247.104 635.39 242.592 632.764 239.411C631.781 236.305 630.546 233.196 628.987 230.385C629.235 228.388 627.181 227.128 626.938 225.278C626.034 223.505 624.555 222.097 626.278 220.1C630.878 220.1 632.516 225.502 634.898 228.388C635.722 230.309 638.02 231.641 638.184 233.861C638.184 235.34 640.481 235.34 640.645 236.824C641.385 240.595 643.355 243.923 644.998 247.328C645.653 250.732 647.787 253.395 650.085 255.982C656.819 263.975 661.911 273.072 668.562 281.137C675.619 291.274 681.614 302.002 688.101 312.43C687.361 314.579 686.786 316.576 687.768 318.645C688.101 319.311 687.525 319.829 687.277 320.495C683.5 321.236 681.366 324.565 677.917 325.897C676.358 323.676 674.388 321.531 672.582 319.311L672.339 319.463ZM674.552 332.777C675.291 331.298 677.098 331.446 678.329 330.856C681.45 327.746 686.046 326.12 688.592 322.42C689.987 323.01 689.823 324.494 691.054 325.007C686.374 328.93 681.53 332.111 676.031 334.703C675.128 334.109 674.88 333.443 674.552 332.853V332.777ZM677.837 337.366C677.014 336.995 676.85 336.182 676.358 335.663C681.366 332.706 687.604 330.856 690.811 325.749C694.175 327.375 692.121 329.891 689.495 330.856C685.719 333.148 682.026 335.663 677.837 337.437V337.366ZM683.748 339.805C683.009 340.694 682.19 340.1 681.45 340.176C679.644 340.4 679.644 340.252 678.82 338.697C683.828 335.735 690.562 334.555 693.684 329.301C699.431 330.927 691.302 334.479 689.823 336.624C687.768 337.661 685.227 338.031 683.748 339.881V339.805ZM711.824 346.762C710.022 347.575 709.526 349.72 707.392 350.09C706.077 350.309 704.846 350.904 703.779 351.717C701.401 353.714 698.032 353.714 695.486 355.492C691.714 351.94 689.823 347.204 686.374 343.357C688.92 342.468 690.726 340.766 692.86 339.805C694.175 339.582 695.57 339.363 696.146 338.031C700.086 335.887 697.868 331.741 704.191 334.037C706.161 337.737 708.216 342.097 711.908 344.765C712.811 345.207 712.811 346.244 711.824 346.762Z" fill="#141515"/>
<path d="M594.833 224.69C595.165 220.768 590.813 222.398 588.351 221.214C584.654 220.991 580.798 221.286 577.021 220.915C575.869 217.586 575.214 213.15 571.353 211.447C562.817 209.155 553.705 210.706 551.735 219.584C550.995 221.88 549.601 222.988 547.055 222.693C541.715 222.251 536.136 223.064 530.96 222.027C529.238 219.141 530.469 215.737 530.389 212.703C531.62 205.827 516.265 210.339 518.483 197.244C523.327 185.404 525.377 190.582 530.717 184.591C535.233 158.77 524.558 165.651 503.212 166.317C500.339 166.393 497.465 166.393 494.84 167.353C492.373 166.982 489.911 167.724 487.529 167.872C486.055 167.501 484.576 167.353 483.018 167.648C476.611 167.872 467.747 165.28 463.558 171.2C461.097 173.792 463.474 172.755 462.655 174.381C459.945 181.039 463.97 188.219 461.836 195.023C462.327 205.751 459.126 217.662 463.806 227.724C464.213 228.019 464.134 228.537 463.806 228.98C462.655 231.053 463.643 233.568 462.079 235.565C462.407 239.189 461.672 243.04 461.26 246.735C459.945 257.762 461.588 269.008 461.836 279.954C463.97 282.546 466.432 283.064 469.96 282.617C471.688 282.693 473.41 282.175 475.052 282.917C476.531 282.841 478.502 282.099 479.976 282.617C483.921 283.801 487.038 280.401 490.899 281.804C495.495 281.067 500.254 281.138 504.77 280.325C506.413 280.102 507.892 281.138 509.535 280.473C510.766 280.768 511.996 281.138 513.227 280.919C517.58 281.286 523.491 279.217 527.183 281.214C531.044 283.73 540.32 281.138 545.328 281.585C546.479 281.585 547.625 280.991 548.777 281.88C550.008 281.88 551.814 281.214 553.129 281.433C555.263 281.88 557.07 280.62 559.119 281.138C560.271 281.362 561.422 281.88 562.569 281.138C565.934 281.804 569.383 281.804 572.668 281.138C577.185 279.883 582.028 281.138 586.212 280.325C589.006 279.217 590.565 280.844 593.438 278.551C593.602 276.702 594.917 274.924 593.929 273.002C593.602 272.337 593.602 271.89 593.929 271.224C594.505 269.745 594.833 268.19 593.602 266.711C594.917 265.974 594.917 265.009 594.505 263.825C593.686 260.796 593.929 257.391 594.014 254.21C594.997 251.4 593.602 248.513 594.178 245.703C594.426 244.667 594.262 243.853 593.602 243.04C593.026 242.299 592.783 241.557 593.602 240.82C594.178 240.225 593.929 239.636 593.85 239.041C592.783 234.31 594.917 229.721 594.917 224.985L594.833 224.69ZM466.02 171.942C466.516 171.348 467.087 171.642 467.747 171.942C469.881 172.826 472.179 172.46 474.397 172.161C482.278 172.679 489.663 170.016 497.465 170.61C506.498 169.574 515.689 167.724 524.721 168.908C527.019 168.095 526.855 170.829 528.419 171.642C528.99 171.942 528.746 172.755 528.498 173.273C527.267 176.526 527.759 179.931 527.104 183.407C516.592 184.443 511.014 196.207 514.786 204.419C514.379 206.122 516.021 206.564 516.925 207.672C518.483 211.371 523.327 211.3 526.776 213.074C525.625 215.589 527.843 221.804 524.721 222.617C518.235 223.136 511.257 221.362 504.855 222.693C503.952 222.693 503.296 227.282 503.212 228.242C501.326 231.424 497.956 235.936 493.361 233.644C491.227 232.679 488.517 231.129 487.862 228.832C487.286 225.504 482.934 223.43 479.484 224.248C475.216 224.69 471.027 224.69 466.516 224.396C466.184 216.626 468.318 208.856 467.335 201.162C466.516 203.678 466.923 206.341 466.268 208.856C465.529 199.759 465.856 190.658 466.268 181.633C466.596 179.117 467.414 176.378 465.777 173.863C465.365 173.197 465.777 172.608 466.104 172.089L466.02 171.942ZM526.528 261.386C526.364 266.64 526.2 271.742 526.037 276.773C520.29 276.773 514.954 277.439 509.371 277.367C507.565 277.662 505.837 278.252 503.952 277.367C502.8 276.849 501.49 277.662 500.254 277.81C499.683 277.886 499.108 278.181 498.616 277.81C497.137 276.921 495.495 277.22 493.852 277.439C489.832 278.033 485.723 276.554 481.539 277.367C480.715 277.586 480.06 277.515 479.241 277.292C474.725 274.705 468.238 280.549 464.789 276.773C466.02 270.339 464.625 263.459 464.789 256.873C466.268 247.035 466.184 237.044 466.268 227.206C470.536 226.464 474.804 228.095 479.157 227.724C481.048 227.724 481.048 227.724 481.703 229.35C484.164 233.492 487.941 239.041 494.1 238.009C498.368 238.523 499.847 237.415 503.128 235.27C505.182 234.457 506.001 232.755 505.922 230.758C505.758 229.574 507.153 228.98 507.237 227.796C507.644 226.245 507.644 226.245 509.451 226.169C514.294 226.098 519.059 226.612 523.903 226.169C526.116 226.169 526.528 226.464 526.28 228.537C525.545 232.532 526.449 236.454 526.449 240.525C526.449 244.667 533.754 242.223 535.888 246.735C541.551 252.879 535.476 262.422 526.692 261.462L526.528 261.386ZM590.565 259.018C589.006 262.422 592.128 275.518 588.351 275.813C579.81 276.108 571.517 277.81 563.144 277.367C558.713 277.367 553.705 278.105 549.601 276.626C549.025 276.108 548.037 276.402 547.382 276.626C541.635 277.367 535.397 277.367 529.729 276.331C529.074 273.297 529.893 270.192 529.238 267.158C528.99 266.193 529.401 265.675 530.389 265.456C536.707 264.124 540.241 259.536 542.454 254.358C542.454 254.21 542.618 254.063 542.618 253.987C541.551 251.99 544.181 249.697 542.375 247.995C541.715 247.477 541.387 246.959 541.715 246.221C541.799 245.922 541.715 245.556 541.308 245.404C539.829 244.519 539.01 242.964 537.283 242.37C535.397 241.039 533.754 239.636 531.208 239.56C528.25 238.747 530.305 234.828 529.977 232.755C530.22 230.463 529.486 228.39 530.057 226.022C536.871 226.022 543.114 225.946 549.764 226.022C551.898 226.393 553.293 225.727 553.948 223.801C554.444 214.999 569.547 209.008 571.437 220.178C571.765 226.612 585.066 223.359 590.073 223.654C591.14 231.866 590.153 239.56 590.237 247.772C590.401 249.697 589.746 251.695 590.237 253.616C591.304 255.466 590.649 257.244 590.321 259.094L590.565 259.018Z" fill="#141515"/>
<path d="M461.424 144.271C461.096 143.31 461.588 142.863 462.163 142.274C465.444 138.945 466.268 135.317 464.541 131.028C464.789 125.773 458.714 122.369 453.622 121.261C452.391 121.037 450.833 121.261 449.845 120.3C446.153 118.227 441.309 118.156 437.696 115.788C442.952 110.976 449.845 106.91 452.312 100.324C456.168 95.3691 456.332 80.4238 446.153 84.789C435.89 94.6274 427.681 106.61 413.968 113.125C406.499 117.932 396.975 118.227 388.191 118.004C384.826 118.375 384.25 117.709 385.566 114.823C386.305 112.459 389.174 109.72 385.317 108.165C379.734 105.726 374.151 103.21 368.24 101.361C368.488 98.1794 369.967 95.4406 368.816 92.3354C367.094 87.8942 360.607 83.0867 356.006 87.3759C351.49 90.6331 349.52 95.664 345.991 99.6583C340.492 105.873 338.686 113.862 334.661 120.519C336.467 113.125 339.668 105.431 343.281 98.4743C344.021 97.0669 345.579 95.2931 344.269 93.8142C334.254 103.063 326.368 140.2 331.296 152.778C336.06 161.95 348.373 155.883 351.083 148.337C352.066 149.373 353.217 149.521 354.364 149.226C358.473 149.967 362.493 151.37 366.761 150.262C370.295 150.262 370.131 145.897 372.92 145.379C384.414 146.12 386.469 158.251 395.993 161.95C398.291 162.25 398.866 163.876 400.588 165.132C405.844 166.539 423.904 176.158 427.354 173.42C426.53 172.754 424.971 173.049 425.056 171.641C427.929 171.347 430.063 173.272 432.852 173.344C434.411 173.42 436.054 173.196 437.532 174.085C447.548 173.938 450.257 169.573 446.644 161.508C451.081 160.914 455.513 160.177 454.61 155.07C460.6 153.591 463.146 148.413 461.588 144.271H461.424ZM371.114 134.875C369.719 139.459 367.828 143.752 366.027 148.189C355.843 146.268 345.748 143.824 335.485 142.792C335.073 142.274 335.237 141.827 335.485 141.46C335.812 141.014 335.976 140.571 335.648 140.053C335.237 138.203 335.976 136.278 336.879 134.58C338.438 128.365 339.589 122.221 341.639 116.154C341.887 115.046 342.299 114.009 343.366 113.049C345.579 110.457 345.827 106.539 348.373 104.023C349.356 101.95 350.592 100.029 351.902 98.1035C352.066 97.8086 352.393 97.6611 352.969 97.5852C362.905 102.026 374.563 104.247 384.414 109.278C378.419 117.119 374.975 126.144 371.034 134.946L371.114 134.875ZM460.029 140.866C456.908 139.092 453.955 137.167 450.669 135.393C445.498 132.802 444.674 138.427 449.275 140.053C454.853 142.568 466.104 149.967 453.707 151.741C449.354 152.925 444.347 146.491 440.654 150.852C443.528 153.886 449.682 153.591 451.081 158.104C446.565 159.511 441.885 158.993 437.369 158.104C436.877 157.885 436.054 158.104 435.647 158.769C437.369 160.766 441.145 160.324 441.964 162.84C442.461 164.247 444.674 164.837 444.51 166.61C444.922 169.644 443.443 169.425 441.145 170.162C439.994 169.278 438.763 168.907 437.696 170.162C423.165 164.247 405.348 164.984 392.707 154.998C386.876 150.852 382.692 144.123 375.218 142.05C373.411 141.679 373.248 141.384 373.987 139.906C374.563 138.427 374.478 136.943 375.878 135.612C377.6 133.396 377.848 130.139 379.57 127.847C379.819 127.4 380.226 126.882 380.226 126.439C380.226 124.665 381.789 123.481 381.953 121.779C382.196 120.671 384.087 120.743 385.069 121.037C427.433 132.507 452.391 65.9968 449.845 91.8171C449.027 93.1485 449.682 94.5515 449.275 95.9589C448.778 97.3663 448.123 98.7692 448.208 100.324C447.468 101.803 445.662 102.839 445.086 104.542C444.595 105.797 442.788 106.097 442.54 107.5C441.964 108.46 440.49 108.907 439.83 110.015C437.944 111.793 435.974 113.567 433.919 115.046C433.016 115.122 432.113 115.341 431.949 116.23C431.537 118.303 434.004 119.706 435.398 120.89C436.714 120.743 437.532 121.779 438.52 122.003C440.322 122.816 442.788 122.15 444.267 123.258C445.905 124.813 445.905 124.813 448.287 123.924C450.421 125.331 452.64 126.368 455.101 127.181C461.096 129.325 465.037 136.872 460.193 140.795L460.029 140.866Z" fill="#141515"/>
<path d="M407.482 291.052C406.584 289.573 407.318 287.795 405.433 286.91C403.874 285.503 402.231 283.653 399.601 284.171C399.194 287.576 401.904 290.386 402.147 293.715C403.05 297.043 401.492 300.966 403.954 303.777C407.482 302.887 408.142 298.822 407.979 296.083C409.046 294.309 408.222 292.607 407.482 290.976V291.052Z" fill="#141515"/>
<path d="M561.666 275.887C567.904 275.664 574.148 275.588 580.386 275.293C578.332 274.775 563.229 275.293 561.666 275.887Z" fill="#141515"/>
<path d="M551.159 276.553C552.881 277.067 554.36 276.33 555.919 276.183C554.36 276.183 552.718 275.812 551.159 276.553Z" fill="#141515"/>
<path d="M557.81 276.254C558.549 276.035 559.368 276.624 560.435 275.588C559.289 275.735 558.549 275.811 557.81 275.887C557.81 276.035 557.81 276.106 557.81 276.254Z" fill="#141515"/>
<path d="M357.977 142.344C358.389 143.528 360.523 144.27 362.493 143.975C362.905 142.049 362.166 140.347 360.195 138.721C358.473 139.61 357.57 141.16 358.061 142.344H357.977Z" fill="#141515"/>
<path d="M348.621 136.724C346.239 135.54 345.579 139.164 345.911 140.642C347.718 145.155 351.902 138.498 348.621 136.724Z" fill="#141515"/>
<g filter="url(#filter1_d_3297_3681)">
<rect x="143" y="431.855" width="385" height="70" rx="10" transform="rotate(-10 143 431.855)" fill="#F4EAD8" shape-rendering="crispEdges"/>
<path d="M192.243 453.19L195.966 474.304L192.854 474.853L190.479 461.38C190.381 460.829 190.293 460.249 190.212 459.64C190.158 459.027 190.107 458.427 190.057 457.84L189.939 457.861L186.039 476.054L183.124 476.568L173.434 460.771L173.316 460.792C173.47 461.36 173.601 461.946 173.707 462.551C173.84 463.15 173.962 463.765 174.073 464.395L176.428 477.749L173.316 478.298L169.593 457.183L174.201 456.371L183.852 472.175L187.634 454.002L192.243 453.19ZM202.449 451.39L206.172 472.504L202.706 473.115L198.983 452.001L202.449 451.39ZM199.359 443.771C199.885 443.678 200.377 443.781 200.835 444.079C201.316 444.346 201.623 444.861 201.757 445.622C201.887 446.358 201.774 446.946 201.419 447.388C201.09 447.825 200.663 448.09 200.137 448.183C199.56 448.285 199.041 448.186 198.583 447.888C198.124 447.59 197.83 447.073 197.7 446.338C197.566 445.576 197.665 444.99 197.999 444.579C198.328 444.142 198.782 443.873 199.359 443.771ZM234.992 474.977L231.604 475.575L230.313 468.248L212.862 471.325L209.139 450.21L212.605 449.599L215.814 467.798L226.726 465.874L223.517 447.675L226.983 447.064L230.199 465.303L233.193 464.775L234.992 474.977ZM237.495 445.21L239.044 453.995L250.507 451.974L248.958 443.189L252.424 442.578L256.147 463.692L252.681 464.303L251.021 454.889L239.558 456.91L241.218 466.325L237.751 466.936L234.028 445.822L237.495 445.21ZM262.577 440.788L266.3 461.902L262.833 462.513L259.11 441.399L262.577 440.788ZM259.487 433.169C260.012 433.076 260.504 433.179 260.963 433.477C261.443 433.744 261.75 434.259 261.885 435.02C262.014 435.756 261.901 436.344 261.546 436.786C261.217 437.223 260.79 437.488 260.265 437.581C259.687 437.682 259.168 437.584 258.71 437.286C258.251 436.988 257.957 436.471 257.827 435.736C257.693 434.974 257.793 434.388 258.126 433.977C258.455 433.54 258.909 433.271 259.487 433.169ZM297.904 434.559L301.627 455.673L272.989 460.723L269.266 439.608L272.732 438.997L275.941 457.196L285.041 455.592L281.832 437.393L285.299 436.781L288.508 454.981L297.647 453.369L294.438 435.17L297.904 434.559ZM308.124 432.757L311.847 453.871L308.38 454.482L304.657 433.368L308.124 432.757ZM305.034 425.137C305.559 425.045 306.051 425.148 306.51 425.446C306.99 425.713 307.298 426.228 307.432 426.989C307.562 427.724 307.449 428.313 307.093 428.755C306.764 429.192 306.337 429.457 305.812 429.549C305.234 429.651 304.716 429.553 304.257 429.255C303.798 428.957 303.504 428.44 303.374 427.705C303.24 426.943 303.34 426.357 303.674 425.946C304.003 425.509 304.456 425.239 305.034 425.137ZM342.962 432.097C343.193 433.41 342.98 434.504 342.322 435.378C341.664 436.252 340.741 436.93 339.553 437.41L339.58 437.567C340.926 437.52 342.152 437.791 343.258 438.381C344.359 438.945 345.048 440.015 345.326 441.591C345.484 442.484 345.459 443.341 345.252 444.163C345.071 444.98 344.688 445.724 344.102 446.396C343.517 447.068 342.713 447.657 341.692 448.162C340.666 448.64 339.392 449.014 337.869 449.283L328.769 450.887L325.046 429.773L334.106 428.175C335.603 427.911 336.973 427.846 338.215 427.979C339.478 428.081 340.521 428.466 341.343 429.133C342.186 429.77 342.726 430.758 342.962 432.097ZM341.742 442.223C341.529 441.015 340.916 440.229 339.904 439.866C338.893 439.503 337.494 439.479 335.708 439.794L330.548 440.704L331.742 447.479L336.982 446.555C338.715 446.25 339.997 445.766 340.828 445.105C341.655 444.418 341.959 443.457 341.742 442.223ZM339.532 433.149C339.356 432.151 338.861 431.493 338.047 431.176C337.255 430.829 336.045 430.799 334.416 431.086L329.02 432.037L330.041 437.828L334.807 436.987C336.514 436.686 337.772 436.221 338.582 435.591C339.391 434.961 339.708 434.147 339.532 433.149ZM370.463 421.765L374.245 421.098L367.016 432.852L378.716 442.08L374.698 442.789L363.276 433.755L365.165 444.469L361.699 445.081L357.976 423.966L361.442 423.355L363.248 433.597L370.463 421.765ZM398.268 427.707C398.578 429.466 398.617 431.07 398.385 432.519C398.175 433.937 397.72 435.196 397.02 436.294C396.346 437.387 395.436 438.292 394.29 439.009C393.165 439.695 391.854 440.17 390.358 440.434C388.966 440.679 387.637 440.67 386.372 440.405C385.102 440.115 383.951 439.573 382.917 438.78C381.884 437.988 381 436.966 380.265 435.714C379.551 434.432 379.039 432.911 378.729 431.152C378.317 428.814 378.364 426.775 378.869 425.035C379.37 423.267 380.281 421.834 381.604 420.734C382.922 419.608 384.592 418.867 386.614 418.511C388.531 418.173 390.288 418.309 391.885 418.921C393.504 419.502 394.864 420.535 395.965 422.02C397.088 423.474 397.856 425.369 398.268 427.707ZM382.314 430.52C382.606 432.174 383.07 433.582 383.708 434.742C384.368 435.871 385.215 436.683 386.25 437.177C387.285 437.672 388.511 437.794 389.929 437.544C391.347 437.294 392.458 436.76 393.262 435.941C394.065 435.122 394.57 434.072 394.777 432.79C395.006 431.477 394.975 429.993 394.683 428.339C394.387 426.658 393.911 425.266 393.256 424.163C392.601 423.06 391.759 422.274 390.729 421.806C389.72 421.307 388.493 421.185 387.049 421.439C384.896 421.819 383.458 422.804 382.736 424.393C382.015 425.983 381.874 428.025 382.314 430.52ZM424.558 412.226L428.281 433.34L425.169 433.889L422.793 420.417C422.696 419.866 422.607 419.285 422.527 418.677C422.473 418.064 422.421 417.463 422.372 416.876L422.254 416.897L418.354 435.091L415.439 435.605L405.748 419.808L405.63 419.828C405.785 420.397 405.915 420.983 406.022 421.587C406.154 422.187 406.276 422.801 406.388 423.432L408.742 436.786L405.63 437.334L401.907 416.22L406.516 415.407L416.167 431.212L419.949 413.039L424.558 412.226ZM439.232 409.273C441.805 408.819 443.809 409.048 445.242 409.96C446.676 410.872 447.61 412.562 448.045 415.03L450.581 429.408L448.059 429.853L446.862 426.977L446.704 427.005C446.235 427.873 445.718 428.628 445.154 429.269C444.611 429.879 443.941 430.376 443.142 430.761C442.37 431.141 441.393 431.435 440.211 431.643C438.95 431.865 437.769 431.844 436.666 431.578C435.589 431.307 434.681 430.763 433.941 429.946C433.197 429.102 432.699 427.972 432.449 426.554C432.079 424.453 432.621 422.692 434.077 421.271C435.527 419.823 437.964 418.744 441.385 418.032L444.949 417.282L444.727 416.022C444.417 414.262 443.821 413.108 442.939 412.559C442.057 412.011 440.92 411.859 439.528 412.105C438.425 412.299 437.405 412.655 436.467 413.173C435.524 413.664 434.657 414.196 433.864 414.769L432.342 412.356C433.174 411.695 434.189 411.083 435.39 410.519C436.585 409.929 437.866 409.514 439.232 409.273ZM442.242 420.359C439.635 420.927 437.884 421.669 436.989 422.585C436.121 423.496 435.805 424.621 436.041 425.961C436.249 427.143 436.757 427.947 437.563 428.373C438.396 428.795 439.376 428.906 440.506 428.707C442.291 428.392 443.69 427.645 444.7 426.465C445.706 425.259 446.028 423.631 445.667 421.583L445.334 419.692L442.242 420.359ZM456.845 406.533L458.394 415.318L469.857 413.296L468.308 404.512L471.775 403.901L475.498 425.015L472.031 425.626L470.371 416.211L458.908 418.233L460.568 427.647L457.102 428.259L453.379 407.144L456.845 406.533ZM494.139 399.957L497.348 418.156L500.42 417.615L502.226 427.857L498.878 428.447L497.586 421.12L482.893 423.711L484.185 431.038L480.876 431.621L479.07 421.379L480.764 421.081C481.675 419.187 482.351 417.186 482.792 415.077C483.254 412.938 483.492 410.757 483.507 408.534C483.542 406.28 483.384 404.074 483.03 401.916L494.139 399.957ZM486.582 404.092C486.792 405.897 486.843 407.797 486.734 409.792C486.621 411.762 486.363 413.676 485.959 415.534C485.582 417.388 485.045 419.026 484.348 420.449L493.999 418.747L491.27 403.266L486.582 404.092ZM504.816 398.074L508.539 419.189L505.073 419.8L501.35 398.686L504.816 398.074ZM501.726 390.455C502.251 390.363 502.743 390.465 503.202 390.764C503.683 391.031 503.99 391.545 504.124 392.307C504.254 393.042 504.141 393.631 503.786 394.073C503.457 394.51 503.029 394.775 502.504 394.867C501.926 394.969 501.408 394.871 500.949 394.573C500.491 394.275 500.196 393.758 500.067 393.022C499.932 392.261 500.032 391.675 500.366 391.264C500.695 390.827 501.148 390.557 501.726 390.455ZM516.784 409.742L514.764 410.099L510.192 389.902L514.173 389.2L516.784 409.742ZM516.291 413.022C517.035 412.891 517.645 413.015 518.122 413.394C518.611 413.77 518.929 414.375 519.076 415.209C519.223 416.042 519.132 416.726 518.803 417.26C518.472 417.781 517.948 418.105 517.23 418.232C516.511 418.358 515.904 418.247 515.406 417.899C514.921 417.548 514.6 416.93 514.444 416.045C514.137 414.301 514.752 413.294 516.291 413.022Z" fill="#141515"/>
</g>
<g filter="url(#filter2_d_3297_3681)">
<rect x="46" y="245" width="303" height="70" rx="10" fill="#F4EAD8" shape-rendering="crispEdges"/>
<path d="M82.8 281.68C82.8 283.893 82.52 285.907 81.96 287.72C81.4 289.507 80.56 291.053 79.44 292.36C78.3467 293.667 76.9733 294.667 75.32 295.36C73.6933 296.053 71.8 296.4 69.64 296.4C67.4 296.4 65.4533 296.053 63.8 295.36C62.1467 294.64 60.7733 293.64 59.68 292.36C58.5867 291.053 57.7733 289.493 57.24 287.68C56.7067 285.867 56.44 283.853 56.44 281.64C56.44 278.707 56.92 276.147 57.88 273.96C58.84 271.773 60.2933 270.067 62.24 268.84C64.2133 267.613 66.6933 267 69.68 267C72.5333 267 74.9333 267.613 76.88 268.84C78.8267 270.04 80.2933 271.747 81.28 273.96C82.2933 276.147 82.8 278.72 82.8 281.68ZM60.24 281.68C60.24 284.08 60.5733 286.147 61.24 287.88C61.9067 289.613 62.9333 290.947 64.32 291.88C65.7333 292.813 67.5067 293.28 69.64 293.28C71.8 293.28 73.56 292.813 74.92 291.88C76.3067 290.947 77.3333 289.613 78 287.88C78.6667 286.147 79 284.08 79 281.68C79 278.08 78.2533 275.267 76.76 273.24C75.2667 271.187 72.9067 270.16 69.68 270.16C67.52 270.16 65.7333 270.627 64.32 271.56C62.9333 272.467 61.9067 273.787 61.24 275.52C60.5733 277.227 60.24 279.28 60.24 281.68ZM87.53 283.12C87.53 280 87.8367 277.347 88.45 275.16C89.09 272.947 90.0633 271.187 91.37 269.88C92.7033 268.547 94.41 267.653 96.49 267.2C98.2233 266.827 99.9167 266.493 101.57 266.2C103.223 265.907 104.77 265.64 106.21 265.4L106.81 268.48C106.117 268.587 105.343 268.72 104.49 268.88C103.637 269.013 102.77 269.16 101.89 269.32C101.01 269.453 100.157 269.6 99.33 269.76C98.53 269.893 97.8233 270.027 97.21 270.16C96.33 270.347 95.5433 270.667 94.85 271.12C94.1567 271.547 93.5567 272.133 93.05 272.88C92.57 273.627 92.1833 274.547 91.89 275.64C91.5967 276.733 91.4233 278.027 91.37 279.52H91.61C91.9833 279.013 92.49 278.493 93.13 277.96C93.7967 277.427 94.5833 276.973 95.49 276.6C96.4233 276.227 97.4767 276.04 98.65 276.04C100.517 276.04 102.063 276.453 103.29 277.28C104.543 278.08 105.477 279.2 106.09 280.64C106.73 282.08 107.05 283.76 107.05 285.68C107.05 288.053 106.637 290.04 105.81 291.64C104.983 293.24 103.837 294.44 102.37 295.24C100.903 296.013 99.1967 296.4 97.25 296.4C95.7833 296.4 94.45 296.12 93.25 295.56C92.05 294.973 91.0233 294.12 90.17 293C89.3167 291.88 88.6633 290.493 88.21 288.84C87.7567 287.187 87.53 285.28 87.53 283.12ZM97.53 293.48C98.7033 293.48 99.7167 293.24 100.57 292.76C101.45 292.28 102.13 291.493 102.61 290.4C103.09 289.307 103.33 287.853 103.33 286.04C103.33 283.853 102.917 282.133 102.09 280.88C101.29 279.6 99.9567 278.96 98.09 278.96C96.9167 278.96 95.85 279.227 94.89 279.76C93.93 280.267 93.13 280.853 92.49 281.52C91.85 282.187 91.3967 282.747 91.13 283.2C91.13 284.507 91.2233 285.773 91.41 287C91.5967 288.227 91.9167 289.333 92.37 290.32C92.85 291.28 93.5033 292.053 94.33 292.64C95.1833 293.2 96.25 293.48 97.53 293.48ZM114.645 277.758H112.594L111.793 267.445H115.426L114.645 277.758ZM130.463 296.4C128.489 296.4 126.729 296.027 125.183 295.28C123.663 294.507 122.463 293.307 121.583 291.68C120.703 290.053 120.263 287.96 120.263 285.4C120.263 282.733 120.716 280.573 121.623 278.92C122.529 277.267 123.756 276.067 125.303 275.32C126.876 274.547 128.636 274.16 130.583 274.16C131.676 274.16 132.743 274.267 133.783 274.48C134.849 274.693 135.756 274.973 136.503 275.32L135.463 278.2C134.716 277.907 133.889 277.667 132.983 277.48C132.103 277.293 131.276 277.2 130.503 277.2C129.143 277.2 127.996 277.427 127.063 277.88C126.129 278.333 125.409 279.027 124.903 279.96C124.396 280.893 124.063 282.08 123.903 283.52H134.423V286.4H123.863C123.943 287.973 124.236 289.28 124.743 290.32C125.249 291.36 125.969 292.133 126.903 292.64C127.836 293.147 128.996 293.4 130.383 293.4C131.583 293.4 132.649 293.28 133.583 293.04C134.516 292.8 135.383 292.52 136.183 292.2V295.24C135.436 295.613 134.609 295.893 133.703 296.08C132.796 296.293 131.716 296.4 130.463 296.4ZM157.187 274.56V293.04H160.307V303.44H156.907V296H141.987V303.44H138.627V293.04H140.347C141.574 291.333 142.587 289.48 143.387 287.48C144.214 285.453 144.827 283.347 145.227 281.16C145.654 278.947 145.881 276.747 145.907 274.56H157.187ZM149.027 277.32C148.921 279.133 148.641 281.013 148.187 282.96C147.734 284.88 147.147 286.72 146.427 288.48C145.734 290.24 144.921 291.76 143.987 293.04H153.787V277.32H149.027ZM168.029 274.56V283.48H179.669V274.56H183.189V296H179.669V286.44H168.029V296H164.509V274.56H168.029ZM198.098 274.2C200.711 274.2 202.645 274.773 203.898 275.92C205.151 277.067 205.778 278.893 205.778 281.4V296H203.218L202.538 292.96H202.378C201.765 293.733 201.125 294.387 200.458 294.92C199.818 295.427 199.071 295.8 198.218 296.04C197.391 296.28 196.378 296.4 195.178 296.4C193.898 296.4 192.738 296.173 191.698 295.72C190.685 295.267 189.885 294.573 189.298 293.64C188.711 292.68 188.418 291.48 188.418 290.04C188.418 287.907 189.258 286.267 190.938 285.12C192.618 283.947 195.205 283.307 198.698 283.2L202.338 283.08V281.8C202.338 280.013 201.951 278.773 201.178 278.08C200.405 277.387 199.311 277.04 197.898 277.04C196.778 277.04 195.711 277.213 194.698 277.56C193.685 277.88 192.738 278.253 191.858 278.68L190.778 276.04C191.711 275.533 192.818 275.107 194.098 274.76C195.378 274.387 196.711 274.2 198.098 274.2ZM199.138 285.64C196.471 285.747 194.618 286.173 193.578 286.92C192.565 287.667 192.058 288.72 192.058 290.08C192.058 291.28 192.418 292.16 193.138 292.72C193.885 293.28 194.831 293.56 195.978 293.56C197.791 293.56 199.298 293.067 200.498 292.08C201.698 291.067 202.298 289.52 202.298 287.44V285.52L199.138 285.64ZM215.92 274.56V283.48H227.56V274.56H231.08V296H227.56V286.44H215.92V296H212.4V274.56H215.92ZM241.389 274.56V296H237.869V274.56H241.389ZM239.669 266.52C240.202 266.52 240.669 266.707 241.069 267.08C241.495 267.427 241.709 267.987 241.709 268.76C241.709 269.507 241.495 270.067 241.069 270.44C240.669 270.813 240.202 271 239.669 271C239.082 271 238.589 270.813 238.189 270.44C237.789 270.067 237.589 269.507 237.589 268.76C237.589 267.987 237.789 267.427 238.189 267.08C238.589 266.707 239.082 266.52 239.669 266.52ZM275.812 279.96C275.812 281.293 275.412 282.333 274.612 283.08C273.812 283.827 272.785 284.333 271.532 284.6V284.76C272.865 284.947 274.025 285.427 275.012 286.2C275.999 286.947 276.492 288.12 276.492 289.72C276.492 290.627 276.319 291.467 275.972 292.24C275.652 293.013 275.145 293.68 274.452 294.24C273.759 294.8 272.865 295.24 271.772 295.56C270.679 295.853 269.359 296 267.812 296H258.572V274.56H267.772C269.292 274.56 270.652 274.733 271.852 275.08C273.079 275.4 274.039 275.96 274.732 276.76C275.452 277.533 275.812 278.6 275.812 279.96ZM272.852 289.72C272.852 288.493 272.385 287.613 271.452 287.08C270.519 286.547 269.145 286.28 267.332 286.28H262.092V293.16H267.412C269.172 293.16 270.519 292.907 271.452 292.4C272.385 291.867 272.852 290.973 272.852 289.72ZM272.252 280.4C272.252 279.387 271.879 278.653 271.132 278.2C270.412 277.72 269.225 277.48 267.572 277.48H262.092V283.36H266.932C268.665 283.36 269.985 283.12 270.892 282.64C271.799 282.16 272.252 281.413 272.252 280.4ZM305.089 274.56V277.52H295.529V296H292.009V274.56H305.089ZM319.514 274.16C322.154 274.16 324.274 275.08 325.874 276.92C327.501 278.76 328.314 281.533 328.314 285.24C328.314 287.667 327.941 289.72 327.194 291.4C326.474 293.053 325.447 294.307 324.114 295.16C322.807 295.987 321.261 296.4 319.474 296.4C318.381 296.4 317.407 296.253 316.554 295.96C315.701 295.667 314.967 295.293 314.354 294.84C313.767 294.36 313.261 293.84 312.834 293.28H312.594C312.647 293.733 312.701 294.307 312.754 295C312.807 295.693 312.834 296.293 312.834 296.8V305.6H309.314V274.56H312.194L312.674 277.48H312.834C313.261 276.867 313.767 276.307 314.354 275.8C314.967 275.293 315.687 274.893 316.514 274.6C317.367 274.307 318.367 274.16 319.514 274.16ZM318.874 277.12C317.434 277.12 316.274 277.4 315.394 277.96C314.514 278.493 313.874 279.307 313.474 280.4C313.074 281.493 312.861 282.88 312.834 284.56V285.24C312.834 287 313.021 288.493 313.394 289.72C313.767 290.947 314.394 291.88 315.274 292.52C316.181 293.16 317.407 293.48 318.954 293.48C320.261 293.48 321.327 293.12 322.154 292.4C323.007 291.68 323.634 290.707 324.034 289.48C324.461 288.227 324.674 286.8 324.674 285.2C324.674 282.747 324.194 280.787 323.234 279.32C322.301 277.853 320.847 277.12 318.874 277.12ZM337.443 274.56V296H333.923V274.56H337.443ZM335.723 266.52C336.257 266.52 336.723 266.707 337.123 267.08C337.55 267.427 337.763 267.987 337.763 268.76C337.763 269.507 337.55 270.067 337.123 270.44C336.723 270.813 336.257 271 335.723 271C335.137 271 334.643 270.813 334.243 270.44C333.843 270.067 333.643 269.507 333.643 268.76C333.643 267.987 333.843 267.427 334.243 267.08C334.643 266.707 335.137 266.52 335.723 266.52Z" fill="#141515"/>
</g>
<g filter="url(#filter3_d_3297_3681)">
<rect x="66.1089" y="74.3848" width="266" height="66" rx="10" transform="rotate(13.2544 66.1089 74.3848)" fill="#F4EAD8" shape-rendering="crispEdges"/>
<path d="M74.1978 129.456L75.6307 123.373L69.5472 121.94L70.9802 115.856L64.8967 114.423L69.1956 96.1729L75.2791 97.6058L76.7121 91.5223L82.7956 92.9553L84.2285 86.8718L108.563 92.6037L107.13 98.6872L113.213 100.12L111.78 106.204L99.6131 103.338L101.046 97.2542L88.8791 94.3883L87.4461 100.472L81.3626 99.0388L77.0637 117.289L83.1472 118.722L81.7142 124.806L93.8813 127.672L95.3142 121.588L107.481 124.454L106.048 130.538L99.9648 129.105L98.5318 135.188L74.1978 129.456ZM116.782 139.487L118.215 133.404L112.132 131.971L116.431 113.72L122.514 115.153L123.947 109.07L154.365 116.234L152.932 122.318L159.015 123.751L154.716 142.001L148.633 140.568L147.2 146.652L116.782 139.487ZM124.299 134.837L142.549 139.136L146.848 120.885L128.598 116.586L124.299 134.837Z" fill="#141515"/>
<path d="M165.45 150.951L175.481 108.366L187.648 111.232L179.05 147.733L203.384 153.465L201.951 159.549L165.45 150.951ZM208.035 160.982L215.2 130.564L221.283 131.997L222.716 125.914L228.8 127.347L230.233 121.263L248.483 125.562L247.05 131.645L253.134 133.078L251.701 139.162L257.784 140.595L250.62 171.012L238.453 168.147L241.318 155.98L223.068 151.681L220.202 163.848L208.035 160.982ZM224.501 145.597L242.751 149.896L245.617 137.729L239.534 136.296L240.967 130.212L234.883 128.78L233.45 134.863L227.367 133.43L224.501 145.597ZM256.703 172.445L266.734 129.861L303.235 138.459L301.802 144.542L307.885 145.975L305.02 158.142L298.936 156.709L297.503 162.793L303.587 164.226L300.721 176.393L294.637 174.96L293.204 181.043L256.703 172.445ZM274.602 150.977L292.853 155.276L295.718 143.109L277.468 138.81L274.602 150.977ZM270.303 169.228L288.554 173.527L291.42 161.36L273.169 157.061L270.303 169.228Z" fill="#FF730D"/>
</g>
</g>
<defs>
<filter id="filter0_f_3297_3681" x="-72" y="-300" width="1100" height="1107" filterUnits="userSpaceOnUse" color-interpolation-filters="sRGB">
<feFlood flood-opacity="0" result="BackgroundImageFix"/>
<feBlend mode="normal" in="SourceGraphic" in2="BackgroundImageFix" result="shape"/>
<feGaussianBlur stdDeviation="150" result="effect1_foregroundBlur_3297_3681"/>
</filter>
<filter id="filter1_d_3297_3681" x="140" y="365" width="394.307" height="139.793" filterUnits="userSpaceOnUse" color-interpolation-filters="sRGB">
<feFlood flood-opacity="0" result="BackgroundImageFix"/>
<feColorMatrix in="SourceAlpha" type="matrix" values="0 0 0 0 0 0 0 0 0 0 0 0 0 0 0 0 0 0 127 0" result="hardAlpha"/>
<feOffset dx="-3" dy="4"/>
<feComposite in2="hardAlpha" operator="out"/>
<feColorMatrix type="matrix" values="0 0 0 0 0.0784314 0 0 0 0 0.0823529 0 0 0 0 0.0823529 0 0 0 1 0"/>
<feBlend mode="normal" in2="BackgroundImageFix" result="effect1_dropShadow_3297_3681"/>
<feBlend mode="normal" in="SourceGraphic" in2="effect1_dropShadow_3297_3681" result="shape"/>
</filter>
<filter id="filter2_d_3297_3681" x="43" y="245" width="306" height="74" filterUnits="userSpaceOnUse" color-interpolation-filters="sRGB">
<feFlood flood-opacity="0" result="BackgroundImageFix"/>
<feColorMatrix in="SourceAlpha" type="matrix" values="0 0 0 0 0 0 0 0 0 0 0 0 0 0 0 0 0 0 127 0" result="hardAlpha"/>
<feOffset dx="-3" dy="4"/>
<feComposite in2="hardAlpha" operator="out"/>
<feColorMatrix type="matrix" values="0 0 0 0 0.0784314 0 0 0 0 0.0823529 0 0 0 0 0.0823529 0 0 0 1 0"/>
<feBlend mode="normal" in2="BackgroundImageFix" result="effect1_dropShadow_3297_3681"/>
<feBlend mode="normal" in="SourceGraphic" in2="effect1_dropShadow_3297_3681" result="shape"/>
</filter>
<filter id="filter3_d_3297_3681" x="47.9766" y="74.3848" width="277.046" height="129.229" filterUnits="userSpaceOnUse" color-interpolation-filters="sRGB">
<feFlood flood-opacity="0" result="BackgroundImageFix"/>
<feColorMatrix in="SourceAlpha" type="matrix" values="0 0 0 0 0 0 0 0 0 0 0 0 0 0 0 0 0 0 127 0" result="hardAlpha"/>
<feOffset dx="-3" dy="4"/>
<feComposite in2="hardAlpha" operator="out"/>
<feColorMatrix type="matrix" values="0 0 0 0 0.0784314 0 0 0 0 0.0823529 0 0 0 0 0.0823529 0 0 0 1 0"/>
<feBlend mode="normal" in2="BackgroundImageFix" result="effect1_dropShadow_3297_3681"/>
<feBlend mode="normal" in="SourceGraphic" in2="effect1_dropShadow_3297_3681" result="shape"/>
</filter>
<linearGradient id="paint0_linear_3297_3681" x1="478.358" y1="151.592" x2="478.358" y2="519.33" gradientUnits="userSpaceOnUse">
<stop stop-color="#DEC9EA"/>
<stop offset="1" stop-color="#FFF500" stop-opacity="0"/>
</linearGradient>
<clipPath id="clip0_3297_3681">
<rect width="768" height="622" fill="white"/>
</clipPath>
<clipPath id="clip1_3297_3681">
<rect width="48" height="48" fill="white" transform="translate(19.5488 544.338) rotate(32.1588)"/>
</clipPath>
<clipPath id="clip2_3297_3681">
<rect width="48" height="48" fill="white" transform="translate(506 32.3379) rotate(-29.0921)"/>
</clipPath>
</defs>
</svg>
