<svg width="601" height="464" viewBox="0 0 601 464" fill="none" xmlns="http://www.w3.org/2000/svg">
<path d="M401.783 265.153C399.619 231.187 410.67 235.662 375.592 229.859C374.634 222.486 373.312 211.726 363.583 212.091C362.465 213.624 361.02 214.223 359.263 213.901C357.701 213.661 356.133 213.296 355.059 214.872C350.615 216.807 345.924 218.982 344.726 224.42C343.405 228.165 341.96 233.844 338.358 235.779C328.15 237.596 317.701 233.603 307.732 235.056C302.685 235.662 307.971 251.013 306.65 254.393C305.089 255.605 305.328 256.933 305.691 258.503C306.287 260.561 302.809 261.766 302.083 259.591C301.604 257.78 298.605 257.656 299.324 255.481C300.645 251.13 296.681 247.02 299.084 243.035C299.563 240.735 297.639 237.837 295.722 236.626C287.909 238.078 279.988 236.75 272.175 238.56C271.935 240.378 269.772 240.976 269.532 242.911C269.176 246.422 267.252 249.437 265.451 252.218C258.967 263.941 246.711 264.43 239.508 253.795C238.063 252.824 237.947 250.772 236.865 249.685C235.66 248.714 235.064 247.509 234.825 246.057C234.222 242.312 229.415 242.911 226.656 243.035C219.57 244.845 211.161 240.378 205.157 244.969C195.783 251.736 202.39 270.956 206.355 279.782C206.594 280.263 206.834 280.745 206.718 281.227C204.67 285.461 208.998 287.395 209.956 290.534C210.319 298.754 211.641 306.856 211.401 315.193C211.401 316.404 211.997 317.492 213.202 317.251C215.961 316.886 218.364 318.456 221.131 318.098C223.048 317.857 223.411 318.456 223.774 320.755C219.809 322.93 216.201 321.843 212.962 319.302C209.114 321.843 213.202 324.5 213.921 327.405C217.522 336.347 257.762 323.901 268.211 326.193C272.175 326.923 276.263 326.675 280.227 326.317C285.39 328.369 290.676 325.471 294.64 322.325C298.002 318.821 295.359 313.506 296.201 309.273C294.401 306.856 296.797 304.075 295.722 301.418C295.483 297.549 297.16 293.797 296.557 289.811C298.002 281.957 311.696 288.848 313.737 280.38C314.1 279.052 314.818 277.723 316.14 277.117C316.859 277.117 316.982 278.453 317.701 277.847C318.543 276.876 318.057 275.548 319.139 274.701C320.46 276.635 318.543 278.205 318.899 279.782C319.625 280.38 319.981 279.052 320.7 279.782C319.262 287.154 316.859 297.425 309.169 300.206C306.41 300.206 305.205 301.9 304.486 304.316C308.814 344.202 305.328 320.879 345.329 327.887C355.059 328.252 364.788 327.164 374.511 326.193C376.674 326.558 378.359 323.536 380.639 324.865C383.761 324.624 386.767 322.689 390.129 322.93C391.929 322.93 393.491 321.843 394.333 320.149C395.894 317.616 392.293 316.404 392.532 314.346C394.209 312.054 391.69 306.615 396.017 307.214C396.497 310.601 394.812 314.229 397.092 317.857C399.975 314.594 398.537 310.966 399.495 307.097C401.056 293.074 401.18 278.935 401.783 265.153Z" fill="#F7D062"/>
<path d="M200.591 178.607C201.912 194.681 205.514 210.273 205.514 226.23C209.115 226.96 206.116 222.486 207.314 220.675C208.28 220.427 209.239 219.704 210.32 219.945C214.888 238.801 210.437 238.684 233.018 237.231C235.545 236.749 235.545 236.625 236.148 239.166C236.627 240.735 238.188 241.823 239.386 242.794C243.474 249.56 243.111 240.253 249.116 241.823C258.729 245.21 261.851 233.727 268.335 229.377C270.013 231.07 268.335 232.516 268.335 234.209C274.943 235.056 281.427 233.486 288.034 232.881C290.314 232.516 292.717 232.399 294.039 229.858C294.279 229.253 295.237 229.012 295.723 228.647C297.045 222.486 294.039 216.201 296.798 210.156C300.646 210.156 300.763 206.769 297.285 205.682C293.676 204.112 289.232 204.959 288.034 200.243C286.35 195.046 280.708 198.192 278.784 194.805C269.178 178.972 283.83 164.343 299.681 163.139C299.325 156.73 304.008 146.576 298.12 141.984C295.723 142.225 293.676 141.619 291.519 140.656C287.192 140.415 283.227 141.013 279.386 137.874C281.064 137.633 280.584 136.181 281.55 135.334C284.07 135.093 286.829 135.334 289.472 134.728C288.637 131.954 291.999 133.159 292.354 131.348C281.303 128.326 268.698 133.765 256.921 132.436C242.029 132.436 227.253 135.217 212.484 132.794C200.954 131.706 201.673 142.466 201.433 151.05C200.954 160.233 200.83 169.541 200.591 178.731V178.607Z" fill="#F7D062"/>
<path d="M433.013 157.576C434.93 151.656 430.487 144.765 429.891 138.48C427.125 126.027 423.16 113.938 419.319 101.85C416.792 98.7109 415.115 94.3603 411.753 92.0608C408.631 90.8564 406.584 88.192 404.783 85.659C398.415 78.1621 387.85 85.4108 379.682 84.929C378.6 82.9946 377.642 78.768 374.636 80.3375C370.192 82.3887 365.145 82.031 360.462 83.4764C349.534 85.7758 337.162 83.4764 327.309 88.6811C329.11 91.5791 324.905 92.9076 325.392 95.5647C326.83 96.1706 330.315 95.5647 329.836 97.8641C327.911 105.237 338.244 124.822 331.992 129.29C327.548 132.793 320.462 132.312 319.14 139.203C318.421 141.984 316.984 144.882 317.942 147.663C318.784 150.203 317.579 152.86 319.14 155.16C317.579 160.357 317.579 164.949 322.865 167.606C325.268 170.869 328.754 168.453 331.876 169.183C336.08 175.709 333.916 192.264 346.049 188.155C359.62 183.563 375.238 184.651 373.074 165.671C372.835 161.445 380.401 153.948 384.844 154.313C386.289 154.313 387.727 152.744 389.288 152.985C390.973 153.342 392.294 152.495 393.616 151.773C396.375 150.32 399.257 149.597 402.024 152.014C402.859 152.744 404.667 152.495 405.262 153.583C406.344 156.488 409.59 157.817 410.548 160.598C410.911 162.898 411.993 164.949 411.993 167.365C411.993 168.577 412.233 169.905 413.67 170.511C419.196 167.73 440.819 167.124 433.013 157.335V157.576Z" fill="#FF730D"/>
<path d="M513.006 271.32C510.842 266.364 507.001 262.736 504.234 258.261C503.516 255.239 501.831 253.064 499.914 250.889C498.23 247.75 496.908 244.238 494.026 241.946C489.705 232.997 484.296 224.055 478.175 215.835C476.73 213.543 476.251 210.638 473.608 209.309C472.526 208.346 473.129 206.411 471.923 205.44C470.246 203.389 469.404 200.608 467.363 198.79C466.884 198.308 466.521 197.586 467.363 196.739C470.486 197.104 473.971 199.761 477.209 198.79C479.852 197.586 482.256 200.484 484.419 198.79C489.103 193.352 478.531 187.308 473.847 186.585C470.486 186.95 471.923 182.234 468.206 183.081C462.078 181.629 458.236 176.555 451.026 179.453C446.103 180.3 450.547 184.651 448.507 187.432C446.22 192.023 449.705 196.856 448.986 201.571C449.705 203.63 451.266 205.324 453.306 206.652C455.23 204.236 454.032 201.571 454.751 199.155C455.47 196.739 455.833 194.323 456.312 191.658C463.159 196.016 464.241 204.236 468.801 210.397C478.415 226.712 486.699 244.122 497.874 259.473C504.234 266.963 504.598 281.956 516.012 284.132C516.491 283.767 516.847 283.402 516.97 282.92C517.929 278.328 515.649 274.824 512.882 271.32H513.006Z" fill="#F7D062"/>
<path d="M399.38 368.262C394.333 363.065 395.415 349.648 390.848 349.399C390.006 349.888 389.65 350.611 389.89 351.334C390.253 356.414 387.61 361.247 385.686 365.722C376.559 381.073 365.144 376.481 365.507 384.818C367.787 386.628 370.67 386.628 373.313 387.599C374.758 387.964 375.716 389.533 377.154 389.533C385.323 392.92 390.608 402.585 391.69 411.411C392.293 414.798 396.737 412.98 397.092 410.199C399.256 398.957 403.7 388.081 414.991 383.365C416.073 382.883 416.915 382.037 416.791 380.591C410.191 377.321 402.858 375.394 399.256 368.262H399.38Z" fill="#F7D062"/>
<path d="M369.588 420.111C368.15 417.936 367.548 415.396 366.226 413.103C365.268 410.928 361.543 411.41 361.659 413.95C361.064 417.33 361.064 421.082 358.66 423.739C356.257 427.849 350.731 427.126 348.328 430.63C355.059 434.857 363.707 439.456 365.028 448.88C365.268 450.449 365.987 452.026 368.027 452.748C370.554 445.617 373.792 438.003 381.118 434.74C382.563 434.134 384.001 433.17 384.001 431.236C378.715 427.973 372.71 426.28 369.828 420.111H369.588Z" fill="#F7D062"/>
<path d="M556.005 383.729C552.28 379.137 546.754 369.947 540.27 375.144C538.833 375.509 538.47 376.597 538.47 378.05C538.586 387.474 544.714 397.27 553.485 401.139C563.331 403.431 560.209 388.32 556.128 383.729H556.005Z" fill="#FF730D"/>
<path d="M233.38 47.4595C233.859 46.2477 234.338 45.4082 235.783 44.9191C239.987 44.0724 241.912 40.0867 244.794 37.1887C246.232 36.1011 245.513 34.2834 245.39 32.8308C245.39 31.3854 243.712 31.6263 242.747 31.1445C237.708 31.3854 232.182 35.612 230.497 40.5685C224.972 40.6926 219.57 45.525 219.446 50.3575C219.446 59.0661 232.182 52.781 233.38 47.3354V47.4595Z" fill="#F7D062"/>
<path d="M235.181 71.8779C240.467 70.3085 261.727 68.0091 261.364 61.9649C252.237 54.7162 248.396 62.6876 241.425 60.2713C239.385 59.4246 239.269 62.6876 235.783 61.2422C229.539 59.6655 226.656 73.5715 235.181 71.8779Z" fill="#F7D062"/>
<path d="M264.37 91.5789C258.605 85.7756 250.56 88.075 243.713 84.812C241.186 83.3594 238.187 83.2353 235.305 82.6367C232.059 81.9067 229.177 89.2795 233.983 89.8854C237.106 91.5789 239.269 94.4769 243.35 92.9075C246.233 92.1848 249.115 95.0828 252.121 94.966C256.681 95.6887 261.248 94.601 265.931 94.1192C265.931 92.4257 265.213 91.9439 264.494 91.338L264.37 91.5789Z" fill="#F7D062"/>
<path d="M367.184 29.4508C370.669 27.7573 375.716 24.6111 372.594 20.0195C367.308 22.0781 360.824 18.5742 358.899 26.4287C361.303 28.239 363.822 30.1735 367.184 29.3267V29.4508Z" fill="#F7D062"/>
<path d="M358.298 51.5691C361.783 51.5691 363.584 48.0652 366.467 46.6126C369.233 44.6781 369.589 42.9846 367.672 39.8457C359.504 41.0502 356.258 42.8678 358.422 51.5691H358.298Z" fill="#F7D062"/>
<path d="M414.635 74.5347C411.513 76.2283 406.706 74.5347 405.501 79.0095C409.945 79.4913 415.231 77.44 418.353 81.4257C418.716 82.1484 419.558 82.0316 420.517 81.6666C421.838 76.8342 420.161 72.3594 414.635 74.5347Z" fill="#F7D062"/>
<path d="M394.334 67.2859C395.292 64.7456 393.731 61.3585 391.451 59.7891C390.253 61.1176 390.006 62.5703 390.369 64.0229C390.369 68.1327 388.329 70.7898 388.808 75.6222C392.533 73.4469 393.252 70.0598 394.334 67.1618V67.2859Z" fill="#F7D062"/>
<path d="M85.519 150.684C67.0254 153.341 56.9327 172.686 49.9695 188.154C44.6835 195.527 46.9635 207.257 40.356 212.936C21.9786 227.441 16.8161 253.91 19.8221 276.028C18.3772 280.021 22.1021 283.16 20.7806 287.153C23.9028 294.767 25.4639 303.468 30.5102 309.994C33.0297 316.403 44.6835 333.448 52.6125 329.097C37.5969 321.965 30.5102 300.928 26.1827 285.941C24.382 282.678 26.0665 278.933 24.0189 275.787C22.4578 272.524 24.2658 269.145 23.6632 265.757C23.3001 248.107 29.0653 228.288 42.2802 216.075C42.999 216.681 43.2386 217.404 42.999 218.134C41.3217 224.784 43.4782 231.909 45.5258 238.318C49.3668 249.078 64.7382 250.406 70.5034 240.252C78.7954 226.47 67.3812 205.805 50.5649 207.98C50.5649 201.089 55.3716 195.41 56.3301 188.519C58.4938 185.979 60.7737 183.686 60.418 179.934C61.8556 179.453 62.5817 178.489 62.8213 176.912C64.1428 172.686 68.1073 169.78 70.3872 166.16C75.0705 159.751 83.6021 156.488 90.8049 152.984C89.1277 150.808 88.0458 150.319 85.519 150.808V150.684ZM50.3253 211.367C55.6112 206.768 63.6636 214.382 66.1831 219.338C68.1073 222.244 67.1416 225.872 68.8261 228.77C66.4227 251.735 48.8876 247.508 48.4084 226.959C48.2849 221.762 46.8473 215.718 50.3253 211.367Z" fill="#F7D062"/>
<path d="M271.094 403.557C268.335 402.586 266.294 405.367 264.61 406.82C259.687 407.177 259.563 413.711 255.004 414.557C254.641 414.557 254.161 414.915 254.038 415.28C253.079 417.572 249.957 418.302 249.718 421.2C243.473 424.952 239.146 431.719 232.901 435.705C230.258 428.938 230.019 421.441 228.813 414.309C226.533 407.907 219.57 407.907 216.688 413.711C213.319 418.667 213.442 426.398 207.677 429.179C203.349 422.653 205.637 404.038 194.941 404.403C190.984 408.995 186.896 413.951 182.815 418.419C178.851 422.653 174.763 427.003 174.044 433.289C171.401 437.398 167.8 440.544 170.922 446.465C174.763 444.289 175.605 438.245 179.446 435.464C186.054 429.901 188.341 420.477 196.147 416.484C196.865 424.828 198.79 430.15 202.87 437.157C206.718 441.99 215.127 436.676 216.325 431.237C217.886 427.85 219.084 422.653 222.329 420.842C222.213 435.223 225.212 454.202 242.987 440.304C248.636 433.048 255.12 426.522 259.926 418.543C263.049 414.674 268.698 405.25 274.1 410.929C274.702 408.265 273.86 404.761 271.094 403.798V403.557Z" fill="#F7D062"/>
<path d="M588.2 334.295C584.591 333.324 580.627 333.689 577.149 333.083C577.505 328.01 587.713 323.17 581.709 318.338C578.107 319.542 576.067 323.294 572.705 324.864C570.418 322.447 571.979 317.973 569.699 315.316C568.254 313.505 563.571 314.593 565.132 317.25C566.098 318.944 563.455 319.542 564.05 321.36C563.571 323.652 565.495 325.835 565.132 328.01C564.297 329.098 564.892 330.426 564.653 331.871C559.73 332.12 553.602 328.492 551.082 334.412C553.362 336.711 556.847 335.383 559.73 337.558C556.368 341.062 552.04 343.719 553.602 349.398C557.806 350.245 560.928 347.464 564.297 345.653C569.336 344.449 567.056 356.048 574.027 354.479C574.027 349.281 573.3 344.201 573.903 339.127C580.271 335.981 586.392 340.339 592.404 338.157C591.678 336.105 590.356 334.653 588.2 334.412V334.295Z" fill="#F7D062"/>
<path d="M490.541 99.7992C489.583 103.785 492.945 108.26 497.388 108.384C499.436 104.756 493.308 93.9959 490.541 99.7992Z" fill="#F7D062"/>
<path d="M540.395 386.27C540.395 385.182 540.032 384.7 539.073 384.452C539.073 385.423 539.073 386.27 540.395 386.27Z" fill="#F7D062"/>
<path d="M600.45 79.615C599.128 74.0526 600.929 66.9208 597.444 62.2052C590.96 53.8688 580.511 58.8254 572.706 61.8475C569.576 63.4169 566.578 68.6143 563.216 65.3513C554.329 57.9786 549.282 58.3363 540.874 66.1981C535.704 71.1546 539.908 52.0512 525.016 60.8766C516.492 52.1753 507.118 44.6785 497.875 36.9407C494.745 34.6486 491.028 30.4148 486.94 31.0206C487.906 32.7142 489.946 32.5901 490.788 34.1668C485.858 34.4077 481.298 30.6557 476.615 29.0862C471.568 26.4291 465.564 24.9765 460.757 21.9544C454.868 16.881 446.823 18.0855 439.976 15.6693C422.681 11.5595 404.666 3.82181 387.371 11.9245C379.079 16.392 360.099 17.3628 360.701 29.568C361.181 34.0427 364.303 34.1668 367.672 35.4954C365.269 40.3278 358.538 42.8681 358.538 48.9123C361.783 65.9572 377.394 53.1389 384.728 46.737C386.165 44.9194 388.808 46.372 387.727 48.5473C385.802 57.8545 383.762 67.5267 382.92 76.8338C378.12 80.2136 371.513 79.7318 366.59 82.0313C354.334 86.4987 340.886 87.2287 328.035 90.7326C324.789 91.3384 321.543 93.9955 321.906 96.7767C321.906 104.274 321.667 111.281 323.707 118.53C308.691 122.282 305.33 142.225 311.814 154.678C312.895 157.452 314.936 159.029 316.983 160.715C320.461 165.431 327.432 164.102 332.478 166.161C333.074 173.534 334.874 186.345 344.727 185.016C356.134 182.235 368.028 180.176 379.079 176.191C379.558 172.446 377.881 168.694 379.318 165.073C381.359 157.452 388.808 152.255 395.532 158.299C397.217 159.876 399.38 161.204 399.38 164.226C399.38 167 404.427 170.387 408.144 169.3C414.991 166.037 429.404 167.248 430.965 158.299C429.891 154.43 429.644 150.32 428.685 146.335C425.803 134.246 424.365 121.8 421.838 109.712C420.277 105.602 417.279 87.9513 421.236 86.3819C432.287 85.776 442.619 80.5786 453.431 79.0092C459.559 79.2501 465.68 78.8851 471.924 78.7683C481.059 78.4033 491.747 75.2644 497.033 85.2942C496.43 86.4987 495.827 87.5864 495.232 88.7981C486.7 89.6449 492.349 100.164 494.745 104.631C480.572 121.917 506.639 134.246 509.521 150.32C505.92 154.678 500.518 166.518 501.237 172.205C502.195 179.578 509.645 186.345 517.211 185.257C523.215 182.6 540.155 176.556 540.751 169.665C541.23 166.161 546.276 166.161 547.837 162.774C549.522 163.496 555.164 156.365 554.808 154.678C558.286 152.496 558.888 148.634 561.531 145.729C566.454 139.444 570.898 132.312 573.664 124.698C575.589 121.676 576.787 117.807 579.909 115.632C581.833 112.493 582.312 107.653 586.516 105.96C588.201 105.361 587.475 102.697 589.275 102.456C590.001 103.062 590.241 103.784 589.515 104.514C584.955 110.675 582.552 117.807 578.224 124.216C575.225 127.355 574.267 132.071 571.384 135.458C570.658 136.305 569.46 137.991 571.021 139.568C584.832 126.633 602.251 99.317 600.929 79.4909L600.45 79.615ZM374.156 23.5238C376.08 18.2096 408.144 8.53744 412.348 12.7713C411.993 13.7349 411.027 13.7349 410.308 13.494C407.549 12.5304 404.783 13.494 402.023 13.6181C391.088 14.7057 383.043 23.6479 374.998 30.298C372.951 32.4733 370.431 30.298 367.912 29.933C369.589 27.1518 372.951 26.67 374.156 23.5238ZM364.906 27.035C366.59 24.9765 368.747 24.0129 371.15 23.2829C369.589 25.4582 367.425 26.67 364.906 27.035ZM366.104 43.2258C366.104 45.6493 364.303 46.007 363.105 46.9779C363.707 45.5252 364.187 43.9558 366.104 43.2258ZM379.921 45.5252C375.354 49.1532 368.391 53.263 362.742 50.7227C374.272 41.1746 365.987 43.109 371.39 38.1525C379.079 31.1447 387.124 24.0129 396.135 18.6914C402.263 16.0343 412.835 17.2387 418.956 19.4141C404.783 26.67 391.931 35.0136 379.921 45.5252ZM392.533 65.4681C394.334 67.6435 391.568 71.1546 390.37 73.4468C387.966 72.4832 389.527 64.3805 392.533 65.4681ZM420.401 129.29C421.599 132.071 420.757 135.458 421.483 138.356C421.722 140.291 422.804 142.101 421.962 144.159C423.16 149.233 424.961 154.43 425.687 159.752C419.675 162.292 413.554 163.015 407.062 163.737C402.263 152.255 399.141 149.116 386.645 150.32C376.559 152.138 366.946 163.737 368.63 174.132C359.503 176.797 350.856 178.125 341.366 179.695C339.681 176.556 338.839 173.044 339.325 169.424C337.88 166.759 338.12 163.737 337.88 160.839C337.517 157.095 331.876 158.423 329.109 158.182C314.58 158.788 314.34 137.633 320.106 128.443C323.947 123.246 331.273 126.027 329.712 121.311C328.63 118.778 329.233 116.238 329.472 113.698C327.671 109.347 328.274 104.514 326.11 100.281C324.905 97.8644 325.631 96.9008 328.39 96.9008C335.361 95.93 341.961 91.5793 349.171 92.0611C362.263 88.9222 375.594 86.0169 388.932 83.4839C392.054 82.513 395.292 82.3889 398.538 82.2721C399.86 82.0313 400.702 82.3889 401.544 83.3598C412.109 94.4773 412.472 78.8851 414.512 104.631C412.472 102.821 413.191 99.6747 410.787 97.8644C412.951 108.135 417.518 118.778 420.161 129.29H420.401ZM415.717 79.4909C413.191 79.615 409.226 81.5495 407.549 78.5274C409.35 75.2644 413.909 73.33 417.395 74.5344C417.395 76.1039 417.395 78.7683 415.717 79.4909ZM415.834 108.865C414.991 108.135 414.991 107.653 415.115 106.931C416.436 106.208 417.155 107.894 415.834 108.865ZM403.221 72.8409C404.906 65.9572 408.268 58.0954 410.431 50.8468C413.43 44.6785 423.523 44.5617 428.925 39.9628C437.696 44.1967 446.823 37.7875 437.812 54.5915C433.369 58.0954 427.727 60.3948 422.078 61.9643C420.401 62.2052 418.716 63.176 417.279 64.6214C413.191 68.1325 407.186 68.8552 403.221 72.7241V72.8409ZM492.226 74.4176C488.261 70.7896 472.65 71.9941 467.241 73.2059C450.788 71.8773 435.896 79.0092 419.675 80.0968C419.675 74.2935 420.401 72.1182 413.554 72.4832C414.149 70.6656 415.594 69.9429 417.032 69.5779C422.681 68.2493 427.604 64.8623 433.129 63.2928C441.9 60.0298 449.343 46.737 442.38 38.7584C431.691 33.4369 420.757 40.9337 410.548 43.9558C401.544 49.27 402.858 62.9351 398.538 71.6364C397.58 74.1694 394.457 77.9215 391.451 76.1039C391.814 70.7897 399.38 66.1981 391.451 61.4825C392.294 52.7812 392.773 41.1746 400.818 35.9772C412.232 29.2103 423.639 20.3849 437.573 21.4726C443.701 21.9544 450.664 20.2608 455.711 24.7356C462.797 30.1739 472.411 31.8674 479.497 36.5831C479.497 36.8239 480.093 36.9407 480.332 36.9407C482.62 36.2181 483.818 38.0284 485.023 39.2402C497.272 48.0655 512.404 50.4818 521.531 64.3805C515.766 70.9064 506.639 79.3741 499.676 83.7248C496.43 82.0312 494.027 77.6806 492.11 74.2935L492.226 74.4176ZM495.108 93.1488C496.19 88.5572 507.721 89.5208 513.37 82.0313C517.327 76.9506 522.736 73.2059 525.016 67.1617C525.735 65.1105 527.659 66.074 529.699 64.9864C531.144 69.0961 536.547 70.3079 536.547 75.0162C525.379 80.7027 527.296 94.9664 514.931 98.3462C512.767 99.4338 509.645 99.5579 508.563 102.098C508.2 102.938 507.721 103.784 506.639 104.274C500.394 103.668 498.594 97.4994 495.232 93.3897L495.108 93.1488ZM577.026 98.1053C574.986 102.098 573.062 106.084 569.7 109.106C569.576 112.245 566.215 113.581 565.859 116.72C563.332 120.107 559.97 123.37 557.806 127.355C551.802 136.787 546.4 146.335 539.189 154.795C537.512 156.854 536.43 159.752 534.869 161.927C531.863 163.737 529.344 166.037 526.94 168.694C524.414 166.278 524.777 163.255 522.497 160.839C521.291 159.628 520.333 158.423 521.175 156.489C521.531 155.642 521.052 154.795 520.456 154.189C516.608 149.963 516.368 143.918 513.007 139.444C506.523 131.83 499.312 124.092 495.951 114.428C494.629 108.135 503.154 108.259 507.118 105.719C508.2 109.588 508.084 114.063 512.883 116.238C511.322 110.8 509.645 102.58 517.087 102.215C519.854 99.5579 523.934 99.1929 526.221 95.93C533.424 90.6084 528.618 89.769 532.705 86.2578C536.43 84.3234 538.95 79.3741 543.038 78.5274C543.394 78.5274 543.996 78.6442 544.236 78.2792C545.078 76.228 547.358 76.1039 548.803 74.8994C548.556 70.7896 544.599 73.8117 543.038 71.2714C558.286 56.8909 565.133 85.5351 577.745 87.7105C578.348 89.404 579.306 90.8566 580.751 92.1852C579.066 93.9955 577.985 96.1709 577.026 98.2294V98.1053Z" fill="#141515"/>
<path d="M186.177 315.922C183.411 315.922 180.173 315.922 177.646 316.645C176.811 317.973 175.366 317.973 174.168 318.455C168.882 320.514 164.794 324.383 159.631 326.799C153.866 331.631 148.464 326.317 142.939 323.901C136.81 321.477 144.26 307.944 147.259 304.316C148.58 302.14 149.299 299.483 152.421 299.118C156.988 294.892 162.274 291.87 167.916 289.205C174.647 283.891 192.306 286.548 189.902 274.095C185.938 260.196 167.56 262.977 156.865 265.634C151.1 267.693 146.896 271.678 141.857 274.941C141.857 261.525 159.268 257.057 166.115 247.626C168.519 243.516 170.683 235.421 164.075 234.45C159.748 232.515 155.551 232.515 151.223 234.574C145.458 236.267 141.014 240.859 135.249 242.188C141.131 232.515 131.524 222.245 122.637 227.318C110.627 237.837 105.102 248.108 102.459 264.189C98.8502 259.108 98.1314 251.495 91.4078 249.436C79.3982 251.736 79.0352 266.722 78.7956 276.518C82.1574 300.688 94.53 312.17 85.8822 337.8C82.0412 343.603 83.2392 351.333 79.8774 357.137C77.9533 349.888 67.621 352.786 67.621 359.553C67.1418 364.028 69.3055 368.984 68.3471 373.094C66.4229 374.904 63.9034 379.62 60.8974 377.079C52.2496 370.437 48.0455 379.255 50.3255 387.358C46.0052 390.737 41.3219 393.278 38.3159 398.117C33.7488 405.001 27.6278 396.541 22.1023 396.424C18.5008 396.665 14.776 394.73 11.2907 396.906C0.842267 399.081 3.24563 414.191 7.92893 420.958C8.53159 423.739 9.6062 426.28 12.2492 427.725C14.4129 429.302 14.6525 433.528 18.1378 432.565C20.4177 437.28 20.4177 437.28 24.6218 436.915C24.8614 442.595 30.0312 441.025 32.6742 443.566C33.0299 446.464 37.9529 445.858 37.1178 448.763C29.0655 445.376 20.7808 442.595 14.6525 435.945C10.4485 432.324 5.16252 427.243 0 426.156C9.25042 441.39 27.1486 449.121 43.8415 452.749C54.7692 454.924 70.5036 462.056 78.9117 451.179C80.9593 448.274 82.6366 445.5 79.3982 442.354C74.3519 427.608 67.7444 436.791 80.1171 420.958C81.1989 419.506 82.6366 419.506 84.1977 420.593C85.8822 421.805 88.1621 421.44 89.9629 422.411C97.8918 425.068 102.938 414.673 98.6106 408.147C106.06 408.629 108.101 407.425 109.901 400.044C110.744 395.942 107.258 392.314 106.184 388.445C109.422 384.817 111.826 377.444 117.111 377.685C119.275 376.963 121.679 375.751 123.959 375.269C135.01 371.283 140.775 359.436 151.703 354.844C165.999 351.574 183.897 346.983 190.861 332.602C193.62 327.164 193.743 316.886 186.054 315.681L186.177 315.922ZM65.5807 382.883C67.0256 381.313 69.0659 380.467 70.1478 378.291C73.9888 384.095 78.0767 389.898 82.2808 395.694C83.8419 397.387 86.1218 397.993 86.9641 400.409C87.5595 401.256 87.5595 402.227 86.7245 402.95C83.7185 405.607 80.5963 400.293 77.9533 398.957C75.0707 395.577 60.1785 387.358 65.4645 382.883H65.5807ZM40.24 449.967C39.6374 449.851 39.7608 449.004 40.3562 449.004C41.1985 449.004 40.9589 450.208 40.24 449.967ZM73.27 423.374C66.786 430.025 61.7396 438.003 55.7349 445.011C54.653 446.945 54.5295 446.829 52.3731 446.099C38.679 441.025 26.5459 433.171 16.4533 422.528C23.7795 415.644 33.5092 411.651 40.3562 404.402C42.9992 399.928 49.1274 399.687 52.01 395.095C52.6127 394.365 53.3315 394.124 54.1738 394.124C61.7396 402.344 68.7029 411.045 77.5902 417.695C76.7552 420.352 74.9545 421.805 73.3862 423.258L73.27 423.374ZM92.1266 415.396C83.1158 422.893 36.6314 374.181 60.1785 380.102C59.9389 381.189 58.8571 380.102 58.3778 380.707C59.2128 386.27 64.978 390.496 68.4633 394.73C72.7908 397.993 88.6414 415.279 92.1266 406.337C94.7696 409.111 96.5703 413.95 92.0104 415.396H92.1266ZM102.096 400.169C93.2085 409.476 59.0967 355.443 77.9533 358.589C78.1929 359.472 77.5539 361.049 76.0291 363.305C78.6721 370.196 94.1669 398.117 102.096 395.935C102.219 394.847 101.014 394.365 101.254 393.402C101.98 393.037 102.699 392.314 103.657 392.314C104.623 395.453 104.02 398.84 102.219 400.169H102.096ZM187.738 325.105C187.02 333.931 178.372 338.405 171.525 342.15C162.993 349.282 150.86 348.676 142.096 354.961C133.085 362.94 124.314 373.576 111.223 373.335C110.627 374.422 112.065 375.145 111.709 376.233C109.306 377.926 106.184 378.656 104.739 381.554C101.98 382.401 101.493 385.54 99.0971 386.752C97.8918 387.358 98.2548 388.686 97.6522 389.774C93.2085 387.474 91.4078 381.313 88.046 377.444C85.5192 372.612 78.7956 367.174 83.3554 361.611C87.5595 357.261 87.8064 351.574 89.1279 346.26C91.1682 339.851 92.6058 333.084 93.8111 326.558C95.9676 302.381 74.5915 277.117 90.689 255.239C103.541 253.911 94.4066 295.249 103.054 305.403C104.978 308.309 111.709 310.842 114.948 309.031C116.509 306.973 119.754 310.119 120.713 307.579C121.555 303.834 128.039 302.863 126.478 298.753C123.595 293.68 114.468 302.016 109.306 301.053C106.184 293.315 104.376 285.46 107.258 277.606C108.224 268.175 110.504 258.743 113.866 249.684C115.071 245.326 117.228 241.582 120.713 238.56C121.795 235.662 128.402 230.464 129.484 235.662C131.764 243.516 125.883 248.954 122.877 255.364C119.515 262.977 114.345 290.417 122.514 294.643C124.075 286.307 125.157 277.723 124.801 269.145C127.923 256.933 136.687 247.261 147.978 241.823C151.463 239.888 157.112 236.019 160.953 239.165C163.472 244.363 156.386 246.903 154.229 250.407C153.866 251.371 152.908 251.86 151.942 252.458C144.855 255.729 140.891 262.255 136.571 268.175C137.173 270.956 134.886 272.649 134.044 274.941C132.367 280.022 133.928 285.825 136.687 290.293C139.57 285.22 145.698 283.65 149.778 279.781C154.345 278.088 158.673 275.066 163.596 273.978C165.52 270.832 182.329 268.656 183.897 271.803C190.498 282.197 157.947 283.891 152.545 289.57C146.896 292.468 143.055 297.308 140.651 302.987C141.014 306.126 138.974 308.185 137.653 310.601C127.683 322.324 141.857 337.07 154.709 334.296C159.152 333.931 162.993 333.566 165.999 329.938C171.162 327.887 186.294 313.747 187.738 325.47V325.105Z" fill="#141515"/>
<path d="M594.445 399.081C587.598 389.051 573.424 398.599 565.619 403.432C564.893 404.037 564.05 404.402 562.736 403.913C566.94 394.847 553.246 366.685 542.195 369.59C539.313 370.678 538.71 370.678 537.149 368.013C532.465 360.4 528.138 352.669 523.694 344.931C514.328 322.689 498.593 304.199 487.419 282.92C478.292 267.328 473.006 249.684 463.16 234.574C456.552 222.12 433.608 201.214 440.339 231.07C443.817 249.078 454.752 264.912 458.832 282.197C452.472 284.49 444.659 283.891 438.778 286.548C438.175 288.723 436.135 289.088 434.574 289.935C426.761 294.527 422.804 298.512 422.804 308.06C423.159 316.28 431.205 321.361 434.69 328.011C436.374 331.872 439.976 332.237 443.338 333.208C444.419 338.157 447.426 342.632 452.348 344.085C455.354 345.048 457.155 346.866 458.353 349.399C461.715 357.377 470.602 360.64 473.971 368.619C477.812 379.138 491.144 380.102 500.517 382.518C506.638 385.664 507.96 392.672 511.561 397.752C512.048 398.234 512.404 399.081 511.924 399.804C510.842 401.621 511.445 403.797 511.808 405.49C513.485 412.739 517.689 425.55 526.337 426.156C528.022 426.156 528.98 427.002 529.104 428.813C522.017 432.565 516.005 437.879 511.808 444.894C507.001 450.814 507.481 456.493 513.848 460.968C517.689 465.202 522.496 463.99 527.419 463.268C541.716 464.231 556.129 459.158 567.057 450.091C558.888 452.026 550.959 457.464 542.435 456.617C542.791 455.289 543.996 454.807 545.078 454.924C547.837 455.165 549.877 453.836 551.925 452.508C553.842 451.42 556.245 452.026 557.327 449.486C560.928 445.135 568.501 447.069 569.823 440.178C576.91 439.573 576.547 435.704 579.908 431.835C585.557 430.265 586.392 423.017 591.083 419.871C594.801 415.885 600.566 402.344 594.205 399.081H594.445ZM542.195 375.51C550.959 368.984 569.823 399.804 554.924 399.687C550.124 401.862 533.424 376.233 542.195 375.51ZM470.486 357.261C468.925 352.669 464.358 350.005 462.681 345.172C465.44 344.326 468.083 343.844 470.247 342.026C471.089 346.866 470.247 351.939 470.486 357.137V357.261ZM511.808 384.7C508.083 381.795 503.756 378.897 498.949 378.05C497.272 377.809 496.19 376.357 495.348 375.269C491.986 371.641 487.542 369.59 483.817 366.444C470.247 361.005 477.21 343.362 475.888 331.996C475.649 325.47 470.965 322.565 464.481 323.653C460.517 326.076 464.961 329.456 468.206 328.974C475.17 328.974 465.324 339.734 461.715 338.763C460.277 339.252 458.593 339.851 456.916 338.646C441.777 339.004 448.268 329.339 453.67 320.996C454.389 319.061 456.313 318.214 457.99 317.251C460.154 312.776 469.165 315.075 468.685 309.148C463.4 308.309 457.751 312.9 452.828 314.951C446.823 317.857 446.46 324.018 443.701 329.215C438.654 328.368 437.093 320.879 436.491 316.645C440.455 309.754 448.747 307.944 454.512 302.746C457.874 301.294 461.475 300.33 464.358 297.906C460.517 292.957 456.189 296.819 452.711 299.359C445.625 303.352 434.929 305.768 432.286 314.229C432.17 314.951 431.568 315.192 430.965 315.681C420.161 302.987 445.385 290.534 455.354 287.154C461.475 284.614 469.884 289.935 475.046 284.738C476.491 281.592 470.123 281.592 468.206 282.314C464.002 283.285 464.358 273.854 460.996 271.678C457.634 266.481 457.751 259.108 453.91 253.911C452.472 248.838 450.664 243.757 448.384 239.165C448.747 235.902 445.741 233.844 445.385 230.822C444.064 227.924 441.9 225.624 444.419 222.361C451.15 222.361 453.546 231.187 457.032 235.902C458.237 239.041 461.599 241.217 461.838 244.845C461.838 247.261 465.2 247.261 465.44 249.684C466.522 255.845 469.404 261.284 471.808 266.846C472.766 272.408 475.888 276.759 479.25 280.986C489.103 294.045 496.553 308.907 506.283 322.083C516.608 338.646 525.379 356.173 534.869 373.211C533.787 376.722 532.945 379.985 534.382 383.365C534.869 384.452 534.027 385.299 533.664 386.387C528.138 387.598 525.016 393.037 519.969 395.212C517.689 391.584 514.807 388.08 512.164 384.452L511.808 384.7ZM515.047 406.454C516.128 404.037 518.771 404.278 520.572 403.315C525.139 398.234 531.863 395.577 535.588 389.533C537.628 390.496 537.388 392.92 539.189 393.759C532.342 400.169 525.255 405.366 517.21 409.6C515.889 408.629 515.526 407.541 515.047 406.578V406.454ZM519.853 413.95C518.648 413.345 518.408 412.016 517.689 411.169C525.016 406.337 534.143 403.315 538.833 394.971C543.756 397.628 540.75 401.738 536.909 403.315C531.384 407.06 525.981 411.169 519.853 414.067V413.95ZM528.501 417.936C527.419 419.389 526.221 418.418 525.139 418.542C522.496 418.907 522.496 418.666 521.291 416.126C528.617 411.286 538.47 409.359 543.037 400.774C551.446 403.432 539.552 409.235 537.388 412.739C534.382 414.432 530.665 415.038 528.501 418.06V417.936ZM569.576 429.302C566.94 430.63 566.214 434.134 563.092 434.74C561.168 435.098 559.367 436.069 557.806 437.397C554.328 440.66 549.398 440.66 545.673 443.566C540.155 437.762 537.388 430.025 532.342 423.739C536.067 422.287 538.71 419.506 541.832 417.936C543.756 417.571 545.797 417.213 546.639 415.038C552.404 411.534 549.158 404.76 558.409 408.512C561.291 414.556 564.297 421.681 569.699 426.039C571.021 426.762 571.021 428.455 569.576 429.302Z" fill="#141515"/>
<path d="M398.415 229.859C398.901 223.45 392.533 226.114 388.932 224.18C383.522 223.815 377.881 224.296 372.355 223.691C370.671 218.252 369.712 211.004 364.063 208.222C351.574 204.478 338.243 207.011 335.361 221.515C334.279 225.267 332.239 227.078 328.514 226.596C320.701 225.873 312.54 227.202 304.967 225.508C302.447 220.793 304.248 215.23 304.132 210.274C305.932 199.039 283.467 206.412 286.713 185.016C293.799 165.672 296.798 174.133 304.611 164.344C311.218 122.158 295.6 133.4 264.371 134.488C260.167 134.612 255.963 134.612 252.122 136.181C248.513 135.575 244.911 136.787 241.426 137.028C239.27 136.422 237.106 136.181 234.826 136.663C225.452 137.028 212.484 132.794 206.356 142.466C202.754 146.7 206.232 145.007 205.034 147.664C201.07 158.54 206.959 170.271 203.836 181.388C204.555 198.915 199.872 218.376 206.719 234.815C207.314 235.297 207.198 236.144 206.719 236.867C205.034 240.254 206.479 244.363 204.192 247.626C204.671 253.546 203.597 259.839 202.994 265.876C201.07 283.891 203.473 302.265 203.836 320.149C206.959 324.383 210.56 325.23 215.722 324.5C218.249 324.624 220.769 323.777 223.172 324.989C225.336 324.865 228.219 323.653 230.375 324.5C236.147 326.434 240.707 320.879 246.356 323.171C253.08 321.967 260.043 322.084 266.651 320.755C269.054 320.39 271.218 322.084 273.621 320.996C275.422 321.478 277.223 322.084 279.023 321.726C285.391 322.325 294.039 318.945 299.441 322.208C305.09 326.318 318.661 322.084 325.987 322.814C327.671 322.814 329.349 321.843 331.033 323.296C332.834 323.296 335.477 322.208 337.401 322.566C340.523 323.296 343.166 321.237 346.165 322.084C347.85 322.449 349.534 323.296 351.211 322.084C356.134 323.171 361.181 323.171 365.987 322.084C372.595 320.033 379.681 322.084 385.802 320.755C389.89 318.945 392.17 321.602 396.374 317.857C396.614 314.835 398.538 311.93 397.093 308.791C396.614 307.703 396.614 306.973 397.093 305.886C397.935 303.469 398.415 300.929 396.614 298.513C398.538 297.308 398.538 295.732 397.935 293.797C396.737 288.848 397.093 283.286 397.217 278.088C398.654 273.497 396.614 268.781 397.456 264.189C397.819 262.496 397.58 261.167 396.614 259.839C395.772 258.627 395.416 257.415 396.614 256.211C397.456 255.24 397.093 254.276 396.977 253.306C395.416 245.575 398.538 238.078 398.538 230.341L398.415 229.859ZM209.957 143.678C210.683 142.707 211.518 143.189 212.484 143.678C215.606 145.123 218.968 144.525 222.214 144.036C233.744 144.882 244.548 140.532 255.963 141.503C269.177 139.809 282.625 136.787 295.84 138.721C299.201 137.393 298.962 141.86 301.249 143.189C302.084 143.678 301.728 145.007 301.365 145.853C299.564 151.168 300.283 156.73 299.325 162.409C283.946 164.103 275.785 183.323 281.303 196.74C280.708 199.521 283.111 200.244 284.433 202.054C286.713 208.098 293.799 207.981 298.846 210.879C297.161 214.989 300.407 225.143 295.84 226.472C286.35 227.318 276.141 224.42 266.774 226.596C265.453 226.596 264.494 234.093 264.371 235.662C261.612 240.86 256.681 248.232 249.958 244.487C246.836 242.911 242.871 240.378 241.913 236.626C241.07 231.187 234.703 227.8 229.656 229.136C223.412 229.859 217.284 229.859 210.683 229.377C210.197 216.683 213.319 203.988 211.881 191.418C210.683 195.528 211.279 199.879 210.32 203.988C209.238 189.126 209.718 174.257 210.32 159.511C210.8 155.401 211.998 150.927 209.602 146.817C208.999 145.729 209.602 144.766 210.081 143.919L209.957 143.678ZM298.483 289.812C298.243 298.396 298.003 306.732 297.764 314.952C289.356 314.952 281.55 316.04 273.382 315.923C270.739 316.405 268.212 317.368 265.453 315.923C263.768 315.076 261.851 316.405 260.043 316.645C259.208 316.77 258.366 317.251 257.647 316.645C255.483 315.193 253.08 315.682 250.677 316.04C244.795 317.01 238.783 314.594 232.662 315.923C231.457 316.28 230.498 316.164 229.3 315.799C222.693 311.572 213.203 321.12 208.157 314.952C209.957 304.44 207.917 293.199 208.157 282.439C210.32 266.365 210.197 250.043 210.32 233.969C216.565 232.757 222.809 235.421 229.177 234.815C231.943 234.815 231.943 234.815 232.902 237.472C236.503 244.239 242.029 253.306 251.04 251.619C257.284 252.459 259.448 250.648 264.247 247.145C267.253 245.816 268.451 243.035 268.335 239.772C268.096 237.837 270.136 236.867 270.259 234.932C270.855 232.399 270.855 232.399 273.498 232.275C280.584 232.158 287.555 232.998 294.641 232.275C297.88 232.275 298.483 232.757 298.119 236.144C297.045 242.67 298.366 249.079 298.366 255.729C298.366 262.496 309.054 258.503 312.177 265.876C320.461 275.913 311.574 291.505 298.722 289.936L298.483 289.812ZM392.17 285.943C389.89 291.505 394.457 312.901 388.932 313.382C376.436 313.864 364.303 316.645 352.054 315.923C345.57 315.923 338.243 317.127 332.239 314.711C331.396 313.864 329.951 314.346 328.993 314.711C320.585 315.923 311.458 315.923 303.166 314.229C302.207 309.273 303.405 304.199 302.447 299.243C302.084 297.666 302.687 296.819 304.132 296.462C313.375 294.286 318.544 286.789 321.783 278.329C321.783 278.088 322.022 277.847 322.022 277.723C320.461 274.46 324.31 270.715 321.667 267.934C320.701 267.087 320.222 266.241 320.701 265.036C320.824 264.547 320.701 263.949 320.106 263.7C317.942 262.255 316.744 259.715 314.217 258.744C311.458 256.569 309.054 254.276 305.33 254.152C301.002 252.824 304.008 246.422 303.529 243.035C303.885 239.29 302.81 235.903 303.645 232.034C313.614 232.034 322.749 231.91 332.478 232.034C335.6 232.64 337.641 231.552 338.599 228.406C339.325 214.026 361.42 204.237 364.187 222.486C364.666 232.998 384.125 227.683 391.451 228.165C393.012 241.582 391.568 254.152 391.691 267.569C391.931 270.715 390.972 273.978 391.691 277.117C393.252 280.139 392.294 283.045 391.814 286.067L392.17 285.943Z" fill="#141515"/>
<path d="M203.233 98.4705C202.754 96.9011 203.472 96.1711 204.315 95.2076C209.114 89.7692 210.319 83.8419 207.793 76.8341C208.156 68.2496 199.268 62.6872 191.819 60.8769C190.018 60.5119 187.738 60.8769 186.293 59.3074C180.891 55.9203 173.804 55.8035 168.518 51.9347C176.208 44.0729 186.293 37.4301 189.902 26.6703C195.544 18.5749 195.783 -5.84279 180.891 1.28906C165.875 17.3631 153.866 36.941 133.804 47.584C122.876 55.4386 108.942 55.9203 96.0906 55.5553C91.1677 56.1612 90.3254 55.0736 92.2496 50.3579C93.3315 46.4964 97.5283 42.0216 91.8865 39.4813C83.718 35.4957 75.5495 31.3859 66.9017 28.3638C67.2647 23.1664 69.4285 18.6916 67.744 13.6183C65.2244 6.36238 55.7344 -1.49214 49.0035 5.51561C42.3961 10.8371 39.5135 19.0566 34.351 25.5826C26.3059 35.7365 23.6629 48.7885 17.7743 59.6651C20.4173 47.584 25.1006 35.0139 30.3865 23.6482C31.4684 21.3488 33.7483 18.4508 31.8314 16.0345C17.1789 31.145 5.64128 91.8205 12.8514 112.369C19.8219 127.356 37.8362 117.443 41.8007 105.113C43.2383 106.807 44.9229 107.048 46.6002 106.566C52.6122 107.778 58.4935 110.07 64.7379 108.259C69.9077 108.259 69.6681 101.128 73.7488 100.281C90.5651 101.493 93.5711 121.311 107.505 127.356C110.867 127.845 111.709 130.502 114.228 132.553C121.918 134.852 148.34 150.569 153.387 146.094C152.181 145.006 149.901 145.488 150.025 143.189C154.229 142.707 157.351 145.853 161.432 145.97C163.712 146.094 166.115 145.729 168.279 147.182C182.931 146.941 186.896 139.809 181.61 126.633C188.101 125.662 194.585 124.458 193.264 116.114C202.028 113.698 205.752 105.237 203.472 98.4705H203.233ZM71.1058 83.1192C69.0655 90.6087 66.299 97.6238 63.6633 104.872C48.7639 101.734 33.9952 97.7406 18.9796 96.0543C18.3769 95.2076 18.6166 94.4776 18.9796 93.879C19.4588 93.149 19.6984 92.4263 19.2192 91.5796C18.6166 88.5575 19.6984 85.4113 21.0199 82.6374C23.2998 72.4835 24.9844 62.4463 27.9831 52.5333C28.3462 50.7229 28.9488 49.0294 30.5099 47.4599C33.7483 43.2261 34.1114 36.8242 37.8362 32.7145C39.2739 29.3274 41.0819 26.1885 42.9987 23.0423C43.2383 22.5605 43.7176 22.3196 44.5598 22.1955C59.0962 29.4515 76.1521 33.0794 90.5651 41.299C81.7939 54.11 76.7548 68.8555 70.9896 83.236L71.1058 83.1192ZM201.193 92.9081C196.625 90.0101 192.305 86.8639 187.498 83.9659C179.933 79.7321 178.727 88.9225 185.458 91.5796C193.619 95.6893 210.08 107.778 191.942 110.676C185.574 112.61 178.248 102.099 172.846 109.223C177.05 114.18 186.053 113.698 188.101 121.071C181.494 123.37 174.647 122.523 168.039 121.071C167.32 120.713 166.115 121.071 165.52 122.158C168.039 125.421 173.565 124.699 174.763 128.808C175.489 131.108 178.727 132.071 178.488 134.969C179.09 139.926 176.926 139.568 173.565 140.773C171.88 139.327 170.079 138.721 168.518 140.773C147.258 131.108 121.192 132.312 102.698 115.997C94.1665 109.223 88.0455 98.2296 77.1106 94.8426C74.4676 94.2367 74.228 93.7549 75.3099 91.3387C76.1521 88.9225 76.0287 86.499 78.0763 84.3236C80.5958 80.703 80.9589 75.3814 83.4784 71.6367C83.8414 70.9067 84.4368 70.0599 84.4368 69.3373C84.4368 66.4393 86.724 64.5048 86.9636 61.7236C87.3194 59.9133 90.0858 60.0301 91.5235 60.5119C153.503 79.2503 190.018 -29.4137 186.293 12.7716C185.095 14.9469 186.053 17.239 185.458 19.5384C184.732 21.8378 183.774 24.13 183.897 26.6703C182.815 29.0865 180.172 30.78 179.33 33.5612C178.611 35.6124 175.968 36.1015 175.605 38.3937C174.763 39.9631 172.606 40.6931 171.641 42.5034C168.881 45.4087 165.999 48.3067 162.993 50.7229C161.671 50.847 160.35 51.2047 160.11 52.6573C159.508 56.0444 163.116 58.3366 165.157 60.271C167.081 60.0301 168.279 61.7236 169.724 62.0886C172.359 63.4172 175.968 62.3295 178.132 64.1398C180.528 66.6802 180.528 66.6802 184.013 65.2275C187.135 67.5269 190.381 69.2205 193.982 70.549C202.754 74.0529 208.519 86.3822 201.432 92.7913L201.193 92.9081Z" fill="#141515"/>
<path d="M124.314 338.281C123 335.865 124.074 332.959 121.315 331.514C119.035 329.215 116.632 326.192 112.783 327.039C112.188 332.602 116.153 337.193 116.508 342.631C117.83 348.07 115.55 354.479 119.151 359.071C124.314 357.618 125.28 350.975 125.04 346.5C126.601 343.602 125.396 340.821 124.314 338.157V338.281Z" fill="#141515"/>
<path d="M349.89 313.506C359.017 313.141 368.151 313.017 377.278 312.535C374.272 311.688 352.177 312.535 349.89 313.506Z" fill="#141515"/>
<path d="M334.518 314.594C337.037 315.434 339.201 314.229 341.481 313.988C339.201 313.988 336.798 313.383 334.518 314.594Z" fill="#141515"/>
<path d="M344.248 314.104C345.33 313.747 346.528 314.71 348.089 313.017C346.412 313.257 345.33 313.382 344.248 313.506C344.248 313.747 344.248 313.863 344.248 314.104Z" fill="#141515"/>
<path d="M51.8868 95.3234C52.4895 97.2578 55.6117 98.4696 58.4943 97.9878C59.0969 94.8416 58.015 92.0604 55.1324 89.4033C52.6129 90.856 51.2914 93.389 52.0102 95.3234H51.8868Z" fill="#141515"/>
<path d="M38.1993 86.1408C34.714 84.2064 33.7483 90.1264 34.2348 92.5427C36.8778 99.9154 42.9987 89.0388 38.1993 86.1408Z" fill="#141515"/>
</svg>
